<?xml version="1.0" encoding="utf-8" standalone="no"?>
<!DOCTYPE svg PUBLIC "-//W3C//DTD SVG 1.1//EN"
  "http://www.w3.org/Graphics/SVG/1.1/DTD/svg11.dtd">
<svg xmlns:xlink="http://www.w3.org/1999/xlink" width="1152pt" height="360pt" viewBox="0 0 1152 360" xmlns="http://www.w3.org/2000/svg" version="1.1">
 <metadata>
  <rdf:RDF xmlns:dc="http://purl.org/dc/elements/1.1/" xmlns:cc="http://creativecommons.org/ns#" xmlns:rdf="http://www.w3.org/1999/02/22-rdf-syntax-ns#">
   <cc:Work>
    <dc:type rdf:resource="http://purl.org/dc/dcmitype/StillImage"/>
    <dc:date>2026-05-19T11:50:27.487505</dc:date>
    <dc:format>image/svg+xml</dc:format>
    <dc:creator>
     <cc:Agent>
      <dc:title>Matplotlib v3.10.9, https://matplotlib.org/</dc:title>
     </cc:Agent>
    </dc:creator>
   </cc:Work>
  </rdf:RDF>
 </metadata>
 <defs>
  <style type="text/css">*{stroke-linejoin: round; stroke-linecap: butt}</style>
 </defs>
 <g id="figure_1">
  <g id="patch_1">
   <path d="M 0 360 
L 1152 360 
L 1152 0 
L 0 0 
z
" style="fill: #ffffff"/>
  </g>
  <g id="axes_1">
   <g id="patch_2">
    <path d="M 51.108 308.875799 
L 1039.08675 308.875799 
L 1039.08675 23.12925 
L 51.108 23.12925 
z
" style="fill: #eaeaf2"/>
   </g>
   <g id="matplotlib.axis_1">
    <g id="xtick_1">
     <g id="text_1">
      <!-- Jan 2017 -->
      <g style="fill: #262626" transform="translate(24.269409 347.231638) rotate(-45) scale(0.088 -0.088)">
       <defs>
        <path id="ArialMT-4a" d="M 184 1300 
L 731 1375 
Q 753 850 928 656 
Q 1103 463 1413 463 
Q 1641 463 1806 567 
Q 1972 672 2034 851 
Q 2097 1031 2097 1425 
L 2097 4581 
L 2703 4581 
L 2703 1459 
Q 2703 884 2564 568 
Q 2425 253 2123 87 
Q 1822 -78 1416 -78 
Q 813 -78 492 269 
Q 172 616 184 1300 
z
" transform="scale(0.015625)"/>
        <path id="ArialMT-61" d="M 2588 409 
Q 2275 144 1986 34 
Q 1697 -75 1366 -75 
Q 819 -75 525 192 
Q 231 459 231 875 
Q 231 1119 342 1320 
Q 453 1522 633 1644 
Q 813 1766 1038 1828 
Q 1203 1872 1538 1913 
Q 2219 1994 2541 2106 
Q 2544 2222 2544 2253 
Q 2544 2597 2384 2738 
Q 2169 2928 1744 2928 
Q 1347 2928 1158 2789 
Q 969 2650 878 2297 
L 328 2372 
Q 403 2725 575 2942 
Q 747 3159 1072 3276 
Q 1397 3394 1825 3394 
Q 2250 3394 2515 3294 
Q 2781 3194 2906 3042 
Q 3031 2891 3081 2659 
Q 3109 2516 3109 2141 
L 3109 1391 
Q 3109 606 3145 398 
Q 3181 191 3288 0 
L 2700 0 
Q 2613 175 2588 409 
z
M 2541 1666 
Q 2234 1541 1622 1453 
Q 1275 1403 1131 1340 
Q 988 1278 909 1158 
Q 831 1038 831 891 
Q 831 666 1001 516 
Q 1172 366 1500 366 
Q 1825 366 2078 508 
Q 2331 650 2450 897 
Q 2541 1088 2541 1459 
L 2541 1666 
z
" transform="scale(0.015625)"/>
        <path id="ArialMT-6e" d="M 422 0 
L 422 3319 
L 928 3319 
L 928 2847 
Q 1294 3394 1984 3394 
Q 2284 3394 2536 3286 
Q 2788 3178 2913 3003 
Q 3038 2828 3088 2588 
Q 3119 2431 3119 2041 
L 3119 0 
L 2556 0 
L 2556 2019 
Q 2556 2363 2490 2533 
Q 2425 2703 2258 2804 
Q 2091 2906 1866 2906 
Q 1506 2906 1245 2678 
Q 984 2450 984 1813 
L 984 0 
L 422 0 
z
" transform="scale(0.015625)"/>
        <path id="ArialMT-20" transform="scale(0.015625)"/>
        <path id="ArialMT-32" d="M 3222 541 
L 3222 0 
L 194 0 
Q 188 203 259 391 
Q 375 700 629 1000 
Q 884 1300 1366 1694 
Q 2113 2306 2375 2664 
Q 2638 3022 2638 3341 
Q 2638 3675 2398 3904 
Q 2159 4134 1775 4134 
Q 1369 4134 1125 3890 
Q 881 3647 878 3216 
L 300 3275 
Q 359 3922 746 4261 
Q 1134 4600 1788 4600 
Q 2447 4600 2831 4234 
Q 3216 3869 3216 3328 
Q 3216 3053 3103 2787 
Q 2991 2522 2730 2228 
Q 2469 1934 1863 1422 
Q 1356 997 1212 845 
Q 1069 694 975 541 
L 3222 541 
z
" transform="scale(0.015625)"/>
        <path id="ArialMT-30" d="M 266 2259 
Q 266 3072 433 3567 
Q 600 4063 929 4331 
Q 1259 4600 1759 4600 
Q 2128 4600 2406 4451 
Q 2684 4303 2865 4023 
Q 3047 3744 3150 3342 
Q 3253 2941 3253 2259 
Q 3253 1453 3087 958 
Q 2922 463 2592 192 
Q 2263 -78 1759 -78 
Q 1097 -78 719 397 
Q 266 969 266 2259 
z
M 844 2259 
Q 844 1131 1108 757 
Q 1372 384 1759 384 
Q 2147 384 2411 759 
Q 2675 1134 2675 2259 
Q 2675 3391 2411 3762 
Q 2147 4134 1753 4134 
Q 1366 4134 1134 3806 
Q 844 3388 844 2259 
z
" transform="scale(0.015625)"/>
        <path id="ArialMT-31" d="M 2384 0 
L 1822 0 
L 1822 3584 
Q 1619 3391 1289 3197 
Q 959 3003 697 2906 
L 697 3450 
Q 1169 3672 1522 3987 
Q 1875 4303 2022 4600 
L 2384 4600 
L 2384 0 
z
" transform="scale(0.015625)"/>
        <path id="ArialMT-37" d="M 303 3981 
L 303 4522 
L 3269 4522 
L 3269 4084 
Q 2831 3619 2401 2847 
Q 1972 2075 1738 1259 
Q 1569 684 1522 0 
L 944 0 
Q 953 541 1156 1306 
Q 1359 2072 1739 2783 
Q 2119 3494 2547 3981 
L 303 3981 
z
" transform="scale(0.015625)"/>
       </defs>
       <use xlink:href="#ArialMT-4a"/>
       <use xlink:href="#ArialMT-61" transform="translate(50 0)"/>
       <use xlink:href="#ArialMT-6e" transform="translate(105.615234 0)"/>
       <use xlink:href="#ArialMT-20" transform="translate(161.230469 0)"/>
       <use xlink:href="#ArialMT-32" transform="translate(189.013672 0)"/>
       <use xlink:href="#ArialMT-30" transform="translate(244.628906 0)"/>
       <use xlink:href="#ArialMT-31" transform="translate(300.244141 0)"/>
       <use xlink:href="#ArialMT-37" transform="translate(355.859375 0)"/>
      </g>
     </g>
    </g>
    <g id="xtick_2">
     <g id="text_2">
      <!-- Feb 2017 -->
      <g style="fill: #262626" transform="translate(91.041172 347.920978) rotate(-45) scale(0.088 -0.088)">
       <defs>
        <path id="ArialMT-46" d="M 525 0 
L 525 4581 
L 3616 4581 
L 3616 4041 
L 1131 4041 
L 1131 2622 
L 3281 2622 
L 3281 2081 
L 1131 2081 
L 1131 0 
L 525 0 
z
" transform="scale(0.015625)"/>
        <path id="ArialMT-65" d="M 2694 1069 
L 3275 997 
Q 3138 488 2766 206 
Q 2394 -75 1816 -75 
Q 1088 -75 661 373 
Q 234 822 234 1631 
Q 234 2469 665 2931 
Q 1097 3394 1784 3394 
Q 2450 3394 2872 2941 
Q 3294 2488 3294 1666 
Q 3294 1616 3291 1516 
L 816 1516 
Q 847 969 1125 678 
Q 1403 388 1819 388 
Q 2128 388 2347 550 
Q 2566 713 2694 1069 
z
M 847 1978 
L 2700 1978 
Q 2663 2397 2488 2606 
Q 2219 2931 1791 2931 
Q 1403 2931 1139 2672 
Q 875 2413 847 1978 
z
" transform="scale(0.015625)"/>
        <path id="ArialMT-62" d="M 941 0 
L 419 0 
L 419 4581 
L 981 4581 
L 981 2947 
Q 1338 3394 1891 3394 
Q 2197 3394 2470 3270 
Q 2744 3147 2920 2923 
Q 3097 2700 3197 2384 
Q 3297 2069 3297 1709 
Q 3297 856 2875 390 
Q 2453 -75 1863 -75 
Q 1275 -75 941 416 
L 941 0 
z
M 934 1684 
Q 934 1088 1097 822 
Q 1363 388 1816 388 
Q 2184 388 2453 708 
Q 2722 1028 2722 1663 
Q 2722 2313 2464 2622 
Q 2206 2931 1841 2931 
Q 1472 2931 1203 2611 
Q 934 2291 934 1684 
z
" transform="scale(0.015625)"/>
       </defs>
       <use xlink:href="#ArialMT-46"/>
       <use xlink:href="#ArialMT-65" transform="translate(61.083984 0)"/>
       <use xlink:href="#ArialMT-62" transform="translate(116.699219 0)"/>
       <use xlink:href="#ArialMT-20" transform="translate(172.314453 0)"/>
       <use xlink:href="#ArialMT-32" transform="translate(200.097656 0)"/>
       <use xlink:href="#ArialMT-30" transform="translate(255.712891 0)"/>
       <use xlink:href="#ArialMT-31" transform="translate(311.328125 0)"/>
       <use xlink:href="#ArialMT-37" transform="translate(366.943359 0)"/>
      </g>
     </g>
    </g>
    <g id="xtick_3">
     <g id="text_3">
      <!-- Mar 2017 -->
      <g style="fill: #262626" transform="translate(151.979616 347.915145) rotate(-45) scale(0.088 -0.088)">
       <defs>
        <path id="ArialMT-4d" d="M 475 0 
L 475 4581 
L 1388 4581 
L 2472 1338 
Q 2622 884 2691 659 
Q 2769 909 2934 1394 
L 4031 4581 
L 4847 4581 
L 4847 0 
L 4263 0 
L 4263 3834 
L 2931 0 
L 2384 0 
L 1059 3900 
L 1059 0 
L 475 0 
z
" transform="scale(0.015625)"/>
        <path id="ArialMT-72" d="M 416 0 
L 416 3319 
L 922 3319 
L 922 2816 
Q 1116 3169 1280 3281 
Q 1444 3394 1641 3394 
Q 1925 3394 2219 3213 
L 2025 2691 
Q 1819 2813 1613 2813 
Q 1428 2813 1281 2702 
Q 1134 2591 1072 2394 
Q 978 2094 978 1738 
L 978 0 
L 416 0 
z
" transform="scale(0.015625)"/>
       </defs>
       <use xlink:href="#ArialMT-4d"/>
       <use xlink:href="#ArialMT-61" transform="translate(83.300781 0)"/>
       <use xlink:href="#ArialMT-72" transform="translate(138.916016 0)"/>
       <use xlink:href="#ArialMT-20" transform="translate(172.216797 0)"/>
       <use xlink:href="#ArialMT-32" transform="translate(200 0)"/>
       <use xlink:href="#ArialMT-30" transform="translate(255.615234 0)"/>
       <use xlink:href="#ArialMT-31" transform="translate(311.230469 0)"/>
       <use xlink:href="#ArialMT-37" transform="translate(366.845703 0)"/>
      </g>
     </g>
    </g>
    <g id="xtick_4">
     <g id="text_4">
      <!-- Apr 2017 -->
      <g style="fill: #262626" transform="translate(220.473272 346.901065) rotate(-45) scale(0.088 -0.088)">
       <defs>
        <path id="ArialMT-41" d="M -9 0 
L 1750 4581 
L 2403 4581 
L 4278 0 
L 3588 0 
L 3053 1388 
L 1138 1388 
L 634 0 
L -9 0 
z
M 1313 1881 
L 2866 1881 
L 2388 3150 
Q 2169 3728 2063 4100 
Q 1975 3659 1816 3225 
L 1313 1881 
z
" transform="scale(0.015625)"/>
        <path id="ArialMT-70" d="M 422 -1272 
L 422 3319 
L 934 3319 
L 934 2888 
Q 1116 3141 1344 3267 
Q 1572 3394 1897 3394 
Q 2322 3394 2647 3175 
Q 2972 2956 3137 2557 
Q 3303 2159 3303 1684 
Q 3303 1175 3120 767 
Q 2938 359 2589 142 
Q 2241 -75 1856 -75 
Q 1575 -75 1351 44 
Q 1128 163 984 344 
L 984 -1272 
L 422 -1272 
z
M 931 1641 
Q 931 1000 1190 694 
Q 1450 388 1819 388 
Q 2194 388 2461 705 
Q 2728 1022 2728 1688 
Q 2728 2322 2467 2637 
Q 2206 2953 1844 2953 
Q 1484 2953 1207 2617 
Q 931 2281 931 1641 
z
" transform="scale(0.015625)"/>
       </defs>
       <use xlink:href="#ArialMT-41"/>
       <use xlink:href="#ArialMT-70" transform="translate(66.699219 0)"/>
       <use xlink:href="#ArialMT-72" transform="translate(122.314453 0)"/>
       <use xlink:href="#ArialMT-20" transform="translate(155.615234 0)"/>
       <use xlink:href="#ArialMT-32" transform="translate(183.398438 0)"/>
       <use xlink:href="#ArialMT-30" transform="translate(239.013672 0)"/>
       <use xlink:href="#ArialMT-31" transform="translate(294.628906 0)"/>
       <use xlink:href="#ArialMT-37" transform="translate(350.244141 0)"/>
      </g>
     </g>
    </g>
    <g id="xtick_5">
     <g id="text_5">
      <!-- May 2017 -->
      <g style="fill: #262626" transform="translate(283.61338 348.972976) rotate(-45) scale(0.088 -0.088)">
       <defs>
        <path id="ArialMT-79" d="M 397 -1278 
L 334 -750 
Q 519 -800 656 -800 
Q 844 -800 956 -737 
Q 1069 -675 1141 -563 
Q 1194 -478 1313 -144 
Q 1328 -97 1363 -6 
L 103 3319 
L 709 3319 
L 1400 1397 
Q 1534 1031 1641 628 
Q 1738 1016 1872 1384 
L 2581 3319 
L 3144 3319 
L 1881 -56 
Q 1678 -603 1566 -809 
Q 1416 -1088 1222 -1217 
Q 1028 -1347 759 -1347 
Q 597 -1347 397 -1278 
z
" transform="scale(0.015625)"/>
       </defs>
       <use xlink:href="#ArialMT-4d"/>
       <use xlink:href="#ArialMT-61" transform="translate(83.300781 0)"/>
       <use xlink:href="#ArialMT-79" transform="translate(138.916016 0)"/>
       <use xlink:href="#ArialMT-20" transform="translate(188.916016 0)"/>
       <use xlink:href="#ArialMT-32" transform="translate(216.699219 0)"/>
       <use xlink:href="#ArialMT-30" transform="translate(272.314453 0)"/>
       <use xlink:href="#ArialMT-31" transform="translate(327.929688 0)"/>
       <use xlink:href="#ArialMT-37" transform="translate(383.544922 0)"/>
      </g>
     </g>
    </g>
    <g id="xtick_6">
     <g id="text_6">
      <!-- Jun 2017 -->
      <g style="fill: #262626" transform="translate(352.87027 347.231638) rotate(-45) scale(0.088 -0.088)">
       <defs>
        <path id="ArialMT-75" d="M 2597 0 
L 2597 488 
Q 2209 -75 1544 -75 
Q 1250 -75 995 37 
Q 741 150 617 320 
Q 494 491 444 738 
Q 409 903 409 1263 
L 409 3319 
L 972 3319 
L 972 1478 
Q 972 1038 1006 884 
Q 1059 663 1231 536 
Q 1403 409 1656 409 
Q 1909 409 2131 539 
Q 2353 669 2445 892 
Q 2538 1116 2538 1541 
L 2538 3319 
L 3100 3319 
L 3100 0 
L 2597 0 
z
" transform="scale(0.015625)"/>
       </defs>
       <use xlink:href="#ArialMT-4a"/>
       <use xlink:href="#ArialMT-75" transform="translate(50 0)"/>
       <use xlink:href="#ArialMT-6e" transform="translate(105.615234 0)"/>
       <use xlink:href="#ArialMT-20" transform="translate(161.230469 0)"/>
       <use xlink:href="#ArialMT-32" transform="translate(189.013672 0)"/>
       <use xlink:href="#ArialMT-30" transform="translate(244.628906 0)"/>
       <use xlink:href="#ArialMT-31" transform="translate(300.244141 0)"/>
       <use xlink:href="#ArialMT-37" transform="translate(355.859375 0)"/>
      </g>
     </g>
    </g>
    <g id="xtick_7">
     <g id="text_7">
      <!-- Jul 2017 -->
      <g style="fill: #262626" transform="translate(420.232955 345.153893) rotate(-45) scale(0.088 -0.088)">
       <defs>
        <path id="ArialMT-6c" d="M 409 0 
L 409 4581 
L 972 4581 
L 972 0 
L 409 0 
z
" transform="scale(0.015625)"/>
       </defs>
       <use xlink:href="#ArialMT-4a"/>
       <use xlink:href="#ArialMT-75" transform="translate(50 0)"/>
       <use xlink:href="#ArialMT-6c" transform="translate(105.615234 0)"/>
       <use xlink:href="#ArialMT-20" transform="translate(127.832031 0)"/>
       <use xlink:href="#ArialMT-32" transform="translate(155.615234 0)"/>
       <use xlink:href="#ArialMT-30" transform="translate(211.230469 0)"/>
       <use xlink:href="#ArialMT-31" transform="translate(266.845703 0)"/>
       <use xlink:href="#ArialMT-37" transform="translate(322.460938 0)"/>
      </g>
     </g>
    </g>
    <g id="xtick_8">
     <g id="text_8">
      <!-- Aug 2017 -->
      <g style="fill: #262626" transform="translate(484.504035 348.289469) rotate(-45) scale(0.088 -0.088)">
       <defs>
        <path id="ArialMT-67" d="M 319 -275 
L 866 -356 
Q 900 -609 1056 -725 
Q 1266 -881 1628 -881 
Q 2019 -881 2231 -725 
Q 2444 -569 2519 -288 
Q 2563 -116 2559 434 
Q 2191 0 1641 0 
Q 956 0 581 494 
Q 206 988 206 1678 
Q 206 2153 378 2554 
Q 550 2956 876 3175 
Q 1203 3394 1644 3394 
Q 2231 3394 2613 2919 
L 2613 3319 
L 3131 3319 
L 3131 450 
Q 3131 -325 2973 -648 
Q 2816 -972 2473 -1159 
Q 2131 -1347 1631 -1347 
Q 1038 -1347 672 -1080 
Q 306 -813 319 -275 
z
M 784 1719 
Q 784 1066 1043 766 
Q 1303 466 1694 466 
Q 2081 466 2343 764 
Q 2606 1063 2606 1700 
Q 2606 2309 2336 2618 
Q 2066 2928 1684 2928 
Q 1309 2928 1046 2623 
Q 784 2319 784 1719 
z
" transform="scale(0.015625)"/>
       </defs>
       <use xlink:href="#ArialMT-41"/>
       <use xlink:href="#ArialMT-75" transform="translate(66.699219 0)"/>
       <use xlink:href="#ArialMT-67" transform="translate(122.314453 0)"/>
       <use xlink:href="#ArialMT-20" transform="translate(177.929688 0)"/>
       <use xlink:href="#ArialMT-32" transform="translate(205.712891 0)"/>
       <use xlink:href="#ArialMT-30" transform="translate(261.328125 0)"/>
       <use xlink:href="#ArialMT-31" transform="translate(316.943359 0)"/>
       <use xlink:href="#ArialMT-37" transform="translate(372.558594 0)"/>
      </g>
     </g>
    </g>
    <g id="xtick_9">
     <g id="text_9">
      <!-- Sep 2017 -->
      <g style="fill: #262626" transform="translate(552.038059 348.346833) rotate(-45) scale(0.088 -0.088)">
       <defs>
        <path id="ArialMT-53" d="M 288 1472 
L 859 1522 
Q 900 1178 1048 958 
Q 1197 738 1509 602 
Q 1822 466 2213 466 
Q 2559 466 2825 569 
Q 3091 672 3220 851 
Q 3350 1031 3350 1244 
Q 3350 1459 3225 1620 
Q 3100 1781 2813 1891 
Q 2628 1963 1997 2114 
Q 1366 2266 1113 2400 
Q 784 2572 623 2826 
Q 463 3081 463 3397 
Q 463 3744 659 4045 
Q 856 4347 1234 4503 
Q 1613 4659 2075 4659 
Q 2584 4659 2973 4495 
Q 3363 4331 3572 4012 
Q 3781 3694 3797 3291 
L 3216 3247 
Q 3169 3681 2898 3903 
Q 2628 4125 2100 4125 
Q 1550 4125 1298 3923 
Q 1047 3722 1047 3438 
Q 1047 3191 1225 3031 
Q 1400 2872 2139 2705 
Q 2878 2538 3153 2413 
Q 3553 2228 3743 1945 
Q 3934 1663 3934 1294 
Q 3934 928 3725 604 
Q 3516 281 3123 101 
Q 2731 -78 2241 -78 
Q 1619 -78 1198 103 
Q 778 284 539 648 
Q 300 1013 288 1472 
z
" transform="scale(0.015625)"/>
       </defs>
       <use xlink:href="#ArialMT-53"/>
       <use xlink:href="#ArialMT-65" transform="translate(66.699219 0)"/>
       <use xlink:href="#ArialMT-70" transform="translate(122.314453 0)"/>
       <use xlink:href="#ArialMT-20" transform="translate(177.929688 0)"/>
       <use xlink:href="#ArialMT-32" transform="translate(205.712891 0)"/>
       <use xlink:href="#ArialMT-30" transform="translate(261.328125 0)"/>
       <use xlink:href="#ArialMT-31" transform="translate(316.943359 0)"/>
       <use xlink:href="#ArialMT-37" transform="translate(372.558594 0)"/>
      </g>
     </g>
    </g>
    <g id="xtick_10">
     <g id="text_10">
      <!-- Oct 2017 -->
      <g style="fill: #262626" transform="translate(618.71432 346.879675) rotate(-45) scale(0.088 -0.088)">
       <defs>
        <path id="ArialMT-4f" d="M 309 2231 
Q 309 3372 921 4017 
Q 1534 4663 2503 4663 
Q 3138 4663 3647 4359 
Q 4156 4056 4423 3514 
Q 4691 2972 4691 2284 
Q 4691 1588 4409 1038 
Q 4128 488 3612 205 
Q 3097 -78 2500 -78 
Q 1853 -78 1343 234 
Q 834 547 571 1087 
Q 309 1628 309 2231 
z
M 934 2222 
Q 934 1394 1379 917 
Q 1825 441 2497 441 
Q 3181 441 3623 922 
Q 4066 1403 4066 2288 
Q 4066 2847 3877 3264 
Q 3688 3681 3323 3911 
Q 2959 4141 2506 4141 
Q 1863 4141 1398 3698 
Q 934 3256 934 2222 
z
" transform="scale(0.015625)"/>
        <path id="ArialMT-63" d="M 2588 1216 
L 3141 1144 
Q 3050 572 2676 248 
Q 2303 -75 1759 -75 
Q 1078 -75 664 370 
Q 250 816 250 1647 
Q 250 2184 428 2587 
Q 606 2991 970 3192 
Q 1334 3394 1763 3394 
Q 2303 3394 2647 3120 
Q 2991 2847 3088 2344 
L 2541 2259 
Q 2463 2594 2264 2762 
Q 2066 2931 1784 2931 
Q 1359 2931 1093 2626 
Q 828 2322 828 1663 
Q 828 994 1084 691 
Q 1341 388 1753 388 
Q 2084 388 2306 591 
Q 2528 794 2588 1216 
z
" transform="scale(0.015625)"/>
        <path id="ArialMT-74" d="M 1650 503 
L 1731 6 
Q 1494 -44 1306 -44 
Q 1000 -44 831 53 
Q 663 150 594 308 
Q 525 466 525 972 
L 525 2881 
L 113 2881 
L 113 3319 
L 525 3319 
L 525 4141 
L 1084 4478 
L 1084 3319 
L 1650 3319 
L 1650 2881 
L 1084 2881 
L 1084 941 
Q 1084 700 1114 631 
Q 1144 563 1211 522 
Q 1278 481 1403 481 
Q 1497 481 1650 503 
z
" transform="scale(0.015625)"/>
       </defs>
       <use xlink:href="#ArialMT-4f"/>
       <use xlink:href="#ArialMT-63" transform="translate(77.783203 0)"/>
       <use xlink:href="#ArialMT-74" transform="translate(127.783203 0)"/>
       <use xlink:href="#ArialMT-20" transform="translate(155.566406 0)"/>
       <use xlink:href="#ArialMT-32" transform="translate(183.349609 0)"/>
       <use xlink:href="#ArialMT-30" transform="translate(238.964844 0)"/>
       <use xlink:href="#ArialMT-31" transform="translate(294.580078 0)"/>
       <use xlink:href="#ArialMT-37" transform="translate(350.195312 0)"/>
      </g>
     </g>
    </g>
    <g id="xtick_11">
     <g id="text_11">
      <!-- Nov 2017 -->
      <g style="fill: #262626" transform="translate(684.789936 348.265163) rotate(-45) scale(0.088 -0.088)">
       <defs>
        <path id="ArialMT-4e" d="M 488 0 
L 488 4581 
L 1109 4581 
L 3516 984 
L 3516 4581 
L 4097 4581 
L 4097 0 
L 3475 0 
L 1069 3600 
L 1069 0 
L 488 0 
z
" transform="scale(0.015625)"/>
        <path id="ArialMT-6f" d="M 213 1659 
Q 213 2581 725 3025 
Q 1153 3394 1769 3394 
Q 2453 3394 2887 2945 
Q 3322 2497 3322 1706 
Q 3322 1066 3130 698 
Q 2938 331 2570 128 
Q 2203 -75 1769 -75 
Q 1072 -75 642 372 
Q 213 819 213 1659 
z
M 791 1659 
Q 791 1022 1069 705 
Q 1347 388 1769 388 
Q 2188 388 2466 706 
Q 2744 1025 2744 1678 
Q 2744 2294 2464 2611 
Q 2184 2928 1769 2928 
Q 1347 2928 1069 2612 
Q 791 2297 791 1659 
z
" transform="scale(0.015625)"/>
        <path id="ArialMT-76" d="M 1344 0 
L 81 3319 
L 675 3319 
L 1388 1331 
Q 1503 1009 1600 663 
Q 1675 925 1809 1294 
L 2547 3319 
L 3125 3319 
L 1869 0 
L 1344 0 
z
" transform="scale(0.015625)"/>
       </defs>
       <use xlink:href="#ArialMT-4e"/>
       <use xlink:href="#ArialMT-6f" transform="translate(72.216797 0)"/>
       <use xlink:href="#ArialMT-76" transform="translate(127.832031 0)"/>
       <use xlink:href="#ArialMT-20" transform="translate(177.832031 0)"/>
       <use xlink:href="#ArialMT-32" transform="translate(205.615234 0)"/>
       <use xlink:href="#ArialMT-30" transform="translate(261.230469 0)"/>
       <use xlink:href="#ArialMT-31" transform="translate(316.845703 0)"/>
       <use xlink:href="#ArialMT-37" transform="translate(372.460938 0)"/>
      </g>
     </g>
    </g>
    <g id="xtick_12">
     <g id="text_12">
      <!-- Dec 2017 -->
      <g style="fill: #262626" transform="translate(750.074876 348.265163) rotate(-45) scale(0.088 -0.088)">
       <defs>
        <path id="ArialMT-44" d="M 494 0 
L 494 4581 
L 2072 4581 
Q 2606 4581 2888 4516 
Q 3281 4425 3559 4188 
Q 3922 3881 4101 3404 
Q 4281 2928 4281 2316 
Q 4281 1794 4159 1391 
Q 4038 988 3847 723 
Q 3656 459 3429 307 
Q 3203 156 2883 78 
Q 2563 0 2147 0 
L 494 0 
z
M 1100 541 
L 2078 541 
Q 2531 541 2789 625 
Q 3047 709 3200 863 
Q 3416 1078 3536 1442 
Q 3656 1806 3656 2325 
Q 3656 3044 3420 3430 
Q 3184 3816 2847 3947 
Q 2603 4041 2063 4041 
L 1100 4041 
L 1100 541 
z
" transform="scale(0.015625)"/>
       </defs>
       <use xlink:href="#ArialMT-44"/>
       <use xlink:href="#ArialMT-65" transform="translate(72.216797 0)"/>
       <use xlink:href="#ArialMT-63" transform="translate(127.832031 0)"/>
       <use xlink:href="#ArialMT-20" transform="translate(177.832031 0)"/>
       <use xlink:href="#ArialMT-32" transform="translate(205.615234 0)"/>
       <use xlink:href="#ArialMT-30" transform="translate(261.230469 0)"/>
       <use xlink:href="#ArialMT-31" transform="translate(316.845703 0)"/>
       <use xlink:href="#ArialMT-37" transform="translate(372.460938 0)"/>
      </g>
     </g>
    </g>
    <g id="xtick_13">
     <g id="text_13">
      <!-- Jan 2018 -->
      <g style="fill: #262626" transform="translate(818.569505 347.231638) rotate(-45) scale(0.088 -0.088)">
       <defs>
        <path id="ArialMT-38" d="M 1131 2484 
Q 781 2613 612 2850 
Q 444 3088 444 3419 
Q 444 3919 803 4259 
Q 1163 4600 1759 4600 
Q 2359 4600 2725 4251 
Q 3091 3903 3091 3403 
Q 3091 3084 2923 2848 
Q 2756 2613 2416 2484 
Q 2838 2347 3058 2040 
Q 3278 1734 3278 1309 
Q 3278 722 2862 322 
Q 2447 -78 1769 -78 
Q 1091 -78 675 323 
Q 259 725 259 1325 
Q 259 1772 486 2073 
Q 713 2375 1131 2484 
z
M 1019 3438 
Q 1019 3113 1228 2906 
Q 1438 2700 1772 2700 
Q 2097 2700 2305 2904 
Q 2513 3109 2513 3406 
Q 2513 3716 2298 3927 
Q 2084 4138 1766 4138 
Q 1444 4138 1231 3931 
Q 1019 3725 1019 3438 
z
M 838 1322 
Q 838 1081 952 856 
Q 1066 631 1291 507 
Q 1516 384 1775 384 
Q 2178 384 2440 643 
Q 2703 903 2703 1303 
Q 2703 1709 2433 1975 
Q 2163 2241 1756 2241 
Q 1359 2241 1098 1978 
Q 838 1716 838 1322 
z
" transform="scale(0.015625)"/>
       </defs>
       <use xlink:href="#ArialMT-4a"/>
       <use xlink:href="#ArialMT-61" transform="translate(50 0)"/>
       <use xlink:href="#ArialMT-6e" transform="translate(105.615234 0)"/>
       <use xlink:href="#ArialMT-20" transform="translate(161.230469 0)"/>
       <use xlink:href="#ArialMT-32" transform="translate(189.013672 0)"/>
       <use xlink:href="#ArialMT-30" transform="translate(244.628906 0)"/>
       <use xlink:href="#ArialMT-31" transform="translate(300.244141 0)"/>
       <use xlink:href="#ArialMT-38" transform="translate(355.859375 0)"/>
      </g>
     </g>
    </g>
    <g id="xtick_14">
     <g id="text_14">
      <!-- Feb 2018 -->
      <g style="fill: #262626" transform="translate(885.341268 347.920978) rotate(-45) scale(0.088 -0.088)">
       <use xlink:href="#ArialMT-46"/>
       <use xlink:href="#ArialMT-65" transform="translate(61.083984 0)"/>
       <use xlink:href="#ArialMT-62" transform="translate(116.699219 0)"/>
       <use xlink:href="#ArialMT-20" transform="translate(172.314453 0)"/>
       <use xlink:href="#ArialMT-32" transform="translate(200.097656 0)"/>
       <use xlink:href="#ArialMT-30" transform="translate(255.712891 0)"/>
       <use xlink:href="#ArialMT-31" transform="translate(311.328125 0)"/>
       <use xlink:href="#ArialMT-38" transform="translate(366.943359 0)"/>
      </g>
     </g>
    </g>
    <g id="xtick_15">
     <g id="text_15">
      <!-- Mar 2018 -->
      <g style="fill: #262626" transform="translate(946.279712 347.915145) rotate(-45) scale(0.088 -0.088)">
       <use xlink:href="#ArialMT-4d"/>
       <use xlink:href="#ArialMT-61" transform="translate(83.300781 0)"/>
       <use xlink:href="#ArialMT-72" transform="translate(138.916016 0)"/>
       <use xlink:href="#ArialMT-20" transform="translate(172.216797 0)"/>
       <use xlink:href="#ArialMT-32" transform="translate(200 0)"/>
       <use xlink:href="#ArialMT-30" transform="translate(255.615234 0)"/>
       <use xlink:href="#ArialMT-31" transform="translate(311.230469 0)"/>
       <use xlink:href="#ArialMT-38" transform="translate(366.845703 0)"/>
      </g>
     </g>
    </g>
   </g>
   <g id="matplotlib.axis_2">
    <g id="ytick_1">
     <g id="line2d_1">
      <defs>
       <path id="mc295262a8f" d="M 0 0 
L -4.8 0 
" style="stroke: #262626"/>
      </defs>
      <g>
       <use xlink:href="#mc295262a8f" x="51.108" y="296.056882" style="fill: #262626; stroke: #262626"/>
      </g>
     </g>
     <g id="text_16">
      <!-- 0 -->
      <g style="fill: #378add" transform="translate(37.914375 299.206319) scale(0.088 -0.088)">
       <use xlink:href="#ArialMT-30"/>
      </g>
     </g>
    </g>
    <g id="ytick_2">
     <g id="line2d_2">
      <g>
       <use xlink:href="#mc295262a8f" x="51.108" y="262.144403" style="fill: #262626; stroke: #262626"/>
      </g>
     </g>
     <g id="text_17">
      <!-- 200 -->
      <g style="fill: #378add" transform="translate(28.127125 265.29384) scale(0.088 -0.088)">
       <use xlink:href="#ArialMT-32"/>
       <use xlink:href="#ArialMT-30" transform="translate(55.615234 0)"/>
       <use xlink:href="#ArialMT-30" transform="translate(111.230469 0)"/>
      </g>
     </g>
    </g>
    <g id="ytick_3">
     <g id="line2d_3">
      <g>
       <use xlink:href="#mc295262a8f" x="51.108" y="228.231923" style="fill: #262626; stroke: #262626"/>
      </g>
     </g>
     <g id="text_18">
      <!-- 400 -->
      <g style="fill: #378add" transform="translate(28.127125 231.381361) scale(0.088 -0.088)">
       <defs>
        <path id="ArialMT-34" d="M 2069 0 
L 2069 1097 
L 81 1097 
L 81 1613 
L 2172 4581 
L 2631 4581 
L 2631 1613 
L 3250 1613 
L 3250 1097 
L 2631 1097 
L 2631 0 
L 2069 0 
z
M 2069 1613 
L 2069 3678 
L 634 1613 
L 2069 1613 
z
" transform="scale(0.015625)"/>
       </defs>
       <use xlink:href="#ArialMT-34"/>
       <use xlink:href="#ArialMT-30" transform="translate(55.615234 0)"/>
       <use xlink:href="#ArialMT-30" transform="translate(111.230469 0)"/>
      </g>
     </g>
    </g>
    <g id="ytick_4">
     <g id="line2d_4">
      <g>
       <use xlink:href="#mc295262a8f" x="51.108" y="194.319444" style="fill: #262626; stroke: #262626"/>
      </g>
     </g>
     <g id="text_19">
      <!-- 600 -->
      <g style="fill: #378add" transform="translate(28.127125 197.468882) scale(0.088 -0.088)">
       <defs>
        <path id="ArialMT-36" d="M 3184 3459 
L 2625 3416 
Q 2550 3747 2413 3897 
Q 2184 4138 1850 4138 
Q 1581 4138 1378 3988 
Q 1113 3794 959 3422 
Q 806 3050 800 2363 
Q 1003 2672 1297 2822 
Q 1591 2972 1913 2972 
Q 2475 2972 2870 2558 
Q 3266 2144 3266 1488 
Q 3266 1056 3080 686 
Q 2894 316 2569 119 
Q 2244 -78 1831 -78 
Q 1128 -78 684 439 
Q 241 956 241 2144 
Q 241 3472 731 4075 
Q 1159 4600 1884 4600 
Q 2425 4600 2770 4297 
Q 3116 3994 3184 3459 
z
M 888 1484 
Q 888 1194 1011 928 
Q 1134 663 1356 523 
Q 1578 384 1822 384 
Q 2178 384 2434 671 
Q 2691 959 2691 1453 
Q 2691 1928 2437 2201 
Q 2184 2475 1800 2475 
Q 1419 2475 1153 2201 
Q 888 1928 888 1484 
z
" transform="scale(0.015625)"/>
       </defs>
       <use xlink:href="#ArialMT-36"/>
       <use xlink:href="#ArialMT-30" transform="translate(55.615234 0)"/>
       <use xlink:href="#ArialMT-30" transform="translate(111.230469 0)"/>
      </g>
     </g>
    </g>
    <g id="ytick_5">
     <g id="line2d_5">
      <g>
       <use xlink:href="#mc295262a8f" x="51.108" y="160.406965" style="fill: #262626; stroke: #262626"/>
      </g>
     </g>
     <g id="text_20">
      <!-- 800 -->
      <g style="fill: #378add" transform="translate(28.127125 163.556403) scale(0.088 -0.088)">
       <use xlink:href="#ArialMT-38"/>
       <use xlink:href="#ArialMT-30" transform="translate(55.615234 0)"/>
       <use xlink:href="#ArialMT-30" transform="translate(111.230469 0)"/>
      </g>
     </g>
    </g>
    <g id="ytick_6">
     <g id="line2d_6">
      <g>
       <use xlink:href="#mc295262a8f" x="51.108" y="126.494486" style="fill: #262626; stroke: #262626"/>
      </g>
     </g>
     <g id="text_21">
      <!-- 1000 -->
      <g style="fill: #378add" transform="translate(23.2335 129.643924) scale(0.088 -0.088)">
       <use xlink:href="#ArialMT-31"/>
       <use xlink:href="#ArialMT-30" transform="translate(55.615234 0)"/>
       <use xlink:href="#ArialMT-30" transform="translate(111.230469 0)"/>
       <use xlink:href="#ArialMT-30" transform="translate(166.845703 0)"/>
      </g>
     </g>
    </g>
    <g id="ytick_7">
     <g id="line2d_7">
      <g>
       <use xlink:href="#mc295262a8f" x="51.108" y="92.582007" style="fill: #262626; stroke: #262626"/>
      </g>
     </g>
     <g id="text_22">
      <!-- 1200 -->
      <g style="fill: #378add" transform="translate(23.2335 95.731445) scale(0.088 -0.088)">
       <use xlink:href="#ArialMT-31"/>
       <use xlink:href="#ArialMT-32" transform="translate(55.615234 0)"/>
       <use xlink:href="#ArialMT-30" transform="translate(111.230469 0)"/>
       <use xlink:href="#ArialMT-30" transform="translate(166.845703 0)"/>
      </g>
     </g>
    </g>
    <g id="ytick_8">
     <g id="line2d_8">
      <g>
       <use xlink:href="#mc295262a8f" x="51.108" y="58.669528" style="fill: #262626; stroke: #262626"/>
      </g>
     </g>
     <g id="text_23">
      <!-- 1400 -->
      <g style="fill: #378add" transform="translate(23.2335 61.818966) scale(0.088 -0.088)">
       <use xlink:href="#ArialMT-31"/>
       <use xlink:href="#ArialMT-34" transform="translate(55.615234 0)"/>
       <use xlink:href="#ArialMT-30" transform="translate(111.230469 0)"/>
       <use xlink:href="#ArialMT-30" transform="translate(166.845703 0)"/>
      </g>
     </g>
    </g>
    <g id="ytick_9">
     <g id="line2d_9">
      <g>
       <use xlink:href="#mc295262a8f" x="51.108" y="24.757049" style="fill: #262626; stroke: #262626"/>
      </g>
     </g>
     <g id="text_24">
      <!-- 1600 -->
      <g style="fill: #378add" transform="translate(23.2335 27.906486) scale(0.088 -0.088)">
       <use xlink:href="#ArialMT-31"/>
       <use xlink:href="#ArialMT-36" transform="translate(55.615234 0)"/>
       <use xlink:href="#ArialMT-30" transform="translate(111.230469 0)"/>
       <use xlink:href="#ArialMT-30" transform="translate(166.845703 0)"/>
      </g>
     </g>
    </g>
    <g id="text_25">
     <!-- Avg orders / day -->
     <g style="fill: #378add" transform="translate(17.213 200.866274) rotate(-90) scale(0.096 -0.096)">
      <defs>
       <path id="ArialMT-64" d="M 2575 0 
L 2575 419 
Q 2259 -75 1647 -75 
Q 1250 -75 917 144 
Q 584 363 401 755 
Q 219 1147 219 1656 
Q 219 2153 384 2558 
Q 550 2963 881 3178 
Q 1213 3394 1622 3394 
Q 1922 3394 2156 3267 
Q 2391 3141 2538 2938 
L 2538 4581 
L 3097 4581 
L 3097 0 
L 2575 0 
z
M 797 1656 
Q 797 1019 1065 703 
Q 1334 388 1700 388 
Q 2069 388 2326 689 
Q 2584 991 2584 1609 
Q 2584 2291 2321 2609 
Q 2059 2928 1675 2928 
Q 1300 2928 1048 2622 
Q 797 2316 797 1656 
z
" transform="scale(0.015625)"/>
       <path id="ArialMT-73" d="M 197 991 
L 753 1078 
Q 800 744 1014 566 
Q 1228 388 1613 388 
Q 2000 388 2187 545 
Q 2375 703 2375 916 
Q 2375 1106 2209 1216 
Q 2094 1291 1634 1406 
Q 1016 1563 777 1677 
Q 538 1791 414 1992 
Q 291 2194 291 2438 
Q 291 2659 392 2848 
Q 494 3038 669 3163 
Q 800 3259 1026 3326 
Q 1253 3394 1513 3394 
Q 1903 3394 2198 3281 
Q 2494 3169 2634 2976 
Q 2775 2784 2828 2463 
L 2278 2388 
Q 2241 2644 2061 2787 
Q 1881 2931 1553 2931 
Q 1166 2931 1000 2803 
Q 834 2675 834 2503 
Q 834 2394 903 2306 
Q 972 2216 1119 2156 
Q 1203 2125 1616 2013 
Q 2213 1853 2448 1751 
Q 2684 1650 2818 1456 
Q 2953 1263 2953 975 
Q 2953 694 2789 445 
Q 2625 197 2315 61 
Q 2006 -75 1616 -75 
Q 969 -75 630 194 
Q 291 463 197 991 
z
" transform="scale(0.015625)"/>
       <path id="ArialMT-2f" d="M 0 -78 
L 1328 4659 
L 1778 4659 
L 453 -78 
L 0 -78 
z
" transform="scale(0.015625)"/>
      </defs>
      <use xlink:href="#ArialMT-41"/>
      <use xlink:href="#ArialMT-76" transform="translate(64.949219 0)"/>
      <use xlink:href="#ArialMT-67" transform="translate(114.949219 0)"/>
      <use xlink:href="#ArialMT-20" transform="translate(170.564453 0)"/>
      <use xlink:href="#ArialMT-6f" transform="translate(198.347656 0)"/>
      <use xlink:href="#ArialMT-72" transform="translate(253.962891 0)"/>
      <use xlink:href="#ArialMT-64" transform="translate(287.263672 0)"/>
      <use xlink:href="#ArialMT-65" transform="translate(342.878906 0)"/>
      <use xlink:href="#ArialMT-72" transform="translate(398.494141 0)"/>
      <use xlink:href="#ArialMT-73" transform="translate(431.794922 0)"/>
      <use xlink:href="#ArialMT-20" transform="translate(481.794922 0)"/>
      <use xlink:href="#ArialMT-2f" transform="translate(509.578125 0)"/>
      <use xlink:href="#ArialMT-20" transform="translate(537.361328 0)"/>
      <use xlink:href="#ArialMT-64" transform="translate(565.144531 0)"/>
      <use xlink:href="#ArialMT-61" transform="translate(620.759766 0)"/>
      <use xlink:href="#ArialMT-79" transform="translate(676.375 0)"/>
     </g>
    </g>
   </g>
   <g id="line2d_10">
    <path d="M 51.108 277.574581 
L 53.284165 245.188163 
L 55.460329 249.088098 
L 57.636494 273.674645 
L 59.812659 273.335521 
L 61.988823 278.591955 
L 64.164988 273.844208 
L 66.341153 269.435586 
L 68.517317 252.988033 
L 70.693482 262.65309 
L 72.869646 260.957466 
L 75.045811 268.587774 
L 77.221976 253.157596 
L 79.39814 280.118016 
L 81.574305 276.557206 
L 83.75047 261.635715 
L 85.926634 267.231274 
L 88.102799 267.909524 
L 90.278964 278.422393 
L 92.455128 273.844208 
L 94.631293 285.883138 
L 96.807458 276.726769 
L 98.983622 258.244467 
L 101.159787 277.574581 
L 103.335952 273.844208 
L 105.512116 277.405018 
L 107.688281 258.41403 
L 109.864445 279.609329 
L 112.04061 275.031145 
L 114.216775 254.17497 
L 116.392939 263.161777 
L 118.569104 275.200707 
L 120.745269 279.100642 
L 122.921433 281.135391 
L 125.097598 286.73095 
L 127.273763 285.883138 
L 129.449927 276.557206 
L 131.626092 277.235456 
L 133.802257 277.065893 
L 135.978421 277.065893 
L 138.154586 282.661452 
L 140.330751 285.544013 
L 142.506915 279.439767 
L 144.68308 268.248649 
L 146.859244 273.505083 
L 149.035409 268.418211 
L 151.211574 279.100642 
L 153.387738 279.948454 
L 155.563903 285.035326 
L 157.740068 286.391825 
L 159.916232 277.744143 
L 162.092397 278.25283 
L 164.268562 286.0527 
L 166.444726 294.869945 
L 168.620891 295.717757 
L 170.797056 295.887319 
L 172.97322 294.700382 
L 175.149385 294.191695 
L 177.32555 294.53082 
L 179.501714 294.191695 
L 181.677879 295.548194 
L 183.854044 295.717757 
L 186.030208 295.717757 
L 192.558702 294.700382 
L 194.734867 295.20907 
L 196.911031 294.700382 
L 199.087196 294.869945 
L 201.263361 295.887319 
L 203.439525 295.20907 
L 205.61569 295.20907 
L 207.791855 294.700382 
L 209.968019 295.039507 
L 212.144184 295.20907 
L 214.320349 294.869945 
L 216.496513 295.378632 
L 218.672678 295.717757 
L 220.848843 295.039507 
L 223.025007 294.700382 
L 225.201172 294.53082 
L 227.377336 294.53082 
L 229.553501 292.156947 
L 231.729666 295.548194 
L 233.90583 295.717757 
L 236.081995 294.361258 
L 238.25816 294.700382 
L 240.434324 294.361258 
L 242.610489 294.700382 
L 244.786654 294.53082 
L 246.962818 294.869945 
L 249.138983 294.361258 
L 251.315148 289.613511 
L 253.491312 293.004759 
L 255.667477 293.174321 
L 257.843642 293.513446 
L 260.019806 293.513446 
L 262.195971 295.039507 
L 264.372135 294.191695 
L 266.5483 288.596136 
L 268.724465 288.257011 
L 270.900629 285.544013 
L 273.076794 290.97001 
L 275.252959 289.952635 
L 277.429123 289.783073 
L 279.605288 288.596136 
L 281.781453 282.322328 
L 283.957617 281.644078 
L 286.133782 277.235456 
L 288.309947 278.083268 
L 290.486111 263.161777 
L 292.662276 287.578762 
L 294.838441 286.222263 
L 297.014605 280.287579 
L 299.19077 281.644078 
L 301.366934 284.357076 
L 303.543099 284.865764 
L 305.719264 281.644078 
L 307.895428 287.239637 
L 310.071593 289.104823 
L 312.247758 287.239637 
L 314.423922 283.678827 
L 316.600087 281.81364 
L 318.776252 285.204888 
L 320.952416 282.831015 
L 323.128581 287.917887 
L 325.304746 287.070075 
L 327.48091 280.457141 
L 329.657075 285.883138 
L 331.83324 285.883138 
L 334.009404 279.609329 
L 336.185569 284.865764 
L 338.361733 289.104823 
L 340.537898 293.852571 
L 342.714063 285.204888 
L 344.890227 283.678827 
L 347.066392 283.678827 
L 349.242557 286.391825 
L 351.418721 287.070075 
L 353.594886 293.343883 
L 355.771051 293.174321 
L 357.947215 286.391825 
L 360.12338 285.883138 
L 362.299545 286.0527 
L 364.475709 283.000577 
L 366.651874 287.239637 
L 368.828039 294.022133 
L 371.004203 290.97001 
L 373.180368 274.69202 
L 375.356532 284.526639 
L 377.532697 282.831015 
L 379.708862 283.17014 
L 381.885026 285.204888 
L 384.061191 289.274386 
L 386.237356 290.630885 
L 388.41352 282.49189 
L 390.589685 283.339702 
L 392.76585 286.561388 
L 394.942014 285.544013 
L 397.118179 288.596136 
L 399.294344 295.378632 
L 401.470508 294.191695 
L 403.646673 283.848389 
L 405.822838 289.274386 
L 407.999002 290.122198 
L 410.175167 291.309135 
L 412.351331 291.817822 
L 414.527496 295.20907 
L 416.703661 294.53082 
L 418.879825 289.443948 
L 421.05599 285.374451 
L 423.232155 286.73095 
L 425.408319 289.443948 
L 427.584484 287.070075 
L 429.760649 291.478697 
L 431.936813 287.748324 
L 434.112978 277.913705 
L 436.289143 281.135391 
L 438.465307 279.270205 
L 440.641472 280.796266 
L 442.817637 281.644078 
L 444.993801 284.696201 
L 447.169966 288.426574 
L 449.346131 273.505083 
L 451.522295 277.913705 
L 453.69846 259.600967 
L 455.874624 276.218081 
L 458.050789 272.318146 
L 460.226954 288.596136 
L 462.403118 280.796266 
L 464.579283 264.009589 
L 466.755448 275.370269 
L 468.931612 269.944273 
L 471.107777 274.183333 
L 473.283942 275.878957 
L 475.460106 284.865764 
L 477.636271 286.391825 
L 479.812436 274.861582 
L 481.9886 277.913705 
L 484.164765 276.557206 
L 486.34093 283.848389 
L 488.517094 278.93108 
L 490.693259 288.087449 
L 492.869423 286.391825 
L 495.045588 276.557206 
L 497.221753 279.270205 
L 499.397917 275.539832 
L 501.574082 278.083268 
L 503.750247 276.557206 
L 505.926411 288.087449 
L 508.102576 282.152765 
L 510.278741 252.988033 
L 512.454905 283.339702 
L 514.63107 283.000577 
L 516.807235 281.135391 
L 518.983399 288.087449 
L 521.159564 288.426574 
L 523.335729 288.087449 
L 525.511893 282.152765 
L 527.688058 278.591955 
L 529.864222 282.152765 
L 532.040387 278.25283 
L 534.216552 280.626704 
L 536.392716 289.443948 
L 538.568881 290.461323 
L 540.745046 283.17014 
L 542.92121 287.070075 
L 545.097375 285.035326 
L 547.27354 285.204888 
L 549.449704 285.544013 
L 551.625869 288.087449 
L 553.802034 285.713576 
L 555.978198 281.81364 
L 560.330528 283.848389 
L 562.506692 280.287579 
L 564.682857 287.070075 
L 566.859021 291.648259 
L 569.035186 286.0527 
L 571.211351 266.722587 
L 573.387515 273.844208 
L 575.56368 276.048519 
L 577.739845 281.474516 
L 579.916009 284.865764 
L 582.092174 290.29176 
L 584.268339 289.274386 
L 586.444503 281.644078 
L 588.620668 282.152765 
L 590.796833 289.613511 
L 592.972997 293.513446 
L 595.149162 290.630885 
L 597.325327 290.97001 
L 599.501491 285.035326 
L 601.677656 277.405018 
L 603.85382 282.152765 
L 606.029985 285.883138 
L 608.20615 293.004759 
L 610.382314 288.596136 
L 612.558479 289.613511 
L 614.734644 286.222263 
L 616.910808 274.69202 
L 619.086973 276.387644 
L 621.263138 277.913705 
L 623.439302 281.81364 
L 625.615467 274.183333 
L 627.791632 285.713576 
L 629.967796 284.187514 
L 632.143961 275.539832 
L 634.320126 277.405018 
L 636.49629 279.439767 
L 638.672455 278.25283 
L 640.848619 278.083268 
L 643.024784 286.561388 
L 645.200949 288.765699 
L 647.377113 274.352895 
L 649.553278 280.287579 
L 651.729443 275.709394 
L 653.905607 281.304953 
L 656.081772 283.17014 
L 658.257937 287.070075 
L 660.434101 285.204888 
L 662.610266 276.557206 
L 664.786431 278.25283 
L 666.962595 280.118016 
L 669.13876 286.222263 
L 671.314925 283.339702 
L 673.491089 288.087449 
L 675.667254 287.578762 
L 677.843419 273.674645 
L 680.019583 279.100642 
L 682.195748 277.744143 
L 684.371912 279.778892 
L 686.548077 261.635715 
L 688.724242 286.0527 
L 690.900406 284.865764 
L 693.076571 276.048519 
L 695.252736 275.031145 
L 697.4289 270.283398 
L 699.605065 274.183333 
L 703.957394 286.900512 
L 706.133559 283.678827 
L 708.309724 255.192344 
L 712.662053 285.035326 
L 714.838218 280.287579 
L 717.014382 281.644078 
L 719.190547 287.070075 
L 721.366711 285.713576 
L 723.542876 273.335521 
L 725.719041 279.778892 
L 727.895205 281.474516 
L 730.07137 283.339702 
L 732.247535 266.553025 
L 734.423699 278.761517 
L 736.599864 273.844208 
L 738.776029 281.474516 
L 740.952193 280.457141 
L 743.128358 281.135391 
L 745.304523 280.626704 
L 747.480687 284.865764 
L 749.656852 290.630885 
L 751.833017 281.983203 
L 754.009181 255.701032 
L 756.185346 262.313965 
L 758.36151 245.357725 
L 760.537675 166.002524 
L 762.71384 36.117729 
L 764.890004 216.023431 
L 767.066169 197.202005 
L 769.242334 135.98998 
L 771.418498 279.270205 
L 773.594663 275.200707 
L 775.770828 271.809459 
L 777.946992 277.405018 
L 780.123157 286.561388 
L 784.475486 278.25283 
L 786.651651 279.778892 
L 788.827816 282.661452 
L 791.00398 275.200707 
L 793.180145 281.644078 
L 795.356309 283.509264 
L 797.532474 279.778892 
L 799.708639 260.787903 
L 801.884803 264.009589 
L 804.060968 266.722587 
L 806.237133 265.026963 
L 808.413297 265.53565 
L 810.589462 279.270205 
L 812.765627 268.757336 
L 814.941791 238.066542 
L 817.117956 240.779541 
L 819.294121 244.679476 
L 821.470285 274.522457 
L 823.64645 249.596785 
L 825.822615 278.93108 
L 827.998779 282.322328 
L 830.174944 275.709394 
L 832.351108 250.953284 
L 834.527273 244.849038 
L 836.703438 232.979671 
L 838.879602 242.644727 
L 841.055767 261.805278 
L 843.231932 274.01377 
L 845.408096 265.53565 
L 847.584261 225.349363 
L 849.760426 257.227093 
L 851.93659 269.096461 
L 854.112755 278.761517 
L 856.28892 278.083268 
L 858.465084 274.01377 
L 860.641249 251.970659 
L 862.817414 260.109654 
L 864.993578 266.2139 
L 867.169743 267.739962 
L 869.345907 260.279216 
L 871.522072 282.322328 
L 873.698237 279.100642 
L 875.874401 263.670464 
L 878.050566 268.248649 
L 880.226731 269.266023 
L 882.402895 272.318146 
L 884.57906 275.031145 
L 886.755225 280.457141 
L 888.931389 282.661452 
L 891.107554 265.53565 
L 895.459883 273.335521 
L 897.636048 276.726769 
L 899.812213 269.944273 
L 901.988377 282.322328 
L 904.164542 279.270205 
L 906.340706 265.705213 
L 908.516871 264.348714 
L 910.693036 243.153414 
L 912.8692 275.370269 
L 915.045365 276.387644 
L 917.22153 281.81364 
L 919.397694 283.678827 
L 921.573859 270.283398 
L 923.750024 272.826833 
L 925.926188 273.335521 
L 928.102353 279.948454 
L 930.278518 275.539832 
L 932.454682 283.848389 
L 934.630847 285.374451 
L 936.807012 274.01377 
L 938.983176 273.674645 
L 941.159341 255.022782 
L 943.335506 280.626704 
L 945.51167 261.805278 
L 947.687835 284.357076 
L 949.863999 285.035326 
L 952.040164 273.505083 
L 954.216329 273.335521 
L 956.392493 270.792085 
L 958.568658 279.270205 
L 960.744823 279.270205 
L 962.920987 289.783073 
L 965.097152 285.374451 
L 967.273317 270.961647 
L 969.449481 272.826833 
L 971.625646 271.470334 
L 973.801811 278.422393 
L 975.977975 262.144403 
L 978.15414 284.696201 
L 980.330305 280.118016 
L 982.506469 274.861582 
L 984.682634 276.048519 
L 986.858798 274.183333 
L 989.034963 278.93108 
L 991.211128 272.318146 
L 993.387292 287.070075 
L 995.563457 285.204888 
L 997.739622 271.639897 
L 999.915786 282.49189 
L 1002.091951 287.917887 
L 1002.091951 287.917887 
" clip-path="url(#p73b41e5eff)" style="fill: none; stroke: #378add; stroke-linecap: round"/>
   </g>
   <g id="patch_3">
    <path d="M 51.108 308.875799 
L 51.108 23.12925 
" style="fill: none; stroke: #ffffff; stroke-linejoin: miter; stroke-linecap: square"/>
   </g>
   <g id="patch_4">
    <path d="M 1039.08675 308.875799 
L 1039.08675 23.12925 
" style="fill: none; stroke: #ffffff; stroke-linejoin: miter; stroke-linecap: square"/>
   </g>
   <g id="patch_5">
    <path d="M 51.108 308.875799 
L 1039.08675 308.875799 
" style="fill: none; stroke: #ffffff; stroke-linejoin: miter; stroke-linecap: square"/>
   </g>
   <g id="patch_6">
    <path d="M 51.108 23.12925 
L 1039.08675 23.12925 
" style="fill: none; stroke: #ffffff; stroke-linejoin: miter; stroke-linecap: square"/>
   </g>
   <g id="legend_1">
    <g id="patch_7">
     <path d="M 57.268 67.826375 
L 145.926625 67.826375 
Q 147.686625 67.826375 147.686625 66.066375 
L 147.686625 29.28925 
Q 147.686625 27.52925 145.926625 27.52925 
L 57.268 27.52925 
Q 55.508 27.52925 55.508 29.28925 
L 55.508 66.066375 
Q 55.508 67.826375 57.268 67.826375 
z
" style="fill: #eaeaf2; opacity: 0.8; stroke: #cccccc; stroke-width: 0.8; stroke-linejoin: miter"/>
    </g>
    <g id="line2d_11">
     <path d="M 59.028 34.268125 
L 67.828 34.268125 
L 76.628 34.268125 
" style="fill: none; stroke: #378add; stroke-width: 1.2; stroke-linecap: round"/>
    </g>
    <g id="text_26">
     <!-- Avg orders -->
     <g style="fill: #262626" transform="translate(83.668 37.348125) scale(0.088 -0.088)">
      <use xlink:href="#ArialMT-41"/>
      <use xlink:href="#ArialMT-76" transform="translate(64.949219 0)"/>
      <use xlink:href="#ArialMT-67" transform="translate(114.949219 0)"/>
      <use xlink:href="#ArialMT-20" transform="translate(170.564453 0)"/>
      <use xlink:href="#ArialMT-6f" transform="translate(198.347656 0)"/>
      <use xlink:href="#ArialMT-72" transform="translate(253.962891 0)"/>
      <use xlink:href="#ArialMT-64" transform="translate(287.263672 0)"/>
      <use xlink:href="#ArialMT-65" transform="translate(342.878906 0)"/>
      <use xlink:href="#ArialMT-72" transform="translate(398.494141 0)"/>
      <use xlink:href="#ArialMT-73" transform="translate(431.794922 0)"/>
     </g>
    </g>
    <g id="line2d_12">
     <path d="M 59.028 46.819125 
L 67.828 46.819125 
L 76.628 46.819125 
" style="fill: none; stroke: #1d9e75; stroke-width: 1.2; stroke-linecap: round"/>
    </g>
    <g id="text_27">
     <!-- Revenue -->
     <g style="fill: #262626" transform="translate(83.668 49.899125) scale(0.088 -0.088)">
      <defs>
       <path id="ArialMT-52" d="M 503 0 
L 503 4581 
L 2534 4581 
Q 3147 4581 3465 4457 
Q 3784 4334 3975 4021 
Q 4166 3709 4166 3331 
Q 4166 2844 3850 2509 
Q 3534 2175 2875 2084 
Q 3116 1969 3241 1856 
Q 3506 1613 3744 1247 
L 4541 0 
L 3778 0 
L 3172 953 
Q 2906 1366 2734 1584 
Q 2563 1803 2427 1890 
Q 2291 1978 2150 2013 
Q 2047 2034 1813 2034 
L 1109 2034 
L 1109 0 
L 503 0 
z
M 1109 2559 
L 2413 2559 
Q 2828 2559 3062 2645 
Q 3297 2731 3419 2920 
Q 3541 3109 3541 3331 
Q 3541 3656 3305 3865 
Q 3069 4075 2559 4075 
L 1109 4075 
L 1109 2559 
z
" transform="scale(0.015625)"/>
      </defs>
      <use xlink:href="#ArialMT-52"/>
      <use xlink:href="#ArialMT-65" transform="translate(72.216797 0)"/>
      <use xlink:href="#ArialMT-76" transform="translate(127.832031 0)"/>
      <use xlink:href="#ArialMT-65" transform="translate(177.832031 0)"/>
      <use xlink:href="#ArialMT-6e" transform="translate(233.447266 0)"/>
      <use xlink:href="#ArialMT-75" transform="translate(289.0625 0)"/>
      <use xlink:href="#ArialMT-65" transform="translate(344.677734 0)"/>
     </g>
    </g>
    <g id="line2d_13">
     <path d="M 59.028 59.37425 
L 67.828 59.37425 
L 76.628 59.37425 
" style="fill: none; stroke: #d85a30; stroke-width: 1.2; stroke-linecap: round"/>
    </g>
    <g id="text_28">
     <!-- Avg discount % -->
     <g style="fill: #262626" transform="translate(83.668 62.45425) scale(0.088 -0.088)">
      <defs>
       <path id="ArialMT-69" d="M 425 3934 
L 425 4581 
L 988 4581 
L 988 3934 
L 425 3934 
z
M 425 0 
L 425 3319 
L 988 3319 
L 988 0 
L 425 0 
z
" transform="scale(0.015625)"/>
       <path id="ArialMT-25" d="M 372 3481 
Q 372 3972 619 4315 
Q 866 4659 1334 4659 
Q 1766 4659 2048 4351 
Q 2331 4044 2331 3447 
Q 2331 2866 2045 2552 
Q 1759 2238 1341 2238 
Q 925 2238 648 2547 
Q 372 2856 372 3481 
z
M 1350 4272 
Q 1141 4272 1002 4090 
Q 863 3909 863 3425 
Q 863 2984 1003 2804 
Q 1144 2625 1350 2625 
Q 1563 2625 1702 2806 
Q 1841 2988 1841 3469 
Q 1841 3913 1700 4092 
Q 1559 4272 1350 4272 
z
M 1353 -169 
L 3859 4659 
L 4316 4659 
L 1819 -169 
L 1353 -169 
z
M 3334 1075 
Q 3334 1569 3581 1911 
Q 3828 2253 4300 2253 
Q 4731 2253 5014 1945 
Q 5297 1638 5297 1041 
Q 5297 459 5011 145 
Q 4725 -169 4303 -169 
Q 3888 -169 3611 142 
Q 3334 453 3334 1075 
z
M 4316 1866 
Q 4103 1866 3964 1684 
Q 3825 1503 3825 1019 
Q 3825 581 3965 400 
Q 4106 219 4313 219 
Q 4528 219 4667 400 
Q 4806 581 4806 1063 
Q 4806 1506 4665 1686 
Q 4525 1866 4316 1866 
z
" transform="scale(0.015625)"/>
      </defs>
      <use xlink:href="#ArialMT-41"/>
      <use xlink:href="#ArialMT-76" transform="translate(64.949219 0)"/>
      <use xlink:href="#ArialMT-67" transform="translate(114.949219 0)"/>
      <use xlink:href="#ArialMT-20" transform="translate(170.564453 0)"/>
      <use xlink:href="#ArialMT-64" transform="translate(198.347656 0)"/>
      <use xlink:href="#ArialMT-69" transform="translate(253.962891 0)"/>
      <use xlink:href="#ArialMT-73" transform="translate(276.179688 0)"/>
      <use xlink:href="#ArialMT-63" transform="translate(326.179688 0)"/>
      <use xlink:href="#ArialMT-6f" transform="translate(376.179688 0)"/>
      <use xlink:href="#ArialMT-75" transform="translate(431.794922 0)"/>
      <use xlink:href="#ArialMT-6e" transform="translate(487.410156 0)"/>
      <use xlink:href="#ArialMT-74" transform="translate(543.025391 0)"/>
      <use xlink:href="#ArialMT-20" transform="translate(570.808594 0)"/>
      <use xlink:href="#ArialMT-25" transform="translate(598.591797 0)"/>
     </g>
    </g>
   </g>
  </g>
  <g id="axes_2">
   <g id="matplotlib.axis_3">
    <g id="ytick_10">
     <g id="line2d_14">
      <defs>
       <path id="mea290bc93b" d="M 0 0 
L 4.8 0 
" style="stroke: #262626"/>
      </defs>
      <g>
       <use xlink:href="#mea290bc93b" x="1039.08675" y="295.90015" style="fill: #262626; stroke: #262626"/>
      </g>
     </g>
     <g id="text_29">
      <!-- 0 -->
      <g style="fill: #1d9e75" transform="translate(1047.38675 299.049588) scale(0.088 -0.088)">
       <use xlink:href="#ArialMT-30"/>
      </g>
     </g>
    </g>
    <g id="ytick_11">
     <g id="line2d_15">
      <g>
       <use xlink:href="#mea290bc93b" x="1039.08675" y="257.006811" style="fill: #262626; stroke: #262626"/>
      </g>
     </g>
     <g id="text_30">
      <!-- 100000 -->
      <g style="fill: #1d9e75" transform="translate(1047.38675 260.156248) scale(0.088 -0.088)">
       <use xlink:href="#ArialMT-31"/>
       <use xlink:href="#ArialMT-30" transform="translate(55.615234 0)"/>
       <use xlink:href="#ArialMT-30" transform="translate(111.230469 0)"/>
       <use xlink:href="#ArialMT-30" transform="translate(166.845703 0)"/>
       <use xlink:href="#ArialMT-30" transform="translate(222.460938 0)"/>
       <use xlink:href="#ArialMT-30" transform="translate(278.076172 0)"/>
      </g>
     </g>
    </g>
    <g id="ytick_12">
     <g id="line2d_16">
      <g>
       <use xlink:href="#mea290bc93b" x="1039.08675" y="218.113471" style="fill: #262626; stroke: #262626"/>
      </g>
     </g>
     <g id="text_31">
      <!-- 200000 -->
      <g style="fill: #1d9e75" transform="translate(1047.38675 221.262909) scale(0.088 -0.088)">
       <use xlink:href="#ArialMT-32"/>
       <use xlink:href="#ArialMT-30" transform="translate(55.615234 0)"/>
       <use xlink:href="#ArialMT-30" transform="translate(111.230469 0)"/>
       <use xlink:href="#ArialMT-30" transform="translate(166.845703 0)"/>
       <use xlink:href="#ArialMT-30" transform="translate(222.460938 0)"/>
       <use xlink:href="#ArialMT-30" transform="translate(278.076172 0)"/>
      </g>
     </g>
    </g>
    <g id="ytick_13">
     <g id="line2d_17">
      <g>
       <use xlink:href="#mea290bc93b" x="1039.08675" y="179.220132" style="fill: #262626; stroke: #262626"/>
      </g>
     </g>
     <g id="text_32">
      <!-- 300000 -->
      <g style="fill: #1d9e75" transform="translate(1047.38675 182.36957) scale(0.088 -0.088)">
       <defs>
        <path id="ArialMT-33" d="M 269 1209 
L 831 1284 
Q 928 806 1161 595 
Q 1394 384 1728 384 
Q 2125 384 2398 659 
Q 2672 934 2672 1341 
Q 2672 1728 2419 1979 
Q 2166 2231 1775 2231 
Q 1616 2231 1378 2169 
L 1441 2663 
Q 1497 2656 1531 2656 
Q 1891 2656 2178 2843 
Q 2466 3031 2466 3422 
Q 2466 3731 2256 3934 
Q 2047 4138 1716 4138 
Q 1388 4138 1169 3931 
Q 950 3725 888 3313 
L 325 3413 
Q 428 3978 793 4289 
Q 1159 4600 1703 4600 
Q 2078 4600 2393 4439 
Q 2709 4278 2876 4000 
Q 3044 3722 3044 3409 
Q 3044 3113 2884 2869 
Q 2725 2625 2413 2481 
Q 2819 2388 3044 2092 
Q 3269 1797 3269 1353 
Q 3269 753 2831 336 
Q 2394 -81 1725 -81 
Q 1122 -81 723 278 
Q 325 638 269 1209 
z
" transform="scale(0.015625)"/>
       </defs>
       <use xlink:href="#ArialMT-33"/>
       <use xlink:href="#ArialMT-30" transform="translate(55.615234 0)"/>
       <use xlink:href="#ArialMT-30" transform="translate(111.230469 0)"/>
       <use xlink:href="#ArialMT-30" transform="translate(166.845703 0)"/>
       <use xlink:href="#ArialMT-30" transform="translate(222.460938 0)"/>
       <use xlink:href="#ArialMT-30" transform="translate(278.076172 0)"/>
      </g>
     </g>
    </g>
    <g id="ytick_14">
     <g id="line2d_18">
      <g>
       <use xlink:href="#mea290bc93b" x="1039.08675" y="140.326793" style="fill: #262626; stroke: #262626"/>
      </g>
     </g>
     <g id="text_33">
      <!-- 400000 -->
      <g style="fill: #1d9e75" transform="translate(1047.38675 143.47623) scale(0.088 -0.088)">
       <use xlink:href="#ArialMT-34"/>
       <use xlink:href="#ArialMT-30" transform="translate(55.615234 0)"/>
       <use xlink:href="#ArialMT-30" transform="translate(111.230469 0)"/>
       <use xlink:href="#ArialMT-30" transform="translate(166.845703 0)"/>
       <use xlink:href="#ArialMT-30" transform="translate(222.460938 0)"/>
       <use xlink:href="#ArialMT-30" transform="translate(278.076172 0)"/>
      </g>
     </g>
    </g>
    <g id="ytick_15">
     <g id="line2d_19">
      <g>
       <use xlink:href="#mea290bc93b" x="1039.08675" y="101.433453" style="fill: #262626; stroke: #262626"/>
      </g>
     </g>
     <g id="text_34">
      <!-- 500000 -->
      <g style="fill: #1d9e75" transform="translate(1047.38675 104.582891) scale(0.088 -0.088)">
       <defs>
        <path id="ArialMT-35" d="M 266 1200 
L 856 1250 
Q 922 819 1161 601 
Q 1400 384 1738 384 
Q 2144 384 2425 690 
Q 2706 997 2706 1503 
Q 2706 1984 2436 2262 
Q 2166 2541 1728 2541 
Q 1456 2541 1237 2417 
Q 1019 2294 894 2097 
L 366 2166 
L 809 4519 
L 3088 4519 
L 3088 3981 
L 1259 3981 
L 1013 2750 
Q 1425 3038 1878 3038 
Q 2478 3038 2890 2622 
Q 3303 2206 3303 1553 
Q 3303 931 2941 478 
Q 2500 -78 1738 -78 
Q 1113 -78 717 272 
Q 322 622 266 1200 
z
" transform="scale(0.015625)"/>
       </defs>
       <use xlink:href="#ArialMT-35"/>
       <use xlink:href="#ArialMT-30" transform="translate(55.615234 0)"/>
       <use xlink:href="#ArialMT-30" transform="translate(111.230469 0)"/>
       <use xlink:href="#ArialMT-30" transform="translate(166.845703 0)"/>
       <use xlink:href="#ArialMT-30" transform="translate(222.460938 0)"/>
       <use xlink:href="#ArialMT-30" transform="translate(278.076172 0)"/>
      </g>
     </g>
    </g>
    <g id="ytick_16">
     <g id="line2d_20">
      <g>
       <use xlink:href="#mea290bc93b" x="1039.08675" y="62.540114" style="fill: #262626; stroke: #262626"/>
      </g>
     </g>
     <g id="text_35">
      <!-- 600000 -->
      <g style="fill: #1d9e75" transform="translate(1047.38675 65.689552) scale(0.088 -0.088)">
       <use xlink:href="#ArialMT-36"/>
       <use xlink:href="#ArialMT-30" transform="translate(55.615234 0)"/>
       <use xlink:href="#ArialMT-30" transform="translate(111.230469 0)"/>
       <use xlink:href="#ArialMT-30" transform="translate(166.845703 0)"/>
       <use xlink:href="#ArialMT-30" transform="translate(222.460938 0)"/>
       <use xlink:href="#ArialMT-30" transform="translate(278.076172 0)"/>
      </g>
     </g>
    </g>
    <g id="ytick_17">
     <g id="line2d_21">
      <g>
       <use xlink:href="#mea290bc93b" x="1039.08675" y="23.646775" style="fill: #262626; stroke: #262626"/>
      </g>
     </g>
     <g id="text_36">
      <!-- 700000 -->
      <g style="fill: #1d9e75" transform="translate(1047.38675 26.796212) scale(0.088 -0.088)">
       <use xlink:href="#ArialMT-37"/>
       <use xlink:href="#ArialMT-30" transform="translate(55.615234 0)"/>
       <use xlink:href="#ArialMT-30" transform="translate(111.230469 0)"/>
       <use xlink:href="#ArialMT-30" transform="translate(166.845703 0)"/>
       <use xlink:href="#ArialMT-30" transform="translate(222.460938 0)"/>
       <use xlink:href="#ArialMT-30" transform="translate(278.076172 0)"/>
      </g>
     </g>
    </g>
    <g id="text_37">
     <!-- Revenue ($) -->
     <g style="fill: #1d9e75" transform="translate(1088.253 192.414524) rotate(-90) scale(0.096 -0.096)">
      <defs>
       <path id="ArialMT-28" d="M 1497 -1347 
Q 1031 -759 709 28 
Q 388 816 388 1659 
Q 388 2403 628 3084 
Q 909 3875 1497 4659 
L 1900 4659 
Q 1522 4009 1400 3731 
Q 1209 3300 1100 2831 
Q 966 2247 966 1656 
Q 966 153 1900 -1347 
L 1497 -1347 
z
" transform="scale(0.015625)"/>
       <path id="ArialMT-24" d="M 1594 -659 
L 1594 -97 
Q 1172 -44 908 92 
Q 644 228 451 531 
Q 259 834 228 1272 
L 794 1378 
Q 859 925 1025 713 
Q 1263 413 1594 378 
L 1594 2169 
Q 1247 2234 884 2438 
Q 616 2588 470 2853 
Q 325 3119 325 3456 
Q 325 4056 750 4428 
Q 1034 4678 1594 4734 
L 1594 5003 
L 1925 5003 
L 1925 4734 
Q 2416 4688 2703 4447 
Q 3072 4141 3147 3606 
L 2566 3519 
Q 2516 3850 2358 4026 
Q 2200 4203 1925 4259 
L 1925 2638 
Q 2350 2531 2488 2472 
Q 2750 2356 2915 2190 
Q 3081 2025 3170 1797 
Q 3259 1569 3259 1303 
Q 3259 719 2887 328 
Q 2516 -63 1925 -91 
L 1925 -659 
L 1594 -659 
z
M 1594 4266 
Q 1266 4216 1077 4003 
Q 888 3791 888 3500 
Q 888 3213 1048 3019 
Q 1209 2825 1594 2709 
L 1594 4266 
z
M 1925 378 
Q 2253 419 2467 662 
Q 2681 906 2681 1266 
Q 2681 1572 2529 1758 
Q 2378 1944 1925 2091 
L 1925 378 
z
" transform="scale(0.015625)"/>
       <path id="ArialMT-29" d="M 791 -1347 
L 388 -1347 
Q 1322 153 1322 1656 
Q 1322 2244 1188 2822 
Q 1081 3291 891 3722 
Q 769 4003 388 4659 
L 791 4659 
Q 1378 3875 1659 3084 
Q 1900 2403 1900 1659 
Q 1900 816 1576 28 
Q 1253 -759 791 -1347 
z
" transform="scale(0.015625)"/>
      </defs>
      <use xlink:href="#ArialMT-52"/>
      <use xlink:href="#ArialMT-65" transform="translate(72.216797 0)"/>
      <use xlink:href="#ArialMT-76" transform="translate(127.832031 0)"/>
      <use xlink:href="#ArialMT-65" transform="translate(177.832031 0)"/>
      <use xlink:href="#ArialMT-6e" transform="translate(233.447266 0)"/>
      <use xlink:href="#ArialMT-75" transform="translate(289.0625 0)"/>
      <use xlink:href="#ArialMT-65" transform="translate(344.677734 0)"/>
      <use xlink:href="#ArialMT-20" transform="translate(400.292969 0)"/>
      <use xlink:href="#ArialMT-28" transform="translate(428.076172 0)"/>
      <use xlink:href="#ArialMT-24" transform="translate(461.376953 0)"/>
      <use xlink:href="#ArialMT-29" transform="translate(516.992188 0)"/>
     </g>
    </g>
   </g>
   <g id="line2d_22">
    <path d="M 51.108 284.524914 
L 53.284165 276.895624 
L 55.460329 274.517666 
L 57.636494 282.554266 
L 59.812659 286.669065 
L 61.988823 290.328197 
L 64.164988 286.008679 
L 66.341153 286.899582 
L 68.517317 279.492431 
L 70.693482 281.278421 
L 72.869646 276.154118 
L 75.045811 279.851506 
L 77.221976 285.290922 
L 79.39814 289.268319 
L 81.574305 289.720605 
L 83.75047 279.532678 
L 85.926634 286.645445 
L 88.102799 281.812998 
L 90.278964 285.174627 
L 92.455128 283.537754 
L 94.631293 289.409466 
L 96.807458 291.077209 
L 98.983622 275.133083 
L 101.159787 276.182374 
L 103.335952 284.35131 
L 105.512116 283.300832 
L 107.688281 280.919206 
L 109.864445 285.693608 
L 112.04061 282.84084 
L 114.216775 271.941363 
L 116.392939 271.434836 
L 118.569104 282.745633 
L 120.745269 286.547488 
L 122.921433 288.405065 
L 125.097598 292.202304 
L 127.273763 293.236404 
L 129.449927 283.854195 
L 131.626092 282.983023 
L 133.802257 281.63533 
L 135.978421 282.774694 
L 138.154586 287.380607 
L 140.330751 289.323714 
L 142.506915 288.49261 
L 144.68308 282.976823 
L 149.035409 283.183798 
L 151.211574 283.52914 
L 153.387738 288.223647 
L 155.563903 291.484302 
L 157.740068 291.455027 
L 159.916232 279.781156 
L 162.092397 288.223923 
L 164.268562 289.126972 
L 166.444726 295.459275 
L 168.620891 295.861265 
L 170.797056 295.887319 
L 172.97322 295.649323 
L 175.149385 293.011526 
L 177.32555 293.981211 
L 179.501714 295.539784 
L 181.677879 295.774766 
L 183.854044 295.707251 
L 186.030208 295.841433 
L 188.206373 295.833658 
L 190.382537 294.4413 
L 192.558702 294.367791 
L 194.734867 294.907627 
L 196.911031 295.57893 
L 199.087196 295.15187 
L 201.263361 295.85076 
L 203.439525 294.352674 
L 205.61569 295.681441 
L 207.791855 293.079656 
L 209.968019 295.577864 
L 212.144184 295.334279 
L 214.320349 293.762199 
L 216.496513 295.779849 
L 218.672678 295.806429 
L 220.848843 295.5866 
L 223.025007 291.06535 
L 225.201172 294.612983 
L 227.377336 295.666164 
L 229.553501 291.366509 
L 231.729666 295.82432 
L 233.90583 295.209805 
L 236.081995 291.072223 
L 238.25816 293.560852 
L 240.434324 294.231863 
L 242.610489 293.613642 
L 244.786654 292.505213 
L 246.962818 295.211372 
L 249.138983 294.153427 
L 251.315148 290.455713 
L 253.491312 291.906644 
L 255.667477 291.476099 
L 257.843642 291.324061 
L 260.019806 292.274622 
L 262.195971 291.179701 
L 264.372135 293.921704 
L 266.5483 282.655829 
L 268.724465 290.709441 
L 270.900629 293.280972 
L 275.252959 294.117906 
L 277.429123 291.637802 
L 279.605288 293.078886 
L 281.781453 286.718117 
L 283.957617 289.604513 
L 286.133782 287.162229 
L 288.309947 288.144387 
L 290.486111 285.975997 
L 292.662276 291.727688 
L 294.838441 291.880119 
L 297.014605 286.256516 
L 299.19077 289.932037 
L 301.366934 290.747689 
L 303.543099 290.712152 
L 305.719264 288.774801 
L 307.895428 293.654457 
L 310.071593 293.267662 
L 312.247758 291.390763 
L 314.423922 288.414796 
L 316.600087 285.18453 
L 318.776252 287.439297 
L 320.952416 289.419361 
L 323.128581 291.728342 
L 325.304746 290.101838 
L 327.48091 283.28599 
L 329.657075 289.762233 
L 331.83324 289.212024 
L 334.009404 284.822522 
L 336.185569 291.711233 
L 338.361733 294.006033 
L 340.537898 295.0088 
L 342.714063 284.117203 
L 344.890227 287.210013 
L 347.066392 289.383937 
L 349.242557 287.165492 
L 351.418721 289.44412 
L 353.594886 293.497005 
L 355.771051 294.574389 
L 357.947215 290.530384 
L 360.12338 289.226687 
L 362.299545 287.693383 
L 364.475709 289.993127 
L 366.651874 289.509951 
L 368.828039 293.007734 
L 371.004203 291.720715 
L 373.180368 285.826534 
L 375.356532 285.788994 
L 377.532697 288.082457 
L 379.708862 289.826173 
L 381.885026 288.647826 
L 384.061191 292.777155 
L 386.237356 293.410766 
L 388.41352 286.273045 
L 390.589685 288.137273 
L 392.76585 285.750735 
L 394.942014 289.358613 
L 397.118179 284.403711 
L 399.294344 293.731073 
L 401.470508 292.848645 
L 403.646673 283.480484 
L 405.822838 288.067335 
L 407.999002 290.238381 
L 410.175167 287.590456 
L 412.351331 289.701143 
L 414.527496 295.421385 
L 416.703661 293.699989 
L 418.879825 286.967338 
L 421.05599 287.191772 
L 423.232155 289.103473 
L 425.408319 288.835529 
L 427.584484 284.974214 
L 429.760649 292.253911 
L 431.936813 290.347982 
L 434.112978 281.870626 
L 436.289143 283.558496 
L 438.465307 285.956057 
L 440.641472 281.608131 
L 442.817637 288.149653 
L 447.169966 292.052354 
L 449.346131 278.243558 
L 451.522295 279.555248 
L 453.69846 283.007319 
L 455.874624 282.277793 
L 458.050789 289.064953 
L 460.226954 291.324112 
L 462.403118 288.111137 
L 464.579283 271.016915 
L 466.755448 277.14882 
L 468.931612 277.137159 
L 471.107777 281.393502 
L 473.283942 281.835097 
L 475.460106 287.797757 
L 477.636271 289.422391 
L 479.812436 276.51226 
L 481.9886 277.049533 
L 484.164765 283.541624 
L 486.34093 288.639654 
L 488.517094 281.635835 
L 490.693259 292.523473 
L 492.869423 291.772272 
L 495.045588 283.176945 
L 497.221753 287.217558 
L 499.397917 280.836017 
L 501.574082 280.66109 
L 503.750247 283.622169 
L 505.926411 291.975202 
L 508.102576 290.169679 
L 510.278741 276.77957 
L 512.454905 288.929666 
L 514.63107 282.250719 
L 516.807235 284.889411 
L 518.983399 292.018684 
L 521.159564 292.339609 
L 523.335729 292.399407 
L 525.511893 281.140315 
L 527.688058 281.523682 
L 529.864222 286.30738 
L 532.040387 288.515573 
L 534.216552 286.396543 
L 536.392716 293.810139 
L 538.568881 293.576608 
L 540.745046 288.919963 
L 542.92121 290.537595 
L 545.097375 289.778533 
L 547.27354 286.769554 
L 549.449704 290.382286 
L 551.625869 292.863545 
L 553.802034 290.74471 
L 555.978198 287.830241 
L 558.154363 286.710665 
L 560.330528 286.128206 
L 562.506692 286.298987 
L 564.682857 287.465083 
L 566.859021 294.54737 
L 569.035186 292.515119 
L 571.211351 282.567257 
L 573.387515 281.67045 
L 575.56368 278.323573 
L 577.739845 281.370855 
L 579.916009 287.137034 
L 582.092174 290.59455 
L 584.268339 293.624314 
L 586.444503 278.943374 
L 588.620668 279.815257 
L 590.796833 290.714882 
L 592.972997 293.747046 
L 595.149162 290.089077 
L 597.325327 292.839618 
L 599.501491 291.535645 
L 601.677656 289.688429 
L 603.85382 286.426013 
L 606.029985 287.623041 
L 608.20615 290.315778 
L 610.382314 291.242451 
L 612.558479 291.492422 
L 614.734644 290.677175 
L 616.910808 281.309664 
L 619.086973 280.380292 
L 621.263138 284.248114 
L 623.439302 277.330125 
L 625.615467 278.616833 
L 627.791632 290.7719 
L 629.967796 288.328617 
L 632.143961 270.808136 
L 636.49629 280.998965 
L 638.672455 274.192805 
L 640.848619 276.210452 
L 643.024784 289.13556 
L 645.200949 291.27672 
L 647.377113 277.487993 
L 649.553278 285.050573 
L 651.729443 278.833535 
L 653.905607 284.648879 
L 656.081772 280.764663 
L 658.257937 290.258282 
L 660.434101 289.812312 
L 662.610266 282.34017 
L 664.786431 282.382284 
L 669.13876 289.363401 
L 671.314925 284.821538 
L 673.491089 287.925114 
L 675.667254 289.145524 
L 677.843419 274.880564 
L 680.019583 283.313954 
L 682.195748 278.776619 
L 684.371912 282.231281 
L 686.548077 281.75248 
L 688.724242 288.447607 
L 690.900406 289.851559 
L 693.076571 278.652627 
L 695.252736 280.833333 
L 697.4289 274.188391 
L 699.605065 277.474847 
L 701.78123 284.454517 
L 703.957394 290.786477 
L 706.133559 291.331291 
L 708.309724 273.896912 
L 710.485888 278.27556 
L 712.662053 289.540634 
L 714.838218 279.905319 
L 717.014382 287.682093 
L 719.190547 290.338893 
L 721.366711 290.745775 
L 723.542876 283.490001 
L 725.719041 283.264509 
L 727.895205 279.852482 
L 730.07137 286.569455 
L 732.247535 270.975054 
L 734.423699 278.200145 
L 736.599864 276.442536 
L 738.776029 283.292882 
L 740.952193 283.825806 
L 743.128358 284.075696 
L 747.480687 289.777518 
L 749.656852 290.417469 
L 751.833017 289.769521 
L 754.009181 270.095139 
L 756.185346 269.631161 
L 758.36151 259.191049 
L 762.71384 36.117729 
L 764.890004 233.091468 
L 767.066169 216.172394 
L 769.242334 162.047517 
L 771.418498 282.105978 
L 773.594663 280.995752 
L 775.770828 274.333821 
L 777.946992 279.976077 
L 780.123157 289.28388 
L 782.299322 287.234049 
L 784.475486 282.030824 
L 788.827816 283.96851 
L 791.00398 279.54659 
L 793.180145 287.621182 
L 795.356309 289.476997 
L 797.532474 288.066577 
L 799.708639 266.645665 
L 801.884803 276.650471 
L 804.060968 272.652594 
L 806.237133 267.773553 
L 808.413297 263.762522 
L 810.589462 284.541012 
L 812.765627 281.06793 
L 814.941791 261.952251 
L 817.117956 260.072205 
L 819.294121 258.381348 
L 821.470285 275.957174 
L 825.822615 288.608859 
L 827.998779 285.865252 
L 830.174944 283.479029 
L 832.351108 261.636402 
L 834.527273 255.377347 
L 836.703438 244.483844 
L 838.879602 258.388936 
L 841.055767 274.19412 
L 843.231932 280.540894 
L 845.408096 276.518343 
L 847.584261 253.290027 
L 849.760426 268.641625 
L 851.93659 279.176827 
L 854.112755 286.049552 
L 856.28892 279.118475 
L 858.465084 283.82548 
L 860.641249 267.078751 
L 862.817414 267.210342 
L 864.993578 265.350883 
L 867.169743 274.918983 
L 869.345907 274.514854 
L 871.522072 288.355472 
L 873.698237 283.518001 
L 875.874401 278.208375 
L 878.050566 270.89782 
L 880.226731 274.774136 
L 882.402895 276.889043 
L 884.57906 279.651283 
L 886.755225 281.807448 
L 888.931389 284.906302 
L 891.107554 272.644135 
L 893.283719 275.338607 
L 895.459883 273.376212 
L 897.636048 282.043286 
L 899.812213 280.928801 
L 901.988377 280.365972 
L 904.164542 281.157467 
L 906.340706 268.370686 
L 908.516871 270.918262 
L 910.693036 244.777022 
L 912.8692 274.051836 
L 915.045365 283.887009 
L 917.22153 288.70834 
L 919.397694 290.13044 
L 921.573859 282.599433 
L 923.750024 280.778 
L 925.926188 277.179405 
L 928.102353 286.931638 
L 930.278518 277.043632 
L 932.454682 284.737023 
L 934.630847 290.612515 
L 936.807012 279.828384 
L 938.983176 281.422163 
L 941.159341 271.012812 
L 943.335506 285.079918 
L 945.51167 284.552583 
L 947.687835 290.814675 
L 949.863999 290.742901 
L 952.040164 277.360831 
L 954.216329 280.312618 
L 956.392493 279.064721 
L 958.568658 282.771618 
L 960.744823 284.995636 
L 962.920987 293.336686 
L 965.097152 287.417641 
L 967.273317 277.381289 
L 969.449481 276.400041 
L 971.625646 277.604194 
L 973.801811 277.420513 
L 975.977975 281.234993 
L 978.15414 291.363483 
L 980.330305 285.492067 
L 982.506469 281.024362 
L 984.682634 281.962889 
L 986.858798 278.877908 
L 989.034963 283.218246 
L 991.211128 279.834887 
L 993.387292 291.091992 
L 995.563457 289.882028 
L 997.739622 278.364186 
L 999.915786 289.164302 
L 1002.091951 295.273368 
L 1002.091951 295.273368 
" clip-path="url(#p73b41e5eff)" style="fill: none; stroke: #1d9e75; stroke-linecap: round"/>
   </g>
   <g id="patch_8">
    <path d="M 51.108 308.875799 
L 51.108 23.12925 
" style="fill: none; stroke: #ffffff; stroke-linejoin: miter; stroke-linecap: square"/>
   </g>
   <g id="patch_9">
    <path d="M 1039.08675 308.875799 
L 1039.08675 23.12925 
" style="fill: none; stroke: #ffffff; stroke-linejoin: miter; stroke-linecap: square"/>
   </g>
   <g id="patch_10">
    <path d="M 51.108 308.875799 
L 1039.08675 308.875799 
" style="fill: none; stroke: #ffffff; stroke-linejoin: miter; stroke-linecap: square"/>
   </g>
   <g id="patch_11">
    <path d="M 51.108 23.12925 
L 1039.08675 23.12925 
" style="fill: none; stroke: #ffffff; stroke-linejoin: miter; stroke-linecap: square"/>
   </g>
  </g>
  <g id="axes_3">
   <g id="matplotlib.axis_4">
    <g id="ytick_18">
     <g id="line2d_23">
      <g>
       <use xlink:href="#mea290bc93b" x="1118.12505" y="304.447937" style="fill: #262626; stroke: #262626"/>
      </g>
     </g>
     <g id="text_38">
      <!-- 0 -->
      <g style="fill: #d85a30" transform="translate(1126.42505 307.597374) scale(0.088 -0.088)">
       <use xlink:href="#ArialMT-30"/>
      </g>
     </g>
    </g>
    <g id="ytick_19">
     <g id="line2d_24">
      <g>
       <use xlink:href="#mea290bc93b" x="1118.12505" y="258.587487" style="fill: #262626; stroke: #262626"/>
      </g>
     </g>
     <g id="text_39">
      <!-- 10 -->
      <g style="fill: #d85a30" transform="translate(1126.42505 261.736924) scale(0.088 -0.088)">
       <use xlink:href="#ArialMT-31"/>
       <use xlink:href="#ArialMT-30" transform="translate(55.615234 0)"/>
      </g>
     </g>
    </g>
    <g id="ytick_20">
     <g id="line2d_25">
      <g>
       <use xlink:href="#mea290bc93b" x="1118.12505" y="212.727036" style="fill: #262626; stroke: #262626"/>
      </g>
     </g>
     <g id="text_40">
      <!-- 20 -->
      <g style="fill: #d85a30" transform="translate(1126.42505 215.876474) scale(0.088 -0.088)">
       <use xlink:href="#ArialMT-32"/>
       <use xlink:href="#ArialMT-30" transform="translate(55.615234 0)"/>
      </g>
     </g>
    </g>
    <g id="ytick_21">
     <g id="line2d_26">
      <g>
       <use xlink:href="#mea290bc93b" x="1118.12505" y="166.866586" style="fill: #262626; stroke: #262626"/>
      </g>
     </g>
     <g id="text_41">
      <!-- 30 -->
      <g style="fill: #d85a30" transform="translate(1126.42505 170.016024) scale(0.088 -0.088)">
       <use xlink:href="#ArialMT-33"/>
       <use xlink:href="#ArialMT-30" transform="translate(55.615234 0)"/>
      </g>
     </g>
    </g>
    <g id="ytick_22">
     <g id="line2d_27">
      <g>
       <use xlink:href="#mea290bc93b" x="1118.12505" y="121.006136" style="fill: #262626; stroke: #262626"/>
      </g>
     </g>
     <g id="text_42">
      <!-- 40 -->
      <g style="fill: #d85a30" transform="translate(1126.42505 124.155574) scale(0.088 -0.088)">
       <use xlink:href="#ArialMT-34"/>
       <use xlink:href="#ArialMT-30" transform="translate(55.615234 0)"/>
      </g>
     </g>
    </g>
    <g id="ytick_23">
     <g id="line2d_28">
      <g>
       <use xlink:href="#mea290bc93b" x="1118.12505" y="75.145686" style="fill: #262626; stroke: #262626"/>
      </g>
     </g>
     <g id="text_43">
      <!-- 50 -->
      <g style="fill: #d85a30" transform="translate(1126.42505 78.295124) scale(0.088 -0.088)">
       <use xlink:href="#ArialMT-35"/>
       <use xlink:href="#ArialMT-30" transform="translate(55.615234 0)"/>
      </g>
     </g>
    </g>
    <g id="ytick_24">
     <g id="line2d_29">
      <g>
       <use xlink:href="#mea290bc93b" x="1118.12505" y="29.285236" style="fill: #262626; stroke: #262626"/>
      </g>
     </g>
     <g id="text_44">
      <!-- 60 -->
      <g style="fill: #d85a30" transform="translate(1126.42505 32.434674) scale(0.088 -0.088)">
       <use xlink:href="#ArialMT-36"/>
       <use xlink:href="#ArialMT-30" transform="translate(55.615234 0)"/>
      </g>
     </g>
    </g>
    <g id="text_45">
     <!-- Avg discount (%) -->
     <g style="fill: #d85a30" transform="translate(1147.2008 202.198274) rotate(-90) scale(0.096 -0.096)">
      <use xlink:href="#ArialMT-41"/>
      <use xlink:href="#ArialMT-76" transform="translate(64.949219 0)"/>
      <use xlink:href="#ArialMT-67" transform="translate(114.949219 0)"/>
      <use xlink:href="#ArialMT-20" transform="translate(170.564453 0)"/>
      <use xlink:href="#ArialMT-64" transform="translate(198.347656 0)"/>
      <use xlink:href="#ArialMT-69" transform="translate(253.962891 0)"/>
      <use xlink:href="#ArialMT-73" transform="translate(276.179688 0)"/>
      <use xlink:href="#ArialMT-63" transform="translate(326.179688 0)"/>
      <use xlink:href="#ArialMT-6f" transform="translate(376.179688 0)"/>
      <use xlink:href="#ArialMT-75" transform="translate(431.794922 0)"/>
      <use xlink:href="#ArialMT-6e" transform="translate(487.410156 0)"/>
      <use xlink:href="#ArialMT-74" transform="translate(543.025391 0)"/>
      <use xlink:href="#ArialMT-20" transform="translate(570.808594 0)"/>
      <use xlink:href="#ArialMT-28" transform="translate(598.591797 0)"/>
      <use xlink:href="#ArialMT-25" transform="translate(631.892578 0)"/>
      <use xlink:href="#ArialMT-29" transform="translate(720.808594 0)"/>
     </g>
    </g>
   </g>
   <g id="line2d_30">
    <path d="M 51.108 211.02987 
L 53.284165 223.981945 
L 55.460329 215.405678 
L 57.636494 220.622421 
L 59.812659 132.467451 
L 61.988823 210.453344 
L 64.164988 190.84594 
L 66.341153 189.118966 
L 68.517317 185.14731 
L 70.693482 197.873453 
L 72.869646 195.557205 
L 75.045811 191.945059 
L 77.221976 150.754379 
L 79.39814 189.42192 
L 81.574305 177.663054 
L 83.75047 199.24865 
L 85.926634 202.803088 
L 88.102799 195.266283 
L 90.278964 205.539048 
L 92.455128 213.583818 
L 94.631293 213.219463 
L 96.807458 171.010853 
L 98.983622 195.719171 
L 101.159787 209.521063 
L 103.335952 191.638701 
L 105.512116 212.253379 
L 107.688281 124.601386 
L 109.864445 179.087691 
L 112.04061 167.815954 
L 114.216775 186.674183 
L 116.392939 202.713828 
L 118.569104 213.662886 
L 120.745269 207.755157 
L 122.921433 218.077968 
L 125.097598 201.933215 
L 129.449927 225.651609 
L 131.626092 226.834313 
L 133.802257 223.133282 
L 135.978421 216.461075 
L 138.154586 230.755809 
L 140.330751 219.848325 
L 142.506915 215.53553 
L 144.68308 213.706928 
L 146.859244 217.881026 
L 149.035409 197.233992 
L 151.211574 202.2917 
L 153.387738 205.659251 
L 155.563903 219.111585 
L 157.740068 230.119154 
L 159.916232 220.615034 
L 162.092397 217.391849 
L 164.268562 225.729345 
L 166.444726 234.547439 
L 168.620891 56.342902 
L 170.797056 278.215759 
L 172.97322 223.519529 
L 175.149385 204.491264 
L 177.32555 248.992461 
L 179.501714 170.564606 
L 181.677879 253.680418 
L 183.854044 207.074736 
L 186.030208 146.397539 
L 188.206373 241.034399 
L 190.382537 212.397675 
L 192.558702 218.143665 
L 194.734867 295.887319 
L 196.911031 224.242179 
L 199.087196 263.683729 
L 201.263361 277.25269 
L 203.439525 144.456113 
L 205.61569 181.236194 
L 207.791855 221.543708 
L 209.968019 235.336238 
L 212.144184 262.131844 
L 214.320349 226.118288 
L 216.496513 166.683145 
L 218.672678 264.534058 
L 220.848843 264.279278 
L 223.025007 237.870028 
L 225.201172 246.000322 
L 227.377336 242.34038 
L 229.553501 173.821189 
L 231.729666 206.65817 
L 233.90583 276.732938 
L 236.081995 246.587335 
L 238.25816 264.803106 
L 240.434324 212.875201 
L 242.610489 252.253012 
L 244.786654 179.646365 
L 246.962818 239.84776 
L 249.138983 216.576257 
L 251.315148 221.096569 
L 253.491312 223.78552 
L 255.667477 222.936278 
L 257.843642 242.033775 
L 260.019806 237.085815 
L 262.195971 230.159103 
L 264.372135 235.452653 
L 266.5483 248.273323 
L 268.724465 227.835598 
L 270.900629 133.519222 
L 273.076794 197.098278 
L 275.252959 235.168748 
L 277.429123 241.598101 
L 279.605288 227.050238 
L 281.781453 228.527212 
L 283.957617 227.784081 
L 286.133782 215.571999 
L 288.309947 230.00631 
L 290.486111 173.176614 
L 292.662276 259.521987 
L 294.838441 240.026923 
L 297.014605 231.441107 
L 299.19077 233.610298 
L 301.366934 239.781323 
L 303.543099 221.979676 
L 305.719264 238.114071 
L 307.895428 226.553962 
L 310.071593 229.074989 
L 312.247758 216.695909 
L 314.423922 230.858935 
L 316.600087 237.355531 
L 318.776252 251.003198 
L 320.952416 235.575298 
L 323.128581 236.913132 
L 325.304746 240.794961 
L 327.48091 230.705104 
L 329.657075 245.906802 
L 331.83324 238.966943 
L 334.009404 219.430607 
L 336.185569 207.912808 
L 338.361733 227.340609 
L 340.537898 231.284333 
L 342.714063 226.461764 
L 344.890227 239.131807 
L 347.066392 234.653875 
L 349.242557 231.286885 
L 351.418721 220.024089 
L 353.594886 210.451485 
L 355.771051 222.937965 
L 357.947215 242.905123 
L 360.12338 214.192736 
L 362.299545 252.73207 
L 364.475709 257.97834 
L 366.651874 247.129685 
L 368.828039 252.882447 
L 371.004203 225.509682 
L 373.180368 222.493005 
L 375.356532 233.0701 
L 377.532697 227.577067 
L 379.708862 230.968647 
L 381.885026 237.287392 
L 384.061191 230.094389 
L 386.237356 219.600224 
L 388.41352 233.07444 
L 390.589685 215.802075 
L 392.76585 222.364377 
L 394.942014 241.199038 
L 397.118179 225.411345 
L 399.294344 266.429623 
L 401.470508 233.751968 
L 403.646673 204.246305 
L 405.822838 229.170348 
L 407.999002 227.793723 
L 410.175167 231.166759 
L 412.351331 247.151961 
L 414.527496 232.107663 
L 416.703661 229.081579 
L 418.879825 243.885685 
L 421.05599 246.783851 
L 423.232155 242.926143 
L 425.408319 228.478017 
L 427.584484 240.492787 
L 429.760649 225.324763 
L 431.936813 242.131114 
L 434.112978 228.737651 
L 436.289143 237.17153 
L 438.465307 224.976585 
L 440.641472 230.094597 
L 442.817637 184.183181 
L 444.993801 197.107855 
L 447.169966 226.138999 
L 449.346131 221.848293 
L 451.522295 218.852779 
L 453.69846 117.667622 
L 455.874624 182.337937 
L 458.050789 122.305516 
L 460.226954 209.408408 
L 462.403118 184.015436 
L 464.579283 192.498527 
L 466.755448 220.954562 
L 468.931612 190.217688 
L 471.107777 211.591333 
L 473.283942 214.849766 
L 475.460106 233.441849 
L 477.636271 194.809359 
L 479.812436 206.602989 
L 481.9886 211.51296 
L 484.164765 195.560139 
L 486.34093 228.796347 
L 488.517094 188.360714 
L 490.693259 193.316273 
L 492.869423 194.058776 
L 495.045588 202.440843 
L 497.221753 214.993419 
L 499.397917 219.09885 
L 501.574082 226.688717 
L 503.750247 168.596748 
L 505.926411 195.893879 
L 508.102576 191.663193 
L 510.278741 181.784336 
L 512.454905 226.920358 
L 514.63107 230.36059 
L 516.807235 210.448864 
L 518.983399 209.091777 
L 521.159564 223.716459 
L 523.335729 179.287125 
L 525.511893 211.926526 
L 527.688058 219.551136 
L 529.864222 218.623579 
L 532.040387 183.527761 
L 534.216552 201.786727 
L 536.392716 193.188613 
L 538.568881 206.622819 
L 540.745046 200.623584 
L 542.92121 207.344351 
L 545.097375 210.215533 
L 547.27354 205.113606 
L 549.449704 208.755992 
L 551.625869 214.341494 
L 553.802034 215.65413 
L 555.978198 219.341948 
L 558.154363 237.493673 
L 560.330528 207.908762 
L 562.506692 199.546376 
L 564.682857 232.092141 
L 566.859021 228.481375 
L 569.035186 210.344204 
L 571.211351 209.716105 
L 575.56368 212.012924 
L 577.739845 220.023251 
L 579.916009 200.341849 
L 582.092174 211.028162 
L 584.268339 208.300205 
L 586.444503 224.479293 
L 588.620668 230.335558 
L 590.796833 214.873118 
L 592.972997 258.039709 
L 595.149162 231.217474 
L 597.325327 184.657962 
L 599.501491 186.680689 
L 601.677656 190.636936 
L 603.85382 221.122993 
L 606.029985 214.857349 
L 608.20615 247.716376 
L 610.382314 215.781516 
L 612.558479 233.082903 
L 614.734644 229.045264 
L 616.910808 226.554998 
L 619.086973 225.3125 
L 621.263138 222.137327 
L 623.439302 227.654414 
L 625.615467 182.782235 
L 627.791632 209.289636 
L 629.967796 215.679484 
L 632.143961 218.351409 
L 634.320126 203.207946 
L 636.49629 221.276292 
L 638.672455 225.056392 
L 640.848619 203.555294 
L 643.024784 213.678142 
L 645.200949 215.231851 
L 647.377113 214.111691 
L 649.553278 210.890009 
L 651.729443 219.63264 
L 653.905607 207.05603 
L 656.081772 225.529457 
L 658.257937 207.339913 
L 660.434101 208.193251 
L 662.610266 207.258552 
L 664.786431 214.954403 
L 666.962595 191.622763 
L 669.13876 215.760196 
L 671.314925 218.19843 
L 673.491089 222.198385 
L 675.667254 240.722372 
L 677.843419 220.425078 
L 680.019583 216.235541 
L 682.195748 216.568602 
L 684.371912 209.507006 
L 686.548077 87.624642 
L 688.724242 204.031895 
L 690.900406 213.957452 
L 693.076571 211.448411 
L 695.252736 218.073384 
L 697.4289 214.005692 
L 699.605065 222.590956 
L 701.78123 205.614318 
L 703.957394 210.062339 
L 706.133559 219.915917 
L 708.309724 200.654703 
L 710.485888 228.03766 
L 712.662053 223.580492 
L 714.838218 232.945277 
L 717.014382 194.923847 
L 719.190547 216.318206 
L 721.366711 220.010681 
L 723.542876 229.117025 
L 725.719041 227.014218 
L 727.895205 248.092439 
L 730.07137 238.274454 
L 732.247535 207.466275 
L 734.423699 206.867611 
L 736.599864 200.72054 
L 738.776029 229.155364 
L 740.952193 244.238472 
L 743.128358 238.074489 
L 745.304523 221.735184 
L 747.480687 221.265713 
L 749.656852 235.362736 
L 751.833017 207.805608 
L 754.009181 211.214741 
L 756.185346 197.063125 
L 758.36151 205.054512 
L 760.537675 199.539038 
L 762.71384 202.609751 
L 764.890004 200.129336 
L 767.066169 189.152355 
L 769.242334 193.667547 
L 771.418498 229.393586 
L 773.594663 217.494517 
L 775.770828 223.701416 
L 777.946992 224.85306 
L 780.123157 218.883017 
L 782.299322 217.927898 
L 784.475486 233.209586 
L 786.651651 239.902839 
L 788.827816 231.61237 
L 791.00398 227.385075 
L 793.180145 228.807181 
L 795.356309 234.102885 
L 797.532474 218.901091 
L 799.708639 240.760824 
L 801.884803 233.367093 
L 804.060968 230.714073 
L 806.237133 237.557442 
L 808.413297 236.919576 
L 810.589462 231.279415 
L 812.765627 227.408438 
L 814.941791 228.233413 
L 817.117956 230.580745 
L 819.294121 231.895742 
L 821.470285 224.947976 
L 823.64645 99.224656 
L 825.822615 194.051278 
L 827.998779 223.120723 
L 830.174944 214.219529 
L 832.351108 208.4101 
L 834.527273 212.174539 
L 836.703438 215.44799 
L 838.879602 203.717317 
L 841.055767 214.814458 
L 843.231932 203.10834 
L 845.408096 208.827128 
L 847.584261 215.618239 
L 849.760426 223.637524 
L 851.93659 228.171984 
L 854.112755 221.0916 
L 856.28892 210.856258 
L 858.465084 196.143744 
L 860.641249 208.673027 
L 862.817414 199.927316 
L 864.993578 212.118154 
L 867.169743 217.205277 
L 869.345907 147.058316 
L 871.522072 158.676477 
L 873.698237 207.906721 
L 875.874401 201.433803 
L 878.050566 199.747918 
L 880.226731 211.379941 
L 882.402895 216.733711 
L 884.57906 184.643135 
L 886.755225 192.382148 
L 888.931389 202.025828 
L 891.107554 205.396467 
L 893.283719 206.432636 
L 895.459883 194.53702 
L 897.636048 209.360141 
L 899.812213 208.839344 
L 901.988377 196.955506 
L 904.164542 213.017486 
L 906.340706 211.432087 
L 908.516871 213.350491 
L 910.693036 207.770597 
L 912.8692 221.152799 
L 915.045365 219.821057 
L 917.22153 212.437657 
L 919.397694 214.146484 
L 921.573859 203.753985 
L 925.926188 227.215931 
L 928.102353 221.249615 
L 930.278518 221.38463 
L 932.454682 235.293435 
L 934.630847 228.362937 
L 936.807012 220.280866 
L 938.983176 209.519015 
L 941.159341 225.080505 
L 943.335506 204.525321 
L 945.51167 36.117729 
L 947.687835 177.33749 
L 949.863999 196.063474 
L 952.040164 222.853188 
L 954.216329 215.217089 
L 956.392493 225.824831 
L 958.568658 223.883924 
L 960.744823 232.286338 
L 962.920987 206.346554 
L 965.097152 209.145066 
L 967.273317 223.580759 
L 969.449481 219.044313 
L 971.625646 223.635796 
L 973.801811 237.477738 
L 975.977975 181.309854 
L 978.15414 196.981431 
L 980.330305 219.245202 
L 982.506469 215.832533 
L 984.682634 221.319673 
L 986.858798 212.63202 
L 989.034963 220.804614 
L 991.211128 195.416875 
L 993.387292 202.795956 
L 995.563457 207.100455 
L 997.739622 218.597988 
L 999.915786 227.692986 
L 1002.091951 76.011843 
L 1002.091951 76.011843 
" clip-path="url(#p73b41e5eff)" style="fill: none; stroke: #d85a30; stroke-opacity: 0.8; stroke-linecap: round"/>
   </g>
   <g id="patch_12">
    <path d="M 51.108 308.875799 
L 51.108 23.12925 
" style="fill: none; stroke: #ffffff; stroke-linejoin: miter; stroke-linecap: square"/>
   </g>
   <g id="patch_13">
    <path d="M 1118.12505 308.875799 
L 1118.12505 23.12925 
" style="fill: none; stroke: #ffffff; stroke-linejoin: miter; stroke-linecap: square"/>
   </g>
   <g id="patch_14">
    <path d="M 51.108 308.875799 
L 1039.08675 308.875799 
" style="fill: none; stroke: #ffffff; stroke-linejoin: miter; stroke-linecap: square"/>
   </g>
   <g id="patch_15">
    <path d="M 51.108 23.12925 
L 1039.08675 23.12925 
" style="fill: none; stroke: #ffffff; stroke-linejoin: miter; stroke-linecap: square"/>
   </g>
   <g id="text_46">
    <!-- Daily sales overview — Jan 2017 to Mar 2018 -->
    <g style="fill: #262626" transform="translate(447.455625 17.12925) scale(0.096 -0.096)">
     <defs>
      <path id="ArialMT-77" d="M 1034 0 
L 19 3319 
L 600 3319 
L 1128 1403 
L 1325 691 
Q 1338 744 1497 1375 
L 2025 3319 
L 2603 3319 
L 3100 1394 
L 3266 759 
L 3456 1400 
L 4025 3319 
L 4572 3319 
L 3534 0 
L 2950 0 
L 2422 1988 
L 2294 2553 
L 1622 0 
L 1034 0 
z
" transform="scale(0.015625)"/>
      <path id="ArialMT-2014" d="M 0 1431 
L 0 1884 
L 6400 1884 
L 6400 1431 
L 0 1431 
z
" transform="scale(0.015625)"/>
     </defs>
     <use xlink:href="#ArialMT-44"/>
     <use xlink:href="#ArialMT-61" transform="translate(72.216797 0)"/>
     <use xlink:href="#ArialMT-69" transform="translate(127.832031 0)"/>
     <use xlink:href="#ArialMT-6c" transform="translate(150.048828 0)"/>
     <use xlink:href="#ArialMT-79" transform="translate(172.265625 0)"/>
     <use xlink:href="#ArialMT-20" transform="translate(222.265625 0)"/>
     <use xlink:href="#ArialMT-73" transform="translate(250.048828 0)"/>
     <use xlink:href="#ArialMT-61" transform="translate(300.048828 0)"/>
     <use xlink:href="#ArialMT-6c" transform="translate(355.664062 0)"/>
     <use xlink:href="#ArialMT-65" transform="translate(377.880859 0)"/>
     <use xlink:href="#ArialMT-73" transform="translate(433.496094 0)"/>
     <use xlink:href="#ArialMT-20" transform="translate(483.496094 0)"/>
     <use xlink:href="#ArialMT-6f" transform="translate(511.279297 0)"/>
     <use xlink:href="#ArialMT-76" transform="translate(566.894531 0)"/>
     <use xlink:href="#ArialMT-65" transform="translate(616.894531 0)"/>
     <use xlink:href="#ArialMT-72" transform="translate(672.509766 0)"/>
     <use xlink:href="#ArialMT-76" transform="translate(705.810547 0)"/>
     <use xlink:href="#ArialMT-69" transform="translate(755.810547 0)"/>
     <use xlink:href="#ArialMT-65" transform="translate(778.027344 0)"/>
     <use xlink:href="#ArialMT-77" transform="translate(833.642578 0)"/>
     <use xlink:href="#ArialMT-20" transform="translate(905.859375 0)"/>
     <use xlink:href="#ArialMT-2014" transform="translate(933.642578 0)"/>
     <use xlink:href="#ArialMT-20" transform="translate(1033.642578 0)"/>
     <use xlink:href="#ArialMT-4a" transform="translate(1061.425781 0)"/>
     <use xlink:href="#ArialMT-61" transform="translate(1111.425781 0)"/>
     <use xlink:href="#ArialMT-6e" transform="translate(1167.041016 0)"/>
     <use xlink:href="#ArialMT-20" transform="translate(1222.65625 0)"/>
     <use xlink:href="#ArialMT-32" transform="translate(1250.439453 0)"/>
     <use xlink:href="#ArialMT-30" transform="translate(1306.054688 0)"/>
     <use xlink:href="#ArialMT-31" transform="translate(1361.669922 0)"/>
     <use xlink:href="#ArialMT-37" transform="translate(1417.285156 0)"/>
     <use xlink:href="#ArialMT-20" transform="translate(1472.900391 0)"/>
     <use xlink:href="#ArialMT-74" transform="translate(1500.683594 0)"/>
     <use xlink:href="#ArialMT-6f" transform="translate(1528.466797 0)"/>
     <use xlink:href="#ArialMT-20" transform="translate(1584.082031 0)"/>
     <use xlink:href="#ArialMT-4d" transform="translate(1611.865234 0)"/>
     <use xlink:href="#ArialMT-61" transform="translate(1695.166016 0)"/>
     <use xlink:href="#ArialMT-72" transform="translate(1750.78125 0)"/>
     <use xlink:href="#ArialMT-20" transform="translate(1784.082031 0)"/>
     <use xlink:href="#ArialMT-32" transform="translate(1811.865234 0)"/>
     <use xlink:href="#ArialMT-30" transform="translate(1867.480469 0)"/>
     <use xlink:href="#ArialMT-31" transform="translate(1923.095703 0)"/>
     <use xlink:href="#ArialMT-38" transform="translate(1978.710938 0)"/>
    </g>
   </g>
  </g>
 </g>
 <defs>
  <clipPath id="p73b41e5eff">
   <rect x="51.108" y="23.12925" width="987.97875" height="285.746549"/>
  </clipPath>
 </defs>
</svg>
