<?xml version="1.0" encoding="utf-8" standalone="no"?>
<!DOCTYPE svg PUBLIC "-//W3C//DTD SVG 1.1//EN"
  "http://www.w3.org/Graphics/SVG/1.1/DTD/svg11.dtd">
<svg xmlns:xlink="http://www.w3.org/1999/xlink" width="864pt" height="360pt" viewBox="0 0 864 360" xmlns="http://www.w3.org/2000/svg" version="1.1">
 <metadata>
  <rdf:RDF xmlns:dc="http://purl.org/dc/elements/1.1/" xmlns:cc="http://creativecommons.org/ns#" xmlns:rdf="http://www.w3.org/1999/02/22-rdf-syntax-ns#">
   <cc:Work>
    <dc:type rdf:resource="http://purl.org/dc/dcmitype/StillImage"/>
    <dc:date>2026-05-19T14:20:25.357095</dc:date>
    <dc:format>image/svg+xml</dc:format>
    <dc:creator>
     <cc:Agent>
      <dc:title>Matplotlib v3.10.9, https://matplotlib.org/</dc:title>
     </cc:Agent>
    </dc:creator>
   </cc:Work>
  </rdf:RDF>
 </metadata>
 <defs>
  <style type="text/css">*{stroke-linejoin: round; stroke-linecap: butt}</style>
 </defs>
 <g id="figure_1">
  <g id="patch_1">
   <path d="M 0 360 
L 864 360 
L 864 0 
L 0 0 
z
" style="fill: #ffffff"/>
  </g>
  <g id="axes_1">
   <g id="patch_2">
    <path d="M 51.108 313.63095 
L 846.366323 313.63095 
L 846.366323 22.848 
L 51.108 22.848 
z
" style="fill: #eaeaf2"/>
   </g>
   <g id="matplotlib.axis_1">
    <g id="xtick_1">
     <g id="text_1">
      <!-- $\mathdefault{10^{0}}$ -->
      <g style="fill: #262626" transform="translate(44.2 331.00595) scale(0.088 -0.088)">
       <defs>
        <path id="ArialMT-31" d="M 2384 0 
L 1822 0 
L 1822 3584 
Q 1619 3391 1289 3197 
Q 959 3003 697 2906 
L 697 3450 
Q 1169 3672 1522 3987 
Q 1875 4303 2022 4600 
L 2384 4600 
L 2384 0 
z
" transform="scale(0.015625)"/>
        <path id="ArialMT-30" d="M 266 2259 
Q 266 3072 433 3567 
Q 600 4063 929 4331 
Q 1259 4600 1759 4600 
Q 2128 4600 2406 4451 
Q 2684 4303 2865 4023 
Q 3047 3744 3150 3342 
Q 3253 2941 3253 2259 
Q 3253 1453 3087 958 
Q 2922 463 2592 192 
Q 2263 -78 1759 -78 
Q 1097 -78 719 397 
Q 266 969 266 2259 
z
M 844 2259 
Q 844 1131 1108 757 
Q 1372 384 1759 384 
Q 2147 384 2411 759 
Q 2675 1134 2675 2259 
Q 2675 3391 2411 3762 
Q 2147 4134 1753 4134 
Q 1366 4134 1134 3806 
Q 844 3388 844 2259 
z
" transform="scale(0.015625)"/>
       </defs>
       <use xlink:href="#ArialMT-31" transform="translate(0 0.99375)"/>
       <use xlink:href="#ArialMT-30" transform="translate(55.615234 0.99375)"/>
       <use xlink:href="#ArialMT-30" transform="translate(112.972813 70.6875) scale(0.7)"/>
      </g>
     </g>
    </g>
    <g id="xtick_2">
     <g id="text_2">
      <!-- $\mathdefault{10^{1}}$ -->
      <g style="fill: #262626" transform="translate(243.014581 331.00595) scale(0.088 -0.088)">
       <use xlink:href="#ArialMT-31" transform="translate(0 0.99375)"/>
       <use xlink:href="#ArialMT-30" transform="translate(55.615234 0.99375)"/>
       <use xlink:href="#ArialMT-31" transform="translate(112.972813 70.6875) scale(0.7)"/>
      </g>
     </g>
    </g>
    <g id="xtick_3">
     <g id="text_3">
      <!-- $\mathdefault{10^{2}}$ -->
      <g style="fill: #262626" transform="translate(441.829162 331.00595) scale(0.088 -0.088)">
       <defs>
        <path id="ArialMT-32" d="M 3222 541 
L 3222 0 
L 194 0 
Q 188 203 259 391 
Q 375 700 629 1000 
Q 884 1300 1366 1694 
Q 2113 2306 2375 2664 
Q 2638 3022 2638 3341 
Q 2638 3675 2398 3904 
Q 2159 4134 1775 4134 
Q 1369 4134 1125 3890 
Q 881 3647 878 3216 
L 300 3275 
Q 359 3922 746 4261 
Q 1134 4600 1788 4600 
Q 2447 4600 2831 4234 
Q 3216 3869 3216 3328 
Q 3216 3053 3103 2787 
Q 2991 2522 2730 2228 
Q 2469 1934 1863 1422 
Q 1356 997 1212 845 
Q 1069 694 975 541 
L 3222 541 
z
" transform="scale(0.015625)"/>
       </defs>
       <use xlink:href="#ArialMT-31" transform="translate(0 0.99375)"/>
       <use xlink:href="#ArialMT-30" transform="translate(55.615234 0.99375)"/>
       <use xlink:href="#ArialMT-32" transform="translate(112.972813 70.6875) scale(0.7)"/>
      </g>
     </g>
    </g>
    <g id="xtick_4">
     <g id="text_4">
      <!-- $\mathdefault{10^{3}}$ -->
      <g style="fill: #262626" transform="translate(640.643742 331.00595) scale(0.088 -0.088)">
       <defs>
        <path id="ArialMT-33" d="M 269 1209 
L 831 1284 
Q 928 806 1161 595 
Q 1394 384 1728 384 
Q 2125 384 2398 659 
Q 2672 934 2672 1341 
Q 2672 1728 2419 1979 
Q 2166 2231 1775 2231 
Q 1616 2231 1378 2169 
L 1441 2663 
Q 1497 2656 1531 2656 
Q 1891 2656 2178 2843 
Q 2466 3031 2466 3422 
Q 2466 3731 2256 3934 
Q 2047 4138 1716 4138 
Q 1388 4138 1169 3931 
Q 950 3725 888 3313 
L 325 3413 
Q 428 3978 793 4289 
Q 1159 4600 1703 4600 
Q 2078 4600 2393 4439 
Q 2709 4278 2876 4000 
Q 3044 3722 3044 3409 
Q 3044 3113 2884 2869 
Q 2725 2625 2413 2481 
Q 2819 2388 3044 2092 
Q 3269 1797 3269 1353 
Q 3269 753 2831 336 
Q 2394 -81 1725 -81 
Q 1122 -81 723 278 
Q 325 638 269 1209 
z
" transform="scale(0.015625)"/>
       </defs>
       <use xlink:href="#ArialMT-31" transform="translate(0 0.99375)"/>
       <use xlink:href="#ArialMT-30" transform="translate(55.615234 0.99375)"/>
       <use xlink:href="#ArialMT-33" transform="translate(112.972813 70.6875) scale(0.7)"/>
      </g>
     </g>
    </g>
    <g id="xtick_5">
     <g id="text_5">
      <!-- $\mathdefault{10^{4}}$ -->
      <g style="fill: #262626" transform="translate(839.458323 330.91795) scale(0.088 -0.088)">
       <defs>
        <path id="ArialMT-34" d="M 2069 0 
L 2069 1097 
L 81 1097 
L 81 1613 
L 2172 4581 
L 2631 4581 
L 2631 1613 
L 3250 1613 
L 3250 1097 
L 2631 1097 
L 2631 0 
L 2069 0 
z
M 2069 1613 
L 2069 3678 
L 634 1613 
L 2069 1613 
z
" transform="scale(0.015625)"/>
       </defs>
       <use xlink:href="#ArialMT-31" transform="translate(0 0.201563)"/>
       <use xlink:href="#ArialMT-30" transform="translate(55.615234 0.201563)"/>
       <use xlink:href="#ArialMT-34" transform="translate(112.972813 69.895313) scale(0.7)"/>
      </g>
     </g>
    </g>
    <g id="xtick_6"/>
    <g id="xtick_7"/>
    <g id="xtick_8"/>
    <g id="xtick_9"/>
    <g id="xtick_10"/>
    <g id="xtick_11"/>
    <g id="xtick_12"/>
    <g id="xtick_13"/>
    <g id="xtick_14"/>
    <g id="xtick_15"/>
    <g id="xtick_16"/>
    <g id="xtick_17"/>
    <g id="xtick_18"/>
    <g id="xtick_19"/>
    <g id="xtick_20"/>
    <g id="xtick_21"/>
    <g id="xtick_22"/>
    <g id="xtick_23"/>
    <g id="xtick_24"/>
    <g id="xtick_25"/>
    <g id="xtick_26"/>
    <g id="xtick_27"/>
    <g id="xtick_28"/>
    <g id="xtick_29"/>
    <g id="xtick_30"/>
    <g id="xtick_31"/>
    <g id="xtick_32"/>
    <g id="xtick_33"/>
    <g id="xtick_34"/>
    <g id="xtick_35"/>
    <g id="xtick_36"/>
    <g id="xtick_37"/>
    <g id="text_6">
     <!-- Unit Price -->
     <g style="fill: #262626" transform="translate(427.932162 343.62645) scale(0.096 -0.096)">
      <defs>
       <path id="ArialMT-55" d="M 3500 4581 
L 4106 4581 
L 4106 1934 
Q 4106 1244 3950 837 
Q 3794 431 3386 176 
Q 2978 -78 2316 -78 
Q 1672 -78 1262 144 
Q 853 366 678 786 
Q 503 1206 503 1934 
L 503 4581 
L 1109 4581 
L 1109 1938 
Q 1109 1341 1220 1058 
Q 1331 775 1601 622 
Q 1872 469 2263 469 
Q 2931 469 3215 772 
Q 3500 1075 3500 1938 
L 3500 4581 
z
" transform="scale(0.015625)"/>
       <path id="ArialMT-6e" d="M 422 0 
L 422 3319 
L 928 3319 
L 928 2847 
Q 1294 3394 1984 3394 
Q 2284 3394 2536 3286 
Q 2788 3178 2913 3003 
Q 3038 2828 3088 2588 
Q 3119 2431 3119 2041 
L 3119 0 
L 2556 0 
L 2556 2019 
Q 2556 2363 2490 2533 
Q 2425 2703 2258 2804 
Q 2091 2906 1866 2906 
Q 1506 2906 1245 2678 
Q 984 2450 984 1813 
L 984 0 
L 422 0 
z
" transform="scale(0.015625)"/>
       <path id="ArialMT-69" d="M 425 3934 
L 425 4581 
L 988 4581 
L 988 3934 
L 425 3934 
z
M 425 0 
L 425 3319 
L 988 3319 
L 988 0 
L 425 0 
z
" transform="scale(0.015625)"/>
       <path id="ArialMT-74" d="M 1650 503 
L 1731 6 
Q 1494 -44 1306 -44 
Q 1000 -44 831 53 
Q 663 150 594 308 
Q 525 466 525 972 
L 525 2881 
L 113 2881 
L 113 3319 
L 525 3319 
L 525 4141 
L 1084 4478 
L 1084 3319 
L 1650 3319 
L 1650 2881 
L 1084 2881 
L 1084 941 
Q 1084 700 1114 631 
Q 1144 563 1211 522 
Q 1278 481 1403 481 
Q 1497 481 1650 503 
z
" transform="scale(0.015625)"/>
       <path id="ArialMT-20" transform="scale(0.015625)"/>
       <path id="ArialMT-50" d="M 494 0 
L 494 4581 
L 2222 4581 
Q 2678 4581 2919 4538 
Q 3256 4481 3484 4323 
Q 3713 4166 3852 3881 
Q 3991 3597 3991 3256 
Q 3991 2672 3619 2267 
Q 3247 1863 2275 1863 
L 1100 1863 
L 1100 0 
L 494 0 
z
M 1100 2403 
L 2284 2403 
Q 2872 2403 3119 2622 
Q 3366 2841 3366 3238 
Q 3366 3525 3220 3729 
Q 3075 3934 2838 4000 
Q 2684 4041 2272 4041 
L 1100 4041 
L 1100 2403 
z
" transform="scale(0.015625)"/>
       <path id="ArialMT-72" d="M 416 0 
L 416 3319 
L 922 3319 
L 922 2816 
Q 1116 3169 1280 3281 
Q 1444 3394 1641 3394 
Q 1925 3394 2219 3213 
L 2025 2691 
Q 1819 2813 1613 2813 
Q 1428 2813 1281 2702 
Q 1134 2591 1072 2394 
Q 978 2094 978 1738 
L 978 0 
L 416 0 
z
" transform="scale(0.015625)"/>
       <path id="ArialMT-63" d="M 2588 1216 
L 3141 1144 
Q 3050 572 2676 248 
Q 2303 -75 1759 -75 
Q 1078 -75 664 370 
Q 250 816 250 1647 
Q 250 2184 428 2587 
Q 606 2991 970 3192 
Q 1334 3394 1763 3394 
Q 2303 3394 2647 3120 
Q 2991 2847 3088 2344 
L 2541 2259 
Q 2463 2594 2264 2762 
Q 2066 2931 1784 2931 
Q 1359 2931 1093 2626 
Q 828 2322 828 1663 
Q 828 994 1084 691 
Q 1341 388 1753 388 
Q 2084 388 2306 591 
Q 2528 794 2588 1216 
z
" transform="scale(0.015625)"/>
       <path id="ArialMT-65" d="M 2694 1069 
L 3275 997 
Q 3138 488 2766 206 
Q 2394 -75 1816 -75 
Q 1088 -75 661 373 
Q 234 822 234 1631 
Q 234 2469 665 2931 
Q 1097 3394 1784 3394 
Q 2450 3394 2872 2941 
Q 3294 2488 3294 1666 
Q 3294 1616 3291 1516 
L 816 1516 
Q 847 969 1125 678 
Q 1403 388 1819 388 
Q 2128 388 2347 550 
Q 2566 713 2694 1069 
z
M 847 1978 
L 2700 1978 
Q 2663 2397 2488 2606 
Q 2219 2931 1791 2931 
Q 1403 2931 1139 2672 
Q 875 2413 847 1978 
z
" transform="scale(0.015625)"/>
      </defs>
      <use xlink:href="#ArialMT-55"/>
      <use xlink:href="#ArialMT-6e" transform="translate(72.216797 0)"/>
      <use xlink:href="#ArialMT-69" transform="translate(127.832031 0)"/>
      <use xlink:href="#ArialMT-74" transform="translate(150.048828 0)"/>
      <use xlink:href="#ArialMT-20" transform="translate(177.832031 0)"/>
      <use xlink:href="#ArialMT-50" transform="translate(205.615234 0)"/>
      <use xlink:href="#ArialMT-72" transform="translate(272.314453 0)"/>
      <use xlink:href="#ArialMT-69" transform="translate(305.615234 0)"/>
      <use xlink:href="#ArialMT-63" transform="translate(327.832031 0)"/>
      <use xlink:href="#ArialMT-65" transform="translate(377.832031 0)"/>
     </g>
    </g>
   </g>
   <g id="matplotlib.axis_2">
    <g id="ytick_1">
     <g id="text_7">
      <!-- 0 -->
      <g style="fill: #262626" transform="translate(37.914375 316.780388) scale(0.088 -0.088)">
       <use xlink:href="#ArialMT-30"/>
      </g>
     </g>
    </g>
    <g id="ytick_2">
     <g id="text_8">
      <!-- 500 -->
      <g style="fill: #262626" transform="translate(28.127125 268.316563) scale(0.088 -0.088)">
       <defs>
        <path id="ArialMT-35" d="M 266 1200 
L 856 1250 
Q 922 819 1161 601 
Q 1400 384 1738 384 
Q 2144 384 2425 690 
Q 2706 997 2706 1503 
Q 2706 1984 2436 2262 
Q 2166 2541 1728 2541 
Q 1456 2541 1237 2417 
Q 1019 2294 894 2097 
L 366 2166 
L 809 4519 
L 3088 4519 
L 3088 3981 
L 1259 3981 
L 1013 2750 
Q 1425 3038 1878 3038 
Q 2478 3038 2890 2622 
Q 3303 2206 3303 1553 
Q 3303 931 2941 478 
Q 2500 -78 1738 -78 
Q 1113 -78 717 272 
Q 322 622 266 1200 
z
" transform="scale(0.015625)"/>
       </defs>
       <use xlink:href="#ArialMT-35"/>
       <use xlink:href="#ArialMT-30" transform="translate(55.615234 0)"/>
       <use xlink:href="#ArialMT-30" transform="translate(111.230469 0)"/>
      </g>
     </g>
    </g>
    <g id="ytick_3">
     <g id="text_9">
      <!-- 1000 -->
      <g style="fill: #262626" transform="translate(23.2335 219.852738) scale(0.088 -0.088)">
       <use xlink:href="#ArialMT-31"/>
       <use xlink:href="#ArialMT-30" transform="translate(55.615234 0)"/>
       <use xlink:href="#ArialMT-30" transform="translate(111.230469 0)"/>
       <use xlink:href="#ArialMT-30" transform="translate(166.845703 0)"/>
      </g>
     </g>
    </g>
    <g id="ytick_4">
     <g id="text_10">
      <!-- 1500 -->
      <g style="fill: #262626" transform="translate(23.2335 171.388913) scale(0.088 -0.088)">
       <use xlink:href="#ArialMT-31"/>
       <use xlink:href="#ArialMT-35" transform="translate(55.615234 0)"/>
       <use xlink:href="#ArialMT-30" transform="translate(111.230469 0)"/>
       <use xlink:href="#ArialMT-30" transform="translate(166.845703 0)"/>
      </g>
     </g>
    </g>
    <g id="ytick_5">
     <g id="text_11">
      <!-- 2000 -->
      <g style="fill: #262626" transform="translate(23.2335 122.925088) scale(0.088 -0.088)">
       <use xlink:href="#ArialMT-32"/>
       <use xlink:href="#ArialMT-30" transform="translate(55.615234 0)"/>
       <use xlink:href="#ArialMT-30" transform="translate(111.230469 0)"/>
       <use xlink:href="#ArialMT-30" transform="translate(166.845703 0)"/>
      </g>
     </g>
    </g>
    <g id="ytick_6">
     <g id="text_12">
      <!-- 2500 -->
      <g style="fill: #262626" transform="translate(23.2335 74.461262) scale(0.088 -0.088)">
       <use xlink:href="#ArialMT-32"/>
       <use xlink:href="#ArialMT-35" transform="translate(55.615234 0)"/>
       <use xlink:href="#ArialMT-30" transform="translate(111.230469 0)"/>
       <use xlink:href="#ArialMT-30" transform="translate(166.845703 0)"/>
      </g>
     </g>
    </g>
    <g id="ytick_7">
     <g id="text_13">
      <!-- 3000 -->
      <g style="fill: #262626" transform="translate(23.2335 25.997437) scale(0.088 -0.088)">
       <use xlink:href="#ArialMT-33"/>
       <use xlink:href="#ArialMT-30" transform="translate(55.615234 0)"/>
       <use xlink:href="#ArialMT-30" transform="translate(111.230469 0)"/>
       <use xlink:href="#ArialMT-30" transform="translate(166.845703 0)"/>
      </g>
     </g>
    </g>
    <g id="text_14">
     <!-- Count -->
     <g style="fill: #262626" transform="translate(17.3255 181.047225) rotate(-90) scale(0.096 -0.096)">
      <defs>
       <path id="ArialMT-43" d="M 3763 1606 
L 4369 1453 
Q 4178 706 3683 314 
Q 3188 -78 2472 -78 
Q 1731 -78 1267 223 
Q 803 525 561 1097 
Q 319 1669 319 2325 
Q 319 3041 592 3573 
Q 866 4106 1370 4382 
Q 1875 4659 2481 4659 
Q 3169 4659 3637 4309 
Q 4106 3959 4291 3325 
L 3694 3184 
Q 3534 3684 3231 3912 
Q 2928 4141 2469 4141 
Q 1941 4141 1586 3887 
Q 1231 3634 1087 3207 
Q 944 2781 944 2328 
Q 944 1744 1114 1308 
Q 1284 872 1643 656 
Q 2003 441 2422 441 
Q 2931 441 3284 734 
Q 3638 1028 3763 1606 
z
" transform="scale(0.015625)"/>
       <path id="ArialMT-6f" d="M 213 1659 
Q 213 2581 725 3025 
Q 1153 3394 1769 3394 
Q 2453 3394 2887 2945 
Q 3322 2497 3322 1706 
Q 3322 1066 3130 698 
Q 2938 331 2570 128 
Q 2203 -75 1769 -75 
Q 1072 -75 642 372 
Q 213 819 213 1659 
z
M 791 1659 
Q 791 1022 1069 705 
Q 1347 388 1769 388 
Q 2188 388 2466 706 
Q 2744 1025 2744 1678 
Q 2744 2294 2464 2611 
Q 2184 2928 1769 2928 
Q 1347 2928 1069 2612 
Q 791 2297 791 1659 
z
" transform="scale(0.015625)"/>
       <path id="ArialMT-75" d="M 2597 0 
L 2597 488 
Q 2209 -75 1544 -75 
Q 1250 -75 995 37 
Q 741 150 617 320 
Q 494 491 444 738 
Q 409 903 409 1263 
L 409 3319 
L 972 3319 
L 972 1478 
Q 972 1038 1006 884 
Q 1059 663 1231 536 
Q 1403 409 1656 409 
Q 1909 409 2131 539 
Q 2353 669 2445 892 
Q 2538 1116 2538 1541 
L 2538 3319 
L 3100 3319 
L 3100 0 
L 2597 0 
z
" transform="scale(0.015625)"/>
      </defs>
      <use xlink:href="#ArialMT-43"/>
      <use xlink:href="#ArialMT-6f" transform="translate(72.216797 0)"/>
      <use xlink:href="#ArialMT-75" transform="translate(127.832031 0)"/>
      <use xlink:href="#ArialMT-6e" transform="translate(183.447266 0)"/>
      <use xlink:href="#ArialMT-74" transform="translate(239.0625 0)"/>
     </g>
    </g>
   </g>
   <g id="patch_3">
    <path d="M -346.521162 313.63095 
L -338.51659 313.63095 
L -338.51659 313.437095 
L -346.521162 313.437095 
z
" clip-path="url(#p62a853cd09)" style="fill: #4c72b0; fill-opacity: 0.75; stroke: #ffffff; stroke-width: 0.4141; stroke-linejoin: miter"/>
   </g>
   <g id="patch_4">
    <path d="M -338.51659 313.63095 
L -330.512018 313.63095 
L -330.512018 313.63095 
L -338.51659 313.63095 
z
" clip-path="url(#p62a853cd09)" style="fill: #4c72b0; fill-opacity: 0.75; stroke: #ffffff; stroke-width: 0.4141; stroke-linejoin: miter"/>
   </g>
   <g id="patch_5">
    <path d="M -330.512018 313.63095 
L -322.507447 313.63095 
L -322.507447 313.63095 
L -330.512018 313.63095 
z
" clip-path="url(#p62a853cd09)" style="fill: #4c72b0; fill-opacity: 0.75; stroke: #ffffff; stroke-width: 0.4141; stroke-linejoin: miter"/>
   </g>
   <g id="patch_6">
    <path d="M -322.507447 313.63095 
L -314.502875 313.63095 
L -314.502875 313.63095 
L -322.507447 313.63095 
z
" clip-path="url(#p62a853cd09)" style="fill: #4c72b0; fill-opacity: 0.75; stroke: #ffffff; stroke-width: 0.4141; stroke-linejoin: miter"/>
   </g>
   <g id="patch_7">
    <path d="M -314.502875 313.63095 
L -306.498304 313.63095 
L -306.498304 313.63095 
L -314.502875 313.63095 
z
" clip-path="url(#p62a853cd09)" style="fill: #4c72b0; fill-opacity: 0.75; stroke: #ffffff; stroke-width: 0.4141; stroke-linejoin: miter"/>
   </g>
   <g id="patch_8">
    <path d="M -306.498304 313.63095 
L -298.493732 313.63095 
L -298.493732 313.63095 
L -306.498304 313.63095 
z
" clip-path="url(#p62a853cd09)" style="fill: #4c72b0; fill-opacity: 0.75; stroke: #ffffff; stroke-width: 0.4141; stroke-linejoin: miter"/>
   </g>
   <g id="patch_9">
    <path d="M -298.493732 313.63095 
L -290.489161 313.63095 
L -290.489161 313.63095 
L -298.493732 313.63095 
z
" clip-path="url(#p62a853cd09)" style="fill: #4c72b0; fill-opacity: 0.75; stroke: #ffffff; stroke-width: 0.4141; stroke-linejoin: miter"/>
   </g>
   <g id="patch_10">
    <path d="M -290.489161 313.63095 
L -282.484589 313.63095 
L -282.484589 313.63095 
L -290.489161 313.63095 
z
" clip-path="url(#p62a853cd09)" style="fill: #4c72b0; fill-opacity: 0.75; stroke: #ffffff; stroke-width: 0.4141; stroke-linejoin: miter"/>
   </g>
   <g id="patch_11">
    <path d="M -282.484589 313.63095 
L -274.480017 313.63095 
L -274.480017 313.63095 
L -282.484589 313.63095 
z
" clip-path="url(#p62a853cd09)" style="fill: #4c72b0; fill-opacity: 0.75; stroke: #ffffff; stroke-width: 0.4141; stroke-linejoin: miter"/>
   </g>
   <g id="patch_12">
    <path d="M -274.480017 313.63095 
L -266.475446 313.63095 
L -266.475446 313.63095 
L -274.480017 313.63095 
z
" clip-path="url(#p62a853cd09)" style="fill: #4c72b0; fill-opacity: 0.75; stroke: #ffffff; stroke-width: 0.4141; stroke-linejoin: miter"/>
   </g>
   <g id="patch_13">
    <path d="M -266.475446 313.63095 
L -258.470874 313.63095 
L -258.470874 313.63095 
L -266.475446 313.63095 
z
" clip-path="url(#p62a853cd09)" style="fill: #4c72b0; fill-opacity: 0.75; stroke: #ffffff; stroke-width: 0.4141; stroke-linejoin: miter"/>
   </g>
   <g id="patch_14">
    <path d="M -258.470874 313.63095 
L -250.466303 313.63095 
L -250.466303 313.63095 
L -258.470874 313.63095 
z
" clip-path="url(#p62a853cd09)" style="fill: #4c72b0; fill-opacity: 0.75; stroke: #ffffff; stroke-width: 0.4141; stroke-linejoin: miter"/>
   </g>
   <g id="patch_15">
    <path d="M -250.466303 313.63095 
L -242.461731 313.63095 
L -242.461731 313.63095 
L -250.466303 313.63095 
z
" clip-path="url(#p62a853cd09)" style="fill: #4c72b0; fill-opacity: 0.75; stroke: #ffffff; stroke-width: 0.4141; stroke-linejoin: miter"/>
   </g>
   <g id="patch_16">
    <path d="M -242.461731 313.63095 
L -234.45716 313.63095 
L -234.45716 313.63095 
L -242.461731 313.63095 
z
" clip-path="url(#p62a853cd09)" style="fill: #4c72b0; fill-opacity: 0.75; stroke: #ffffff; stroke-width: 0.4141; stroke-linejoin: miter"/>
   </g>
   <g id="patch_17">
    <path d="M -234.45716 313.63095 
L -226.452588 313.63095 
L -226.452588 313.63095 
L -234.45716 313.63095 
z
" clip-path="url(#p62a853cd09)" style="fill: #4c72b0; fill-opacity: 0.75; stroke: #ffffff; stroke-width: 0.4141; stroke-linejoin: miter"/>
   </g>
   <g id="patch_18">
    <path d="M -226.452588 313.63095 
L -218.448016 313.63095 
L -218.448016 313.63095 
L -226.452588 313.63095 
z
" clip-path="url(#p62a853cd09)" style="fill: #4c72b0; fill-opacity: 0.75; stroke: #ffffff; stroke-width: 0.4141; stroke-linejoin: miter"/>
   </g>
   <g id="patch_19">
    <path d="M -218.448016 313.63095 
L -210.443445 313.63095 
L -210.443445 313.63095 
L -218.448016 313.63095 
z
" clip-path="url(#p62a853cd09)" style="fill: #4c72b0; fill-opacity: 0.75; stroke: #ffffff; stroke-width: 0.4141; stroke-linejoin: miter"/>
   </g>
   <g id="patch_20">
    <path d="M -210.443445 313.63095 
L -202.438873 313.63095 
L -202.438873 313.63095 
L -210.443445 313.63095 
z
" clip-path="url(#p62a853cd09)" style="fill: #4c72b0; fill-opacity: 0.75; stroke: #ffffff; stroke-width: 0.4141; stroke-linejoin: miter"/>
   </g>
   <g id="patch_21">
    <path d="M -202.438873 313.63095 
L -194.434302 313.63095 
L -194.434302 313.63095 
L -202.438873 313.63095 
z
" clip-path="url(#p62a853cd09)" style="fill: #4c72b0; fill-opacity: 0.75; stroke: #ffffff; stroke-width: 0.4141; stroke-linejoin: miter"/>
   </g>
   <g id="patch_22">
    <path d="M -194.434302 313.63095 
L -186.42973 313.63095 
L -186.42973 313.63095 
L -194.434302 313.63095 
z
" clip-path="url(#p62a853cd09)" style="fill: #4c72b0; fill-opacity: 0.75; stroke: #ffffff; stroke-width: 0.4141; stroke-linejoin: miter"/>
   </g>
   <g id="patch_23">
    <path d="M -186.42973 313.63095 
L -178.425159 313.63095 
L -178.425159 313.63095 
L -186.42973 313.63095 
z
" clip-path="url(#p62a853cd09)" style="fill: #4c72b0; fill-opacity: 0.75; stroke: #ffffff; stroke-width: 0.4141; stroke-linejoin: miter"/>
   </g>
   <g id="patch_24">
    <path d="M -178.425159 313.63095 
L -170.420587 313.63095 
L -170.420587 313.63095 
L -178.425159 313.63095 
z
" clip-path="url(#p62a853cd09)" style="fill: #4c72b0; fill-opacity: 0.75; stroke: #ffffff; stroke-width: 0.4141; stroke-linejoin: miter"/>
   </g>
   <g id="patch_25">
    <path d="M -170.420587 313.63095 
L -162.416015 313.63095 
L -162.416015 313.63095 
L -170.420587 313.63095 
z
" clip-path="url(#p62a853cd09)" style="fill: #4c72b0; fill-opacity: 0.75; stroke: #ffffff; stroke-width: 0.4141; stroke-linejoin: miter"/>
   </g>
   <g id="patch_26">
    <path d="M -162.416015 313.63095 
L -154.411444 313.63095 
L -154.411444 313.63095 
L -162.416015 313.63095 
z
" clip-path="url(#p62a853cd09)" style="fill: #4c72b0; fill-opacity: 0.75; stroke: #ffffff; stroke-width: 0.4141; stroke-linejoin: miter"/>
   </g>
   <g id="patch_27">
    <path d="M -154.411444 313.63095 
L -146.406872 313.63095 
L -146.406872 313.63095 
L -154.411444 313.63095 
z
" clip-path="url(#p62a853cd09)" style="fill: #4c72b0; fill-opacity: 0.75; stroke: #ffffff; stroke-width: 0.4141; stroke-linejoin: miter"/>
   </g>
   <g id="patch_28">
    <path d="M -146.406872 313.63095 
L -138.402301 313.63095 
L -138.402301 313.63095 
L -146.406872 313.63095 
z
" clip-path="url(#p62a853cd09)" style="fill: #4c72b0; fill-opacity: 0.75; stroke: #ffffff; stroke-width: 0.4141; stroke-linejoin: miter"/>
   </g>
   <g id="patch_29">
    <path d="M -138.402301 313.63095 
L -130.397729 313.63095 
L -130.397729 313.63095 
L -138.402301 313.63095 
z
" clip-path="url(#p62a853cd09)" style="fill: #4c72b0; fill-opacity: 0.75; stroke: #ffffff; stroke-width: 0.4141; stroke-linejoin: miter"/>
   </g>
   <g id="patch_30">
    <path d="M -130.397729 313.63095 
L -122.393158 313.63095 
L -122.393158 313.63095 
L -130.397729 313.63095 
z
" clip-path="url(#p62a853cd09)" style="fill: #4c72b0; fill-opacity: 0.75; stroke: #ffffff; stroke-width: 0.4141; stroke-linejoin: miter"/>
   </g>
   <g id="patch_31">
    <path d="M -122.393158 313.63095 
L -114.388586 313.63095 
L -114.388586 313.63095 
L -122.393158 313.63095 
z
" clip-path="url(#p62a853cd09)" style="fill: #4c72b0; fill-opacity: 0.75; stroke: #ffffff; stroke-width: 0.4141; stroke-linejoin: miter"/>
   </g>
   <g id="patch_32">
    <path d="M -114.388586 313.63095 
L -106.384014 313.63095 
L -106.384014 313.63095 
L -114.388586 313.63095 
z
" clip-path="url(#p62a853cd09)" style="fill: #4c72b0; fill-opacity: 0.75; stroke: #ffffff; stroke-width: 0.4141; stroke-linejoin: miter"/>
   </g>
   <g id="patch_33">
    <path d="M -106.384014 313.63095 
L -98.379443 313.63095 
L -98.379443 313.63095 
L -106.384014 313.63095 
z
" clip-path="url(#p62a853cd09)" style="fill: #4c72b0; fill-opacity: 0.75; stroke: #ffffff; stroke-width: 0.4141; stroke-linejoin: miter"/>
   </g>
   <g id="patch_34">
    <path d="M -98.379443 313.63095 
L -90.374871 313.63095 
L -90.374871 313.63095 
L -98.379443 313.63095 
z
" clip-path="url(#p62a853cd09)" style="fill: #4c72b0; fill-opacity: 0.75; stroke: #ffffff; stroke-width: 0.4141; stroke-linejoin: miter"/>
   </g>
   <g id="patch_35">
    <path d="M -90.374871 313.63095 
L -82.3703 313.63095 
L -82.3703 313.63095 
L -90.374871 313.63095 
z
" clip-path="url(#p62a853cd09)" style="fill: #4c72b0; fill-opacity: 0.75; stroke: #ffffff; stroke-width: 0.4141; stroke-linejoin: miter"/>
   </g>
   <g id="patch_36">
    <path d="M -82.3703 313.63095 
L -74.365728 313.63095 
L -74.365728 313.63095 
L -82.3703 313.63095 
z
" clip-path="url(#p62a853cd09)" style="fill: #4c72b0; fill-opacity: 0.75; stroke: #ffffff; stroke-width: 0.4141; stroke-linejoin: miter"/>
   </g>
   <g id="patch_37">
    <path d="M -74.365728 313.63095 
L -66.361157 313.63095 
L -66.361157 313.63095 
L -74.365728 313.63095 
z
" clip-path="url(#p62a853cd09)" style="fill: #4c72b0; fill-opacity: 0.75; stroke: #ffffff; stroke-width: 0.4141; stroke-linejoin: miter"/>
   </g>
   <g id="patch_38">
    <path d="M -66.361157 313.63095 
L -58.356585 313.63095 
L -58.356585 313.63095 
L -66.361157 313.63095 
z
" clip-path="url(#p62a853cd09)" style="fill: #4c72b0; fill-opacity: 0.75; stroke: #ffffff; stroke-width: 0.4141; stroke-linejoin: miter"/>
   </g>
   <g id="patch_39">
    <path d="M -58.356585 313.63095 
L -50.352013 313.63095 
L -50.352013 313.63095 
L -58.356585 313.63095 
z
" clip-path="url(#p62a853cd09)" style="fill: #4c72b0; fill-opacity: 0.75; stroke: #ffffff; stroke-width: 0.4141; stroke-linejoin: miter"/>
   </g>
   <g id="patch_40">
    <path d="M -50.352013 313.63095 
L -42.347442 313.63095 
L -42.347442 313.63095 
L -50.352013 313.63095 
z
" clip-path="url(#p62a853cd09)" style="fill: #4c72b0; fill-opacity: 0.75; stroke: #ffffff; stroke-width: 0.4141; stroke-linejoin: miter"/>
   </g>
   <g id="patch_41">
    <path d="M -42.347442 313.63095 
L -34.34287 313.63095 
L -34.34287 313.63095 
L -42.347442 313.63095 
z
" clip-path="url(#p62a853cd09)" style="fill: #4c72b0; fill-opacity: 0.75; stroke: #ffffff; stroke-width: 0.4141; stroke-linejoin: miter"/>
   </g>
   <g id="patch_42">
    <path d="M -34.34287 313.63095 
L -26.338299 313.63095 
L -26.338299 313.63095 
L -34.34287 313.63095 
z
" clip-path="url(#p62a853cd09)" style="fill: #4c72b0; fill-opacity: 0.75; stroke: #ffffff; stroke-width: 0.4141; stroke-linejoin: miter"/>
   </g>
   <g id="patch_43">
    <path d="M -26.338299 313.63095 
L -18.333727 313.63095 
L -18.333727 313.63095 
L -26.338299 313.63095 
z
" clip-path="url(#p62a853cd09)" style="fill: #4c72b0; fill-opacity: 0.75; stroke: #ffffff; stroke-width: 0.4141; stroke-linejoin: miter"/>
   </g>
   <g id="patch_44">
    <path d="M -18.333727 313.63095 
L -10.329156 313.63095 
L -10.329156 313.63095 
L -18.333727 313.63095 
z
" clip-path="url(#p62a853cd09)" style="fill: #4c72b0; fill-opacity: 0.75; stroke: #ffffff; stroke-width: 0.4141; stroke-linejoin: miter"/>
   </g>
   <g id="patch_45">
    <path d="M -10.329156 313.63095 
L -2.324584 313.63095 
L -2.324584 313.63095 
L -10.329156 313.63095 
z
" clip-path="url(#p62a853cd09)" style="fill: #4c72b0; fill-opacity: 0.75; stroke: #ffffff; stroke-width: 0.4141; stroke-linejoin: miter"/>
   </g>
   <g id="patch_46">
    <path d="M -2.324584 313.63095 
L 5.679988 313.63095 
L 5.679988 313.63095 
L -2.324584 313.63095 
z
" clip-path="url(#p62a853cd09)" style="fill: #4c72b0; fill-opacity: 0.75; stroke: #ffffff; stroke-width: 0.4141; stroke-linejoin: miter"/>
   </g>
   <g id="patch_47">
    <path d="M 5.679988 313.63095 
L 13.684559 313.63095 
L 13.684559 313.63095 
L 5.679988 313.63095 
z
" clip-path="url(#p62a853cd09)" style="fill: #4c72b0; fill-opacity: 0.75; stroke: #ffffff; stroke-width: 0.4141; stroke-linejoin: miter"/>
   </g>
   <g id="patch_48">
    <path d="M 13.684559 313.63095 
L 21.689131 313.63095 
L 21.689131 313.63095 
L 13.684559 313.63095 
z
" clip-path="url(#p62a853cd09)" style="fill: #4c72b0; fill-opacity: 0.75; stroke: #ffffff; stroke-width: 0.4141; stroke-linejoin: miter"/>
   </g>
   <g id="patch_49">
    <path d="M 21.689131 313.63095 
L 29.693702 313.63095 
L 29.693702 313.63095 
L 21.689131 313.63095 
z
" clip-path="url(#p62a853cd09)" style="fill: #4c72b0; fill-opacity: 0.75; stroke: #ffffff; stroke-width: 0.4141; stroke-linejoin: miter"/>
   </g>
   <g id="patch_50">
    <path d="M 29.693702 313.63095 
L 37.698274 313.63095 
L 37.698274 313.63095 
L 29.693702 313.63095 
z
" clip-path="url(#p62a853cd09)" style="fill: #4c72b0; fill-opacity: 0.75; stroke: #ffffff; stroke-width: 0.4141; stroke-linejoin: miter"/>
   </g>
   <g id="patch_51">
    <path d="M 37.698274 313.63095 
L 45.702845 313.63095 
L 45.702845 313.63095 
L 37.698274 313.63095 
z
" clip-path="url(#p62a853cd09)" style="fill: #4c72b0; fill-opacity: 0.75; stroke: #ffffff; stroke-width: 0.4141; stroke-linejoin: miter"/>
   </g>
   <g id="patch_52">
    <path d="M 45.702845 313.63095 
L 53.707417 313.63095 
L 53.707417 313.63095 
L 45.702845 313.63095 
z
" clip-path="url(#p62a853cd09)" style="fill: #4c72b0; fill-opacity: 0.75; stroke: #ffffff; stroke-width: 0.4141; stroke-linejoin: miter"/>
   </g>
   <g id="patch_53">
    <path d="M 53.707417 313.63095 
L 61.711989 313.63095 
L 61.711989 313.63095 
L 53.707417 313.63095 
z
" clip-path="url(#p62a853cd09)" style="fill: #4c72b0; fill-opacity: 0.75; stroke: #ffffff; stroke-width: 0.4141; stroke-linejoin: miter"/>
   </g>
   <g id="patch_54">
    <path d="M 61.711989 313.63095 
L 69.71656 313.63095 
L 69.71656 313.63095 
L 61.711989 313.63095 
z
" clip-path="url(#p62a853cd09)" style="fill: #4c72b0; fill-opacity: 0.75; stroke: #ffffff; stroke-width: 0.4141; stroke-linejoin: miter"/>
   </g>
   <g id="patch_55">
    <path d="M 69.71656 313.63095 
L 77.721132 313.63095 
L 77.721132 313.63095 
L 69.71656 313.63095 
z
" clip-path="url(#p62a853cd09)" style="fill: #4c72b0; fill-opacity: 0.75; stroke: #ffffff; stroke-width: 0.4141; stroke-linejoin: miter"/>
   </g>
   <g id="patch_56">
    <path d="M 77.721132 313.63095 
L 85.725703 313.63095 
L 85.725703 313.63095 
L 77.721132 313.63095 
z
" clip-path="url(#p62a853cd09)" style="fill: #4c72b0; fill-opacity: 0.75; stroke: #ffffff; stroke-width: 0.4141; stroke-linejoin: miter"/>
   </g>
   <g id="patch_57">
    <path d="M 85.725703 313.63095 
L 93.730275 313.63095 
L 93.730275 313.63095 
L 85.725703 313.63095 
z
" clip-path="url(#p62a853cd09)" style="fill: #4c72b0; fill-opacity: 0.75; stroke: #ffffff; stroke-width: 0.4141; stroke-linejoin: miter"/>
   </g>
   <g id="patch_58">
    <path d="M 93.730275 313.63095 
L 101.734846 313.63095 
L 101.734846 313.63095 
L 93.730275 313.63095 
z
" clip-path="url(#p62a853cd09)" style="fill: #4c72b0; fill-opacity: 0.75; stroke: #ffffff; stroke-width: 0.4141; stroke-linejoin: miter"/>
   </g>
   <g id="patch_59">
    <path d="M 101.734846 313.63095 
L 109.739418 313.63095 
L 109.739418 313.63095 
L 101.734846 313.63095 
z
" clip-path="url(#p62a853cd09)" style="fill: #4c72b0; fill-opacity: 0.75; stroke: #ffffff; stroke-width: 0.4141; stroke-linejoin: miter"/>
   </g>
   <g id="patch_60">
    <path d="M 109.739418 313.63095 
L 117.74399 313.63095 
L 117.74399 313.437095 
L 109.739418 313.437095 
z
" clip-path="url(#p62a853cd09)" style="fill: #4c72b0; fill-opacity: 0.75; stroke: #ffffff; stroke-width: 0.4141; stroke-linejoin: miter"/>
   </g>
   <g id="patch_61">
    <path d="M 117.74399 313.63095 
L 125.748561 313.63095 
L 125.748561 313.63095 
L 117.74399 313.63095 
z
" clip-path="url(#p62a853cd09)" style="fill: #4c72b0; fill-opacity: 0.75; stroke: #ffffff; stroke-width: 0.4141; stroke-linejoin: miter"/>
   </g>
   <g id="patch_62">
    <path d="M 125.748561 313.63095 
L 133.753133 313.63095 
L 133.753133 310.820048 
L 125.748561 310.820048 
z
" clip-path="url(#p62a853cd09)" style="fill: #4c72b0; fill-opacity: 0.75; stroke: #ffffff; stroke-width: 0.4141; stroke-linejoin: miter"/>
   </g>
   <g id="patch_63">
    <path d="M 133.753133 313.63095 
L 141.757704 313.63095 
L 141.757704 312.370891 
L 133.753133 312.370891 
z
" clip-path="url(#p62a853cd09)" style="fill: #4c72b0; fill-opacity: 0.75; stroke: #ffffff; stroke-width: 0.4141; stroke-linejoin: miter"/>
   </g>
   <g id="patch_64">
    <path d="M 141.757704 313.63095 
L 149.762276 313.63095 
L 149.762276 305.682883 
L 141.757704 305.682883 
z
" clip-path="url(#p62a853cd09)" style="fill: #4c72b0; fill-opacity: 0.75; stroke: #ffffff; stroke-width: 0.4141; stroke-linejoin: miter"/>
   </g>
   <g id="patch_65">
    <path d="M 149.762276 313.63095 
L 157.766847 313.63095 
L 157.766847 312.177035 
L 149.762276 312.177035 
z
" clip-path="url(#p62a853cd09)" style="fill: #4c72b0; fill-opacity: 0.75; stroke: #ffffff; stroke-width: 0.4141; stroke-linejoin: miter"/>
   </g>
   <g id="patch_66">
    <path d="M 157.766847 313.63095 
L 165.771419 313.63095 
L 165.771419 310.33541 
L 157.766847 310.33541 
z
" clip-path="url(#p62a853cd09)" style="fill: #4c72b0; fill-opacity: 0.75; stroke: #ffffff; stroke-width: 0.4141; stroke-linejoin: miter"/>
   </g>
   <g id="patch_67">
    <path d="M 165.771419 313.63095 
L 173.775991 313.63095 
L 173.775991 296.571684 
L 165.771419 296.571684 
z
" clip-path="url(#p62a853cd09)" style="fill: #4c72b0; fill-opacity: 0.75; stroke: #ffffff; stroke-width: 0.4141; stroke-linejoin: miter"/>
   </g>
   <g id="patch_68">
    <path d="M 173.775991 313.63095 
L 181.780562 313.63095 
L 181.780562 302.09656 
L 173.775991 302.09656 
z
" clip-path="url(#p62a853cd09)" style="fill: #4c72b0; fill-opacity: 0.75; stroke: #ffffff; stroke-width: 0.4141; stroke-linejoin: miter"/>
   </g>
   <g id="patch_69">
    <path d="M 181.780562 313.63095 
L 189.785134 313.63095 
L 189.785134 311.207759 
L 181.780562 311.207759 
z
" clip-path="url(#p62a853cd09)" style="fill: #4c72b0; fill-opacity: 0.75; stroke: #ffffff; stroke-width: 0.4141; stroke-linejoin: miter"/>
   </g>
   <g id="patch_70">
    <path d="M 189.785134 313.63095 
L 197.789705 313.63095 
L 197.789705 293.857709 
L 189.785134 293.857709 
z
" clip-path="url(#p62a853cd09)" style="fill: #4c72b0; fill-opacity: 0.75; stroke: #ffffff; stroke-width: 0.4141; stroke-linejoin: miter"/>
   </g>
   <g id="patch_71">
    <path d="M 197.789705 313.63095 
L 205.794277 313.63095 
L 205.794277 292.113012 
L 197.789705 292.113012 
z
" clip-path="url(#p62a853cd09)" style="fill: #4c72b0; fill-opacity: 0.75; stroke: #ffffff; stroke-width: 0.4141; stroke-linejoin: miter"/>
   </g>
   <g id="patch_72">
    <path d="M 205.794277 313.63095 
L 213.798848 313.63095 
L 213.798848 311.207759 
L 205.794277 311.207759 
z
" clip-path="url(#p62a853cd09)" style="fill: #4c72b0; fill-opacity: 0.75; stroke: #ffffff; stroke-width: 0.4141; stroke-linejoin: miter"/>
   </g>
   <g id="patch_73">
    <path d="M 213.798848 313.63095 
L 221.80342 313.63095 
L 221.80342 280.966332 
L 213.798848 280.966332 
z
" clip-path="url(#p62a853cd09)" style="fill: #4c72b0; fill-opacity: 0.75; stroke: #ffffff; stroke-width: 0.4141; stroke-linejoin: miter"/>
   </g>
   <g id="patch_74">
    <path d="M 221.80342 313.63095 
L 229.807991 313.63095 
L 229.807991 305.682883 
L 221.80342 305.682883 
z
" clip-path="url(#p62a853cd09)" style="fill: #4c72b0; fill-opacity: 0.75; stroke: #ffffff; stroke-width: 0.4141; stroke-linejoin: miter"/>
   </g>
   <g id="patch_75">
    <path d="M 229.807991 313.63095 
L 237.812563 313.63095 
L 237.812563 263.131644 
L 229.807991 263.131644 
z
" clip-path="url(#p62a853cd09)" style="fill: #4c72b0; fill-opacity: 0.75; stroke: #ffffff; stroke-width: 0.4141; stroke-linejoin: miter"/>
   </g>
   <g id="patch_76">
    <path d="M 237.812563 313.63095 
L 245.817135 313.63095 
L 245.817135 255.862071 
L 237.812563 255.862071 
z
" clip-path="url(#p62a853cd09)" style="fill: #4c72b0; fill-opacity: 0.75; stroke: #ffffff; stroke-width: 0.4141; stroke-linejoin: miter"/>
   </g>
   <g id="patch_77">
    <path d="M 245.817135 313.63095 
L 253.821706 313.63095 
L 253.821706 207.882884 
L 245.817135 207.882884 
z
" clip-path="url(#p62a853cd09)" style="fill: #4c72b0; fill-opacity: 0.75; stroke: #ffffff; stroke-width: 0.4141; stroke-linejoin: miter"/>
   </g>
   <g id="patch_78">
    <path d="M 253.821706 313.63095 
L 261.826278 313.63095 
L 261.826278 281.160187 
L 253.821706 281.160187 
z
" clip-path="url(#p62a853cd09)" style="fill: #4c72b0; fill-opacity: 0.75; stroke: #ffffff; stroke-width: 0.4141; stroke-linejoin: miter"/>
   </g>
   <g id="patch_79">
    <path d="M 261.826278 313.63095 
L 269.830849 313.63095 
L 269.830849 266.911823 
L 261.826278 266.911823 
z
" clip-path="url(#p62a853cd09)" style="fill: #4c72b0; fill-opacity: 0.75; stroke: #ffffff; stroke-width: 0.4141; stroke-linejoin: miter"/>
   </g>
   <g id="patch_80">
    <path d="M 269.830849 313.63095 
L 277.835421 313.63095 
L 277.835421 242.2922 
L 269.830849 242.2922 
z
" clip-path="url(#p62a853cd09)" style="fill: #4c72b0; fill-opacity: 0.75; stroke: #ffffff; stroke-width: 0.4141; stroke-linejoin: miter"/>
   </g>
   <g id="patch_81">
    <path d="M 277.835421 313.63095 
L 285.839992 313.63095 
L 285.839992 205.071982 
L 277.835421 205.071982 
z
" clip-path="url(#p62a853cd09)" style="fill: #4c72b0; fill-opacity: 0.75; stroke: #ffffff; stroke-width: 0.4141; stroke-linejoin: miter"/>
   </g>
   <g id="patch_82">
    <path d="M 285.839992 313.63095 
L 293.844564 313.63095 
L 293.844564 256.928275 
L 285.839992 256.928275 
z
" clip-path="url(#p62a853cd09)" style="fill: #4c72b0; fill-opacity: 0.75; stroke: #ffffff; stroke-width: 0.4141; stroke-linejoin: miter"/>
   </g>
   <g id="patch_83">
    <path d="M 293.844564 313.63095 
L 301.849136 313.63095 
L 301.849136 185.104886 
L 293.844564 185.104886 
z
" clip-path="url(#p62a853cd09)" style="fill: #4c72b0; fill-opacity: 0.75; stroke: #ffffff; stroke-width: 0.4141; stroke-linejoin: miter"/>
   </g>
   <g id="patch_84">
    <path d="M 301.849136 313.63095 
L 309.853707 313.63095 
L 309.853707 72.959595 
L 301.849136 72.959595 
z
" clip-path="url(#p62a853cd09)" style="fill: #4c72b0; fill-opacity: 0.75; stroke: #ffffff; stroke-width: 0.4141; stroke-linejoin: miter"/>
   </g>
   <g id="patch_85">
    <path d="M 309.853707 313.63095 
L 317.858279 313.63095 
L 317.858279 274.472179 
L 309.853707 274.472179 
z
" clip-path="url(#p62a853cd09)" style="fill: #4c72b0; fill-opacity: 0.75; stroke: #ffffff; stroke-width: 0.4141; stroke-linejoin: miter"/>
   </g>
   <g id="patch_86">
    <path d="M 317.858279 313.63095 
L 325.86285 313.63095 
L 325.86285 185.78338 
L 317.858279 185.78338 
z
" clip-path="url(#p62a853cd09)" style="fill: #4c72b0; fill-opacity: 0.75; stroke: #ffffff; stroke-width: 0.4141; stroke-linejoin: miter"/>
   </g>
   <g id="patch_87">
    <path d="M 325.86285 313.63095 
L 333.867422 313.63095 
L 333.867422 181.615491 
L 325.86285 181.615491 
z
" clip-path="url(#p62a853cd09)" style="fill: #4c72b0; fill-opacity: 0.75; stroke: #ffffff; stroke-width: 0.4141; stroke-linejoin: miter"/>
   </g>
   <g id="patch_88">
    <path d="M 333.867422 313.63095 
L 341.871993 313.63095 
L 341.871993 220.871189 
L 333.867422 220.871189 
z
" clip-path="url(#p62a853cd09)" style="fill: #4c72b0; fill-opacity: 0.75; stroke: #ffffff; stroke-width: 0.4141; stroke-linejoin: miter"/>
   </g>
   <g id="patch_89">
    <path d="M 341.871993 313.63095 
L 349.876565 313.63095 
L 349.876565 127.820645 
L 341.871993 127.820645 
z
" clip-path="url(#p62a853cd09)" style="fill: #4c72b0; fill-opacity: 0.75; stroke: #ffffff; stroke-width: 0.4141; stroke-linejoin: miter"/>
   </g>
   <g id="patch_90">
    <path d="M 349.876565 313.63095 
L 357.881137 313.63095 
L 357.881137 206.235114 
L 349.876565 206.235114 
z
" clip-path="url(#p62a853cd09)" style="fill: #4c72b0; fill-opacity: 0.75; stroke: #ffffff; stroke-width: 0.4141; stroke-linejoin: miter"/>
   </g>
   <g id="patch_91">
    <path d="M 357.881137 313.63095 
L 365.885708 313.63095 
L 365.885708 139.16118 
L 357.881137 139.16118 
z
" clip-path="url(#p62a853cd09)" style="fill: #4c72b0; fill-opacity: 0.75; stroke: #ffffff; stroke-width: 0.4141; stroke-linejoin: miter"/>
   </g>
   <g id="patch_92">
    <path d="M 365.885708 313.63095 
L 373.89028 313.63095 
L 373.89028 158.934421 
L 365.885708 158.934421 
z
" clip-path="url(#p62a853cd09)" style="fill: #4c72b0; fill-opacity: 0.75; stroke: #ffffff; stroke-width: 0.4141; stroke-linejoin: miter"/>
   </g>
   <g id="patch_93">
    <path d="M 373.89028 313.63095 
L 381.894851 313.63095 
L 381.894851 213.310832 
L 373.89028 213.310832 
z
" clip-path="url(#p62a853cd09)" style="fill: #4c72b0; fill-opacity: 0.75; stroke: #ffffff; stroke-width: 0.4141; stroke-linejoin: miter"/>
   </g>
   <g id="patch_94">
    <path d="M 381.894851 313.63095 
L 389.899423 313.63095 
L 389.899423 157.577434 
L 381.894851 157.577434 
z
" clip-path="url(#p62a853cd09)" style="fill: #4c72b0; fill-opacity: 0.75; stroke: #ffffff; stroke-width: 0.4141; stroke-linejoin: miter"/>
   </g>
   <g id="patch_95">
    <path d="M 389.899423 313.63095 
L 397.903994 313.63095 
L 397.903994 161.648395 
L 389.899423 161.648395 
z
" clip-path="url(#p62a853cd09)" style="fill: #4c72b0; fill-opacity: 0.75; stroke: #ffffff; stroke-width: 0.4141; stroke-linejoin: miter"/>
   </g>
   <g id="patch_96">
    <path d="M 397.903994 313.63095 
L 405.908566 313.63095 
L 405.908566 124.912815 
L 397.903994 124.912815 
z
" clip-path="url(#p62a853cd09)" style="fill: #4c72b0; fill-opacity: 0.75; stroke: #ffffff; stroke-width: 0.4141; stroke-linejoin: miter"/>
   </g>
   <g id="patch_97">
    <path d="M 405.908566 313.63095 
L 413.913138 313.63095 
L 413.913138 202.164153 
L 405.908566 202.164153 
z
" clip-path="url(#p62a853cd09)" style="fill: #4c72b0; fill-opacity: 0.75; stroke: #ffffff; stroke-width: 0.4141; stroke-linejoin: miter"/>
   </g>
   <g id="patch_98">
    <path d="M 413.913138 313.63095 
L 421.917709 313.63095 
L 421.917709 141.196661 
L 413.913138 141.196661 
z
" clip-path="url(#p62a853cd09)" style="fill: #4c72b0; fill-opacity: 0.75; stroke: #ffffff; stroke-width: 0.4141; stroke-linejoin: miter"/>
   </g>
   <g id="patch_99">
    <path d="M 421.917709 313.63095 
L 429.922281 313.63095 
L 429.922281 129.66227 
L 421.917709 129.66227 
z
" clip-path="url(#p62a853cd09)" style="fill: #4c72b0; fill-opacity: 0.75; stroke: #ffffff; stroke-width: 0.4141; stroke-linejoin: miter"/>
   </g>
   <g id="patch_100">
    <path d="M 429.922281 313.63095 
L 437.926852 313.63095 
L 437.926852 163.877731 
L 429.922281 163.877731 
z
" clip-path="url(#p62a853cd09)" style="fill: #4c72b0; fill-opacity: 0.75; stroke: #ffffff; stroke-width: 0.4141; stroke-linejoin: miter"/>
   </g>
   <g id="patch_101">
    <path d="M 437.926852 313.63095 
L 445.931424 313.63095 
L 445.931424 137.610338 
L 437.926852 137.610338 
z
" clip-path="url(#p62a853cd09)" style="fill: #4c72b0; fill-opacity: 0.75; stroke: #ffffff; stroke-width: 0.4141; stroke-linejoin: miter"/>
   </g>
   <g id="patch_102">
    <path d="M 445.931424 313.63095 
L 453.935995 313.63095 
L 453.935995 170.759594 
L 445.931424 170.759594 
z
" clip-path="url(#p62a853cd09)" style="fill: #4c72b0; fill-opacity: 0.75; stroke: #ffffff; stroke-width: 0.4141; stroke-linejoin: miter"/>
   </g>
   <g id="patch_103">
    <path d="M 453.935995 313.63095 
L 461.940567 313.63095 
L 461.940567 207.785956 
L 453.935995 207.785956 
z
" clip-path="url(#p62a853cd09)" style="fill: #4c72b0; fill-opacity: 0.75; stroke: #ffffff; stroke-width: 0.4141; stroke-linejoin: miter"/>
   </g>
   <g id="patch_104">
    <path d="M 461.940567 313.63095 
L 469.945139 313.63095 
L 469.945139 205.362765 
L 461.940567 205.362765 
z
" clip-path="url(#p62a853cd09)" style="fill: #4c72b0; fill-opacity: 0.75; stroke: #ffffff; stroke-width: 0.4141; stroke-linejoin: miter"/>
   </g>
   <g id="patch_105">
    <path d="M 469.945139 313.63095 
L 477.94971 313.63095 
L 477.94971 181.518563 
L 469.945139 181.518563 
z
" clip-path="url(#p62a853cd09)" style="fill: #4c72b0; fill-opacity: 0.75; stroke: #ffffff; stroke-width: 0.4141; stroke-linejoin: miter"/>
   </g>
   <g id="patch_106">
    <path d="M 477.94971 313.63095 
L 485.954282 313.63095 
L 485.954282 204.102706 
L 477.94971 204.102706 
z
" clip-path="url(#p62a853cd09)" style="fill: #4c72b0; fill-opacity: 0.75; stroke: #ffffff; stroke-width: 0.4141; stroke-linejoin: miter"/>
   </g>
   <g id="patch_107">
    <path d="M 485.954282 313.63095 
L 493.958853 313.63095 
L 493.958853 169.984173 
L 485.954282 169.984173 
z
" clip-path="url(#p62a853cd09)" style="fill: #4c72b0; fill-opacity: 0.75; stroke: #ffffff; stroke-width: 0.4141; stroke-linejoin: miter"/>
   </g>
   <g id="patch_108">
    <path d="M 493.958853 313.63095 
L 501.963425 313.63095 
L 501.963425 195.379217 
L 493.958853 195.379217 
z
" clip-path="url(#p62a853cd09)" style="fill: #4c72b0; fill-opacity: 0.75; stroke: #ffffff; stroke-width: 0.4141; stroke-linejoin: miter"/>
   </g>
   <g id="patch_109">
    <path d="M 501.963425 313.63095 
L 509.967996 313.63095 
L 509.967996 233.084073 
L 501.963425 233.084073 
z
" clip-path="url(#p62a853cd09)" style="fill: #4c72b0; fill-opacity: 0.75; stroke: #ffffff; stroke-width: 0.4141; stroke-linejoin: miter"/>
   </g>
   <g id="patch_110">
    <path d="M 509.967996 313.63095 
L 517.972568 313.63095 
L 517.972568 254.602011 
L 509.967996 254.602011 
z
" clip-path="url(#p62a853cd09)" style="fill: #4c72b0; fill-opacity: 0.75; stroke: #ffffff; stroke-width: 0.4141; stroke-linejoin: miter"/>
   </g>
   <g id="patch_111">
    <path d="M 517.972568 313.63095 
L 525.97714 313.63095 
L 525.97714 240.353647 
L 517.972568 240.353647 
z
" clip-path="url(#p62a853cd09)" style="fill: #4c72b0; fill-opacity: 0.75; stroke: #ffffff; stroke-width: 0.4141; stroke-linejoin: miter"/>
   </g>
   <g id="patch_112">
    <path d="M 525.97714 313.63095 
L 533.981711 313.63095 
L 533.981711 252.17882 
L 525.97714 252.17882 
z
" clip-path="url(#p62a853cd09)" style="fill: #4c72b0; fill-opacity: 0.75; stroke: #ffffff; stroke-width: 0.4141; stroke-linejoin: miter"/>
   </g>
   <g id="patch_113">
    <path d="M 533.981711 313.63095 
L 541.986283 313.63095 
L 541.986283 234.828771 
L 533.981711 234.828771 
z
" clip-path="url(#p62a853cd09)" style="fill: #4c72b0; fill-opacity: 0.75; stroke: #ffffff; stroke-width: 0.4141; stroke-linejoin: miter"/>
   </g>
   <g id="patch_114">
    <path d="M 541.986283 313.63095 
L 549.990854 313.63095 
L 549.990854 236.767324 
L 541.986283 236.767324 
z
" clip-path="url(#p62a853cd09)" style="fill: #4c72b0; fill-opacity: 0.75; stroke: #ffffff; stroke-width: 0.4141; stroke-linejoin: miter"/>
   </g>
   <g id="patch_115">
    <path d="M 549.990854 313.63095 
L 557.995426 313.63095 
L 557.995426 240.547502 
L 549.990854 240.547502 
z
" clip-path="url(#p62a853cd09)" style="fill: #4c72b0; fill-opacity: 0.75; stroke: #ffffff; stroke-width: 0.4141; stroke-linejoin: miter"/>
   </g>
   <g id="patch_116">
    <path d="M 557.995426 313.63095 
L 565.999997 313.63095 
L 565.999997 205.750476 
L 557.995426 205.750476 
z
" clip-path="url(#p62a853cd09)" style="fill: #4c72b0; fill-opacity: 0.75; stroke: #ffffff; stroke-width: 0.4141; stroke-linejoin: miter"/>
   </g>
   <g id="patch_117">
    <path d="M 565.999997 313.63095 
L 574.004569 313.63095 
L 574.004569 233.859494 
L 565.999997 233.859494 
z
" clip-path="url(#p62a853cd09)" style="fill: #4c72b0; fill-opacity: 0.75; stroke: #ffffff; stroke-width: 0.4141; stroke-linejoin: miter"/>
   </g>
   <g id="patch_118">
    <path d="M 574.004569 313.63095 
L 582.009141 313.63095 
L 582.009141 262.647006 
L 574.004569 262.647006 
z
" clip-path="url(#p62a853cd09)" style="fill: #4c72b0; fill-opacity: 0.75; stroke: #ffffff; stroke-width: 0.4141; stroke-linejoin: miter"/>
   </g>
   <g id="patch_119">
    <path d="M 582.009141 313.63095 
L 590.013712 313.63095 
L 590.013712 250.046412 
L 582.009141 250.046412 
z
" clip-path="url(#p62a853cd09)" style="fill: #4c72b0; fill-opacity: 0.75; stroke: #ffffff; stroke-width: 0.4141; stroke-linejoin: miter"/>
   </g>
   <g id="patch_120">
    <path d="M 590.013712 313.63095 
L 598.018284 313.63095 
L 598.018284 269.528869 
L 590.013712 269.528869 
z
" clip-path="url(#p62a853cd09)" style="fill: #4c72b0; fill-opacity: 0.75; stroke: #ffffff; stroke-width: 0.4141; stroke-linejoin: miter"/>
   </g>
   <g id="patch_121">
    <path d="M 598.018284 313.63095 
L 606.022855 313.63095 
L 606.022855 275.538384 
L 598.018284 275.538384 
z
" clip-path="url(#p62a853cd09)" style="fill: #4c72b0; fill-opacity: 0.75; stroke: #ffffff; stroke-width: 0.4141; stroke-linejoin: miter"/>
   </g>
   <g id="patch_122">
    <path d="M 606.022855 313.63095 
L 614.027427 313.63095 
L 614.027427 273.987541 
L 606.022855 273.987541 
z
" clip-path="url(#p62a853cd09)" style="fill: #4c72b0; fill-opacity: 0.75; stroke: #ffffff; stroke-width: 0.4141; stroke-linejoin: miter"/>
   </g>
   <g id="patch_123">
    <path d="M 614.027427 313.63095 
L 622.031998 313.63095 
L 622.031998 276.216877 
L 614.027427 276.216877 
z
" clip-path="url(#p62a853cd09)" style="fill: #4c72b0; fill-opacity: 0.75; stroke: #ffffff; stroke-width: 0.4141; stroke-linejoin: miter"/>
   </g>
   <g id="patch_124">
    <path d="M 622.031998 313.63095 
L 630.03657 313.63095 
L 630.03657 259.351466 
L 622.031998 259.351466 
z
" clip-path="url(#p62a853cd09)" style="fill: #4c72b0; fill-opacity: 0.75; stroke: #ffffff; stroke-width: 0.4141; stroke-linejoin: miter"/>
   </g>
   <g id="patch_125">
    <path d="M 630.03657 313.63095 
L 638.041142 313.63095 
L 638.041142 276.313805 
L 630.03657 276.313805 
z
" clip-path="url(#p62a853cd09)" style="fill: #4c72b0; fill-opacity: 0.75; stroke: #ffffff; stroke-width: 0.4141; stroke-linejoin: miter"/>
   </g>
   <g id="patch_126">
    <path d="M 638.041142 313.63095 
L 646.045713 313.63095 
L 646.045713 279.512417 
L 638.041142 279.512417 
z
" clip-path="url(#p62a853cd09)" style="fill: #4c72b0; fill-opacity: 0.75; stroke: #ffffff; stroke-width: 0.4141; stroke-linejoin: miter"/>
   </g>
   <g id="patch_127">
    <path d="M 646.045713 313.63095 
L 654.050285 313.63095 
L 654.050285 282.517174 
L 646.045713 282.517174 
z
" clip-path="url(#p62a853cd09)" style="fill: #4c72b0; fill-opacity: 0.75; stroke: #ffffff; stroke-width: 0.4141; stroke-linejoin: miter"/>
   </g>
   <g id="patch_128">
    <path d="M 654.050285 313.63095 
L 662.054856 313.63095 
L 662.054856 288.720544 
L 654.050285 288.720544 
z
" clip-path="url(#p62a853cd09)" style="fill: #4c72b0; fill-opacity: 0.75; stroke: #ffffff; stroke-width: 0.4141; stroke-linejoin: miter"/>
   </g>
   <g id="patch_129">
    <path d="M 662.054856 313.63095 
L 670.059428 313.63095 
L 670.059428 286.200425 
L 662.054856 286.200425 
z
" clip-path="url(#p62a853cd09)" style="fill: #4c72b0; fill-opacity: 0.75; stroke: #ffffff; stroke-width: 0.4141; stroke-linejoin: miter"/>
   </g>
   <g id="patch_130">
    <path d="M 670.059428 313.63095 
L 678.063999 313.63095 
L 678.063999 290.756025 
L 670.059428 290.756025 
z
" clip-path="url(#p62a853cd09)" style="fill: #4c72b0; fill-opacity: 0.75; stroke: #ffffff; stroke-width: 0.4141; stroke-linejoin: miter"/>
   </g>
   <g id="patch_131">
    <path d="M 678.063999 313.63095 
L 686.068571 313.63095 
L 686.068571 298.607164 
L 678.063999 298.607164 
z
" clip-path="url(#p62a853cd09)" style="fill: #4c72b0; fill-opacity: 0.75; stroke: #ffffff; stroke-width: 0.4141; stroke-linejoin: miter"/>
   </g>
   <g id="patch_132">
    <path d="M 686.068571 313.63095 
L 694.073143 313.63095 
L 694.073143 287.072774 
L 686.068571 287.072774 
z
" clip-path="url(#p62a853cd09)" style="fill: #4c72b0; fill-opacity: 0.75; stroke: #ffffff; stroke-width: 0.4141; stroke-linejoin: miter"/>
   </g>
   <g id="patch_133">
    <path d="M 694.073143 313.63095 
L 702.077714 313.63095 
L 702.077714 292.888433 
L 694.073143 292.888433 
z
" clip-path="url(#p62a853cd09)" style="fill: #4c72b0; fill-opacity: 0.75; stroke: #ffffff; stroke-width: 0.4141; stroke-linejoin: miter"/>
   </g>
   <g id="patch_134">
    <path d="M 702.077714 313.63095 
L 710.082286 313.63095 
L 710.082286 292.888433 
L 702.077714 292.888433 
z
" clip-path="url(#p62a853cd09)" style="fill: #4c72b0; fill-opacity: 0.75; stroke: #ffffff; stroke-width: 0.4141; stroke-linejoin: miter"/>
   </g>
   <g id="patch_135">
    <path d="M 710.082286 313.63095 
L 718.086857 313.63095 
L 718.086857 290.271386 
L 710.082286 290.271386 
z
" clip-path="url(#p62a853cd09)" style="fill: #4c72b0; fill-opacity: 0.75; stroke: #ffffff; stroke-width: 0.4141; stroke-linejoin: miter"/>
   </g>
   <g id="patch_136">
    <path d="M 718.086857 313.63095 
L 726.091429 313.63095 
L 726.091429 290.659097 
L 718.086857 290.659097 
z
" clip-path="url(#p62a853cd09)" style="fill: #4c72b0; fill-opacity: 0.75; stroke: #ffffff; stroke-width: 0.4141; stroke-linejoin: miter"/>
   </g>
   <g id="patch_137">
    <path d="M 726.091429 313.63095 
L 734.096 313.63095 
L 734.096 288.720544 
L 726.091429 288.720544 
z
" clip-path="url(#p62a853cd09)" style="fill: #4c72b0; fill-opacity: 0.75; stroke: #ffffff; stroke-width: 0.4141; stroke-linejoin: miter"/>
   </g>
   <g id="patch_138">
    <path d="M 734.096 313.63095 
L 742.100572 313.63095 
L 742.100572 297.056322 
L 734.096 297.056322 
z
" clip-path="url(#p62a853cd09)" style="fill: #4c72b0; fill-opacity: 0.75; stroke: #ffffff; stroke-width: 0.4141; stroke-linejoin: miter"/>
   </g>
   <g id="patch_139">
    <path d="M 742.100572 313.63095 
L 750.105144 313.63095 
L 750.105144 293.276143 
L 742.100572 293.276143 
z
" clip-path="url(#p62a853cd09)" style="fill: #4c72b0; fill-opacity: 0.75; stroke: #ffffff; stroke-width: 0.4141; stroke-linejoin: miter"/>
   </g>
   <g id="patch_140">
    <path d="M 750.105144 313.63095 
L 758.109715 313.63095 
L 758.109715 304.810534 
L 750.105144 304.810534 
z
" clip-path="url(#p62a853cd09)" style="fill: #4c72b0; fill-opacity: 0.75; stroke: #ffffff; stroke-width: 0.4141; stroke-linejoin: miter"/>
   </g>
   <g id="patch_141">
    <path d="M 758.109715 313.63095 
L 766.114287 313.63095 
L 766.114287 308.203002 
L 758.109715 308.203002 
z
" clip-path="url(#p62a853cd09)" style="fill: #4c72b0; fill-opacity: 0.75; stroke: #ffffff; stroke-width: 0.4141; stroke-linejoin: miter"/>
   </g>
   <g id="patch_142">
    <path d="M 766.114287 313.63095 
L 774.118858 313.63095 
L 774.118858 310.432338 
L 766.114287 310.432338 
z
" clip-path="url(#p62a853cd09)" style="fill: #4c72b0; fill-opacity: 0.75; stroke: #ffffff; stroke-width: 0.4141; stroke-linejoin: miter"/>
   </g>
   <g id="patch_143">
    <path d="M 774.118858 313.63095 
L 782.12343 313.63095 
L 782.12343 312.467818 
L 774.118858 312.467818 
z
" clip-path="url(#p62a853cd09)" style="fill: #4c72b0; fill-opacity: 0.75; stroke: #ffffff; stroke-width: 0.4141; stroke-linejoin: miter"/>
   </g>
   <g id="patch_144">
    <path d="M 782.12343 313.63095 
L 790.128001 313.63095 
L 790.128001 312.273963 
L 782.12343 312.273963 
z
" clip-path="url(#p62a853cd09)" style="fill: #4c72b0; fill-opacity: 0.75; stroke: #ffffff; stroke-width: 0.4141; stroke-linejoin: miter"/>
   </g>
   <g id="patch_145">
    <path d="M 790.128001 313.63095 
L 798.132573 313.63095 
L 798.132573 312.855529 
L 790.128001 312.855529 
z
" clip-path="url(#p62a853cd09)" style="fill: #4c72b0; fill-opacity: 0.75; stroke: #ffffff; stroke-width: 0.4141; stroke-linejoin: miter"/>
   </g>
   <g id="patch_146">
    <path d="M 798.132573 313.63095 
L 806.137145 313.63095 
L 806.137145 313.534022 
L 798.132573 313.534022 
z
" clip-path="url(#p62a853cd09)" style="fill: #4c72b0; fill-opacity: 0.75; stroke: #ffffff; stroke-width: 0.4141; stroke-linejoin: miter"/>
   </g>
   <g id="patch_147">
    <path d="M 806.137145 313.63095 
L 814.141716 313.63095 
L 814.141716 313.63095 
L 806.137145 313.63095 
z
" clip-path="url(#p62a853cd09)" style="fill: #4c72b0; fill-opacity: 0.75; stroke: #ffffff; stroke-width: 0.4141; stroke-linejoin: miter"/>
   </g>
   <g id="patch_148">
    <path d="M 814.141716 313.63095 
L 822.146288 313.63095 
L 822.146288 313.437095 
L 814.141716 313.437095 
z
" clip-path="url(#p62a853cd09)" style="fill: #4c72b0; fill-opacity: 0.75; stroke: #ffffff; stroke-width: 0.4141; stroke-linejoin: miter"/>
   </g>
   <g id="patch_149">
    <path d="M 822.146288 313.63095 
L 830.150859 313.63095 
L 830.150859 313.534022 
L 822.146288 313.534022 
z
" clip-path="url(#p62a853cd09)" style="fill: #4c72b0; fill-opacity: 0.75; stroke: #ffffff; stroke-width: 0.4141; stroke-linejoin: miter"/>
   </g>
   <g id="patch_150">
    <path d="M 51.108 313.63095 
L 51.108 22.848 
" style="fill: none; stroke: #ffffff; stroke-linejoin: miter; stroke-linecap: square"/>
   </g>
   <g id="patch_151">
    <path d="M 846.366323 313.63095 
L 846.366323 22.848 
" style="fill: none; stroke: #ffffff; stroke-linejoin: miter; stroke-linecap: square"/>
   </g>
   <g id="patch_152">
    <path d="M 51.108 313.63095 
L 846.366323 313.63095 
" style="fill: none; stroke: #ffffff; stroke-linejoin: miter; stroke-linecap: square"/>
   </g>
   <g id="patch_153">
    <path d="M 51.108 22.848 
L 846.366323 22.848 
" style="fill: none; stroke: #ffffff; stroke-linejoin: miter; stroke-linecap: square"/>
   </g>
   <g id="text_15">
    <!-- Nuber of sales by price range -->
    <g style="fill: #262626" transform="translate(386.041662 16.848) scale(0.096 -0.096)">
     <defs>
      <path id="ArialMT-4e" d="M 488 0 
L 488 4581 
L 1109 4581 
L 3516 984 
L 3516 4581 
L 4097 4581 
L 4097 0 
L 3475 0 
L 1069 3600 
L 1069 0 
L 488 0 
z
" transform="scale(0.015625)"/>
      <path id="ArialMT-62" d="M 941 0 
L 419 0 
L 419 4581 
L 981 4581 
L 981 2947 
Q 1338 3394 1891 3394 
Q 2197 3394 2470 3270 
Q 2744 3147 2920 2923 
Q 3097 2700 3197 2384 
Q 3297 2069 3297 1709 
Q 3297 856 2875 390 
Q 2453 -75 1863 -75 
Q 1275 -75 941 416 
L 941 0 
z
M 934 1684 
Q 934 1088 1097 822 
Q 1363 388 1816 388 
Q 2184 388 2453 708 
Q 2722 1028 2722 1663 
Q 2722 2313 2464 2622 
Q 2206 2931 1841 2931 
Q 1472 2931 1203 2611 
Q 934 2291 934 1684 
z
" transform="scale(0.015625)"/>
      <path id="ArialMT-66" d="M 556 0 
L 556 2881 
L 59 2881 
L 59 3319 
L 556 3319 
L 556 3672 
Q 556 4006 616 4169 
Q 697 4388 901 4523 
Q 1106 4659 1475 4659 
Q 1713 4659 2000 4603 
L 1916 4113 
Q 1741 4144 1584 4144 
Q 1328 4144 1222 4034 
Q 1116 3925 1116 3625 
L 1116 3319 
L 1763 3319 
L 1763 2881 
L 1116 2881 
L 1116 0 
L 556 0 
z
" transform="scale(0.015625)"/>
      <path id="ArialMT-73" d="M 197 991 
L 753 1078 
Q 800 744 1014 566 
Q 1228 388 1613 388 
Q 2000 388 2187 545 
Q 2375 703 2375 916 
Q 2375 1106 2209 1216 
Q 2094 1291 1634 1406 
Q 1016 1563 777 1677 
Q 538 1791 414 1992 
Q 291 2194 291 2438 
Q 291 2659 392 2848 
Q 494 3038 669 3163 
Q 800 3259 1026 3326 
Q 1253 3394 1513 3394 
Q 1903 3394 2198 3281 
Q 2494 3169 2634 2976 
Q 2775 2784 2828 2463 
L 2278 2388 
Q 2241 2644 2061 2787 
Q 1881 2931 1553 2931 
Q 1166 2931 1000 2803 
Q 834 2675 834 2503 
Q 834 2394 903 2306 
Q 972 2216 1119 2156 
Q 1203 2125 1616 2013 
Q 2213 1853 2448 1751 
Q 2684 1650 2818 1456 
Q 2953 1263 2953 975 
Q 2953 694 2789 445 
Q 2625 197 2315 61 
Q 2006 -75 1616 -75 
Q 969 -75 630 194 
Q 291 463 197 991 
z
" transform="scale(0.015625)"/>
      <path id="ArialMT-61" d="M 2588 409 
Q 2275 144 1986 34 
Q 1697 -75 1366 -75 
Q 819 -75 525 192 
Q 231 459 231 875 
Q 231 1119 342 1320 
Q 453 1522 633 1644 
Q 813 1766 1038 1828 
Q 1203 1872 1538 1913 
Q 2219 1994 2541 2106 
Q 2544 2222 2544 2253 
Q 2544 2597 2384 2738 
Q 2169 2928 1744 2928 
Q 1347 2928 1158 2789 
Q 969 2650 878 2297 
L 328 2372 
Q 403 2725 575 2942 
Q 747 3159 1072 3276 
Q 1397 3394 1825 3394 
Q 2250 3394 2515 3294 
Q 2781 3194 2906 3042 
Q 3031 2891 3081 2659 
Q 3109 2516 3109 2141 
L 3109 1391 
Q 3109 606 3145 398 
Q 3181 191 3288 0 
L 2700 0 
Q 2613 175 2588 409 
z
M 2541 1666 
Q 2234 1541 1622 1453 
Q 1275 1403 1131 1340 
Q 988 1278 909 1158 
Q 831 1038 831 891 
Q 831 666 1001 516 
Q 1172 366 1500 366 
Q 1825 366 2078 508 
Q 2331 650 2450 897 
Q 2541 1088 2541 1459 
L 2541 1666 
z
" transform="scale(0.015625)"/>
      <path id="ArialMT-6c" d="M 409 0 
L 409 4581 
L 972 4581 
L 972 0 
L 409 0 
z
" transform="scale(0.015625)"/>
      <path id="ArialMT-79" d="M 397 -1278 
L 334 -750 
Q 519 -800 656 -800 
Q 844 -800 956 -737 
Q 1069 -675 1141 -563 
Q 1194 -478 1313 -144 
Q 1328 -97 1363 -6 
L 103 3319 
L 709 3319 
L 1400 1397 
Q 1534 1031 1641 628 
Q 1738 1016 1872 1384 
L 2581 3319 
L 3144 3319 
L 1881 -56 
Q 1678 -603 1566 -809 
Q 1416 -1088 1222 -1217 
Q 1028 -1347 759 -1347 
Q 597 -1347 397 -1278 
z
" transform="scale(0.015625)"/>
      <path id="ArialMT-70" d="M 422 -1272 
L 422 3319 
L 934 3319 
L 934 2888 
Q 1116 3141 1344 3267 
Q 1572 3394 1897 3394 
Q 2322 3394 2647 3175 
Q 2972 2956 3137 2557 
Q 3303 2159 3303 1684 
Q 3303 1175 3120 767 
Q 2938 359 2589 142 
Q 2241 -75 1856 -75 
Q 1575 -75 1351 44 
Q 1128 163 984 344 
L 984 -1272 
L 422 -1272 
z
M 931 1641 
Q 931 1000 1190 694 
Q 1450 388 1819 388 
Q 2194 388 2461 705 
Q 2728 1022 2728 1688 
Q 2728 2322 2467 2637 
Q 2206 2953 1844 2953 
Q 1484 2953 1207 2617 
Q 931 2281 931 1641 
z
" transform="scale(0.015625)"/>
      <path id="ArialMT-67" d="M 319 -275 
L 866 -356 
Q 900 -609 1056 -725 
Q 1266 -881 1628 -881 
Q 2019 -881 2231 -725 
Q 2444 -569 2519 -288 
Q 2563 -116 2559 434 
Q 2191 0 1641 0 
Q 956 0 581 494 
Q 206 988 206 1678 
Q 206 2153 378 2554 
Q 550 2956 876 3175 
Q 1203 3394 1644 3394 
Q 2231 3394 2613 2919 
L 2613 3319 
L 3131 3319 
L 3131 450 
Q 3131 -325 2973 -648 
Q 2816 -972 2473 -1159 
Q 2131 -1347 1631 -1347 
Q 1038 -1347 672 -1080 
Q 306 -813 319 -275 
z
M 784 1719 
Q 784 1066 1043 766 
Q 1303 466 1694 466 
Q 2081 466 2343 764 
Q 2606 1063 2606 1700 
Q 2606 2309 2336 2618 
Q 2066 2928 1684 2928 
Q 1309 2928 1046 2623 
Q 784 2319 784 1719 
z
" transform="scale(0.015625)"/>
     </defs>
     <use xlink:href="#ArialMT-4e"/>
     <use xlink:href="#ArialMT-75" transform="translate(72.216797 0)"/>
     <use xlink:href="#ArialMT-62" transform="translate(127.832031 0)"/>
     <use xlink:href="#ArialMT-65" transform="translate(183.447266 0)"/>
     <use xlink:href="#ArialMT-72" transform="translate(239.0625 0)"/>
     <use xlink:href="#ArialMT-20" transform="translate(272.363281 0)"/>
     <use xlink:href="#ArialMT-6f" transform="translate(300.146484 0)"/>
     <use xlink:href="#ArialMT-66" transform="translate(355.761719 0)"/>
     <use xlink:href="#ArialMT-20" transform="translate(383.544922 0)"/>
     <use xlink:href="#ArialMT-73" transform="translate(411.328125 0)"/>
     <use xlink:href="#ArialMT-61" transform="translate(461.328125 0)"/>
     <use xlink:href="#ArialMT-6c" transform="translate(516.943359 0)"/>
     <use xlink:href="#ArialMT-65" transform="translate(539.160156 0)"/>
     <use xlink:href="#ArialMT-73" transform="translate(594.775391 0)"/>
     <use xlink:href="#ArialMT-20" transform="translate(644.775391 0)"/>
     <use xlink:href="#ArialMT-62" transform="translate(672.558594 0)"/>
     <use xlink:href="#ArialMT-79" transform="translate(728.173828 0)"/>
     <use xlink:href="#ArialMT-20" transform="translate(778.173828 0)"/>
     <use xlink:href="#ArialMT-70" transform="translate(805.957031 0)"/>
     <use xlink:href="#ArialMT-72" transform="translate(861.572266 0)"/>
     <use xlink:href="#ArialMT-69" transform="translate(894.873047 0)"/>
     <use xlink:href="#ArialMT-63" transform="translate(917.089844 0)"/>
     <use xlink:href="#ArialMT-65" transform="translate(967.089844 0)"/>
     <use xlink:href="#ArialMT-20" transform="translate(1022.705078 0)"/>
     <use xlink:href="#ArialMT-72" transform="translate(1050.488281 0)"/>
     <use xlink:href="#ArialMT-61" transform="translate(1083.789062 0)"/>
     <use xlink:href="#ArialMT-6e" transform="translate(1139.404297 0)"/>
     <use xlink:href="#ArialMT-67" transform="translate(1195.019531 0)"/>
     <use xlink:href="#ArialMT-65" transform="translate(1250.634766 0)"/>
    </g>
   </g>
  </g>
 </g>
 <defs>
  <clipPath id="p62a853cd09">
   <rect x="51.108" y="22.848" width="795.258323" height="290.78295"/>
  </clipPath>
 </defs>
</svg>
