<?xml version="1.0" encoding="utf-8" standalone="no"?>
<!DOCTYPE svg PUBLIC "-//W3C//DTD SVG 1.1//EN"
  "http://www.w3.org/Graphics/SVG/1.1/DTD/svg11.dtd">
<svg xmlns:xlink="http://www.w3.org/1999/xlink" width="460.8pt" height="345.6pt" viewBox="0 0 460.8 345.6" xmlns="http://www.w3.org/2000/svg" version="1.1">
 <metadata>
  <rdf:RDF xmlns:dc="http://purl.org/dc/elements/1.1/" xmlns:cc="http://creativecommons.org/ns#" xmlns:rdf="http://www.w3.org/1999/02/22-rdf-syntax-ns#">
   <cc:Work>
    <dc:type rdf:resource="http://purl.org/dc/dcmitype/StillImage"/>
    <dc:date>2026-05-20T14:57:02.725004</dc:date>
    <dc:format>image/svg+xml</dc:format>
    <dc:creator>
     <cc:Agent>
      <dc:title>Matplotlib v3.10.9, https://matplotlib.org/</dc:title>
     </cc:Agent>
    </dc:creator>
   </cc:Work>
  </rdf:RDF>
 </metadata>
 <defs>
  <style type="text/css">*{stroke-linejoin: round; stroke-linecap: butt}</style>
 </defs>
 <g id="figure_1">
  <g id="patch_1">
   <path d="M 0 345.6 
L 460.8 345.6 
L 460.8 0 
L 0 0 
z
" style="fill: #ffffff"/>
  </g>
  <g id="axes_1">
   <g id="patch_2">
    <path d="M 56.058 306.81075 
L 445.572 306.81075 
L 445.572 23.12925 
L 56.058 23.12925 
z
" style="fill: #eaeaf2"/>
   </g>
   <g id="matplotlib.axis_1">
    <g id="xtick_1">
     <g id="text_1">
      <!-- 0 -->
      <g style="fill: #262626" transform="translate(53.611187 321.409625) scale(0.088 -0.088)">
       <defs>
        <path id="ArialMT-30" d="M 266 2259 
Q 266 3072 433 3567 
Q 600 4063 929 4331 
Q 1259 4600 1759 4600 
Q 2128 4600 2406 4451 
Q 2684 4303 2865 4023 
Q 3047 3744 3150 3342 
Q 3253 2941 3253 2259 
Q 3253 1453 3087 958 
Q 2922 463 2592 192 
Q 2263 -78 1759 -78 
Q 1097 -78 719 397 
Q 266 969 266 2259 
z
M 844 2259 
Q 844 1131 1108 757 
Q 1372 384 1759 384 
Q 2147 384 2411 759 
Q 2675 1134 2675 2259 
Q 2675 3391 2411 3762 
Q 2147 4134 1753 4134 
Q 1366 4134 1134 3806 
Q 844 3388 844 2259 
z
" transform="scale(0.015625)"/>
       </defs>
       <use xlink:href="#ArialMT-30"/>
      </g>
     </g>
    </g>
    <g id="xtick_2">
     <g id="text_2">
      <!-- 5 -->
      <g style="fill: #262626" transform="translate(109.256045 321.409625) scale(0.088 -0.088)">
       <defs>
        <path id="ArialMT-35" d="M 266 1200 
L 856 1250 
Q 922 819 1161 601 
Q 1400 384 1738 384 
Q 2144 384 2425 690 
Q 2706 997 2706 1503 
Q 2706 1984 2436 2262 
Q 2166 2541 1728 2541 
Q 1456 2541 1237 2417 
Q 1019 2294 894 2097 
L 366 2166 
L 809 4519 
L 3088 4519 
L 3088 3981 
L 1259 3981 
L 1013 2750 
Q 1425 3038 1878 3038 
Q 2478 3038 2890 2622 
Q 3303 2206 3303 1553 
Q 3303 931 2941 478 
Q 2500 -78 1738 -78 
Q 1113 -78 717 272 
Q 322 622 266 1200 
z
" transform="scale(0.015625)"/>
       </defs>
       <use xlink:href="#ArialMT-35"/>
      </g>
     </g>
    </g>
    <g id="xtick_3">
     <g id="text_3">
      <!-- 10 -->
      <g style="fill: #262626" transform="translate(162.454089 321.409625) scale(0.088 -0.088)">
       <defs>
        <path id="ArialMT-31" d="M 2384 0 
L 1822 0 
L 1822 3584 
Q 1619 3391 1289 3197 
Q 959 3003 697 2906 
L 697 3450 
Q 1169 3672 1522 3987 
Q 1875 4303 2022 4600 
L 2384 4600 
L 2384 0 
z
" transform="scale(0.015625)"/>
       </defs>
       <use xlink:href="#ArialMT-31"/>
       <use xlink:href="#ArialMT-30" transform="translate(55.615234 0)"/>
      </g>
     </g>
    </g>
    <g id="xtick_4">
     <g id="text_4">
      <!-- 15 -->
      <g style="fill: #262626" transform="translate(218.098946 321.409625) scale(0.088 -0.088)">
       <use xlink:href="#ArialMT-31"/>
       <use xlink:href="#ArialMT-35" transform="translate(55.615234 0)"/>
      </g>
     </g>
    </g>
    <g id="xtick_5">
     <g id="text_5">
      <!-- 20 -->
      <g style="fill: #262626" transform="translate(273.743804 321.409625) scale(0.088 -0.088)">
       <defs>
        <path id="ArialMT-32" d="M 3222 541 
L 3222 0 
L 194 0 
Q 188 203 259 391 
Q 375 700 629 1000 
Q 884 1300 1366 1694 
Q 2113 2306 2375 2664 
Q 2638 3022 2638 3341 
Q 2638 3675 2398 3904 
Q 2159 4134 1775 4134 
Q 1369 4134 1125 3890 
Q 881 3647 878 3216 
L 300 3275 
Q 359 3922 746 4261 
Q 1134 4600 1788 4600 
Q 2447 4600 2831 4234 
Q 3216 3869 3216 3328 
Q 3216 3053 3103 2787 
Q 2991 2522 2730 2228 
Q 2469 1934 1863 1422 
Q 1356 997 1212 845 
Q 1069 694 975 541 
L 3222 541 
z
" transform="scale(0.015625)"/>
       </defs>
       <use xlink:href="#ArialMT-32"/>
       <use xlink:href="#ArialMT-30" transform="translate(55.615234 0)"/>
      </g>
     </g>
    </g>
    <g id="xtick_6">
     <g id="text_6">
      <!-- 25 -->
      <g style="fill: #262626" transform="translate(329.388661 321.409625) scale(0.088 -0.088)">
       <use xlink:href="#ArialMT-32"/>
       <use xlink:href="#ArialMT-35" transform="translate(55.615234 0)"/>
      </g>
     </g>
    </g>
    <g id="xtick_7">
     <g id="text_7">
      <!-- 30 -->
      <g style="fill: #262626" transform="translate(385.033518 321.409625) scale(0.088 -0.088)">
       <defs>
        <path id="ArialMT-33" d="M 269 1209 
L 831 1284 
Q 928 806 1161 595 
Q 1394 384 1728 384 
Q 2125 384 2398 659 
Q 2672 934 2672 1341 
Q 2672 1728 2419 1979 
Q 2166 2231 1775 2231 
Q 1616 2231 1378 2169 
L 1441 2663 
Q 1497 2656 1531 2656 
Q 1891 2656 2178 2843 
Q 2466 3031 2466 3422 
Q 2466 3731 2256 3934 
Q 2047 4138 1716 4138 
Q 1388 4138 1169 3931 
Q 950 3725 888 3313 
L 325 3413 
Q 428 3978 793 4289 
Q 1159 4600 1703 4600 
Q 2078 4600 2393 4439 
Q 2709 4278 2876 4000 
Q 3044 3722 3044 3409 
Q 3044 3113 2884 2869 
Q 2725 2625 2413 2481 
Q 2819 2388 3044 2092 
Q 3269 1797 3269 1353 
Q 3269 753 2831 336 
Q 2394 -81 1725 -81 
Q 1122 -81 723 278 
Q 325 638 269 1209 
z
" transform="scale(0.015625)"/>
       </defs>
       <use xlink:href="#ArialMT-33"/>
       <use xlink:href="#ArialMT-30" transform="translate(55.615234 0)"/>
      </g>
     </g>
    </g>
    <g id="xtick_8">
     <g id="text_8">
      <!-- 35 -->
      <g style="fill: #262626" transform="translate(440.678375 321.409625) scale(0.088 -0.088)">
       <use xlink:href="#ArialMT-33"/>
       <use xlink:href="#ArialMT-35" transform="translate(55.615234 0)"/>
      </g>
     </g>
    </g>
    <g id="text_9">
     <!-- Percentage Discount -->
     <g style="fill: #262626" transform="translate(206.25825 334.030125) scale(0.096 -0.096)">
      <defs>
       <path id="ArialMT-50" d="M 494 0 
L 494 4581 
L 2222 4581 
Q 2678 4581 2919 4538 
Q 3256 4481 3484 4323 
Q 3713 4166 3852 3881 
Q 3991 3597 3991 3256 
Q 3991 2672 3619 2267 
Q 3247 1863 2275 1863 
L 1100 1863 
L 1100 0 
L 494 0 
z
M 1100 2403 
L 2284 2403 
Q 2872 2403 3119 2622 
Q 3366 2841 3366 3238 
Q 3366 3525 3220 3729 
Q 3075 3934 2838 4000 
Q 2684 4041 2272 4041 
L 1100 4041 
L 1100 2403 
z
" transform="scale(0.015625)"/>
       <path id="ArialMT-65" d="M 2694 1069 
L 3275 997 
Q 3138 488 2766 206 
Q 2394 -75 1816 -75 
Q 1088 -75 661 373 
Q 234 822 234 1631 
Q 234 2469 665 2931 
Q 1097 3394 1784 3394 
Q 2450 3394 2872 2941 
Q 3294 2488 3294 1666 
Q 3294 1616 3291 1516 
L 816 1516 
Q 847 969 1125 678 
Q 1403 388 1819 388 
Q 2128 388 2347 550 
Q 2566 713 2694 1069 
z
M 847 1978 
L 2700 1978 
Q 2663 2397 2488 2606 
Q 2219 2931 1791 2931 
Q 1403 2931 1139 2672 
Q 875 2413 847 1978 
z
" transform="scale(0.015625)"/>
       <path id="ArialMT-72" d="M 416 0 
L 416 3319 
L 922 3319 
L 922 2816 
Q 1116 3169 1280 3281 
Q 1444 3394 1641 3394 
Q 1925 3394 2219 3213 
L 2025 2691 
Q 1819 2813 1613 2813 
Q 1428 2813 1281 2702 
Q 1134 2591 1072 2394 
Q 978 2094 978 1738 
L 978 0 
L 416 0 
z
" transform="scale(0.015625)"/>
       <path id="ArialMT-63" d="M 2588 1216 
L 3141 1144 
Q 3050 572 2676 248 
Q 2303 -75 1759 -75 
Q 1078 -75 664 370 
Q 250 816 250 1647 
Q 250 2184 428 2587 
Q 606 2991 970 3192 
Q 1334 3394 1763 3394 
Q 2303 3394 2647 3120 
Q 2991 2847 3088 2344 
L 2541 2259 
Q 2463 2594 2264 2762 
Q 2066 2931 1784 2931 
Q 1359 2931 1093 2626 
Q 828 2322 828 1663 
Q 828 994 1084 691 
Q 1341 388 1753 388 
Q 2084 388 2306 591 
Q 2528 794 2588 1216 
z
" transform="scale(0.015625)"/>
       <path id="ArialMT-6e" d="M 422 0 
L 422 3319 
L 928 3319 
L 928 2847 
Q 1294 3394 1984 3394 
Q 2284 3394 2536 3286 
Q 2788 3178 2913 3003 
Q 3038 2828 3088 2588 
Q 3119 2431 3119 2041 
L 3119 0 
L 2556 0 
L 2556 2019 
Q 2556 2363 2490 2533 
Q 2425 2703 2258 2804 
Q 2091 2906 1866 2906 
Q 1506 2906 1245 2678 
Q 984 2450 984 1813 
L 984 0 
L 422 0 
z
" transform="scale(0.015625)"/>
       <path id="ArialMT-74" d="M 1650 503 
L 1731 6 
Q 1494 -44 1306 -44 
Q 1000 -44 831 53 
Q 663 150 594 308 
Q 525 466 525 972 
L 525 2881 
L 113 2881 
L 113 3319 
L 525 3319 
L 525 4141 
L 1084 4478 
L 1084 3319 
L 1650 3319 
L 1650 2881 
L 1084 2881 
L 1084 941 
Q 1084 700 1114 631 
Q 1144 563 1211 522 
Q 1278 481 1403 481 
Q 1497 481 1650 503 
z
" transform="scale(0.015625)"/>
       <path id="ArialMT-61" d="M 2588 409 
Q 2275 144 1986 34 
Q 1697 -75 1366 -75 
Q 819 -75 525 192 
Q 231 459 231 875 
Q 231 1119 342 1320 
Q 453 1522 633 1644 
Q 813 1766 1038 1828 
Q 1203 1872 1538 1913 
Q 2219 1994 2541 2106 
Q 2544 2222 2544 2253 
Q 2544 2597 2384 2738 
Q 2169 2928 1744 2928 
Q 1347 2928 1158 2789 
Q 969 2650 878 2297 
L 328 2372 
Q 403 2725 575 2942 
Q 747 3159 1072 3276 
Q 1397 3394 1825 3394 
Q 2250 3394 2515 3294 
Q 2781 3194 2906 3042 
Q 3031 2891 3081 2659 
Q 3109 2516 3109 2141 
L 3109 1391 
Q 3109 606 3145 398 
Q 3181 191 3288 0 
L 2700 0 
Q 2613 175 2588 409 
z
M 2541 1666 
Q 2234 1541 1622 1453 
Q 1275 1403 1131 1340 
Q 988 1278 909 1158 
Q 831 1038 831 891 
Q 831 666 1001 516 
Q 1172 366 1500 366 
Q 1825 366 2078 508 
Q 2331 650 2450 897 
Q 2541 1088 2541 1459 
L 2541 1666 
z
" transform="scale(0.015625)"/>
       <path id="ArialMT-67" d="M 319 -275 
L 866 -356 
Q 900 -609 1056 -725 
Q 1266 -881 1628 -881 
Q 2019 -881 2231 -725 
Q 2444 -569 2519 -288 
Q 2563 -116 2559 434 
Q 2191 0 1641 0 
Q 956 0 581 494 
Q 206 988 206 1678 
Q 206 2153 378 2554 
Q 550 2956 876 3175 
Q 1203 3394 1644 3394 
Q 2231 3394 2613 2919 
L 2613 3319 
L 3131 3319 
L 3131 450 
Q 3131 -325 2973 -648 
Q 2816 -972 2473 -1159 
Q 2131 -1347 1631 -1347 
Q 1038 -1347 672 -1080 
Q 306 -813 319 -275 
z
M 784 1719 
Q 784 1066 1043 766 
Q 1303 466 1694 466 
Q 2081 466 2343 764 
Q 2606 1063 2606 1700 
Q 2606 2309 2336 2618 
Q 2066 2928 1684 2928 
Q 1309 2928 1046 2623 
Q 784 2319 784 1719 
z
" transform="scale(0.015625)"/>
       <path id="ArialMT-20" transform="scale(0.015625)"/>
       <path id="ArialMT-44" d="M 494 0 
L 494 4581 
L 2072 4581 
Q 2606 4581 2888 4516 
Q 3281 4425 3559 4188 
Q 3922 3881 4101 3404 
Q 4281 2928 4281 2316 
Q 4281 1794 4159 1391 
Q 4038 988 3847 723 
Q 3656 459 3429 307 
Q 3203 156 2883 78 
Q 2563 0 2147 0 
L 494 0 
z
M 1100 541 
L 2078 541 
Q 2531 541 2789 625 
Q 3047 709 3200 863 
Q 3416 1078 3536 1442 
Q 3656 1806 3656 2325 
Q 3656 3044 3420 3430 
Q 3184 3816 2847 3947 
Q 2603 4041 2063 4041 
L 1100 4041 
L 1100 541 
z
" transform="scale(0.015625)"/>
       <path id="ArialMT-69" d="M 425 3934 
L 425 4581 
L 988 4581 
L 988 3934 
L 425 3934 
z
M 425 0 
L 425 3319 
L 988 3319 
L 988 0 
L 425 0 
z
" transform="scale(0.015625)"/>
       <path id="ArialMT-73" d="M 197 991 
L 753 1078 
Q 800 744 1014 566 
Q 1228 388 1613 388 
Q 2000 388 2187 545 
Q 2375 703 2375 916 
Q 2375 1106 2209 1216 
Q 2094 1291 1634 1406 
Q 1016 1563 777 1677 
Q 538 1791 414 1992 
Q 291 2194 291 2438 
Q 291 2659 392 2848 
Q 494 3038 669 3163 
Q 800 3259 1026 3326 
Q 1253 3394 1513 3394 
Q 1903 3394 2198 3281 
Q 2494 3169 2634 2976 
Q 2775 2784 2828 2463 
L 2278 2388 
Q 2241 2644 2061 2787 
Q 1881 2931 1553 2931 
Q 1166 2931 1000 2803 
Q 834 2675 834 2503 
Q 834 2394 903 2306 
Q 972 2216 1119 2156 
Q 1203 2125 1616 2013 
Q 2213 1853 2448 1751 
Q 2684 1650 2818 1456 
Q 2953 1263 2953 975 
Q 2953 694 2789 445 
Q 2625 197 2315 61 
Q 2006 -75 1616 -75 
Q 969 -75 630 194 
Q 291 463 197 991 
z
" transform="scale(0.015625)"/>
       <path id="ArialMT-6f" d="M 213 1659 
Q 213 2581 725 3025 
Q 1153 3394 1769 3394 
Q 2453 3394 2887 2945 
Q 3322 2497 3322 1706 
Q 3322 1066 3130 698 
Q 2938 331 2570 128 
Q 2203 -75 1769 -75 
Q 1072 -75 642 372 
Q 213 819 213 1659 
z
M 791 1659 
Q 791 1022 1069 705 
Q 1347 388 1769 388 
Q 2188 388 2466 706 
Q 2744 1025 2744 1678 
Q 2744 2294 2464 2611 
Q 2184 2928 1769 2928 
Q 1347 2928 1069 2612 
Q 791 2297 791 1659 
z
" transform="scale(0.015625)"/>
       <path id="ArialMT-75" d="M 2597 0 
L 2597 488 
Q 2209 -75 1544 -75 
Q 1250 -75 995 37 
Q 741 150 617 320 
Q 494 491 444 738 
Q 409 903 409 1263 
L 409 3319 
L 972 3319 
L 972 1478 
Q 972 1038 1006 884 
Q 1059 663 1231 536 
Q 1403 409 1656 409 
Q 1909 409 2131 539 
Q 2353 669 2445 892 
Q 2538 1116 2538 1541 
L 2538 3319 
L 3100 3319 
L 3100 0 
L 2597 0 
z
" transform="scale(0.015625)"/>
      </defs>
      <use xlink:href="#ArialMT-50"/>
      <use xlink:href="#ArialMT-65" transform="translate(66.699219 0)"/>
      <use xlink:href="#ArialMT-72" transform="translate(122.314453 0)"/>
      <use xlink:href="#ArialMT-63" transform="translate(155.615234 0)"/>
      <use xlink:href="#ArialMT-65" transform="translate(205.615234 0)"/>
      <use xlink:href="#ArialMT-6e" transform="translate(261.230469 0)"/>
      <use xlink:href="#ArialMT-74" transform="translate(316.845703 0)"/>
      <use xlink:href="#ArialMT-61" transform="translate(344.628906 0)"/>
      <use xlink:href="#ArialMT-67" transform="translate(400.244141 0)"/>
      <use xlink:href="#ArialMT-65" transform="translate(455.859375 0)"/>
      <use xlink:href="#ArialMT-20" transform="translate(511.474609 0)"/>
      <use xlink:href="#ArialMT-44" transform="translate(539.257812 0)"/>
      <use xlink:href="#ArialMT-69" transform="translate(611.474609 0)"/>
      <use xlink:href="#ArialMT-73" transform="translate(633.691406 0)"/>
      <use xlink:href="#ArialMT-63" transform="translate(683.691406 0)"/>
      <use xlink:href="#ArialMT-6f" transform="translate(733.691406 0)"/>
      <use xlink:href="#ArialMT-75" transform="translate(789.306641 0)"/>
      <use xlink:href="#ArialMT-6e" transform="translate(844.921875 0)"/>
      <use xlink:href="#ArialMT-74" transform="translate(900.537109 0)"/>
     </g>
    </g>
   </g>
   <g id="matplotlib.axis_2">
    <g id="ytick_1">
     <g id="text_10">
      <!-- 0 -->
      <g style="fill: #262626" transform="translate(42.864375 309.960187) scale(0.088 -0.088)">
       <use xlink:href="#ArialMT-30"/>
      </g>
     </g>
    </g>
    <g id="ytick_2">
     <g id="text_11">
      <!-- 2000 -->
      <g style="fill: #262626" transform="translate(28.1835 262.679937) scale(0.088 -0.088)">
       <use xlink:href="#ArialMT-32"/>
       <use xlink:href="#ArialMT-30" transform="translate(55.615234 0)"/>
       <use xlink:href="#ArialMT-30" transform="translate(111.230469 0)"/>
       <use xlink:href="#ArialMT-30" transform="translate(166.845703 0)"/>
      </g>
     </g>
    </g>
    <g id="ytick_3">
     <g id="text_12">
      <!-- 4000 -->
      <g style="fill: #262626" transform="translate(28.1835 215.399687) scale(0.088 -0.088)">
       <defs>
        <path id="ArialMT-34" d="M 2069 0 
L 2069 1097 
L 81 1097 
L 81 1613 
L 2172 4581 
L 2631 4581 
L 2631 1613 
L 3250 1613 
L 3250 1097 
L 2631 1097 
L 2631 0 
L 2069 0 
z
M 2069 1613 
L 2069 3678 
L 634 1613 
L 2069 1613 
z
" transform="scale(0.015625)"/>
       </defs>
       <use xlink:href="#ArialMT-34"/>
       <use xlink:href="#ArialMT-30" transform="translate(55.615234 0)"/>
       <use xlink:href="#ArialMT-30" transform="translate(111.230469 0)"/>
       <use xlink:href="#ArialMT-30" transform="translate(166.845703 0)"/>
      </g>
     </g>
    </g>
    <g id="ytick_4">
     <g id="text_13">
      <!-- 6000 -->
      <g style="fill: #262626" transform="translate(28.1835 168.119437) scale(0.088 -0.088)">
       <defs>
        <path id="ArialMT-36" d="M 3184 3459 
L 2625 3416 
Q 2550 3747 2413 3897 
Q 2184 4138 1850 4138 
Q 1581 4138 1378 3988 
Q 1113 3794 959 3422 
Q 806 3050 800 2363 
Q 1003 2672 1297 2822 
Q 1591 2972 1913 2972 
Q 2475 2972 2870 2558 
Q 3266 2144 3266 1488 
Q 3266 1056 3080 686 
Q 2894 316 2569 119 
Q 2244 -78 1831 -78 
Q 1128 -78 684 439 
Q 241 956 241 2144 
Q 241 3472 731 4075 
Q 1159 4600 1884 4600 
Q 2425 4600 2770 4297 
Q 3116 3994 3184 3459 
z
M 888 1484 
Q 888 1194 1011 928 
Q 1134 663 1356 523 
Q 1578 384 1822 384 
Q 2178 384 2434 671 
Q 2691 959 2691 1453 
Q 2691 1928 2437 2201 
Q 2184 2475 1800 2475 
Q 1419 2475 1153 2201 
Q 888 1928 888 1484 
z
" transform="scale(0.015625)"/>
       </defs>
       <use xlink:href="#ArialMT-36"/>
       <use xlink:href="#ArialMT-30" transform="translate(55.615234 0)"/>
       <use xlink:href="#ArialMT-30" transform="translate(111.230469 0)"/>
       <use xlink:href="#ArialMT-30" transform="translate(166.845703 0)"/>
      </g>
     </g>
    </g>
    <g id="ytick_5">
     <g id="text_14">
      <!-- 8000 -->
      <g style="fill: #262626" transform="translate(28.1835 120.839187) scale(0.088 -0.088)">
       <defs>
        <path id="ArialMT-38" d="M 1131 2484 
Q 781 2613 612 2850 
Q 444 3088 444 3419 
Q 444 3919 803 4259 
Q 1163 4600 1759 4600 
Q 2359 4600 2725 4251 
Q 3091 3903 3091 3403 
Q 3091 3084 2923 2848 
Q 2756 2613 2416 2484 
Q 2838 2347 3058 2040 
Q 3278 1734 3278 1309 
Q 3278 722 2862 322 
Q 2447 -78 1769 -78 
Q 1091 -78 675 323 
Q 259 725 259 1325 
Q 259 1772 486 2073 
Q 713 2375 1131 2484 
z
M 1019 3438 
Q 1019 3113 1228 2906 
Q 1438 2700 1772 2700 
Q 2097 2700 2305 2904 
Q 2513 3109 2513 3406 
Q 2513 3716 2298 3927 
Q 2084 4138 1766 4138 
Q 1444 4138 1231 3931 
Q 1019 3725 1019 3438 
z
M 838 1322 
Q 838 1081 952 856 
Q 1066 631 1291 507 
Q 1516 384 1775 384 
Q 2178 384 2440 643 
Q 2703 903 2703 1303 
Q 2703 1709 2433 1975 
Q 2163 2241 1756 2241 
Q 1359 2241 1098 1978 
Q 838 1716 838 1322 
z
" transform="scale(0.015625)"/>
       </defs>
       <use xlink:href="#ArialMT-38"/>
       <use xlink:href="#ArialMT-30" transform="translate(55.615234 0)"/>
       <use xlink:href="#ArialMT-30" transform="translate(111.230469 0)"/>
       <use xlink:href="#ArialMT-30" transform="translate(166.845703 0)"/>
      </g>
     </g>
    </g>
    <g id="ytick_6">
     <g id="text_15">
      <!-- 10000 -->
      <g style="fill: #262626" transform="translate(23.289875 73.558937) scale(0.088 -0.088)">
       <use xlink:href="#ArialMT-31"/>
       <use xlink:href="#ArialMT-30" transform="translate(55.615234 0)"/>
       <use xlink:href="#ArialMT-30" transform="translate(111.230469 0)"/>
       <use xlink:href="#ArialMT-30" transform="translate(166.845703 0)"/>
       <use xlink:href="#ArialMT-30" transform="translate(222.460938 0)"/>
      </g>
     </g>
    </g>
    <g id="ytick_7">
     <g id="text_16">
      <!-- 12000 -->
      <g style="fill: #262626" transform="translate(23.289875 26.278687) scale(0.088 -0.088)">
       <use xlink:href="#ArialMT-31"/>
       <use xlink:href="#ArialMT-32" transform="translate(55.615234 0)"/>
       <use xlink:href="#ArialMT-30" transform="translate(111.230469 0)"/>
       <use xlink:href="#ArialMT-30" transform="translate(166.845703 0)"/>
       <use xlink:href="#ArialMT-30" transform="translate(222.460938 0)"/>
      </g>
     </g>
    </g>
    <g id="text_17">
     <!-- Revenue -->
     <g style="fill: #262626" transform="translate(17.381875 184.18275) rotate(-90) scale(0.096 -0.096)">
      <defs>
       <path id="ArialMT-52" d="M 503 0 
L 503 4581 
L 2534 4581 
Q 3147 4581 3465 4457 
Q 3784 4334 3975 4021 
Q 4166 3709 4166 3331 
Q 4166 2844 3850 2509 
Q 3534 2175 2875 2084 
Q 3116 1969 3241 1856 
Q 3506 1613 3744 1247 
L 4541 0 
L 3778 0 
L 3172 953 
Q 2906 1366 2734 1584 
Q 2563 1803 2427 1890 
Q 2291 1978 2150 2013 
Q 2047 2034 1813 2034 
L 1109 2034 
L 1109 0 
L 503 0 
z
M 1109 2559 
L 2413 2559 
Q 2828 2559 3062 2645 
Q 3297 2731 3419 2920 
Q 3541 3109 3541 3331 
Q 3541 3656 3305 3865 
Q 3069 4075 2559 4075 
L 1109 4075 
L 1109 2559 
z
" transform="scale(0.015625)"/>
       <path id="ArialMT-76" d="M 1344 0 
L 81 3319 
L 675 3319 
L 1388 1331 
Q 1503 1009 1600 663 
Q 1675 925 1809 1294 
L 2547 3319 
L 3125 3319 
L 1869 0 
L 1344 0 
z
" transform="scale(0.015625)"/>
      </defs>
      <use xlink:href="#ArialMT-52"/>
      <use xlink:href="#ArialMT-65" transform="translate(72.216797 0)"/>
      <use xlink:href="#ArialMT-76" transform="translate(127.832031 0)"/>
      <use xlink:href="#ArialMT-65" transform="translate(177.832031 0)"/>
      <use xlink:href="#ArialMT-6e" transform="translate(233.447266 0)"/>
      <use xlink:href="#ArialMT-75" transform="translate(289.0625 0)"/>
      <use xlink:href="#ArialMT-65" transform="translate(344.677734 0)"/>
     </g>
    </g>
   </g>
   <g id="PathCollection_1">
    <path d="M 110.144801 175.592384 
C 112.441527 175.592384 114.644495 174.679885 116.268525 173.055855 
C 117.892556 171.431824 118.805055 169.228857 118.805055 166.93213 
C 118.805055 164.635404 117.892556 162.432437 116.268525 160.808406 
C 114.644495 159.184375 112.441527 158.271876 110.144801 158.271876 
C 107.848075 158.271876 105.645107 159.184375 104.021077 160.808406 
C 102.397046 162.432437 101.484547 164.635404 101.484547 166.93213 
C 101.484547 169.228857 102.397046 171.431824 104.021077 173.055855 
C 105.645107 174.679885 107.848075 175.592384 110.144801 175.592384 
z
" clip-path="url(#pad22833f32)" style="fill: #4c72b0; fill-opacity: 0.5; stroke: #ffffff; stroke-opacity: 0.5; stroke-width: 0.979796"/>
    <path d="M 110.367381 68.165037 
C 112.664107 68.165037 114.867074 67.252538 116.491105 65.628507 
C 118.115136 64.004477 119.027635 61.801509 119.027635 59.504783 
C 119.027635 57.208057 118.115136 55.005089 116.491105 53.381059 
C 114.867074 51.757028 112.664107 50.844529 110.367381 50.844529 
C 108.070654 50.844529 105.867687 51.757028 104.243656 53.381059 
C 102.619626 55.005089 101.707127 57.208057 101.707127 59.504783 
C 101.707127 61.801509 102.619626 64.004477 104.243656 65.628507 
C 105.867687 67.252538 108.070654 68.165037 110.367381 68.165037 
z
" clip-path="url(#pad22833f32)" style="fill: #4c72b0; fill-opacity: 0.5; stroke: #ffffff; stroke-opacity: 0.5; stroke-width: 0.979796"/>
    <path d="M 110.70125 191.85679 
C 112.997976 191.85679 115.200943 190.944291 116.824974 189.320261 
C 118.449005 187.69623 119.361504 185.493263 119.361504 183.196536 
C 119.361504 180.89981 118.449005 178.696843 116.824974 177.072812 
C 115.200943 175.448781 112.997976 174.536282 110.70125 174.536282 
C 108.404523 174.536282 106.201556 175.448781 104.577525 177.072812 
C 102.953495 178.696843 102.040996 180.89981 102.040996 183.196536 
C 102.040996 185.493263 102.953495 187.69623 104.577525 189.320261 
C 106.201556 190.944291 108.404523 191.85679 110.70125 191.85679 
z
" clip-path="url(#pad22833f32)" style="fill: #4c72b0; fill-opacity: 0.5; stroke: #ffffff; stroke-opacity: 0.5; stroke-width: 0.979796"/>
    <path d="M 112.036726 192.009269 
C 114.333453 192.009269 116.53642 191.09677 118.160451 189.47274 
C 119.784481 187.848709 120.69698 185.645741 120.69698 183.349015 
C 120.69698 181.052289 119.784481 178.849322 118.160451 177.225291 
C 116.53642 175.60126 114.333453 174.688761 112.036726 174.688761 
C 109.74 174.688761 107.537033 175.60126 105.913002 177.225291 
C 104.288971 178.849322 103.376472 181.052289 103.376472 183.349015 
C 103.376472 185.645741 104.288971 187.848709 105.913002 189.47274 
C 107.537033 191.09677 109.74 192.009269 112.036726 192.009269 
z
" clip-path="url(#pad22833f32)" style="fill: #4c72b0; fill-opacity: 0.5; stroke: #ffffff; stroke-opacity: 0.5; stroke-width: 0.979796"/>
    <path d="M 113.372203 192.165058 
C 115.668929 192.165058 117.871897 191.252559 119.495927 189.628528 
C 121.119958 188.004497 122.032457 185.80153 122.032457 183.504804 
C 122.032457 181.208077 121.119958 179.00511 119.495927 177.381079 
C 117.871897 175.757049 115.668929 174.84455 113.372203 174.84455 
C 111.075477 174.84455 108.872509 175.757049 107.248479 177.381079 
C 105.624448 179.00511 104.711949 181.208077 104.711949 183.504804 
C 104.711949 185.80153 105.624448 188.004497 107.248479 189.628528 
C 108.872509 191.252559 111.075477 192.165058 113.372203 192.165058 
z
" clip-path="url(#pad22833f32)" style="fill: #4c72b0; fill-opacity: 0.5; stroke: #ffffff; stroke-opacity: 0.5; stroke-width: 0.979796"/>
    <path d="M 133.181772 -531.460114 
C 135.478498 -531.460114 137.681466 -532.372613 139.305496 -533.996644 
C 140.929527 -535.620675 141.842026 -537.823642 141.842026 -540.120368 
C 141.842026 -542.417094 140.929527 -544.620062 139.305496 -546.244093 
C 137.681466 -547.868123 135.478498 -548.780622 133.181772 -548.780622 
C 130.885046 -548.780622 128.682078 -547.868123 127.058048 -546.244093 
C 125.434017 -544.620062 124.521518 -542.417094 124.521518 -540.120368 
C 124.521518 -537.823642 125.434017 -535.620675 127.058048 -533.996644 
C 128.682078 -532.372613 130.885046 -531.460114 133.181772 -531.460114 
z
" clip-path="url(#pad22833f32)" style="fill: #4c72b0; fill-opacity: 0.5; stroke: #ffffff; stroke-opacity: 0.5; stroke-width: 0.979796"/>
    <path d="M 139.191417 186.776324 
C 141.288031 186.776324 143.299056 185.94333 144.781587 184.4608 
C 146.264117 182.978269 147.097111 180.967244 147.097111 178.87063 
C 147.097111 176.774015 146.264117 174.76299 144.781587 173.28046 
C 143.299056 171.79793 141.288031 170.964936 139.191417 170.964936 
C 137.094802 170.964936 135.083777 171.79793 133.601247 173.28046 
C 132.118716 174.76299 131.285722 176.774015 131.285722 178.87063 
C 131.285722 180.967244 132.118716 182.978269 133.601247 184.4608 
C 135.083777 185.94333 137.094802 186.776324 139.191417 186.776324 
z
" clip-path="url(#pad22833f32)" style="fill: #dd8452; fill-opacity: 0.5; stroke: #ffffff; stroke-opacity: 0.5; stroke-width: 0.979796"/>
    <path d="M 159.668724 188.480647 
C 161.543993 188.480647 163.342708 187.735595 164.668724 186.409579 
C 165.99474 185.083564 166.739792 183.284848 166.739792 181.409579 
C 166.739792 179.53431 165.99474 177.735595 164.668724 176.409579 
C 163.342708 175.083564 161.543993 174.338512 159.668724 174.338512 
C 157.793455 174.338512 155.99474 175.083564 154.668724 176.409579 
C 153.342708 177.735595 152.597656 179.53431 152.597656 181.409579 
C 152.597656 183.284848 153.342708 185.083564 154.668724 186.409579 
C 155.99474 187.735595 157.793455 188.480647 159.668724 188.480647 
z
" clip-path="url(#pad22833f32)" style="fill: #55a868; fill-opacity: 0.5; stroke: #ffffff; stroke-opacity: 0.5; stroke-width: 0.979796"/>
    <path d="M 164.231602 201.126376 
C 165.855633 201.126376 167.413366 200.481141 168.561729 199.332778 
C 169.710092 198.184415 170.355327 196.626682 170.355327 195.002651 
C 170.355327 193.378621 169.710092 191.820887 168.561729 190.672524 
C 167.413366 189.524161 165.855633 188.878927 164.231602 188.878927 
C 162.607572 188.878927 161.049838 189.524161 159.901475 190.672524 
C 158.753112 191.820887 158.107878 193.378621 158.107878 195.002651 
C 158.107878 196.626682 158.753112 198.184415 159.901475 199.332778 
C 161.049838 200.481141 162.607572 201.126376 164.231602 201.126376 
z
" clip-path="url(#pad22833f32)" style="fill: #c44e52; fill-opacity: 0.5; stroke: #ffffff; stroke-opacity: 0.5; stroke-width: 0.979796"/>
    <path d="M 167.347714 204.759237 
C 169.222983 204.759237 171.021699 204.014185 172.347714 202.688169 
C 173.67373 201.362154 174.418782 199.563439 174.418782 197.688169 
C 174.418782 195.8129 173.67373 194.014185 172.347714 192.688169 
C 171.021699 191.362154 169.222983 190.617102 167.347714 190.617102 
C 165.472445 190.617102 163.67373 191.362154 162.347714 192.688169 
C 161.021699 194.014185 160.276646 195.8129 160.276646 197.688169 
C 160.276646 199.563439 161.021699 201.362154 162.347714 202.688169 
C 163.67373 204.014185 165.472445 204.759237 167.347714 204.759237 
z
" clip-path="url(#pad22833f32)" style="fill: #55a868; fill-opacity: 0.5; stroke: #ffffff; stroke-opacity: 0.5; stroke-width: 0.979796"/>
    <path d="M 179.255714 140.467553 
C 181.130983 140.467553 182.929698 139.722501 184.255714 138.396485 
C 185.581729 137.07047 186.326782 135.271755 186.326782 133.396485 
C 186.326782 131.521216 185.581729 129.722501 184.255714 128.396485 
C 182.929698 127.07047 181.130983 126.325418 179.255714 126.325418 
C 177.380445 126.325418 175.581729 127.07047 174.255714 128.396485 
C 172.929698 129.722501 172.184646 131.521216 172.184646 133.396485 
C 172.184646 135.271755 172.929698 137.07047 174.255714 138.396485 
C 175.581729 139.722501 177.380445 140.467553 179.255714 140.467553 
z
" clip-path="url(#pad22833f32)" style="fill: #55a868; fill-opacity: 0.5; stroke: #ffffff; stroke-opacity: 0.5; stroke-width: 0.979796"/>
    <path d="M 189.271788 142.216923 
C 191.147057 142.216923 192.945773 141.47187 194.271788 140.145855 
C 195.597804 138.819839 196.342856 137.021124 196.342856 135.145855 
C 196.342856 133.270586 195.597804 131.47187 194.271788 130.145855 
C 192.945773 128.819839 191.147057 128.074787 189.271788 128.074787 
C 187.396519 128.074787 185.597804 128.819839 184.271788 130.145855 
C 182.945773 131.47187 182.20072 133.270586 182.20072 135.145855 
C 182.20072 137.021124 182.945773 138.819839 184.271788 140.145855 
C 185.597804 141.47187 187.396519 142.216923 189.271788 142.216923 
z
" clip-path="url(#pad22833f32)" style="fill: #55a868; fill-opacity: 0.5; stroke: #ffffff; stroke-opacity: 0.5; stroke-width: 0.979796"/>
    <path d="M 193.500797 203.466252 
C 195.597412 203.466252 197.608437 202.633258 199.090967 201.150728 
C 200.573497 199.668198 201.406491 197.657173 201.406491 195.560558 
C 201.406491 193.463944 200.573497 191.452919 199.090967 189.970388 
C 197.608437 188.487858 195.597412 187.654864 193.500797 187.654864 
C 191.404183 187.654864 189.393158 188.487858 187.910627 189.970388 
C 186.428097 191.452919 185.595103 193.463944 185.595103 195.560558 
C 185.595103 197.657173 186.428097 199.668198 187.910627 201.150728 
C 189.393158 202.633258 191.404183 203.466252 193.500797 203.466252 
z
" clip-path="url(#pad22833f32)" style="fill: #dd8452; fill-opacity: 0.5; stroke: #ffffff; stroke-opacity: 0.5; stroke-width: 0.979796"/>
    <path d="M 211.084572 199.756987 
C 212.959841 199.756987 214.758556 199.011934 216.084572 197.685919 
C 217.410588 196.359903 218.15564 194.561188 218.15564 192.685919 
C 218.15564 190.81065 217.410588 189.011934 216.084572 187.685919 
C 214.758556 186.359903 212.959841 185.614851 211.084572 185.614851 
C 209.209303 185.614851 207.410588 186.359903 206.084572 187.685919 
C 204.758556 189.011934 204.013504 190.81065 204.013504 192.685919 
C 204.013504 194.561188 204.758556 196.359903 206.084572 197.685919 
C 207.410588 199.011934 209.209303 199.756987 211.084572 199.756987 
z
" clip-path="url(#pad22833f32)" style="fill: #55a868; fill-opacity: 0.5; stroke: #ffffff; stroke-opacity: 0.5; stroke-width: 0.979796"/>
    <path d="M 211.8636 190.088176 
C 213.738869 190.088176 215.537584 189.343123 216.8636 188.017108 
C 218.189616 186.691092 218.934668 184.892377 218.934668 183.017108 
C 218.934668 181.141839 218.189616 179.343123 216.8636 178.017108 
C 215.537584 176.691092 213.738869 175.94604 211.8636 175.94604 
C 209.988331 175.94604 208.189616 176.691092 206.8636 178.017108 
C 205.537584 179.343123 204.792532 181.141839 204.792532 183.017108 
C 204.792532 184.892377 205.537584 186.691092 206.8636 188.017108 
C 208.189616 189.343123 209.988331 190.088176 211.8636 190.088176 
z
" clip-path="url(#pad22833f32)" style="fill: #55a868; fill-opacity: 0.5; stroke: #ffffff; stroke-opacity: 0.5; stroke-width: 0.979796"/>
    <path d="M 220.432908 107.19195 
C 222.308177 107.19195 224.106892 106.446897 225.432908 105.120882 
C 226.758924 103.794866 227.503976 101.996151 227.503976 100.120882 
C 227.503976 98.245613 226.758924 96.446897 225.432908 95.120882 
C 224.106892 93.794866 222.308177 93.049814 220.432908 93.049814 
C 218.557639 93.049814 216.758924 93.794866 215.432908 95.120882 
C 214.106892 96.446897 213.36184 98.245613 213.36184 100.120882 
C 213.36184 101.996151 214.106892 103.794866 215.432908 105.120882 
C 216.758924 106.446897 218.557639 107.19195 220.432908 107.19195 
z
" clip-path="url(#pad22833f32)" style="fill: #55a868; fill-opacity: 0.5; stroke: #ffffff; stroke-opacity: 0.5; stroke-width: 0.979796"/>
    <path d="M 227.666739 115.886122 
C 228.992755 115.886122 230.264639 115.35929 231.202273 114.421656 
C 232.139908 113.484021 232.666739 112.212138 232.666739 110.886122 
C 232.666739 109.560107 232.139908 108.288223 231.202273 107.350588 
C 230.264639 106.412954 228.992755 105.886122 227.666739 105.886122 
C 226.340724 105.886122 225.06884 106.412954 224.131206 107.350588 
C 223.193571 108.288223 222.666739 109.560107 222.666739 110.886122 
C 222.666739 112.212138 223.193571 113.484021 224.131206 114.421656 
C 225.06884 115.35929 226.340724 115.886122 227.666739 115.886122 
z
" clip-path="url(#pad22833f32)" style="fill: #8172b3; fill-opacity: 0.5; stroke: #ffffff; stroke-opacity: 0.5; stroke-width: 0.979796"/>
    <path d="M 239.686029 203.161165 
C 241.561298 203.161165 243.360013 202.416112 244.686029 201.090097 
C 246.012044 199.764081 246.757096 197.965366 246.757096 196.090097 
C 246.757096 194.214828 246.012044 192.416112 244.686029 191.090097 
C 243.360013 189.764081 241.561298 189.019029 239.686029 189.019029 
C 237.810759 189.019029 236.012044 189.764081 234.686029 191.090097 
C 233.360013 192.416112 232.614961 194.214828 232.614961 196.090097 
C 232.614961 197.965366 233.360013 199.764081 234.686029 201.090097 
C 236.012044 202.416112 237.810759 203.161165 239.686029 203.161165 
z
" clip-path="url(#pad22833f32)" style="fill: #55a868; fill-opacity: 0.5; stroke: #ffffff; stroke-opacity: 0.5; stroke-width: 0.979796"/>
    <path d="M 243.915038 208.385632 
C 245.790307 208.385632 247.589022 207.64058 248.915038 206.314565 
C 250.241053 204.988549 250.986106 203.189834 250.986106 201.314565 
C 250.986106 199.439295 250.241053 197.64058 248.915038 196.314565 
C 247.589022 194.988549 245.790307 194.243497 243.915038 194.243497 
C 242.039769 194.243497 240.241053 194.988549 238.915038 196.314565 
C 237.589022 197.64058 236.84397 199.439295 236.84397 201.314565 
C 236.84397 203.189834 237.589022 204.988549 238.915038 206.314565 
C 240.241053 207.64058 242.039769 208.385632 243.915038 208.385632 
z
" clip-path="url(#pad22833f32)" style="fill: #55a868; fill-opacity: 0.5; stroke: #ffffff; stroke-opacity: 0.5; stroke-width: 0.979796"/>
    <path d="M 257.047224 72.770189 
C 258.671255 72.770189 260.228988 72.124955 261.377351 70.976592 
C 262.525714 69.828229 263.170948 68.270496 263.170948 66.646465 
C 263.170948 65.022434 262.525714 63.464701 261.377351 62.316338 
C 260.228988 61.167975 258.671255 60.522741 257.047224 60.522741 
C 255.423193 60.522741 253.86546 61.167975 252.717097 62.316338 
C 251.568734 63.464701 250.9235 65.022434 250.9235 66.646465 
C 250.9235 68.270496 251.568734 69.828229 252.717097 70.976592 
C 253.86546 72.124955 255.423193 72.770189 257.047224 72.770189 
z
" clip-path="url(#pad22833f32)" style="fill: #c44e52; fill-opacity: 0.5; stroke: #ffffff; stroke-opacity: 0.5; stroke-width: 0.979796"/>
    <path d="M 259.606887 204.057255 
C 261.703502 204.057255 263.714527 203.224262 265.197057 201.741731 
C 266.679588 200.259201 267.512582 198.248176 267.512582 196.151561 
C 267.512582 194.054947 266.679588 192.043922 265.197057 190.561391 
C 263.714527 189.078861 261.703502 188.245867 259.606887 188.245867 
C 257.510273 188.245867 255.499248 189.078861 254.016717 190.561391 
C 252.534187 192.043922 251.701193 194.054947 251.701193 196.151561 
C 251.701193 198.248176 252.534187 200.259201 254.016717 201.741731 
C 255.499248 203.224262 257.510273 204.057255 259.606887 204.057255 
z
" clip-path="url(#pad22833f32)" style="fill: #dd8452; fill-opacity: 0.5; stroke: #ffffff; stroke-opacity: 0.5; stroke-width: 0.979796"/>
    <path d="M 275.187447 195.239984 
C 276.811478 195.239984 278.369211 194.59475 279.517574 193.446387 
C 280.665938 192.298024 281.311172 190.740291 281.311172 189.11626 
C 281.311172 187.492229 280.665938 185.934496 279.517574 184.786133 
C 278.369211 183.63777 276.811478 182.992536 275.187447 182.992536 
C 273.563417 182.992536 272.005684 183.63777 270.85732 184.786133 
C 269.708957 185.934496 269.063723 187.492229 269.063723 189.11626 
C 269.063723 190.740291 269.708957 192.298024 270.85732 193.446387 
C 272.005684 194.59475 273.563417 195.239984 275.187447 195.239984 
z
" clip-path="url(#pad22833f32)" style="fill: #c44e52; fill-opacity: 0.5; stroke: #ffffff; stroke-opacity: 0.5; stroke-width: 0.979796"/>
    <path d="M 275.298737 195.263625 
C 276.922768 195.263625 278.480501 194.61839 279.628864 193.470027 
C 280.777227 192.321664 281.422461 190.763931 281.422461 189.1399 
C 281.422461 187.51587 280.777227 185.958136 279.628864 184.809773 
C 278.480501 183.66141 276.922768 183.016176 275.298737 183.016176 
C 273.674706 183.016176 272.116973 183.66141 270.96861 184.809773 
C 269.820247 185.958136 269.175013 187.51587 269.175013 189.1399 
C 269.175013 190.763931 269.820247 192.321664 270.96861 193.470027 
C 272.116973 194.61839 273.674706 195.263625 275.298737 195.263625 
z
" clip-path="url(#pad22833f32)" style="fill: #c44e52; fill-opacity: 0.5; stroke: #ffffff; stroke-opacity: 0.5; stroke-width: 0.979796"/>
    <path d="M 275.966475 213.561081 
C 277.590506 213.561081 279.148239 212.915847 280.296602 211.767484 
C 281.444966 210.619121 282.0902 209.061388 282.0902 207.437357 
C 282.0902 205.813326 281.444966 204.255593 280.296602 203.10723 
C 279.148239 201.958867 277.590506 201.313633 275.966475 201.313633 
C 274.342445 201.313633 272.784712 201.958867 271.636348 203.10723 
C 270.487985 204.255593 269.842751 205.813326 269.842751 207.437357 
C 269.842751 209.061388 270.487985 210.619121 271.636348 211.767484 
C 272.784712 212.915847 274.342445 213.561081 275.966475 213.561081 
z
" clip-path="url(#pad22833f32)" style="fill: #c44e52; fill-opacity: 0.5; stroke: #ffffff; stroke-opacity: 0.5; stroke-width: 0.979796"/>
    <path d="M 279.082587 213.905754 
C 280.706618 213.905754 282.264351 213.26052 283.412714 212.112157 
C 284.561078 210.963794 285.206312 209.406061 285.206312 207.78203 
C 285.206312 206.157999 284.561078 204.600266 283.412714 203.451903 
C 282.264351 202.30354 280.706618 201.658306 279.082587 201.658306 
C 277.458557 201.658306 275.900824 202.30354 274.75246 203.451903 
C 273.604097 204.600266 272.958863 206.157999 272.958863 207.78203 
C 272.958863 209.406061 273.604097 210.963794 274.75246 212.112157 
C 275.900824 213.26052 277.458557 213.905754 279.082587 213.905754 
z
" clip-path="url(#pad22833f32)" style="fill: #c44e52; fill-opacity: 0.5; stroke: #ffffff; stroke-opacity: 0.5; stroke-width: 0.979796"/>
    <path d="M 280.751933 115.255749 
C 282.375964 115.255749 283.933697 114.610515 285.08206 113.462152 
C 286.230423 112.313789 286.875657 110.756055 286.875657 109.132025 
C 286.875657 107.507994 286.230423 105.950261 285.08206 104.801898 
C 283.933697 103.653535 282.375964 103.0083 280.751933 103.0083 
C 279.127902 103.0083 277.570169 103.653535 276.421806 104.801898 
C 275.273443 105.950261 274.628209 107.507994 274.628209 109.132025 
C 274.628209 110.756055 275.273443 112.313789 276.421806 113.462152 
C 277.570169 114.610515 279.127902 115.255749 280.751933 115.255749 
z
" clip-path="url(#pad22833f32)" style="fill: #c44e52; fill-opacity: 0.5; stroke: #ffffff; stroke-opacity: 0.5; stroke-width: 0.979796"/>
    <path d="M 283.645466 -475.244314 
C 285.269496 -475.244314 286.82723 -475.889548 287.975593 -477.037911 
C 289.123956 -478.186274 289.76919 -479.744008 289.76919 -481.368038 
C 289.76919 -482.992069 289.123956 -484.549802 287.975593 -485.698165 
C 286.82723 -486.846529 285.269496 -487.491763 283.645466 -487.491763 
C 282.021435 -487.491763 280.463702 -486.846529 279.315339 -485.698165 
C 278.166976 -484.549802 277.521741 -482.992069 277.521741 -481.368038 
C 277.521741 -479.744008 278.166976 -478.186274 279.315339 -477.037911 
C 280.463702 -475.889548 282.021435 -475.244314 283.645466 -475.244314 
z
" clip-path="url(#pad22833f32)" style="fill: #c44e52; fill-opacity: 0.5; stroke: #ffffff; stroke-opacity: 0.5; stroke-width: 0.979796"/>
    <path d="M 284.090625 196.421991 
C 285.714655 196.421991 287.272388 195.776756 288.420752 194.628393 
C 289.569115 193.48003 290.214349 191.922297 290.214349 190.298266 
C 290.214349 188.674236 289.569115 187.116502 288.420752 185.968139 
C 287.272388 184.819776 285.714655 184.174542 284.090625 184.174542 
C 282.466594 184.174542 280.908861 184.819776 279.760498 185.968139 
C 278.612134 187.116502 277.9669 188.674236 277.9669 190.298266 
C 277.9669 191.922297 278.612134 193.48003 279.760498 194.628393 
C 280.908861 195.776756 282.466594 196.421991 284.090625 196.421991 
z
" clip-path="url(#pad22833f32)" style="fill: #c44e52; fill-opacity: 0.5; stroke: #ffffff; stroke-opacity: 0.5; stroke-width: 0.979796"/>
    <path d="M 287.540606 216.965259 
C 289.164636 216.965259 290.72237 216.320025 291.870733 215.171662 
C 293.019096 214.023299 293.66433 212.465566 293.66433 210.841535 
C 293.66433 209.217504 293.019096 207.659771 291.870733 206.511408 
C 290.72237 205.363045 289.164636 204.717811 287.540606 204.717811 
C 285.916575 204.717811 284.358842 205.363045 283.210479 206.511408 
C 282.062116 207.659771 281.416881 209.217504 281.416881 210.841535 
C 281.416881 212.465566 282.062116 214.023299 283.210479 215.171662 
C 284.358842 216.320025 285.916575 216.965259 287.540606 216.965259 
z
" clip-path="url(#pad22833f32)" style="fill: #c44e52; fill-opacity: 0.5; stroke: #ffffff; stroke-opacity: 0.5; stroke-width: 0.979796"/>
    <path d="M 298.224418 216.033602 
C 299.848449 216.033602 301.406182 215.388368 302.554545 214.240005 
C 303.702908 213.091642 304.348143 211.533908 304.348143 209.909878 
C 304.348143 208.285847 303.702908 206.728114 302.554545 205.579751 
C 301.406182 204.431387 299.848449 203.786153 298.224418 203.786153 
C 296.600388 203.786153 295.042654 204.431387 293.894291 205.579751 
C 292.745928 206.728114 292.100694 208.285847 292.100694 209.909878 
C 292.100694 211.533908 292.745928 213.091642 293.894291 214.240005 
C 295.042654 215.388368 296.600388 216.033602 298.224418 216.033602 
z
" clip-path="url(#pad22833f32)" style="fill: #c44e52; fill-opacity: 0.5; stroke: #ffffff; stroke-opacity: 0.5; stroke-width: 0.979796"/>
    <path d="M 301.229241 216.374256 
C 302.853271 216.374256 304.411004 215.729022 305.559368 214.580659 
C 306.707731 213.432296 307.352965 211.874563 307.352965 210.250532 
C 307.352965 208.626501 306.707731 207.068768 305.559368 205.920405 
C 304.411004 204.772042 302.853271 204.126807 301.229241 204.126807 
C 299.60521 204.126807 298.047477 204.772042 296.899114 205.920405 
C 295.75075 207.068768 295.105516 208.626501 295.105516 210.250532 
C 295.105516 211.874563 295.75075 213.432296 296.899114 214.580659 
C 298.047477 215.729022 299.60521 216.374256 301.229241 216.374256 
z
" clip-path="url(#pad22833f32)" style="fill: #c44e52; fill-opacity: 0.5; stroke: #ffffff; stroke-opacity: 0.5; stroke-width: 0.979796"/>
    <path d="M 301.45182 216.397896 
C 303.075851 216.397896 304.633584 215.752662 305.781947 214.604299 
C 306.93031 213.455936 307.575544 211.898203 307.575544 210.274172 
C 307.575544 208.650141 306.93031 207.092408 305.781947 205.944045 
C 304.633584 204.795682 303.075851 204.150448 301.45182 204.150448 
C 299.827789 204.150448 298.270056 204.795682 297.121693 205.944045 
C 295.97333 207.092408 295.328096 208.650141 295.328096 210.274172 
C 295.328096 211.898203 295.97333 213.455936 297.121693 214.604299 
C 298.270056 215.752662 299.827789 216.397896 301.45182 216.397896 
z
" clip-path="url(#pad22833f32)" style="fill: #c44e52; fill-opacity: 0.5; stroke: #ffffff; stroke-opacity: 0.5; stroke-width: 0.979796"/>
    <path d="M 302.787297 198.265425 
C 304.883911 198.265425 306.894936 197.432431 308.377467 195.949901 
C 309.859997 194.46737 310.692991 192.456345 310.692991 190.359731 
C 310.692991 188.263116 309.859997 186.252091 308.377467 184.769561 
C 306.894936 183.28703 304.883911 182.454037 302.787297 182.454037 
C 300.690682 182.454037 298.679657 183.28703 297.197127 184.769561 
C 295.714596 186.252091 294.881602 188.263116 294.881602 190.359731 
C 294.881602 192.456345 295.714596 194.46737 297.197127 195.949901 
C 298.679657 197.432431 300.690682 198.265425 302.787297 198.265425 
z
" clip-path="url(#pad22833f32)" style="fill: #dd8452; fill-opacity: 0.5; stroke: #ffffff; stroke-opacity: 0.5; stroke-width: 0.979796"/>
    <path d="M 306.459857 216.954858 
C 308.083888 216.954858 309.641621 216.309623 310.789984 215.16126 
C 311.938347 214.012897 312.583581 212.455164 312.583581 210.831133 
C 312.583581 209.207103 311.938347 207.649369 310.789984 206.501006 
C 309.641621 205.352643 308.083888 204.707409 306.459857 204.707409 
C 304.835826 204.707409 303.278093 205.352643 302.12973 206.501006 
C 300.981367 207.649369 300.336133 209.207103 300.336133 210.831133 
C 300.336133 212.455164 300.981367 214.012897 302.12973 215.16126 
C 303.278093 216.309623 304.835826 216.954858 306.459857 216.954858 
z
" clip-path="url(#pad22833f32)" style="fill: #c44e52; fill-opacity: 0.5; stroke: #ffffff; stroke-opacity: 0.5; stroke-width: 0.979796"/>
    <path d="M 311.690474 217.533804 
C 313.314504 217.533804 314.872238 216.88857 316.020601 215.740207 
C 317.168964 214.591844 317.814198 213.034111 317.814198 211.41008 
C 317.814198 209.786049 317.168964 208.228316 316.020601 207.079953 
C 314.872238 205.93159 313.314504 205.286356 311.690474 205.286356 
C 310.066443 205.286356 308.50871 205.93159 307.360347 207.079953 
C 306.211984 208.228316 305.566749 209.786049 305.566749 211.41008 
C 305.566749 213.034111 306.211984 214.591844 307.360347 215.740207 
C 308.50871 216.88857 310.066443 217.533804 311.690474 217.533804 
z
" clip-path="url(#pad22833f32)" style="fill: #c44e52; fill-opacity: 0.5; stroke: #ffffff; stroke-opacity: 0.5; stroke-width: 0.979796"/>
    <path d="M 332.61294 217.192205 
C 334.236971 217.192205 335.794704 216.54697 336.943067 215.398607 
C 338.09143 214.250244 338.736664 212.692511 338.736664 211.06848 
C 338.736664 209.444449 338.09143 207.886716 336.943067 206.738353 
C 335.794704 205.58999 334.236971 204.944756 332.61294 204.944756 
C 330.988909 204.944756 329.431176 205.58999 328.282813 206.738353 
C 327.13445 207.886716 326.489216 209.444449 326.489216 211.06848 
C 326.489216 212.692511 327.13445 214.250244 328.282813 215.398607 
C 329.431176 216.54697 330.988909 217.192205 332.61294 217.192205 
z
" clip-path="url(#pad22833f32)" style="fill: #c44e52; fill-opacity: 0.5; stroke: #ffffff; stroke-opacity: 0.5; stroke-width: 0.979796"/>
    <path d="M 336.953239 122.44282 
C 338.57727 122.44282 340.135003 121.797586 341.283366 120.649223 
C 342.431729 119.500859 343.076963 117.943126 343.076963 116.319096 
C 343.076963 114.695065 342.431729 113.137332 341.283366 111.988969 
C 340.135003 110.840605 338.57727 110.195371 336.953239 110.195371 
C 335.329208 110.195371 333.771475 110.840605 332.623112 111.988969 
C 331.474749 113.137332 330.829515 114.695065 330.829515 116.319096 
C 330.829515 117.943126 331.474749 119.500859 332.623112 120.649223 
C 333.771475 121.797586 335.329208 122.44282 336.953239 122.44282 
z
" clip-path="url(#pad22833f32)" style="fill: #c44e52; fill-opacity: 0.5; stroke: #ffffff; stroke-opacity: 0.5; stroke-width: 0.979796"/>
    <path d="M 341.182248 213.986108 
C 343.278863 213.986108 345.289888 213.153114 346.772418 211.670584 
C 348.254948 210.188053 349.087942 208.177028 349.087942 206.080414 
C 349.087942 203.983799 348.254948 201.972774 346.772418 200.490244 
C 345.289888 199.007713 343.278863 198.17472 341.182248 198.17472 
C 339.085633 198.17472 337.074608 199.007713 335.592078 200.490244 
C 334.109548 201.972774 333.276554 203.983799 333.276554 206.080414 
C 333.276554 208.177028 334.109548 210.188053 335.592078 211.670584 
C 337.074608 213.153114 339.085633 213.986108 341.182248 213.986108 
z
" clip-path="url(#pad22833f32)" style="fill: #dd8452; fill-opacity: 0.5; stroke: #ffffff; stroke-opacity: 0.5; stroke-width: 0.979796"/>
    <path d="M 345.967706 124.523151 
C 347.591736 124.523151 349.14947 123.877917 350.297833 122.729554 
C 351.446196 121.58119 352.09143 120.023457 352.09143 118.399427 
C 352.09143 116.775396 351.446196 115.217663 350.297833 114.0693 
C 349.14947 112.920936 347.591736 112.275702 345.967706 112.275702 
C 344.343675 112.275702 342.785942 112.920936 341.637579 114.0693 
C 340.489216 115.217663 339.843981 116.775396 339.843981 118.399427 
C 339.843981 120.023457 340.489216 121.58119 341.637579 122.729554 
C 342.785942 123.877917 344.343675 124.523151 345.967706 124.523151 
z
" clip-path="url(#pad22833f32)" style="fill: #c44e52; fill-opacity: 0.5; stroke: #ffffff; stroke-opacity: 0.5; stroke-width: 0.979796"/>
    <path d="M 348.638659 135.586729 
C 350.26269 135.586729 351.820423 134.941495 352.968786 133.793132 
C 354.117149 132.644769 354.762383 131.087036 354.762383 129.463005 
C 354.762383 127.838974 354.117149 126.281241 352.968786 125.132878 
C 351.820423 123.984515 350.26269 123.339281 348.638659 123.339281 
C 347.014628 123.339281 345.456895 123.984515 344.308532 125.132878 
C 343.160169 126.281241 342.514935 127.838974 342.514935 129.463005 
C 342.514935 131.087036 343.160169 132.644769 344.308532 133.793132 
C 345.456895 134.941495 347.014628 135.586729 348.638659 135.586729 
z
" clip-path="url(#pad22833f32)" style="fill: #c44e52; fill-opacity: 0.5; stroke: #ffffff; stroke-opacity: 0.5; stroke-width: 0.979796"/>
   </g>
   <g id="line2d_1"/>
   <g id="line2d_2"/>
   <g id="line2d_3"/>
   <g id="line2d_4"/>
   <g id="line2d_5"/>
   <g id="patch_3">
    <path d="M 56.058 306.81075 
L 56.058 23.12925 
" style="fill: none; stroke: #ffffff; stroke-linejoin: miter; stroke-linecap: square"/>
   </g>
   <g id="patch_4">
    <path d="M 445.572 306.81075 
L 445.572 23.12925 
" style="fill: none; stroke: #ffffff; stroke-linejoin: miter; stroke-linecap: square"/>
   </g>
   <g id="patch_5">
    <path d="M 56.058 306.81075 
L 445.572 306.81075 
" style="fill: none; stroke: #ffffff; stroke-linejoin: miter; stroke-linecap: square"/>
   </g>
   <g id="patch_6">
    <path d="M 56.058 23.12925 
L 445.572 23.12925 
" style="fill: none; stroke: #ffffff; stroke-linejoin: miter; stroke-linecap: square"/>
   </g>
   <g id="text_18">
    <!-- Distribution of revenue by percentage for the 10 most expensive categories -->
    <g style="fill: #262626" transform="translate(91.269 17.12925) scale(0.096 -0.096)">
     <defs>
      <path id="ArialMT-62" d="M 941 0 
L 419 0 
L 419 4581 
L 981 4581 
L 981 2947 
Q 1338 3394 1891 3394 
Q 2197 3394 2470 3270 
Q 2744 3147 2920 2923 
Q 3097 2700 3197 2384 
Q 3297 2069 3297 1709 
Q 3297 856 2875 390 
Q 2453 -75 1863 -75 
Q 1275 -75 941 416 
L 941 0 
z
M 934 1684 
Q 934 1088 1097 822 
Q 1363 388 1816 388 
Q 2184 388 2453 708 
Q 2722 1028 2722 1663 
Q 2722 2313 2464 2622 
Q 2206 2931 1841 2931 
Q 1472 2931 1203 2611 
Q 934 2291 934 1684 
z
" transform="scale(0.015625)"/>
      <path id="ArialMT-66" d="M 556 0 
L 556 2881 
L 59 2881 
L 59 3319 
L 556 3319 
L 556 3672 
Q 556 4006 616 4169 
Q 697 4388 901 4523 
Q 1106 4659 1475 4659 
Q 1713 4659 2000 4603 
L 1916 4113 
Q 1741 4144 1584 4144 
Q 1328 4144 1222 4034 
Q 1116 3925 1116 3625 
L 1116 3319 
L 1763 3319 
L 1763 2881 
L 1116 2881 
L 1116 0 
L 556 0 
z
" transform="scale(0.015625)"/>
      <path id="ArialMT-79" d="M 397 -1278 
L 334 -750 
Q 519 -800 656 -800 
Q 844 -800 956 -737 
Q 1069 -675 1141 -563 
Q 1194 -478 1313 -144 
Q 1328 -97 1363 -6 
L 103 3319 
L 709 3319 
L 1400 1397 
Q 1534 1031 1641 628 
Q 1738 1016 1872 1384 
L 2581 3319 
L 3144 3319 
L 1881 -56 
Q 1678 -603 1566 -809 
Q 1416 -1088 1222 -1217 
Q 1028 -1347 759 -1347 
Q 597 -1347 397 -1278 
z
" transform="scale(0.015625)"/>
      <path id="ArialMT-70" d="M 422 -1272 
L 422 3319 
L 934 3319 
L 934 2888 
Q 1116 3141 1344 3267 
Q 1572 3394 1897 3394 
Q 2322 3394 2647 3175 
Q 2972 2956 3137 2557 
Q 3303 2159 3303 1684 
Q 3303 1175 3120 767 
Q 2938 359 2589 142 
Q 2241 -75 1856 -75 
Q 1575 -75 1351 44 
Q 1128 163 984 344 
L 984 -1272 
L 422 -1272 
z
M 931 1641 
Q 931 1000 1190 694 
Q 1450 388 1819 388 
Q 2194 388 2461 705 
Q 2728 1022 2728 1688 
Q 2728 2322 2467 2637 
Q 2206 2953 1844 2953 
Q 1484 2953 1207 2617 
Q 931 2281 931 1641 
z
" transform="scale(0.015625)"/>
      <path id="ArialMT-68" d="M 422 0 
L 422 4581 
L 984 4581 
L 984 2938 
Q 1378 3394 1978 3394 
Q 2347 3394 2619 3248 
Q 2891 3103 3008 2847 
Q 3125 2591 3125 2103 
L 3125 0 
L 2563 0 
L 2563 2103 
Q 2563 2525 2380 2717 
Q 2197 2909 1863 2909 
Q 1613 2909 1392 2779 
Q 1172 2650 1078 2428 
Q 984 2206 984 1816 
L 984 0 
L 422 0 
z
" transform="scale(0.015625)"/>
      <path id="ArialMT-6d" d="M 422 0 
L 422 3319 
L 925 3319 
L 925 2853 
Q 1081 3097 1340 3245 
Q 1600 3394 1931 3394 
Q 2300 3394 2536 3241 
Q 2772 3088 2869 2813 
Q 3263 3394 3894 3394 
Q 4388 3394 4653 3120 
Q 4919 2847 4919 2278 
L 4919 0 
L 4359 0 
L 4359 2091 
Q 4359 2428 4304 2576 
Q 4250 2725 4106 2815 
Q 3963 2906 3769 2906 
Q 3419 2906 3187 2673 
Q 2956 2441 2956 1928 
L 2956 0 
L 2394 0 
L 2394 2156 
Q 2394 2531 2256 2718 
Q 2119 2906 1806 2906 
Q 1569 2906 1367 2781 
Q 1166 2656 1075 2415 
Q 984 2175 984 1722 
L 984 0 
L 422 0 
z
" transform="scale(0.015625)"/>
      <path id="ArialMT-78" d="M 47 0 
L 1259 1725 
L 138 3319 
L 841 3319 
L 1350 2541 
Q 1494 2319 1581 2169 
Q 1719 2375 1834 2534 
L 2394 3319 
L 3066 3319 
L 1919 1756 
L 3153 0 
L 2463 0 
L 1781 1031 
L 1600 1309 
L 728 0 
L 47 0 
z
" transform="scale(0.015625)"/>
     </defs>
     <use xlink:href="#ArialMT-44"/>
     <use xlink:href="#ArialMT-69" transform="translate(72.216797 0)"/>
     <use xlink:href="#ArialMT-73" transform="translate(94.433594 0)"/>
     <use xlink:href="#ArialMT-74" transform="translate(144.433594 0)"/>
     <use xlink:href="#ArialMT-72" transform="translate(172.216797 0)"/>
     <use xlink:href="#ArialMT-69" transform="translate(205.517578 0)"/>
     <use xlink:href="#ArialMT-62" transform="translate(227.734375 0)"/>
     <use xlink:href="#ArialMT-75" transform="translate(283.349609 0)"/>
     <use xlink:href="#ArialMT-74" transform="translate(338.964844 0)"/>
     <use xlink:href="#ArialMT-69" transform="translate(366.748047 0)"/>
     <use xlink:href="#ArialMT-6f" transform="translate(388.964844 0)"/>
     <use xlink:href="#ArialMT-6e" transform="translate(444.580078 0)"/>
     <use xlink:href="#ArialMT-20" transform="translate(500.195312 0)"/>
     <use xlink:href="#ArialMT-6f" transform="translate(527.978516 0)"/>
     <use xlink:href="#ArialMT-66" transform="translate(583.59375 0)"/>
     <use xlink:href="#ArialMT-20" transform="translate(611.376953 0)"/>
     <use xlink:href="#ArialMT-72" transform="translate(639.160156 0)"/>
     <use xlink:href="#ArialMT-65" transform="translate(672.460938 0)"/>
     <use xlink:href="#ArialMT-76" transform="translate(728.076172 0)"/>
     <use xlink:href="#ArialMT-65" transform="translate(778.076172 0)"/>
     <use xlink:href="#ArialMT-6e" transform="translate(833.691406 0)"/>
     <use xlink:href="#ArialMT-75" transform="translate(889.306641 0)"/>
     <use xlink:href="#ArialMT-65" transform="translate(944.921875 0)"/>
     <use xlink:href="#ArialMT-20" transform="translate(1000.537109 0)"/>
     <use xlink:href="#ArialMT-62" transform="translate(1028.320312 0)"/>
     <use xlink:href="#ArialMT-79" transform="translate(1083.935547 0)"/>
     <use xlink:href="#ArialMT-20" transform="translate(1133.935547 0)"/>
     <use xlink:href="#ArialMT-70" transform="translate(1161.71875 0)"/>
     <use xlink:href="#ArialMT-65" transform="translate(1217.333984 0)"/>
     <use xlink:href="#ArialMT-72" transform="translate(1272.949219 0)"/>
     <use xlink:href="#ArialMT-63" transform="translate(1306.25 0)"/>
     <use xlink:href="#ArialMT-65" transform="translate(1356.25 0)"/>
     <use xlink:href="#ArialMT-6e" transform="translate(1411.865234 0)"/>
     <use xlink:href="#ArialMT-74" transform="translate(1467.480469 0)"/>
     <use xlink:href="#ArialMT-61" transform="translate(1495.263672 0)"/>
     <use xlink:href="#ArialMT-67" transform="translate(1550.878906 0)"/>
     <use xlink:href="#ArialMT-65" transform="translate(1606.494141 0)"/>
     <use xlink:href="#ArialMT-20" transform="translate(1662.109375 0)"/>
     <use xlink:href="#ArialMT-66" transform="translate(1689.892578 0)"/>
     <use xlink:href="#ArialMT-6f" transform="translate(1717.675781 0)"/>
     <use xlink:href="#ArialMT-72" transform="translate(1773.291016 0)"/>
     <use xlink:href="#ArialMT-20" transform="translate(1806.591797 0)"/>
     <use xlink:href="#ArialMT-74" transform="translate(1834.375 0)"/>
     <use xlink:href="#ArialMT-68" transform="translate(1862.158203 0)"/>
     <use xlink:href="#ArialMT-65" transform="translate(1917.773438 0)"/>
     <use xlink:href="#ArialMT-20" transform="translate(1973.388672 0)"/>
     <use xlink:href="#ArialMT-31" transform="translate(2001.171875 0)"/>
     <use xlink:href="#ArialMT-30" transform="translate(2056.787109 0)"/>
     <use xlink:href="#ArialMT-20" transform="translate(2112.402344 0)"/>
     <use xlink:href="#ArialMT-6d" transform="translate(2140.185547 0)"/>
     <use xlink:href="#ArialMT-6f" transform="translate(2223.486328 0)"/>
     <use xlink:href="#ArialMT-73" transform="translate(2279.101562 0)"/>
     <use xlink:href="#ArialMT-74" transform="translate(2329.101562 0)"/>
     <use xlink:href="#ArialMT-20" transform="translate(2356.884766 0)"/>
     <use xlink:href="#ArialMT-65" transform="translate(2384.667969 0)"/>
     <use xlink:href="#ArialMT-78" transform="translate(2440.283203 0)"/>
     <use xlink:href="#ArialMT-70" transform="translate(2490.283203 0)"/>
     <use xlink:href="#ArialMT-65" transform="translate(2545.898438 0)"/>
     <use xlink:href="#ArialMT-6e" transform="translate(2601.513672 0)"/>
     <use xlink:href="#ArialMT-73" transform="translate(2657.128906 0)"/>
     <use xlink:href="#ArialMT-69" transform="translate(2707.128906 0)"/>
     <use xlink:href="#ArialMT-76" transform="translate(2729.345703 0)"/>
     <use xlink:href="#ArialMT-65" transform="translate(2779.345703 0)"/>
     <use xlink:href="#ArialMT-20" transform="translate(2834.960938 0)"/>
     <use xlink:href="#ArialMT-63" transform="translate(2862.744141 0)"/>
     <use xlink:href="#ArialMT-61" transform="translate(2912.744141 0)"/>
     <use xlink:href="#ArialMT-74" transform="translate(2968.359375 0)"/>
     <use xlink:href="#ArialMT-65" transform="translate(2996.142578 0)"/>
     <use xlink:href="#ArialMT-67" transform="translate(3051.757812 0)"/>
     <use xlink:href="#ArialMT-6f" transform="translate(3107.373047 0)"/>
     <use xlink:href="#ArialMT-72" transform="translate(3162.988281 0)"/>
     <use xlink:href="#ArialMT-69" transform="translate(3196.289062 0)"/>
     <use xlink:href="#ArialMT-65" transform="translate(3218.505859 0)"/>
     <use xlink:href="#ArialMT-73" transform="translate(3274.121094 0)"/>
    </g>
   </g>
   <g id="legend_1">
    <g id="patch_7">
     <path d="M 62.218 302.41075 
L 249.675875 302.41075 
Q 251.435875 302.41075 251.435875 300.65075 
L 251.435875 225.633625 
Q 251.435875 223.873625 249.675875 223.873625 
L 62.218 223.873625 
Q 60.458 223.873625 60.458 225.633625 
L 60.458 300.65075 
Q 60.458 302.41075 62.218 302.41075 
z
" style="fill: #eaeaf2; opacity: 0.8; stroke: #cccccc; stroke-width: 0.8; stroke-linejoin: miter"/>
    </g>
    <g id="text_19">
     <!-- category -->
     <g style="fill: #262626" transform="translate(137.538187 234.265125) scale(0.096 -0.096)">
      <use xlink:href="#ArialMT-63"/>
      <use xlink:href="#ArialMT-61" transform="translate(50 0)"/>
      <use xlink:href="#ArialMT-74" transform="translate(105.615234 0)"/>
      <use xlink:href="#ArialMT-65" transform="translate(133.398438 0)"/>
      <use xlink:href="#ArialMT-67" transform="translate(189.013672 0)"/>
      <use xlink:href="#ArialMT-6f" transform="translate(244.628906 0)"/>
      <use xlink:href="#ArialMT-72" transform="translate(300.244141 0)"/>
      <use xlink:href="#ArialMT-79" transform="translate(333.544922 0)"/>
     </g>
    </g>
    <g id="line2d_6">
     <defs>
      <path id="m936c28ecde" d="M 0 8.660254 
C 2.296726 8.660254 4.499694 7.747755 6.123724 6.123724 
C 7.747755 4.499694 8.660254 2.296726 8.660254 0 
C 8.660254 -2.296726 7.747755 -4.499694 6.123724 -6.123724 
C 4.499694 -7.747755 2.296726 -8.660254 0 -8.660254 
C -2.296726 -8.660254 -4.499694 -7.747755 -6.123724 -6.123724 
C -7.747755 -4.499694 -8.660254 -2.296726 -8.660254 0 
C -8.660254 2.296726 -7.747755 4.499694 -6.123724 6.123724 
C -4.499694 7.747755 -2.296726 8.660254 0 8.660254 
z
" style="stroke: #ffffff; stroke-opacity: 0.5; stroke-width: 0.979796"/>
     </defs>
     <g>
      <use xlink:href="#m936c28ecde" x="72.778" y="243.930625" style="fill: #4c72b0; fill-opacity: 0.5; stroke: #ffffff; stroke-opacity: 0.5; stroke-width: 0.979796"/>
     </g>
    </g>
    <g id="text_20">
     <!-- Apple MacBook Pro 13desktop -->
     <g style="fill: #262626" transform="translate(88.618 247.010625) scale(0.088 -0.088)">
      <defs>
       <path id="ArialMT-41" d="M -9 0 
L 1750 4581 
L 2403 4581 
L 4278 0 
L 3588 0 
L 3053 1388 
L 1138 1388 
L 634 0 
L -9 0 
z
M 1313 1881 
L 2866 1881 
L 2388 3150 
Q 2169 3728 2063 4100 
Q 1975 3659 1816 3225 
L 1313 1881 
z
" transform="scale(0.015625)"/>
       <path id="ArialMT-6c" d="M 409 0 
L 409 4581 
L 972 4581 
L 972 0 
L 409 0 
z
" transform="scale(0.015625)"/>
       <path id="ArialMT-4d" d="M 475 0 
L 475 4581 
L 1388 4581 
L 2472 1338 
Q 2622 884 2691 659 
Q 2769 909 2934 1394 
L 4031 4581 
L 4847 4581 
L 4847 0 
L 4263 0 
L 4263 3834 
L 2931 0 
L 2384 0 
L 1059 3900 
L 1059 0 
L 475 0 
z
" transform="scale(0.015625)"/>
       <path id="ArialMT-42" d="M 469 0 
L 469 4581 
L 2188 4581 
Q 2713 4581 3030 4442 
Q 3347 4303 3526 4014 
Q 3706 3725 3706 3409 
Q 3706 3116 3547 2856 
Q 3388 2597 3066 2438 
Q 3481 2316 3704 2022 
Q 3928 1728 3928 1328 
Q 3928 1006 3792 729 
Q 3656 453 3456 303 
Q 3256 153 2954 76 
Q 2653 0 2216 0 
L 469 0 
z
M 1075 2656 
L 2066 2656 
Q 2469 2656 2644 2709 
Q 2875 2778 2992 2937 
Q 3109 3097 3109 3338 
Q 3109 3566 3000 3739 
Q 2891 3913 2687 3977 
Q 2484 4041 1991 4041 
L 1075 4041 
L 1075 2656 
z
M 1075 541 
L 2216 541 
Q 2509 541 2628 563 
Q 2838 600 2978 687 
Q 3119 775 3209 942 
Q 3300 1109 3300 1328 
Q 3300 1584 3169 1773 
Q 3038 1963 2805 2039 
Q 2572 2116 2134 2116 
L 1075 2116 
L 1075 541 
z
" transform="scale(0.015625)"/>
       <path id="ArialMT-6b" d="M 425 0 
L 425 4581 
L 988 4581 
L 988 1969 
L 2319 3319 
L 3047 3319 
L 1778 2088 
L 3175 0 
L 2481 0 
L 1384 1697 
L 988 1316 
L 988 0 
L 425 0 
z
" transform="scale(0.015625)"/>
       <path id="ArialMT-64" d="M 2575 0 
L 2575 419 
Q 2259 -75 1647 -75 
Q 1250 -75 917 144 
Q 584 363 401 755 
Q 219 1147 219 1656 
Q 219 2153 384 2558 
Q 550 2963 881 3178 
Q 1213 3394 1622 3394 
Q 1922 3394 2156 3267 
Q 2391 3141 2538 2938 
L 2538 4581 
L 3097 4581 
L 3097 0 
L 2575 0 
z
M 797 1656 
Q 797 1019 1065 703 
Q 1334 388 1700 388 
Q 2069 388 2326 689 
Q 2584 991 2584 1609 
Q 2584 2291 2321 2609 
Q 2059 2928 1675 2928 
Q 1300 2928 1048 2622 
Q 797 2316 797 1656 
z
" transform="scale(0.015625)"/>
      </defs>
      <use xlink:href="#ArialMT-41"/>
      <use xlink:href="#ArialMT-70" transform="translate(66.699219 0)"/>
      <use xlink:href="#ArialMT-70" transform="translate(122.314453 0)"/>
      <use xlink:href="#ArialMT-6c" transform="translate(177.929688 0)"/>
      <use xlink:href="#ArialMT-65" transform="translate(200.146484 0)"/>
      <use xlink:href="#ArialMT-20" transform="translate(255.761719 0)"/>
      <use xlink:href="#ArialMT-4d" transform="translate(283.544922 0)"/>
      <use xlink:href="#ArialMT-61" transform="translate(366.845703 0)"/>
      <use xlink:href="#ArialMT-63" transform="translate(422.460938 0)"/>
      <use xlink:href="#ArialMT-42" transform="translate(472.460938 0)"/>
      <use xlink:href="#ArialMT-6f" transform="translate(539.160156 0)"/>
      <use xlink:href="#ArialMT-6f" transform="translate(594.775391 0)"/>
      <use xlink:href="#ArialMT-6b" transform="translate(650.390625 0)"/>
      <use xlink:href="#ArialMT-20" transform="translate(700.390625 0)"/>
      <use xlink:href="#ArialMT-50" transform="translate(728.173828 0)"/>
      <use xlink:href="#ArialMT-72" transform="translate(794.873047 0)"/>
      <use xlink:href="#ArialMT-6f" transform="translate(828.173828 0)"/>
      <use xlink:href="#ArialMT-20" transform="translate(883.789062 0)"/>
      <use xlink:href="#ArialMT-31" transform="translate(911.572266 0)"/>
      <use xlink:href="#ArialMT-33" transform="translate(967.1875 0)"/>
      <use xlink:href="#ArialMT-64" transform="translate(1022.802734 0)"/>
      <use xlink:href="#ArialMT-65" transform="translate(1078.417969 0)"/>
      <use xlink:href="#ArialMT-73" transform="translate(1134.033203 0)"/>
      <use xlink:href="#ArialMT-6b" transform="translate(1184.033203 0)"/>
      <use xlink:href="#ArialMT-74" transform="translate(1234.033203 0)"/>
      <use xlink:href="#ArialMT-6f" transform="translate(1261.816406 0)"/>
      <use xlink:href="#ArialMT-70" transform="translate(1317.431641 0)"/>
     </g>
    </g>
    <g id="line2d_7">
     <defs>
      <path id="m9f7ad20952" d="M 0 7.905694 
C 2.096615 7.905694 4.10764 7.0727 5.59017 5.59017 
C 7.0727 4.10764 7.905694 2.096615 7.905694 0 
C 7.905694 -2.096615 7.0727 -4.10764 5.59017 -5.59017 
C 4.10764 -7.0727 2.096615 -7.905694 0 -7.905694 
C -2.096615 -7.905694 -4.10764 -7.0727 -5.59017 -5.59017 
C -7.0727 -4.10764 -7.905694 -2.096615 -7.905694 0 
C -7.905694 2.096615 -7.0727 4.10764 -5.59017 5.59017 
C -4.10764 7.0727 -2.096615 7.905694 0 7.905694 
z
" style="stroke: #ffffff; stroke-opacity: 0.5; stroke-width: 0.979796"/>
     </defs>
     <g>
      <use xlink:href="#m9f7ad20952" x="72.778" y="256.3785" style="fill: #dd8452; fill-opacity: 0.5; stroke: #ffffff; stroke-opacity: 0.5; stroke-width: 0.979796"/>
     </g>
    </g>
    <g id="text_21">
     <!-- display, Apple MacBook Pro, Apple iMac  -->
     <g style="fill: #262626" transform="translate(88.618 259.4585) scale(0.088 -0.088)">
      <defs>
       <path id="ArialMT-2c" d="M 569 0 
L 569 641 
L 1209 641 
L 1209 0 
Q 1209 -353 1084 -570 
Q 959 -788 688 -906 
L 531 -666 
Q 709 -588 793 -436 
Q 878 -284 888 0 
L 569 0 
z
" transform="scale(0.015625)"/>
      </defs>
      <use xlink:href="#ArialMT-64"/>
      <use xlink:href="#ArialMT-69" transform="translate(55.615234 0)"/>
      <use xlink:href="#ArialMT-73" transform="translate(77.832031 0)"/>
      <use xlink:href="#ArialMT-70" transform="translate(127.832031 0)"/>
      <use xlink:href="#ArialMT-6c" transform="translate(183.447266 0)"/>
      <use xlink:href="#ArialMT-61" transform="translate(205.664062 0)"/>
      <use xlink:href="#ArialMT-79" transform="translate(261.279297 0)"/>
      <use xlink:href="#ArialMT-2c" transform="translate(303.904297 0)"/>
      <use xlink:href="#ArialMT-20" transform="translate(331.6875 0)"/>
      <use xlink:href="#ArialMT-41" transform="translate(353.970703 0)"/>
      <use xlink:href="#ArialMT-70" transform="translate(420.669922 0)"/>
      <use xlink:href="#ArialMT-70" transform="translate(476.285156 0)"/>
      <use xlink:href="#ArialMT-6c" transform="translate(531.900391 0)"/>
      <use xlink:href="#ArialMT-65" transform="translate(554.117188 0)"/>
      <use xlink:href="#ArialMT-20" transform="translate(609.732422 0)"/>
      <use xlink:href="#ArialMT-4d" transform="translate(637.515625 0)"/>
      <use xlink:href="#ArialMT-61" transform="translate(720.816406 0)"/>
      <use xlink:href="#ArialMT-63" transform="translate(776.431641 0)"/>
      <use xlink:href="#ArialMT-42" transform="translate(826.431641 0)"/>
      <use xlink:href="#ArialMT-6f" transform="translate(893.130859 0)"/>
      <use xlink:href="#ArialMT-6f" transform="translate(948.746094 0)"/>
      <use xlink:href="#ArialMT-6b" transform="translate(1004.361328 0)"/>
      <use xlink:href="#ArialMT-20" transform="translate(1054.361328 0)"/>
      <use xlink:href="#ArialMT-50" transform="translate(1082.144531 0)"/>
      <use xlink:href="#ArialMT-72" transform="translate(1148.84375 0)"/>
      <use xlink:href="#ArialMT-6f" transform="translate(1182.144531 0)"/>
      <use xlink:href="#ArialMT-2c" transform="translate(1237.759766 0)"/>
      <use xlink:href="#ArialMT-20" transform="translate(1265.542969 0)"/>
      <use xlink:href="#ArialMT-41" transform="translate(1287.826172 0)"/>
      <use xlink:href="#ArialMT-70" transform="translate(1354.525391 0)"/>
      <use xlink:href="#ArialMT-70" transform="translate(1410.140625 0)"/>
      <use xlink:href="#ArialMT-6c" transform="translate(1465.755859 0)"/>
      <use xlink:href="#ArialMT-65" transform="translate(1487.972656 0)"/>
      <use xlink:href="#ArialMT-20" transform="translate(1543.587891 0)"/>
      <use xlink:href="#ArialMT-69" transform="translate(1571.371094 0)"/>
      <use xlink:href="#ArialMT-4d" transform="translate(1593.587891 0)"/>
      <use xlink:href="#ArialMT-61" transform="translate(1676.888672 0)"/>
      <use xlink:href="#ArialMT-63" transform="translate(1732.503906 0)"/>
      <use xlink:href="#ArialMT-20" transform="translate(1782.503906 0)"/>
     </g>
    </g>
    <g id="line2d_8">
     <defs>
      <path id="ma45809c92b" d="M 0 7.071068 
C 1.875269 7.071068 3.673985 6.326016 5 5 
C 6.326016 3.673985 7.071068 1.875269 7.071068 0 
C 7.071068 -1.875269 6.326016 -3.673985 5 -5 
C 3.673985 -6.326016 1.875269 -7.071068 0 -7.071068 
C -1.875269 -7.071068 -3.673985 -6.326016 -5 -5 
C -6.326016 -3.673985 -7.071068 -1.875269 -7.071068 0 
C -7.071068 1.875269 -6.326016 3.673985 -5 5 
C -3.673985 6.326016 -1.875269 7.071068 0 7.071068 
z
" style="stroke: #ffffff; stroke-opacity: 0.5; stroke-width: 0.979796"/>
     </defs>
     <g>
      <use xlink:href="#ma45809c92b" x="72.778" y="268.955625" style="fill: #55a868; fill-opacity: 0.5; stroke: #ffffff; stroke-opacity: 0.5; stroke-width: 0.979796"/>
     </g>
    </g>
    <g id="text_22">
     <!-- Apple MacBook Pro 13 -->
     <g style="fill: #262626" transform="translate(88.618 272.035625) scale(0.088 -0.088)">
      <use xlink:href="#ArialMT-41"/>
      <use xlink:href="#ArialMT-70" transform="translate(66.699219 0)"/>
      <use xlink:href="#ArialMT-70" transform="translate(122.314453 0)"/>
      <use xlink:href="#ArialMT-6c" transform="translate(177.929688 0)"/>
      <use xlink:href="#ArialMT-65" transform="translate(200.146484 0)"/>
      <use xlink:href="#ArialMT-20" transform="translate(255.761719 0)"/>
      <use xlink:href="#ArialMT-4d" transform="translate(283.544922 0)"/>
      <use xlink:href="#ArialMT-61" transform="translate(366.845703 0)"/>
      <use xlink:href="#ArialMT-63" transform="translate(422.460938 0)"/>
      <use xlink:href="#ArialMT-42" transform="translate(472.460938 0)"/>
      <use xlink:href="#ArialMT-6f" transform="translate(539.160156 0)"/>
      <use xlink:href="#ArialMT-6f" transform="translate(594.775391 0)"/>
      <use xlink:href="#ArialMT-6b" transform="translate(650.390625 0)"/>
      <use xlink:href="#ArialMT-20" transform="translate(700.390625 0)"/>
      <use xlink:href="#ArialMT-50" transform="translate(728.173828 0)"/>
      <use xlink:href="#ArialMT-72" transform="translate(794.873047 0)"/>
      <use xlink:href="#ArialMT-6f" transform="translate(828.173828 0)"/>
      <use xlink:href="#ArialMT-20" transform="translate(883.789062 0)"/>
      <use xlink:href="#ArialMT-31" transform="translate(911.572266 0)"/>
      <use xlink:href="#ArialMT-33" transform="translate(967.1875 0)"/>
     </g>
    </g>
    <g id="line2d_9">
     <defs>
      <path id="m81ad366793" d="M 0 6.123724 
C 1.624031 6.123724 3.181764 5.47849 4.330127 4.330127 
C 5.47849 3.181764 6.123724 1.624031 6.123724 0 
C 6.123724 -1.624031 5.47849 -3.181764 4.330127 -4.330127 
C 3.181764 -5.47849 1.624031 -6.123724 0 -6.123724 
C -1.624031 -6.123724 -3.181764 -5.47849 -4.330127 -4.330127 
C -5.47849 -3.181764 -6.123724 -1.624031 -6.123724 0 
C -6.123724 1.624031 -5.47849 3.181764 -4.330127 4.330127 
C -3.181764 5.47849 -1.624031 6.123724 0 6.123724 
z
" style="stroke: #ffffff; stroke-opacity: 0.5; stroke-width: 0.979796"/>
     </defs>
     <g>
      <use xlink:href="#m81ad366793" x="72.778" y="281.4035" style="fill: #c44e52; fill-opacity: 0.5; stroke: #ffffff; stroke-opacity: 0.5; stroke-width: 0.979796"/>
     </g>
    </g>
    <g id="text_23">
     <!-- other -->
     <g style="fill: #262626" transform="translate(88.618 284.4835) scale(0.088 -0.088)">
      <use xlink:href="#ArialMT-6f"/>
      <use xlink:href="#ArialMT-74" transform="translate(55.615234 0)"/>
      <use xlink:href="#ArialMT-68" transform="translate(83.398438 0)"/>
      <use xlink:href="#ArialMT-65" transform="translate(139.013672 0)"/>
      <use xlink:href="#ArialMT-72" transform="translate(194.628906 0)"/>
     </g>
    </g>
    <g id="line2d_10">
     <defs>
      <path id="m523fe5e01f" d="M 0 5 
C 1.326016 5 2.597899 4.473168 3.535534 3.535534 
C 4.473168 2.597899 5 1.326016 5 0 
C 5 -1.326016 4.473168 -2.597899 3.535534 -3.535534 
C 2.597899 -4.473168 1.326016 -5 0 -5 
C -1.326016 -5 -2.597899 -4.473168 -3.535534 -3.535534 
C -4.473168 -2.597899 -5 -1.326016 -5 0 
C -5 1.326016 -4.473168 2.597899 -3.535534 3.535534 
C -2.597899 4.473168 -1.326016 5 0 5 
z
" style="stroke: #ffffff; stroke-opacity: 0.5; stroke-width: 0.979796"/>
     </defs>
     <g>
      <use xlink:href="#m523fe5e01f" x="72.778" y="293.958625" style="fill: #8172b3; fill-opacity: 0.5; stroke: #ffffff; stroke-opacity: 0.5; stroke-width: 0.979796"/>
     </g>
    </g>
    <g id="text_24">
     <!-- memory, HDD, SSD, external, box -->
     <g style="fill: #262626" transform="translate(88.618 297.038625) scale(0.088 -0.088)">
      <defs>
       <path id="ArialMT-48" d="M 513 0 
L 513 4581 
L 1119 4581 
L 1119 2700 
L 3500 2700 
L 3500 4581 
L 4106 4581 
L 4106 0 
L 3500 0 
L 3500 2159 
L 1119 2159 
L 1119 0 
L 513 0 
z
" transform="scale(0.015625)"/>
       <path id="ArialMT-53" d="M 288 1472 
L 859 1522 
Q 900 1178 1048 958 
Q 1197 738 1509 602 
Q 1822 466 2213 466 
Q 2559 466 2825 569 
Q 3091 672 3220 851 
Q 3350 1031 3350 1244 
Q 3350 1459 3225 1620 
Q 3100 1781 2813 1891 
Q 2628 1963 1997 2114 
Q 1366 2266 1113 2400 
Q 784 2572 623 2826 
Q 463 3081 463 3397 
Q 463 3744 659 4045 
Q 856 4347 1234 4503 
Q 1613 4659 2075 4659 
Q 2584 4659 2973 4495 
Q 3363 4331 3572 4012 
Q 3781 3694 3797 3291 
L 3216 3247 
Q 3169 3681 2898 3903 
Q 2628 4125 2100 4125 
Q 1550 4125 1298 3923 
Q 1047 3722 1047 3438 
Q 1047 3191 1225 3031 
Q 1400 2872 2139 2705 
Q 2878 2538 3153 2413 
Q 3553 2228 3743 1945 
Q 3934 1663 3934 1294 
Q 3934 928 3725 604 
Q 3516 281 3123 101 
Q 2731 -78 2241 -78 
Q 1619 -78 1198 103 
Q 778 284 539 648 
Q 300 1013 288 1472 
z
" transform="scale(0.015625)"/>
      </defs>
      <use xlink:href="#ArialMT-6d"/>
      <use xlink:href="#ArialMT-65" transform="translate(83.300781 0)"/>
      <use xlink:href="#ArialMT-6d" transform="translate(138.916016 0)"/>
      <use xlink:href="#ArialMT-6f" transform="translate(222.216797 0)"/>
      <use xlink:href="#ArialMT-72" transform="translate(277.832031 0)"/>
      <use xlink:href="#ArialMT-79" transform="translate(311.132812 0)"/>
      <use xlink:href="#ArialMT-2c" transform="translate(353.757812 0)"/>
      <use xlink:href="#ArialMT-20" transform="translate(381.541016 0)"/>
      <use xlink:href="#ArialMT-48" transform="translate(409.324219 0)"/>
      <use xlink:href="#ArialMT-44" transform="translate(481.541016 0)"/>
      <use xlink:href="#ArialMT-44" transform="translate(553.757812 0)"/>
      <use xlink:href="#ArialMT-2c" transform="translate(625.974609 0)"/>
      <use xlink:href="#ArialMT-20" transform="translate(653.757812 0)"/>
      <use xlink:href="#ArialMT-53" transform="translate(681.541016 0)"/>
      <use xlink:href="#ArialMT-53" transform="translate(748.240234 0)"/>
      <use xlink:href="#ArialMT-44" transform="translate(814.939453 0)"/>
      <use xlink:href="#ArialMT-2c" transform="translate(887.15625 0)"/>
      <use xlink:href="#ArialMT-20" transform="translate(914.939453 0)"/>
      <use xlink:href="#ArialMT-65" transform="translate(942.722656 0)"/>
      <use xlink:href="#ArialMT-78" transform="translate(998.337891 0)"/>
      <use xlink:href="#ArialMT-74" transform="translate(1048.337891 0)"/>
      <use xlink:href="#ArialMT-65" transform="translate(1076.121094 0)"/>
      <use xlink:href="#ArialMT-72" transform="translate(1131.736328 0)"/>
      <use xlink:href="#ArialMT-6e" transform="translate(1165.037109 0)"/>
      <use xlink:href="#ArialMT-61" transform="translate(1220.652344 0)"/>
      <use xlink:href="#ArialMT-6c" transform="translate(1276.267578 0)"/>
      <use xlink:href="#ArialMT-2c" transform="translate(1298.484375 0)"/>
      <use xlink:href="#ArialMT-20" transform="translate(1326.267578 0)"/>
      <use xlink:href="#ArialMT-62" transform="translate(1354.050781 0)"/>
      <use xlink:href="#ArialMT-6f" transform="translate(1409.666016 0)"/>
      <use xlink:href="#ArialMT-78" transform="translate(1465.28125 0)"/>
     </g>
    </g>
   </g>
  </g>
 </g>
 <defs>
  <clipPath id="pad22833f32">
   <rect x="56.058" y="23.12925" width="389.514" height="283.6815"/>
  </clipPath>
 </defs>
</svg>
