<?xml version="1.0" encoding="utf-8" standalone="no"?>
<!DOCTYPE svg PUBLIC "-//W3C//DTD SVG 1.1//EN"
  "http://www.w3.org/Graphics/SVG/1.1/DTD/svg11.dtd">
<svg xmlns:xlink="http://www.w3.org/1999/xlink" width="864pt" height="432pt" viewBox="0 0 864 432" xmlns="http://www.w3.org/2000/svg" version="1.1">
 <metadata>
  <rdf:RDF xmlns:dc="http://purl.org/dc/elements/1.1/" xmlns:cc="http://creativecommons.org/ns#" xmlns:rdf="http://www.w3.org/1999/02/22-rdf-syntax-ns#">
   <cc:Work>
    <dc:type rdf:resource="http://purl.org/dc/dcmitype/StillImage"/>
    <dc:date>2026-05-19T09:39:09.185651</dc:date>
    <dc:format>image/svg+xml</dc:format>
    <dc:creator>
     <cc:Agent>
      <dc:title>Matplotlib v3.10.9, https://matplotlib.org/</dc:title>
     </cc:Agent>
    </dc:creator>
   </cc:Work>
  </rdf:RDF>
 </metadata>
 <defs>
  <style type="text/css">*{stroke-linejoin: round; stroke-linecap: butt}</style>
 </defs>
 <g id="figure_1">
  <g id="patch_1">
   <path d="M 0 432 
L 864 432 
L 864 0 
L 0 0 
z
" style="fill: #ffffff"/>
  </g>
  <g id="axes_1">
   <g id="patch_2">
    <path d="M 108 384.48 
L 777.6 384.48 
L 777.6 51.84 
L 108 51.84 
z
" style="fill: #eaeaf2"/>
   </g>
   <g id="matplotlib.axis_1">
    <g id="xtick_1">
     <g id="text_1">
      <!-- 2017-03 -->
      <g style="fill: #262626" transform="translate(163.925075 399.078875) scale(0.088 -0.088)">
       <defs>
        <path id="ArialMT-32" d="M 3222 541 
L 3222 0 
L 194 0 
Q 188 203 259 391 
Q 375 700 629 1000 
Q 884 1300 1366 1694 
Q 2113 2306 2375 2664 
Q 2638 3022 2638 3341 
Q 2638 3675 2398 3904 
Q 2159 4134 1775 4134 
Q 1369 4134 1125 3890 
Q 881 3647 878 3216 
L 300 3275 
Q 359 3922 746 4261 
Q 1134 4600 1788 4600 
Q 2447 4600 2831 4234 
Q 3216 3869 3216 3328 
Q 3216 3053 3103 2787 
Q 2991 2522 2730 2228 
Q 2469 1934 1863 1422 
Q 1356 997 1212 845 
Q 1069 694 975 541 
L 3222 541 
z
" transform="scale(0.015625)"/>
        <path id="ArialMT-30" d="M 266 2259 
Q 266 3072 433 3567 
Q 600 4063 929 4331 
Q 1259 4600 1759 4600 
Q 2128 4600 2406 4451 
Q 2684 4303 2865 4023 
Q 3047 3744 3150 3342 
Q 3253 2941 3253 2259 
Q 3253 1453 3087 958 
Q 2922 463 2592 192 
Q 2263 -78 1759 -78 
Q 1097 -78 719 397 
Q 266 969 266 2259 
z
M 844 2259 
Q 844 1131 1108 757 
Q 1372 384 1759 384 
Q 2147 384 2411 759 
Q 2675 1134 2675 2259 
Q 2675 3391 2411 3762 
Q 2147 4134 1753 4134 
Q 1366 4134 1134 3806 
Q 844 3388 844 2259 
z
" transform="scale(0.015625)"/>
        <path id="ArialMT-31" d="M 2384 0 
L 1822 0 
L 1822 3584 
Q 1619 3391 1289 3197 
Q 959 3003 697 2906 
L 697 3450 
Q 1169 3672 1522 3987 
Q 1875 4303 2022 4600 
L 2384 4600 
L 2384 0 
z
" transform="scale(0.015625)"/>
        <path id="ArialMT-37" d="M 303 3981 
L 303 4522 
L 3269 4522 
L 3269 4084 
Q 2831 3619 2401 2847 
Q 1972 2075 1738 1259 
Q 1569 684 1522 0 
L 944 0 
Q 953 541 1156 1306 
Q 1359 2072 1739 2783 
Q 2119 3494 2547 3981 
L 303 3981 
z
" transform="scale(0.015625)"/>
        <path id="ArialMT-2d" d="M 203 1375 
L 203 1941 
L 1931 1941 
L 1931 1375 
L 203 1375 
z
" transform="scale(0.015625)"/>
        <path id="ArialMT-33" d="M 269 1209 
L 831 1284 
Q 928 806 1161 595 
Q 1394 384 1728 384 
Q 2125 384 2398 659 
Q 2672 934 2672 1341 
Q 2672 1728 2419 1979 
Q 2166 2231 1775 2231 
Q 1616 2231 1378 2169 
L 1441 2663 
Q 1497 2656 1531 2656 
Q 1891 2656 2178 2843 
Q 2466 3031 2466 3422 
Q 2466 3731 2256 3934 
Q 2047 4138 1716 4138 
Q 1388 4138 1169 3931 
Q 950 3725 888 3313 
L 325 3413 
Q 428 3978 793 4289 
Q 1159 4600 1703 4600 
Q 2078 4600 2393 4439 
Q 2709 4278 2876 4000 
Q 3044 3722 3044 3409 
Q 3044 3113 2884 2869 
Q 2725 2625 2413 2481 
Q 2819 2388 3044 2092 
Q 3269 1797 3269 1353 
Q 3269 753 2831 336 
Q 2394 -81 1725 -81 
Q 1122 -81 723 278 
Q 325 638 269 1209 
z
" transform="scale(0.015625)"/>
       </defs>
       <use xlink:href="#ArialMT-32"/>
       <use xlink:href="#ArialMT-30" transform="translate(55.615234 0)"/>
       <use xlink:href="#ArialMT-31" transform="translate(111.230469 0)"/>
       <use xlink:href="#ArialMT-37" transform="translate(166.845703 0)"/>
       <use xlink:href="#ArialMT-2d" transform="translate(222.460938 0)"/>
       <use xlink:href="#ArialMT-30" transform="translate(255.761719 0)"/>
       <use xlink:href="#ArialMT-33" transform="translate(311.376953 0)"/>
      </g>
     </g>
    </g>
    <g id="xtick_2">
     <g id="text_2">
      <!-- 2017-05 -->
      <g style="fill: #262626" transform="translate(251.501404 399.078875) scale(0.088 -0.088)">
       <defs>
        <path id="ArialMT-35" d="M 266 1200 
L 856 1250 
Q 922 819 1161 601 
Q 1400 384 1738 384 
Q 2144 384 2425 690 
Q 2706 997 2706 1503 
Q 2706 1984 2436 2262 
Q 2166 2541 1728 2541 
Q 1456 2541 1237 2417 
Q 1019 2294 894 2097 
L 366 2166 
L 809 4519 
L 3088 4519 
L 3088 3981 
L 1259 3981 
L 1013 2750 
Q 1425 3038 1878 3038 
Q 2478 3038 2890 2622 
Q 3303 2206 3303 1553 
Q 3303 931 2941 478 
Q 2500 -78 1738 -78 
Q 1113 -78 717 272 
Q 322 622 266 1200 
z
" transform="scale(0.015625)"/>
       </defs>
       <use xlink:href="#ArialMT-32"/>
       <use xlink:href="#ArialMT-30" transform="translate(55.615234 0)"/>
       <use xlink:href="#ArialMT-31" transform="translate(111.230469 0)"/>
       <use xlink:href="#ArialMT-37" transform="translate(166.845703 0)"/>
       <use xlink:href="#ArialMT-2d" transform="translate(222.460938 0)"/>
       <use xlink:href="#ArialMT-30" transform="translate(255.761719 0)"/>
       <use xlink:href="#ArialMT-35" transform="translate(311.376953 0)"/>
      </g>
     </g>
    </g>
    <g id="xtick_3">
     <g id="text_3">
      <!-- 2017-07 -->
      <g style="fill: #262626" transform="translate(339.077733 399.078875) scale(0.088 -0.088)">
       <use xlink:href="#ArialMT-32"/>
       <use xlink:href="#ArialMT-30" transform="translate(55.615234 0)"/>
       <use xlink:href="#ArialMT-31" transform="translate(111.230469 0)"/>
       <use xlink:href="#ArialMT-37" transform="translate(166.845703 0)"/>
       <use xlink:href="#ArialMT-2d" transform="translate(222.460938 0)"/>
       <use xlink:href="#ArialMT-30" transform="translate(255.761719 0)"/>
       <use xlink:href="#ArialMT-37" transform="translate(311.376953 0)"/>
      </g>
     </g>
    </g>
    <g id="xtick_4">
     <g id="text_4">
      <!-- 2017-09 -->
      <g style="fill: #262626" transform="translate(428.08974 399.078875) scale(0.088 -0.088)">
       <defs>
        <path id="ArialMT-39" d="M 350 1059 
L 891 1109 
Q 959 728 1153 556 
Q 1347 384 1650 384 
Q 1909 384 2104 503 
Q 2300 622 2425 820 
Q 2550 1019 2634 1356 
Q 2719 1694 2719 2044 
Q 2719 2081 2716 2156 
Q 2547 1888 2255 1720 
Q 1963 1553 1622 1553 
Q 1053 1553 659 1965 
Q 266 2378 266 3053 
Q 266 3750 677 4175 
Q 1088 4600 1706 4600 
Q 2153 4600 2523 4359 
Q 2894 4119 3086 3673 
Q 3278 3228 3278 2384 
Q 3278 1506 3087 986 
Q 2897 466 2520 194 
Q 2144 -78 1638 -78 
Q 1100 -78 759 220 
Q 419 519 350 1059 
z
M 2653 3081 
Q 2653 3566 2395 3850 
Q 2138 4134 1775 4134 
Q 1400 4134 1122 3828 
Q 844 3522 844 3034 
Q 844 2597 1108 2323 
Q 1372 2050 1759 2050 
Q 2150 2050 2401 2323 
Q 2653 2597 2653 3081 
z
" transform="scale(0.015625)"/>
       </defs>
       <use xlink:href="#ArialMT-32"/>
       <use xlink:href="#ArialMT-30" transform="translate(55.615234 0)"/>
       <use xlink:href="#ArialMT-31" transform="translate(111.230469 0)"/>
       <use xlink:href="#ArialMT-37" transform="translate(166.845703 0)"/>
       <use xlink:href="#ArialMT-2d" transform="translate(222.460938 0)"/>
       <use xlink:href="#ArialMT-30" transform="translate(255.761719 0)"/>
       <use xlink:href="#ArialMT-39" transform="translate(311.376953 0)"/>
      </g>
     </g>
    </g>
    <g id="xtick_5">
     <g id="text_5">
      <!-- 2017-11 -->
      <g style="fill: #262626" transform="translate(515.990569 399.078875) scale(0.088 -0.088)">
       <use xlink:href="#ArialMT-32"/>
       <use xlink:href="#ArialMT-30" transform="translate(55.615234 0)"/>
       <use xlink:href="#ArialMT-31" transform="translate(111.230469 0)"/>
       <use xlink:href="#ArialMT-37" transform="translate(166.845703 0)"/>
       <use xlink:href="#ArialMT-2d" transform="translate(222.460938 0)"/>
       <use xlink:href="#ArialMT-31" transform="translate(255.761719 0)"/>
       <use xlink:href="#ArialMT-31" transform="translate(304.001953 0)"/>
      </g>
     </g>
    </g>
    <g id="xtick_6">
     <g id="text_6">
      <!-- 2018-01 -->
      <g style="fill: #262626" transform="translate(603.242399 399.078875) scale(0.088 -0.088)">
       <defs>
        <path id="ArialMT-38" d="M 1131 2484 
Q 781 2613 612 2850 
Q 444 3088 444 3419 
Q 444 3919 803 4259 
Q 1163 4600 1759 4600 
Q 2359 4600 2725 4251 
Q 3091 3903 3091 3403 
Q 3091 3084 2923 2848 
Q 2756 2613 2416 2484 
Q 2838 2347 3058 2040 
Q 3278 1734 3278 1309 
Q 3278 722 2862 322 
Q 2447 -78 1769 -78 
Q 1091 -78 675 323 
Q 259 725 259 1325 
Q 259 1772 486 2073 
Q 713 2375 1131 2484 
z
M 1019 3438 
Q 1019 3113 1228 2906 
Q 1438 2700 1772 2700 
Q 2097 2700 2305 2904 
Q 2513 3109 2513 3406 
Q 2513 3716 2298 3927 
Q 2084 4138 1766 4138 
Q 1444 4138 1231 3931 
Q 1019 3725 1019 3438 
z
M 838 1322 
Q 838 1081 952 856 
Q 1066 631 1291 507 
Q 1516 384 1775 384 
Q 2178 384 2440 643 
Q 2703 903 2703 1303 
Q 2703 1709 2433 1975 
Q 2163 2241 1756 2241 
Q 1359 2241 1098 1978 
Q 838 1716 838 1322 
z
" transform="scale(0.015625)"/>
       </defs>
       <use xlink:href="#ArialMT-32"/>
       <use xlink:href="#ArialMT-30" transform="translate(55.615234 0)"/>
       <use xlink:href="#ArialMT-31" transform="translate(111.230469 0)"/>
       <use xlink:href="#ArialMT-38" transform="translate(166.845703 0)"/>
       <use xlink:href="#ArialMT-2d" transform="translate(222.460938 0)"/>
       <use xlink:href="#ArialMT-30" transform="translate(255.761719 0)"/>
       <use xlink:href="#ArialMT-31" transform="translate(311.376953 0)"/>
      </g>
     </g>
    </g>
    <g id="xtick_7">
     <g id="text_7">
      <!-- 2018-03 -->
      <g style="fill: #262626" transform="translate(687.947373 399.078875) scale(0.088 -0.088)">
       <use xlink:href="#ArialMT-32"/>
       <use xlink:href="#ArialMT-30" transform="translate(55.615234 0)"/>
       <use xlink:href="#ArialMT-31" transform="translate(111.230469 0)"/>
       <use xlink:href="#ArialMT-38" transform="translate(166.845703 0)"/>
       <use xlink:href="#ArialMT-2d" transform="translate(222.460938 0)"/>
       <use xlink:href="#ArialMT-30" transform="translate(255.761719 0)"/>
       <use xlink:href="#ArialMT-33" transform="translate(311.376953 0)"/>
      </g>
     </g>
    </g>
    <g id="text_8">
     <!-- date -->
     <g style="fill: #262626" transform="translate(433.45875 411.699375) scale(0.096 -0.096)">
      <defs>
       <path id="ArialMT-64" d="M 2575 0 
L 2575 419 
Q 2259 -75 1647 -75 
Q 1250 -75 917 144 
Q 584 363 401 755 
Q 219 1147 219 1656 
Q 219 2153 384 2558 
Q 550 2963 881 3178 
Q 1213 3394 1622 3394 
Q 1922 3394 2156 3267 
Q 2391 3141 2538 2938 
L 2538 4581 
L 3097 4581 
L 3097 0 
L 2575 0 
z
M 797 1656 
Q 797 1019 1065 703 
Q 1334 388 1700 388 
Q 2069 388 2326 689 
Q 2584 991 2584 1609 
Q 2584 2291 2321 2609 
Q 2059 2928 1675 2928 
Q 1300 2928 1048 2622 
Q 797 2316 797 1656 
z
" transform="scale(0.015625)"/>
       <path id="ArialMT-61" d="M 2588 409 
Q 2275 144 1986 34 
Q 1697 -75 1366 -75 
Q 819 -75 525 192 
Q 231 459 231 875 
Q 231 1119 342 1320 
Q 453 1522 633 1644 
Q 813 1766 1038 1828 
Q 1203 1872 1538 1913 
Q 2219 1994 2541 2106 
Q 2544 2222 2544 2253 
Q 2544 2597 2384 2738 
Q 2169 2928 1744 2928 
Q 1347 2928 1158 2789 
Q 969 2650 878 2297 
L 328 2372 
Q 403 2725 575 2942 
Q 747 3159 1072 3276 
Q 1397 3394 1825 3394 
Q 2250 3394 2515 3294 
Q 2781 3194 2906 3042 
Q 3031 2891 3081 2659 
Q 3109 2516 3109 2141 
L 3109 1391 
Q 3109 606 3145 398 
Q 3181 191 3288 0 
L 2700 0 
Q 2613 175 2588 409 
z
M 2541 1666 
Q 2234 1541 1622 1453 
Q 1275 1403 1131 1340 
Q 988 1278 909 1158 
Q 831 1038 831 891 
Q 831 666 1001 516 
Q 1172 366 1500 366 
Q 1825 366 2078 508 
Q 2331 650 2450 897 
Q 2541 1088 2541 1459 
L 2541 1666 
z
" transform="scale(0.015625)"/>
       <path id="ArialMT-74" d="M 1650 503 
L 1731 6 
Q 1494 -44 1306 -44 
Q 1000 -44 831 53 
Q 663 150 594 308 
Q 525 466 525 972 
L 525 2881 
L 113 2881 
L 113 3319 
L 525 3319 
L 525 4141 
L 1084 4478 
L 1084 3319 
L 1650 3319 
L 1650 2881 
L 1084 2881 
L 1084 941 
Q 1084 700 1114 631 
Q 1144 563 1211 522 
Q 1278 481 1403 481 
Q 1497 481 1650 503 
z
" transform="scale(0.015625)"/>
       <path id="ArialMT-65" d="M 2694 1069 
L 3275 997 
Q 3138 488 2766 206 
Q 2394 -75 1816 -75 
Q 1088 -75 661 373 
Q 234 822 234 1631 
Q 234 2469 665 2931 
Q 1097 3394 1784 3394 
Q 2450 3394 2872 2941 
Q 3294 2488 3294 1666 
Q 3294 1616 3291 1516 
L 816 1516 
Q 847 969 1125 678 
Q 1403 388 1819 388 
Q 2128 388 2347 550 
Q 2566 713 2694 1069 
z
M 847 1978 
L 2700 1978 
Q 2663 2397 2488 2606 
Q 2219 2931 1791 2931 
Q 1403 2931 1139 2672 
Q 875 2413 847 1978 
z
" transform="scale(0.015625)"/>
      </defs>
      <use xlink:href="#ArialMT-64"/>
      <use xlink:href="#ArialMT-61" transform="translate(55.615234 0)"/>
      <use xlink:href="#ArialMT-74" transform="translate(111.230469 0)"/>
      <use xlink:href="#ArialMT-65" transform="translate(139.013672 0)"/>
     </g>
    </g>
   </g>
   <g id="matplotlib.axis_2">
    <g id="ytick_1">
     <g id="text_9">
      <!-- 0.0 -->
      <g style="fill: #262626" transform="translate(87.468 384.665048) scale(0.088 -0.088)">
       <defs>
        <path id="ArialMT-2e" d="M 581 0 
L 581 641 
L 1222 641 
L 1222 0 
L 581 0 
z
" transform="scale(0.015625)"/>
       </defs>
       <use xlink:href="#ArialMT-30"/>
       <use xlink:href="#ArialMT-2e" transform="translate(55.615234 0)"/>
       <use xlink:href="#ArialMT-30" transform="translate(83.398438 0)"/>
      </g>
     </g>
    </g>
    <g id="ytick_2">
     <g id="text_10">
      <!-- 0.5 -->
      <g style="fill: #262626" transform="translate(87.468 325.891139) scale(0.088 -0.088)">
       <use xlink:href="#ArialMT-30"/>
       <use xlink:href="#ArialMT-2e" transform="translate(55.615234 0)"/>
       <use xlink:href="#ArialMT-35" transform="translate(83.398438 0)"/>
      </g>
     </g>
    </g>
    <g id="ytick_3">
     <g id="text_11">
      <!-- 1.0 -->
      <g style="fill: #262626" transform="translate(87.468 267.11723) scale(0.088 -0.088)">
       <use xlink:href="#ArialMT-31"/>
       <use xlink:href="#ArialMT-2e" transform="translate(55.615234 0)"/>
       <use xlink:href="#ArialMT-30" transform="translate(83.398438 0)"/>
      </g>
     </g>
    </g>
    <g id="ytick_4">
     <g id="text_12">
      <!-- 1.5 -->
      <g style="fill: #262626" transform="translate(87.468 208.343321) scale(0.088 -0.088)">
       <use xlink:href="#ArialMT-31"/>
       <use xlink:href="#ArialMT-2e" transform="translate(55.615234 0)"/>
       <use xlink:href="#ArialMT-35" transform="translate(83.398438 0)"/>
      </g>
     </g>
    </g>
    <g id="ytick_5">
     <g id="text_13">
      <!-- 2.0 -->
      <g style="fill: #262626" transform="translate(87.468 149.569412) scale(0.088 -0.088)">
       <use xlink:href="#ArialMT-32"/>
       <use xlink:href="#ArialMT-2e" transform="translate(55.615234 0)"/>
       <use xlink:href="#ArialMT-30" transform="translate(83.398438 0)"/>
      </g>
     </g>
    </g>
    <g id="ytick_6">
     <g id="text_14">
      <!-- 2.5 -->
      <g style="fill: #262626" transform="translate(87.468 90.795504) scale(0.088 -0.088)">
       <use xlink:href="#ArialMT-32"/>
       <use xlink:href="#ArialMT-2e" transform="translate(55.615234 0)"/>
       <use xlink:href="#ArialMT-35" transform="translate(83.398438 0)"/>
      </g>
     </g>
    </g>
    <g id="text_15">
     <!-- revenue -->
     <g style="fill: #262626" transform="translate(81.56 235.5045) rotate(-90) scale(0.096 -0.096)">
      <defs>
       <path id="ArialMT-72" d="M 416 0 
L 416 3319 
L 922 3319 
L 922 2816 
Q 1116 3169 1280 3281 
Q 1444 3394 1641 3394 
Q 1925 3394 2219 3213 
L 2025 2691 
Q 1819 2813 1613 2813 
Q 1428 2813 1281 2702 
Q 1134 2591 1072 2394 
Q 978 2094 978 1738 
L 978 0 
L 416 0 
z
" transform="scale(0.015625)"/>
       <path id="ArialMT-76" d="M 1344 0 
L 81 3319 
L 675 3319 
L 1388 1331 
Q 1503 1009 1600 663 
Q 1675 925 1809 1294 
L 2547 3319 
L 3125 3319 
L 1869 0 
L 1344 0 
z
" transform="scale(0.015625)"/>
       <path id="ArialMT-6e" d="M 422 0 
L 422 3319 
L 928 3319 
L 928 2847 
Q 1294 3394 1984 3394 
Q 2284 3394 2536 3286 
Q 2788 3178 2913 3003 
Q 3038 2828 3088 2588 
Q 3119 2431 3119 2041 
L 3119 0 
L 2556 0 
L 2556 2019 
Q 2556 2363 2490 2533 
Q 2425 2703 2258 2804 
Q 2091 2906 1866 2906 
Q 1506 2906 1245 2678 
Q 984 2450 984 1813 
L 984 0 
L 422 0 
z
" transform="scale(0.015625)"/>
       <path id="ArialMT-75" d="M 2597 0 
L 2597 488 
Q 2209 -75 1544 -75 
Q 1250 -75 995 37 
Q 741 150 617 320 
Q 494 491 444 738 
Q 409 903 409 1263 
L 409 3319 
L 972 3319 
L 972 1478 
Q 972 1038 1006 884 
Q 1059 663 1231 536 
Q 1403 409 1656 409 
Q 1909 409 2131 539 
Q 2353 669 2445 892 
Q 2538 1116 2538 1541 
L 2538 3319 
L 3100 3319 
L 3100 0 
L 2597 0 
z
" transform="scale(0.015625)"/>
      </defs>
      <use xlink:href="#ArialMT-72"/>
      <use xlink:href="#ArialMT-65" transform="translate(33.300781 0)"/>
      <use xlink:href="#ArialMT-76" transform="translate(88.916016 0)"/>
      <use xlink:href="#ArialMT-65" transform="translate(138.916016 0)"/>
      <use xlink:href="#ArialMT-6e" transform="translate(194.53125 0)"/>
      <use xlink:href="#ArialMT-75" transform="translate(250.146484 0)"/>
      <use xlink:href="#ArialMT-65" transform="translate(305.761719 0)"/>
     </g>
    </g>
    <g id="text_16">
     <!-- 1e6 -->
     <g style="fill: #262626" transform="translate(108 48.84) scale(0.088 -0.088)">
      <defs>
       <path id="ArialMT-36" d="M 3184 3459 
L 2625 3416 
Q 2550 3747 2413 3897 
Q 2184 4138 1850 4138 
Q 1581 4138 1378 3988 
Q 1113 3794 959 3422 
Q 806 3050 800 2363 
Q 1003 2672 1297 2822 
Q 1591 2972 1913 2972 
Q 2475 2972 2870 2558 
Q 3266 2144 3266 1488 
Q 3266 1056 3080 686 
Q 2894 316 2569 119 
Q 2244 -78 1831 -78 
Q 1128 -78 684 439 
Q 241 956 241 2144 
Q 241 3472 731 4075 
Q 1159 4600 1884 4600 
Q 2425 4600 2770 4297 
Q 3116 3994 3184 3459 
z
M 888 1484 
Q 888 1194 1011 928 
Q 1134 663 1356 523 
Q 1578 384 1822 384 
Q 2178 384 2434 671 
Q 2691 959 2691 1453 
Q 2691 1928 2437 2201 
Q 2184 2475 1800 2475 
Q 1419 2475 1153 2201 
Q 888 1928 888 1484 
z
" transform="scale(0.015625)"/>
      </defs>
      <use xlink:href="#ArialMT-31"/>
      <use xlink:href="#ArialMT-65" transform="translate(55.615234 0)"/>
      <use xlink:href="#ArialMT-36" transform="translate(111.230469 0)"/>
     </g>
    </g>
   </g>
   <g id="PathCollection_1">
    <path d="M 138.436364 263.465437 
C 140.34938 263.465437 142.184301 262.705387 143.537008 261.352681 
C 144.889715 259.999974 145.649764 258.165052 145.649764 256.252036 
C 145.649764 254.33902 144.889715 252.504099 143.537008 251.151392 
C 142.184301 249.798685 140.34938 249.038636 138.436364 249.038636 
C 136.523347 249.038636 134.688426 249.798685 133.335719 251.151392 
C 131.983013 252.504099 131.222963 254.33902 131.222963 256.252036 
C 131.222963 258.165052 131.983013 259.999974 133.335719 261.352681 
C 134.688426 262.705387 136.523347 263.465437 138.436364 263.465437 
z
" clip-path="url(#pa71f9a0e0b)" style="fill: #2d1e3e; fill-opacity: 0.5; stroke: #ffffff; stroke-opacity: 0.5; stroke-width: 0.66336"/>
    <path d="M 178.635334 321.546663 
C 179.937669 321.546663 181.186839 321.02924 182.107728 320.10835 
C 183.028618 319.18746 183.546041 317.938291 183.546041 316.635956 
C 183.546041 315.333622 183.028618 314.084452 182.107728 313.163563 
C 181.186839 312.242673 179.937669 311.72525 178.635334 311.72525 
C 177.333 311.72525 176.08383 312.242673 175.162941 313.163563 
C 174.242051 314.084452 173.724628 315.333622 173.724628 316.635956 
C 173.724628 317.938291 174.242051 319.18746 175.162941 320.10835 
C 176.08383 321.02924 177.333 321.546663 178.635334 321.546663 
z
" clip-path="url(#pa71f9a0e0b)" style="fill: #bc7897; fill-opacity: 0.5; stroke: #ffffff; stroke-opacity: 0.5; stroke-width: 0.66336"/>
    <path d="M 223.141338 371.596068 
C 223.73435 371.596068 224.303154 371.360462 224.722477 370.941139 
C 225.1418 370.521816 225.377406 369.953012 225.377406 369.36 
C 225.377406 368.766988 225.1418 368.198184 224.722477 367.778861 
C 224.303154 367.359538 223.73435 367.123932 223.141338 367.123932 
C 222.548326 367.123932 221.979522 367.359538 221.560199 367.778861 
C 221.140876 368.198184 220.90527 368.766988 220.90527 369.36 
C 220.90527 369.953012 221.140876 370.521816 221.560199 370.941139 
C 221.979522 371.360462 222.548326 371.596068 223.141338 371.596068 
z
" clip-path="url(#pa71f9a0e0b)" style="fill: #d59aa7; fill-opacity: 0.5; stroke: #ffffff; stroke-opacity: 0.5; stroke-width: 0.66336"/>
    <path d="M 266.211664 340.079496 
C 267.354341 340.079496 268.45037 339.625505 269.258365 338.817511 
C 270.066359 338.009516 270.52035 336.913487 270.52035 335.77081 
C 270.52035 334.628133 270.066359 333.532103 269.258365 332.724109 
C 268.45037 331.916114 267.354341 331.462124 266.211664 331.462124 
C 265.068987 331.462124 263.972957 331.916114 263.164963 332.724109 
C 262.356968 333.532103 261.902978 334.628133 261.902978 335.77081 
C 261.902978 336.913487 262.356968 338.009516 263.164963 338.817511 
C 263.972957 339.625505 265.068987 340.079496 266.211664 340.079496 
z
" clip-path="url(#pa71f9a0e0b)" style="fill: #d093a4; fill-opacity: 0.5; stroke: #ffffff; stroke-opacity: 0.5; stroke-width: 0.66336"/>
    <path d="M 310.717667 324.271111 
C 311.939071 324.271111 313.110613 323.785842 313.974276 322.922179 
C 314.837939 322.058517 315.323208 320.886974 315.323208 319.66557 
C 315.323208 318.444167 314.837939 317.272624 313.974276 316.408961 
C 313.110613 315.545299 311.939071 315.06003 310.717667 315.06003 
C 309.496264 315.06003 308.324721 315.545299 307.461058 316.408961 
C 306.597395 317.272624 306.112127 318.444167 306.112127 319.66557 
C 306.112127 320.886974 306.597395 322.058517 307.461058 322.922179 
C 308.324721 323.785842 309.496264 324.271111 310.717667 324.271111 
z
" clip-path="url(#pa71f9a0e0b)" style="fill: #edd1cb; fill-opacity: 0.5; stroke: #ffffff; stroke-opacity: 0.5; stroke-width: 0.66336"/>
    <path d="M 353.787993 318.417255 
C 354.91398 318.417255 355.994002 317.969895 356.790195 317.173702 
C 357.586388 316.377509 358.033747 315.297488 358.033747 314.171501 
C 358.033747 313.045513 357.586388 311.965492 356.790195 311.169299 
C 355.994002 310.373106 354.91398 309.925746 353.787993 309.925746 
C 352.662006 309.925746 351.581985 310.373106 350.785791 311.169299 
C 349.989598 311.965492 349.542239 313.045513 349.542239 314.171501 
C 349.542239 315.297488 349.989598 316.377509 350.785791 317.173702 
C 351.581985 317.969895 352.662006 318.417255 353.787993 318.417255 
z
" clip-path="url(#pa71f9a0e0b)" style="fill: #e4b8b8; fill-opacity: 0.5; stroke: #ffffff; stroke-opacity: 0.5; stroke-width: 0.66336"/>
    <path d="M 398.293997 276.549559 
C 399.90015 276.549559 401.440736 275.911428 402.576457 274.775706 
C 403.712179 273.639984 404.350311 272.099398 404.350311 270.493245 
C 404.350311 268.887091 403.712179 267.346506 402.576457 266.210784 
C 401.440736 265.075062 399.90015 264.43693 398.293997 264.43693 
C 396.687843 264.43693 395.147258 265.075062 394.011536 266.210784 
C 392.875814 267.346506 392.237682 268.887091 392.237682 270.493245 
C 392.237682 272.099398 392.875814 273.639984 394.011536 274.775706 
C 395.147258 275.911428 396.687843 276.549559 398.293997 276.549559 
z
" clip-path="url(#pa71f9a0e0b)" style="fill: #382449; fill-opacity: 0.5; stroke: #ffffff; stroke-opacity: 0.5; stroke-width: 0.66336"/>
    <path d="M 442.8 309.967337 
C 444.134491 309.967337 445.414505 309.437138 446.358133 308.49351 
C 447.301761 307.549882 447.83196 306.269869 447.83196 304.935377 
C 447.83196 303.600886 447.301761 302.320872 446.358133 301.377244 
C 445.414505 300.433616 444.134491 299.903417 442.8 299.903417 
C 441.465509 299.903417 440.185495 300.433616 439.241867 301.377244 
C 438.298239 302.320872 437.76804 303.600886 437.76804 304.935377 
C 437.76804 306.269869 438.298239 307.549882 439.241867 308.49351 
C 440.185495 309.437138 441.465509 309.967337 442.8 309.967337 
z
" clip-path="url(#pa71f9a0e0b)" style="fill: #a8668e; fill-opacity: 0.5; stroke: #ffffff; stroke-opacity: 0.5; stroke-width: 0.66336"/>
    <path d="M 485.870326 292.080121 
C 487.180417 292.080121 488.437027 291.559616 489.363402 290.633242 
C 490.289777 289.706867 490.810282 288.450257 490.810282 287.140166 
C 490.810282 285.830074 490.289777 284.573464 489.363402 283.647089 
C 488.437027 282.720715 487.180417 282.20021 485.870326 282.20021 
C 484.560234 282.20021 483.303624 282.720715 482.37725 283.647089 
C 481.450875 284.573464 480.93037 285.830074 480.93037 287.140166 
C 480.93037 288.450257 481.450875 289.706867 482.37725 290.633242 
C 483.303624 291.559616 484.560234 292.080121 485.870326 292.080121 
z
" clip-path="url(#pa71f9a0e0b)" style="fill: #b37093; fill-opacity: 0.5; stroke: #ffffff; stroke-opacity: 0.5; stroke-width: 0.66336"/>
    <path d="M 530.376329 271.286333 
C 531.904035 271.286333 533.369375 270.67937 534.449626 269.599119 
C 535.529877 268.518868 536.136841 267.053528 536.136841 265.525822 
C 536.136841 263.998117 535.529877 262.532776 534.449626 261.452525 
C 533.369375 260.372274 531.904035 259.765311 530.376329 259.765311 
C 528.848624 259.765311 527.383284 260.372274 526.303033 261.452525 
C 525.222782 262.532776 524.615818 263.998117 524.615818 265.525822 
C 524.615818 267.053528 525.222782 268.518868 526.303033 269.599119 
C 527.383284 270.67937 528.848624 271.286333 530.376329 271.286333 
z
" clip-path="url(#pa71f9a0e0b)" style="fill: #864e7e; fill-opacity: 0.5; stroke: #ffffff; stroke-opacity: 0.5; stroke-width: 0.66336"/>
    <path d="M 573.446655 75.620254 
C 575.743381 75.620254 577.946349 74.707755 579.57038 73.083724 
C 581.19441 71.459694 582.106909 69.256726 582.106909 66.96 
C 582.106909 64.663274 581.19441 62.460306 579.57038 60.836276 
C 577.946349 59.212245 575.743381 58.299746 573.446655 58.299746 
C 571.149929 58.299746 568.946962 59.212245 567.322931 60.836276 
C 565.6989 62.460306 564.786401 64.663274 564.786401 66.96 
C 564.786401 69.256726 565.6989 71.459694 567.322931 73.083724 
C 568.946962 74.707755 571.149929 75.620254 573.446655 75.620254 
z
" clip-path="url(#pa71f9a0e0b)" style="fill: #864e7e; fill-opacity: 0.5; stroke: #ffffff; stroke-opacity: 0.5; stroke-width: 0.66336"/>
    <path d="M 617.952659 195.906219 
C 619.891564 195.906219 621.751318 195.135884 623.122332 193.764871 
C 624.493345 192.393857 625.26368 190.534103 625.26368 188.595197 
C 625.26368 186.656292 624.493345 184.796538 623.122332 183.425524 
C 621.751318 182.054511 619.891564 181.284176 617.952659 181.284176 
C 616.013753 181.284176 614.153999 182.054511 612.782986 183.425524 
C 611.411972 184.796538 610.641637 186.656292 610.641637 188.595197 
C 610.641637 190.534103 611.411972 192.393857 612.782986 193.764871 
C 614.153999 195.135884 616.013753 195.906219 617.952659 195.906219 
z
" clip-path="url(#pa71f9a0e0b)" style="fill: #c2809b; fill-opacity: 0.5; stroke: #ffffff; stroke-opacity: 0.5; stroke-width: 0.66336"/>
    <path d="M 662.458662 192.846081 
C 664.384459 192.846081 666.231639 192.080954 667.593383 190.71921 
C 668.955127 189.357466 669.720254 187.510285 669.720254 185.584489 
C 669.720254 183.658692 668.955127 181.811512 667.593383 180.449768 
C 666.231639 179.088024 664.384459 178.322897 662.458662 178.322897 
C 660.532865 178.322897 658.685685 179.088024 657.323941 180.449768 
C 655.962197 181.811512 655.19707 183.658692 655.19707 185.584489 
C 655.19707 187.510285 655.962197 189.357466 657.323941 190.71921 
C 658.685685 192.080954 660.532865 192.846081 662.458662 192.846081 
z
" clip-path="url(#pa71f9a0e0b)" style="fill: #864e7e; fill-opacity: 0.5; stroke: #ffffff; stroke-opacity: 0.5; stroke-width: 0.66336"/>
    <path d="M 702.657633 276.005746 
C 704.208034 276.005746 705.695144 275.389765 706.791443 274.293466 
C 707.887743 273.197167 708.503724 271.710057 708.503724 270.159656 
C 708.503724 268.609254 707.887743 267.122145 706.791443 266.025845 
C 705.695144 264.929546 704.208034 264.313565 702.657633 264.313565 
C 701.107232 264.313565 699.620122 264.929546 698.523823 266.025845 
C 697.427523 267.122145 696.811542 268.609254 696.811542 270.159656 
C 696.811542 271.710057 697.427523 273.197167 698.523823 274.293466 
C 699.620122 275.389765 701.107232 276.005746 702.657633 276.005746 
z
" clip-path="url(#pa71f9a0e0b)" style="fill: #8e5383; fill-opacity: 0.5; stroke: #ffffff; stroke-opacity: 0.5; stroke-width: 0.66336"/>
    <path d="M 747.163636 337.721274 
C 748.245174 337.721274 749.282559 337.291575 750.047322 336.526813 
C 750.812084 335.76205 751.241783 334.724665 751.241783 333.643127 
C 751.241783 332.56159 750.812084 331.524204 750.047322 330.759442 
C 749.282559 329.99468 748.245174 329.56498 747.163636 329.56498 
C 746.082099 329.56498 745.044713 329.99468 744.279951 330.759442 
C 743.515189 331.524204 743.085489 332.56159 743.085489 333.643127 
C 743.085489 334.724665 743.515189 335.76205 744.279951 336.526813 
C 745.044713 337.291575 746.082099 337.721274 747.163636 337.721274 
z
" clip-path="url(#pa71f9a0e0b)" style="fill: #8a5081; fill-opacity: 0.5; stroke: #ffffff; stroke-opacity: 0.5; stroke-width: 0.66336"/>
   </g>
   <g id="line2d_1"/>
   <g id="line2d_2"/>
   <g id="line2d_3"/>
   <g id="line2d_4"/>
   <g id="line2d_5"/>
   <g id="line2d_6"/>
   <g id="line2d_7"/>
   <g id="line2d_8"/>
   <g id="line2d_9"/>
   <g id="line2d_10"/>
   <g id="line2d_11"/>
   <g id="patch_3">
    <path d="M 108 384.48 
L 108 51.84 
" style="fill: none; stroke: #ffffff; stroke-linejoin: miter; stroke-linecap: square"/>
   </g>
   <g id="patch_4">
    <path d="M 777.6 384.48 
L 777.6 51.84 
" style="fill: none; stroke: #ffffff; stroke-linejoin: miter; stroke-linecap: square"/>
   </g>
   <g id="patch_5">
    <path d="M 108 384.48 
L 777.6 384.48 
" style="fill: none; stroke: #ffffff; stroke-linejoin: miter; stroke-linecap: square"/>
   </g>
   <g id="patch_6">
    <path d="M 108 51.84 
L 777.6 51.84 
" style="fill: none; stroke: #ffffff; stroke-linejoin: miter; stroke-linecap: square"/>
   </g>
   <g id="legend_1">
    <g id="patch_7">
     <path d="M 705.620125 195.806625 
L 771.44 195.806625 
Q 773.2 195.806625 773.2 194.046625 
L 773.2 58 
Q 773.2 56.24 771.44 56.24 
L 705.620125 56.24 
Q 703.860125 56.24 703.860125 58 
L 703.860125 194.046625 
Q 703.860125 195.806625 705.620125 195.806625 
z
" style="fill: #eaeaf2; opacity: 0.8; stroke: #cccccc; stroke-width: 0.8; stroke-linejoin: miter"/>
    </g>
    <g id="line2d_12"/>
    <g id="text_17">
     <!-- perc_disc -->
     <g style="fill: #262626" transform="translate(732.020125 66.058875) scale(0.088 -0.088)">
      <defs>
       <path id="ArialMT-70" d="M 422 -1272 
L 422 3319 
L 934 3319 
L 934 2888 
Q 1116 3141 1344 3267 
Q 1572 3394 1897 3394 
Q 2322 3394 2647 3175 
Q 2972 2956 3137 2557 
Q 3303 2159 3303 1684 
Q 3303 1175 3120 767 
Q 2938 359 2589 142 
Q 2241 -75 1856 -75 
Q 1575 -75 1351 44 
Q 1128 163 984 344 
L 984 -1272 
L 422 -1272 
z
M 931 1641 
Q 931 1000 1190 694 
Q 1450 388 1819 388 
Q 2194 388 2461 705 
Q 2728 1022 2728 1688 
Q 2728 2322 2467 2637 
Q 2206 2953 1844 2953 
Q 1484 2953 1207 2617 
Q 931 2281 931 1641 
z
" transform="scale(0.015625)"/>
       <path id="ArialMT-63" d="M 2588 1216 
L 3141 1144 
Q 3050 572 2676 248 
Q 2303 -75 1759 -75 
Q 1078 -75 664 370 
Q 250 816 250 1647 
Q 250 2184 428 2587 
Q 606 2991 970 3192 
Q 1334 3394 1763 3394 
Q 2303 3394 2647 3120 
Q 2991 2847 3088 2344 
L 2541 2259 
Q 2463 2594 2264 2762 
Q 2066 2931 1784 2931 
Q 1359 2931 1093 2626 
Q 828 2322 828 1663 
Q 828 994 1084 691 
Q 1341 388 1753 388 
Q 2084 388 2306 591 
Q 2528 794 2588 1216 
z
" transform="scale(0.015625)"/>
       <path id="ArialMT-5f" d="M -97 -1272 
L -97 -866 
L 3631 -866 
L 3631 -1272 
L -97 -1272 
z
" transform="scale(0.015625)"/>
       <path id="ArialMT-69" d="M 425 3934 
L 425 4581 
L 988 4581 
L 988 3934 
L 425 3934 
z
M 425 0 
L 425 3319 
L 988 3319 
L 988 0 
L 425 0 
z
" transform="scale(0.015625)"/>
       <path id="ArialMT-73" d="M 197 991 
L 753 1078 
Q 800 744 1014 566 
Q 1228 388 1613 388 
Q 2000 388 2187 545 
Q 2375 703 2375 916 
Q 2375 1106 2209 1216 
Q 2094 1291 1634 1406 
Q 1016 1563 777 1677 
Q 538 1791 414 1992 
Q 291 2194 291 2438 
Q 291 2659 392 2848 
Q 494 3038 669 3163 
Q 800 3259 1026 3326 
Q 1253 3394 1513 3394 
Q 1903 3394 2198 3281 
Q 2494 3169 2634 2976 
Q 2775 2784 2828 2463 
L 2278 2388 
Q 2241 2644 2061 2787 
Q 1881 2931 1553 2931 
Q 1166 2931 1000 2803 
Q 834 2675 834 2503 
Q 834 2394 903 2306 
Q 972 2216 1119 2156 
Q 1203 2125 1616 2013 
Q 2213 1853 2448 1751 
Q 2684 1650 2818 1456 
Q 2953 1263 2953 975 
Q 2953 694 2789 445 
Q 2625 197 2315 61 
Q 2006 -75 1616 -75 
Q 969 -75 630 194 
Q 291 463 197 991 
z
" transform="scale(0.015625)"/>
      </defs>
      <use xlink:href="#ArialMT-70"/>
      <use xlink:href="#ArialMT-65" transform="translate(55.615234 0)"/>
      <use xlink:href="#ArialMT-72" transform="translate(111.230469 0)"/>
      <use xlink:href="#ArialMT-63" transform="translate(144.53125 0)"/>
      <use xlink:href="#ArialMT-5f" transform="translate(194.53125 0)"/>
      <use xlink:href="#ArialMT-64" transform="translate(250.146484 0)"/>
      <use xlink:href="#ArialMT-69" transform="translate(305.761719 0)"/>
      <use xlink:href="#ArialMT-73" transform="translate(327.978516 0)"/>
      <use xlink:href="#ArialMT-63" transform="translate(377.978516 0)"/>
     </g>
    </g>
    <g id="line2d_13">
     <defs>
      <path id="maf7888a646" d="M 0 1.92 
C 0.50919 1.92 0.997593 1.717697 1.357645 1.357645 
C 1.717697 0.997593 1.92 0.50919 1.92 0 
C 1.92 -0.50919 1.717697 -0.997593 1.357645 -1.357645 
C 0.997593 -1.717697 0.50919 -1.92 0 -1.92 
C -0.50919 -1.92 -0.997593 -1.717697 -1.357645 -1.357645 
C -1.717697 -0.997593 -1.92 -0.50919 -1.92 0 
C -1.92 0.50919 -1.717697 0.997593 -1.357645 1.357645 
C -0.997593 1.717697 -0.50919 1.92 0 1.92 
z
" style="stroke: #ffffff; stroke-opacity: 0.5; stroke-width: 0.66336"/>
     </defs>
     <g>
      <use xlink:href="#maf7888a646" x="716.180125" y="75.42675" style="fill: #eac8c4; fill-opacity: 0.5; stroke: #ffffff; stroke-opacity: 0.5; stroke-width: 0.66336"/>
     </g>
    </g>
    <g id="text_18">
     <!-- 16 -->
     <g style="fill: #262626" transform="translate(732.020125 78.50675) scale(0.088 -0.088)">
      <use xlink:href="#ArialMT-31"/>
      <use xlink:href="#ArialMT-36" transform="translate(55.615234 0)"/>
     </g>
    </g>
    <g id="line2d_14">
     <defs>
      <path id="me3a001dbc8" d="M 0 1.92 
C 0.50919 1.92 0.997593 1.717697 1.357645 1.357645 
C 1.717697 0.997593 1.92 0.50919 1.92 0 
C 1.92 -0.50919 1.717697 -0.997593 1.357645 -1.357645 
C 0.997593 -1.717697 0.50919 -1.92 0 -1.92 
C -0.50919 -1.92 -0.997593 -1.717697 -1.357645 -1.357645 
C -1.717697 -0.997593 -1.92 -0.50919 -1.92 0 
C -1.92 0.50919 -1.717697 0.997593 -1.357645 1.357645 
C -0.997593 1.717697 -0.50919 1.92 0 1.92 
z
" style="stroke: #ffffff; stroke-opacity: 0.5; stroke-width: 0.66336"/>
     </defs>
     <g>
      <use xlink:href="#me3a001dbc8" x="716.180125" y="87.874625" style="fill: #d397a6; fill-opacity: 0.5; stroke: #ffffff; stroke-opacity: 0.5; stroke-width: 0.66336"/>
     </g>
    </g>
    <g id="text_19">
     <!-- 18 -->
     <g style="fill: #262626" transform="translate(732.020125 90.954625) scale(0.088 -0.088)">
      <use xlink:href="#ArialMT-31"/>
      <use xlink:href="#ArialMT-38" transform="translate(55.615234 0)"/>
     </g>
    </g>
    <g id="line2d_15">
     <defs>
      <path id="m4af6331e3f" d="M 0 1.92 
C 0.50919 1.92 0.997593 1.717697 1.357645 1.357645 
C 1.717697 0.997593 1.92 0.50919 1.92 0 
C 1.92 -0.50919 1.717697 -0.997593 1.357645 -1.357645 
C 0.997593 -1.717697 0.50919 -1.92 0 -1.92 
C -0.50919 -1.92 -0.997593 -1.717697 -1.357645 -1.357645 
C -1.717697 -0.997593 -1.92 -0.50919 -1.92 0 
C -1.92 0.50919 -1.717697 0.997593 -1.357645 1.357645 
C -0.997593 1.717697 -0.50919 1.92 0 1.92 
z
" style="stroke: #ffffff; stroke-opacity: 0.5; stroke-width: 0.66336"/>
     </defs>
     <g>
      <use xlink:href="#m4af6331e3f" x="716.180125" y="100.3225" style="fill: #ae6b91; fill-opacity: 0.5; stroke: #ffffff; stroke-opacity: 0.5; stroke-width: 0.66336"/>
     </g>
    </g>
    <g id="text_20">
     <!-- 20 -->
     <g style="fill: #262626" transform="translate(732.020125 103.4025) scale(0.088 -0.088)">
      <use xlink:href="#ArialMT-32"/>
      <use xlink:href="#ArialMT-30" transform="translate(55.615234 0)"/>
     </g>
    </g>
    <g id="line2d_16">
     <defs>
      <path id="m3bb152dd37" d="M 0 1.92 
C 0.50919 1.92 0.997593 1.717697 1.357645 1.357645 
C 1.717697 0.997593 1.92 0.50919 1.92 0 
C 1.92 -0.50919 1.717697 -0.997593 1.357645 -1.357645 
C 0.997593 -1.717697 0.50919 -1.92 0 -1.92 
C -0.50919 -1.92 -0.997593 -1.717697 -1.357645 -1.357645 
C -1.717697 -0.997593 -1.92 -0.50919 -1.92 0 
C -1.92 0.50919 -1.717697 0.997593 -1.357645 1.357645 
C -0.997593 1.717697 -0.50919 1.92 0 1.92 
z
" style="stroke: #ffffff; stroke-opacity: 0.5; stroke-width: 0.66336"/>
     </defs>
     <g>
      <use xlink:href="#m3bb152dd37" x="716.180125" y="112.770375" style="fill: #794678; fill-opacity: 0.5; stroke: #ffffff; stroke-opacity: 0.5; stroke-width: 0.66336"/>
     </g>
    </g>
    <g id="text_21">
     <!-- 22 -->
     <g style="fill: #262626" transform="translate(732.020125 115.850375) scale(0.088 -0.088)">
      <use xlink:href="#ArialMT-32"/>
      <use xlink:href="#ArialMT-32" transform="translate(55.615234 0)"/>
     </g>
    </g>
    <g id="line2d_17">
     <defs>
      <path id="m7698145c49" d="M 0 1.92 
C 0.50919 1.92 0.997593 1.717697 1.357645 1.357645 
C 1.717697 0.997593 1.92 0.50919 1.92 0 
C 1.92 -0.50919 1.717697 -0.997593 1.357645 -1.357645 
C 0.997593 -1.717697 0.50919 -1.92 0 -1.92 
C -0.50919 -1.92 -0.997593 -1.717697 -1.357645 -1.357645 
C -1.717697 -0.997593 -1.92 -0.50919 -1.92 0 
C -1.92 0.50919 -1.717697 0.997593 -1.357645 1.357645 
C -0.997593 1.717697 -0.50919 1.92 0 1.92 
z
" style="stroke: #ffffff; stroke-opacity: 0.5; stroke-width: 0.66336"/>
     </defs>
     <g>
      <use xlink:href="#m7698145c49" x="716.180125" y="125.21825" style="fill: #402850; fill-opacity: 0.5; stroke: #ffffff; stroke-opacity: 0.5; stroke-width: 0.66336"/>
     </g>
    </g>
    <g id="text_22">
     <!-- 24 -->
     <g style="fill: #262626" transform="translate(732.020125 128.29825) scale(0.088 -0.088)">
      <defs>
       <path id="ArialMT-34" d="M 2069 0 
L 2069 1097 
L 81 1097 
L 81 1613 
L 2172 4581 
L 2631 4581 
L 2631 1613 
L 3250 1613 
L 3250 1097 
L 2631 1097 
L 2631 0 
L 2069 0 
z
M 2069 1613 
L 2069 3678 
L 634 1613 
L 2069 1613 
z
" transform="scale(0.015625)"/>
      </defs>
      <use xlink:href="#ArialMT-32"/>
      <use xlink:href="#ArialMT-34" transform="translate(55.615234 0)"/>
     </g>
    </g>
    <g id="line2d_18"/>
    <g id="text_23">
     <!-- items -->
     <g style="fill: #262626" transform="translate(732.020125 140.746125) scale(0.088 -0.088)">
      <defs>
       <path id="ArialMT-6d" d="M 422 0 
L 422 3319 
L 925 3319 
L 925 2853 
Q 1081 3097 1340 3245 
Q 1600 3394 1931 3394 
Q 2300 3394 2536 3241 
Q 2772 3088 2869 2813 
Q 3263 3394 3894 3394 
Q 4388 3394 4653 3120 
Q 4919 2847 4919 2278 
L 4919 0 
L 4359 0 
L 4359 2091 
Q 4359 2428 4304 2576 
Q 4250 2725 4106 2815 
Q 3963 2906 3769 2906 
Q 3419 2906 3187 2673 
Q 2956 2441 2956 1928 
L 2956 0 
L 2394 0 
L 2394 2156 
Q 2394 2531 2256 2718 
Q 2119 2906 1806 2906 
Q 1569 2906 1367 2781 
Q 1166 2656 1075 2415 
Q 984 2175 984 1722 
L 984 0 
L 422 0 
z
" transform="scale(0.015625)"/>
      </defs>
      <use xlink:href="#ArialMT-69"/>
      <use xlink:href="#ArialMT-74" transform="translate(22.216797 0)"/>
      <use xlink:href="#ArialMT-65" transform="translate(50 0)"/>
      <use xlink:href="#ArialMT-6d" transform="translate(105.615234 0)"/>
      <use xlink:href="#ArialMT-73" transform="translate(188.916016 0)"/>
     </g>
    </g>
    <g id="line2d_19">
     <defs>
      <path id="m22417feed7" d="M 0 3.404452 
C 0.902871 3.404452 1.768885 3.045738 2.407311 2.407311 
C 3.045738 1.768885 3.404452 0.902871 3.404452 0 
C 3.404452 -0.902871 3.045738 -1.768885 2.407311 -2.407311 
C 1.768885 -3.045738 0.902871 -3.404452 0 -3.404452 
C -0.902871 -3.404452 -1.768885 -3.045738 -2.407311 -2.407311 
C -3.045738 -1.768885 -3.404452 -0.902871 -3.404452 0 
C -3.404452 0.902871 -3.045738 1.768885 -2.407311 2.407311 
C -1.768885 3.045738 -0.902871 3.404452 0 3.404452 
z
" style="stroke: #ffffff; stroke-opacity: 0.5; stroke-width: 0.66336"/>
     </defs>
     <g>
      <use xlink:href="#m22417feed7" x="716.180125" y="150.114" style="fill: #333333; fill-opacity: 0.5; stroke: #ffffff; stroke-opacity: 0.5; stroke-width: 0.66336"/>
     </g>
    </g>
    <g id="text_24">
     <!-- 2000 -->
     <g style="fill: #262626" transform="translate(732.020125 153.194) scale(0.088 -0.088)">
      <use xlink:href="#ArialMT-32"/>
      <use xlink:href="#ArialMT-30" transform="translate(55.615234 0)"/>
      <use xlink:href="#ArialMT-30" transform="translate(111.230469 0)"/>
      <use xlink:href="#ArialMT-30" transform="translate(166.845703 0)"/>
     </g>
    </g>
    <g id="line2d_20">
     <defs>
      <path id="m4d9ea9c09a" d="M 0 4.614723 
C 1.223839 4.614723 2.397717 4.128487 3.263102 3.263102 
C 4.128487 2.397717 4.614723 1.223839 4.614723 0 
C 4.614723 -1.223839 4.128487 -2.397717 3.263102 -3.263102 
C 2.397717 -4.128487 1.223839 -4.614723 0 -4.614723 
C -1.223839 -4.614723 -2.397717 -4.128487 -3.263102 -3.263102 
C -4.128487 -2.397717 -4.614723 -1.223839 -4.614723 0 
C -4.614723 1.223839 -4.128487 2.397717 -3.263102 3.263102 
C -2.397717 4.128487 -1.223839 4.614723 0 4.614723 
z
" style="stroke: #ffffff; stroke-opacity: 0.5; stroke-width: 0.66336"/>
     </defs>
     <g>
      <use xlink:href="#m4d9ea9c09a" x="716.180125" y="162.561875" style="fill: #333333; fill-opacity: 0.5; stroke: #ffffff; stroke-opacity: 0.5; stroke-width: 0.66336"/>
     </g>
    </g>
    <g id="text_25">
     <!-- 4000 -->
     <g style="fill: #262626" transform="translate(732.020125 165.641875) scale(0.088 -0.088)">
      <use xlink:href="#ArialMT-34"/>
      <use xlink:href="#ArialMT-30" transform="translate(55.615234 0)"/>
      <use xlink:href="#ArialMT-30" transform="translate(111.230469 0)"/>
      <use xlink:href="#ArialMT-30" transform="translate(166.845703 0)"/>
     </g>
    </g>
    <g id="line2d_21">
     <defs>
      <path id="md65015b353" d="M 0 5.567858 
C 1.476613 5.567858 2.892947 4.981193 3.93707 3.93707 
C 4.981193 2.892947 5.567858 1.476613 5.567858 0 
C 5.567858 -1.476613 4.981193 -2.892947 3.93707 -3.93707 
C 2.892947 -4.981193 1.476613 -5.567858 0 -5.567858 
C -1.476613 -5.567858 -2.892947 -4.981193 -3.93707 -3.93707 
C -4.981193 -2.892947 -5.567858 -1.476613 -5.567858 0 
C -5.567858 1.476613 -4.981193 2.892947 -3.93707 3.93707 
C -2.892947 4.981193 -1.476613 5.567858 0 5.567858 
z
" style="stroke: #ffffff; stroke-opacity: 0.5; stroke-width: 0.66336"/>
     </defs>
     <g>
      <use xlink:href="#md65015b353" x="716.180125" y="175.00975" style="fill: #333333; fill-opacity: 0.5; stroke: #ffffff; stroke-opacity: 0.5; stroke-width: 0.66336"/>
     </g>
    </g>
    <g id="text_26">
     <!-- 6000 -->
     <g style="fill: #262626" transform="translate(732.020125 178.08975) scale(0.088 -0.088)">
      <use xlink:href="#ArialMT-36"/>
      <use xlink:href="#ArialMT-30" transform="translate(55.615234 0)"/>
      <use xlink:href="#ArialMT-30" transform="translate(111.230469 0)"/>
      <use xlink:href="#ArialMT-30" transform="translate(166.845703 0)"/>
     </g>
    </g>
    <g id="line2d_22">
     <defs>
      <path id="m5ff1903a1d" d="M 0 6.380158 
C 1.692038 6.380158 3.315002 5.707904 4.511453 4.511453 
C 5.707904 3.315002 6.380158 1.692038 6.380158 0 
C 6.380158 -1.692038 5.707904 -3.315002 4.511453 -4.511453 
C 3.315002 -5.707904 1.692038 -6.380158 0 -6.380158 
C -1.692038 -6.380158 -3.315002 -5.707904 -4.511453 -4.511453 
C -5.707904 -3.315002 -6.380158 -1.692038 -6.380158 0 
C -6.380158 1.692038 -5.707904 3.315002 -4.511453 4.511453 
C -3.315002 5.707904 -1.692038 6.380158 0 6.380158 
z
" style="stroke: #ffffff; stroke-opacity: 0.5; stroke-width: 0.66336"/>
     </defs>
     <g>
      <use xlink:href="#m5ff1903a1d" x="716.180125" y="187.457625" style="fill: #333333; fill-opacity: 0.5; stroke: #ffffff; stroke-opacity: 0.5; stroke-width: 0.66336"/>
     </g>
    </g>
    <g id="text_27">
     <!-- 8000 -->
     <g style="fill: #262626" transform="translate(732.020125 190.537625) scale(0.088 -0.088)">
      <use xlink:href="#ArialMT-38"/>
      <use xlink:href="#ArialMT-30" transform="translate(55.615234 0)"/>
      <use xlink:href="#ArialMT-30" transform="translate(111.230469 0)"/>
      <use xlink:href="#ArialMT-30" transform="translate(166.845703 0)"/>
     </g>
    </g>
   </g>
  </g>
 </g>
 <defs>
  <clipPath id="pa71f9a0e0b">
   <rect x="108" y="51.84" width="669.6" height="332.64"/>
  </clipPath>
 </defs>
</svg>
