<?xml version="1.0" encoding="utf-8" standalone="no"?>
<!DOCTYPE svg PUBLIC "-//W3C//DTD SVG 1.1//EN"
  "http://www.w3.org/Graphics/SVG/1.1/DTD/svg11.dtd">
<svg xmlns:xlink="http://www.w3.org/1999/xlink" width="462.69pt" height="360pt" viewBox="0 0 462.69 360" xmlns="http://www.w3.org/2000/svg" version="1.1">
 <metadata>
  <rdf:RDF xmlns:dc="http://purl.org/dc/elements/1.1/" xmlns:cc="http://creativecommons.org/ns#" xmlns:rdf="http://www.w3.org/1999/02/22-rdf-syntax-ns#">
   <cc:Work>
    <dc:type rdf:resource="http://purl.org/dc/dcmitype/StillImage"/>
    <dc:date>2026-05-19T14:52:15.029135</dc:date>
    <dc:format>image/svg+xml</dc:format>
    <dc:creator>
     <cc:Agent>
      <dc:title>Matplotlib v3.10.9, https://matplotlib.org/</dc:title>
     </cc:Agent>
    </dc:creator>
   </cc:Work>
  </rdf:RDF>
 </metadata>
 <defs>
  <style type="text/css">*{stroke-linejoin: round; stroke-linecap: butt}</style>
 </defs>
 <g id="figure_1">
  <g id="patch_1">
   <path d="M 0 360 
L 462.69 360 
L 462.69 0 
L 0 0 
z
" style="fill: #ffffff"/>
  </g>
  <g id="axes_1">
   <g id="patch_2">
    <path d="M 52.70625 312.66 
L 342.4131 312.66 
L 342.4131 16.92 
L 52.70625 16.92 
z
" style="fill: #eaeaf2"/>
   </g>
   <g id="matplotlib.axis_1">
    <g id="xtick_1">
     <g id="line2d_1">
      <path d="M 65.436285 312.66 
L 65.436285 16.92 
" clip-path="url(#pf1491cff09)" style="fill: none; stroke: #ffffff; stroke-linecap: round"/>
     </g>
     <g id="text_1">
      <!-- 0 -->
      <g style="fill: #262626" transform="translate(62.377769 330.033594) scale(0.11 -0.11)">
       <defs>
        <path id="ArialMT-30" d="M 266 2259 
Q 266 3072 433 3567 
Q 600 4063 929 4331 
Q 1259 4600 1759 4600 
Q 2128 4600 2406 4451 
Q 2684 4303 2865 4023 
Q 3047 3744 3150 3342 
Q 3253 2941 3253 2259 
Q 3253 1453 3087 958 
Q 2922 463 2592 192 
Q 2263 -78 1759 -78 
Q 1097 -78 719 397 
Q 266 969 266 2259 
z
M 844 2259 
Q 844 1131 1108 757 
Q 1372 384 1759 384 
Q 2147 384 2411 759 
Q 2675 1134 2675 2259 
Q 2675 3391 2411 3762 
Q 2147 4134 1753 4134 
Q 1366 4134 1134 3806 
Q 844 3388 844 2259 
z
" transform="scale(0.015625)"/>
       </defs>
       <use xlink:href="#ArialMT-30"/>
      </g>
     </g>
    </g>
    <g id="xtick_2">
     <g id="line2d_2">
      <path d="M 102.096696 312.66 
L 102.096696 16.92 
" clip-path="url(#pf1491cff09)" style="fill: none; stroke: #ffffff; stroke-linecap: round"/>
     </g>
     <g id="text_2">
      <!-- 250 -->
      <g style="fill: #262626" transform="translate(92.921149 330.033594) scale(0.11 -0.11)">
       <defs>
        <path id="ArialMT-32" d="M 3222 541 
L 3222 0 
L 194 0 
Q 188 203 259 391 
Q 375 700 629 1000 
Q 884 1300 1366 1694 
Q 2113 2306 2375 2664 
Q 2638 3022 2638 3341 
Q 2638 3675 2398 3904 
Q 2159 4134 1775 4134 
Q 1369 4134 1125 3890 
Q 881 3647 878 3216 
L 300 3275 
Q 359 3922 746 4261 
Q 1134 4600 1788 4600 
Q 2447 4600 2831 4234 
Q 3216 3869 3216 3328 
Q 3216 3053 3103 2787 
Q 2991 2522 2730 2228 
Q 2469 1934 1863 1422 
Q 1356 997 1212 845 
Q 1069 694 975 541 
L 3222 541 
z
" transform="scale(0.015625)"/>
        <path id="ArialMT-35" d="M 266 1200 
L 856 1250 
Q 922 819 1161 601 
Q 1400 384 1738 384 
Q 2144 384 2425 690 
Q 2706 997 2706 1503 
Q 2706 1984 2436 2262 
Q 2166 2541 1728 2541 
Q 1456 2541 1237 2417 
Q 1019 2294 894 2097 
L 366 2166 
L 809 4519 
L 3088 4519 
L 3088 3981 
L 1259 3981 
L 1013 2750 
Q 1425 3038 1878 3038 
Q 2478 3038 2890 2622 
Q 3303 2206 3303 1553 
Q 3303 931 2941 478 
Q 2500 -78 1738 -78 
Q 1113 -78 717 272 
Q 322 622 266 1200 
z
" transform="scale(0.015625)"/>
       </defs>
       <use xlink:href="#ArialMT-32"/>
       <use xlink:href="#ArialMT-35" transform="translate(55.615234 0)"/>
       <use xlink:href="#ArialMT-30" transform="translate(111.230469 0)"/>
      </g>
     </g>
    </g>
    <g id="xtick_3">
     <g id="line2d_3">
      <path d="M 138.757108 312.66 
L 138.757108 16.92 
" clip-path="url(#pf1491cff09)" style="fill: none; stroke: #ffffff; stroke-linecap: round"/>
     </g>
     <g id="text_3">
      <!-- 500 -->
      <g style="fill: #262626" transform="translate(129.581561 330.033594) scale(0.11 -0.11)">
       <use xlink:href="#ArialMT-35"/>
       <use xlink:href="#ArialMT-30" transform="translate(55.615234 0)"/>
       <use xlink:href="#ArialMT-30" transform="translate(111.230469 0)"/>
      </g>
     </g>
    </g>
    <g id="xtick_4">
     <g id="line2d_4">
      <path d="M 175.41752 312.66 
L 175.41752 16.92 
" clip-path="url(#pf1491cff09)" style="fill: none; stroke: #ffffff; stroke-linecap: round"/>
     </g>
     <g id="text_4">
      <!-- 750 -->
      <g style="fill: #262626" transform="translate(166.241973 330.033594) scale(0.11 -0.11)">
       <defs>
        <path id="ArialMT-37" d="M 303 3981 
L 303 4522 
L 3269 4522 
L 3269 4084 
Q 2831 3619 2401 2847 
Q 1972 2075 1738 1259 
Q 1569 684 1522 0 
L 944 0 
Q 953 541 1156 1306 
Q 1359 2072 1739 2783 
Q 2119 3494 2547 3981 
L 303 3981 
z
" transform="scale(0.015625)"/>
       </defs>
       <use xlink:href="#ArialMT-37"/>
       <use xlink:href="#ArialMT-35" transform="translate(55.615234 0)"/>
       <use xlink:href="#ArialMT-30" transform="translate(111.230469 0)"/>
      </g>
     </g>
    </g>
    <g id="xtick_5">
     <g id="line2d_5">
      <path d="M 212.077931 312.66 
L 212.077931 16.92 
" clip-path="url(#pf1491cff09)" style="fill: none; stroke: #ffffff; stroke-linecap: round"/>
     </g>
     <g id="text_5">
      <!-- 1000 -->
      <g style="fill: #262626" transform="translate(199.843869 330.033594) scale(0.11 -0.11)">
       <defs>
        <path id="ArialMT-31" d="M 2384 0 
L 1822 0 
L 1822 3584 
Q 1619 3391 1289 3197 
Q 959 3003 697 2906 
L 697 3450 
Q 1169 3672 1522 3987 
Q 1875 4303 2022 4600 
L 2384 4600 
L 2384 0 
z
" transform="scale(0.015625)"/>
       </defs>
       <use xlink:href="#ArialMT-31"/>
       <use xlink:href="#ArialMT-30" transform="translate(55.615234 0)"/>
       <use xlink:href="#ArialMT-30" transform="translate(111.230469 0)"/>
       <use xlink:href="#ArialMT-30" transform="translate(166.845703 0)"/>
      </g>
     </g>
    </g>
    <g id="xtick_6">
     <g id="line2d_6">
      <path d="M 248.738343 312.66 
L 248.738343 16.92 
" clip-path="url(#pf1491cff09)" style="fill: none; stroke: #ffffff; stroke-linecap: round"/>
     </g>
     <g id="text_6">
      <!-- 1250 -->
      <g style="fill: #262626" transform="translate(236.50428 330.033594) scale(0.11 -0.11)">
       <use xlink:href="#ArialMT-31"/>
       <use xlink:href="#ArialMT-32" transform="translate(55.615234 0)"/>
       <use xlink:href="#ArialMT-35" transform="translate(111.230469 0)"/>
       <use xlink:href="#ArialMT-30" transform="translate(166.845703 0)"/>
      </g>
     </g>
    </g>
    <g id="xtick_7">
     <g id="line2d_7">
      <path d="M 285.398754 312.66 
L 285.398754 16.92 
" clip-path="url(#pf1491cff09)" style="fill: none; stroke: #ffffff; stroke-linecap: round"/>
     </g>
     <g id="text_7">
      <!-- 1500 -->
      <g style="fill: #262626" transform="translate(273.164692 330.033594) scale(0.11 -0.11)">
       <use xlink:href="#ArialMT-31"/>
       <use xlink:href="#ArialMT-35" transform="translate(55.615234 0)"/>
       <use xlink:href="#ArialMT-30" transform="translate(111.230469 0)"/>
       <use xlink:href="#ArialMT-30" transform="translate(166.845703 0)"/>
      </g>
     </g>
    </g>
    <g id="xtick_8">
     <g id="line2d_8">
      <path d="M 322.059166 312.66 
L 322.059166 16.92 
" clip-path="url(#pf1491cff09)" style="fill: none; stroke: #ffffff; stroke-linecap: round"/>
     </g>
     <g id="text_8">
      <!-- 1750 -->
      <g style="fill: #262626" transform="translate(309.825104 330.033594) scale(0.11 -0.11)">
       <use xlink:href="#ArialMT-31"/>
       <use xlink:href="#ArialMT-37" transform="translate(55.615234 0)"/>
       <use xlink:href="#ArialMT-35" transform="translate(111.230469 0)"/>
       <use xlink:href="#ArialMT-30" transform="translate(166.845703 0)"/>
      </g>
     </g>
    </g>
    <g id="text_9">
     <!-- price -->
     <g style="fill: #262626" transform="translate(184.555612 344.809219) scale(0.12 -0.12)">
      <defs>
       <path id="ArialMT-70" d="M 422 -1272 
L 422 3319 
L 934 3319 
L 934 2888 
Q 1116 3141 1344 3267 
Q 1572 3394 1897 3394 
Q 2322 3394 2647 3175 
Q 2972 2956 3137 2557 
Q 3303 2159 3303 1684 
Q 3303 1175 3120 767 
Q 2938 359 2589 142 
Q 2241 -75 1856 -75 
Q 1575 -75 1351 44 
Q 1128 163 984 344 
L 984 -1272 
L 422 -1272 
z
M 931 1641 
Q 931 1000 1190 694 
Q 1450 388 1819 388 
Q 2194 388 2461 705 
Q 2728 1022 2728 1688 
Q 2728 2322 2467 2637 
Q 2206 2953 1844 2953 
Q 1484 2953 1207 2617 
Q 931 2281 931 1641 
z
" transform="scale(0.015625)"/>
       <path id="ArialMT-72" d="M 416 0 
L 416 3319 
L 922 3319 
L 922 2816 
Q 1116 3169 1280 3281 
Q 1444 3394 1641 3394 
Q 1925 3394 2219 3213 
L 2025 2691 
Q 1819 2813 1613 2813 
Q 1428 2813 1281 2702 
Q 1134 2591 1072 2394 
Q 978 2094 978 1738 
L 978 0 
L 416 0 
z
" transform="scale(0.015625)"/>
       <path id="ArialMT-69" d="M 425 3934 
L 425 4581 
L 988 4581 
L 988 3934 
L 425 3934 
z
M 425 0 
L 425 3319 
L 988 3319 
L 988 0 
L 425 0 
z
" transform="scale(0.015625)"/>
       <path id="ArialMT-63" d="M 2588 1216 
L 3141 1144 
Q 3050 572 2676 248 
Q 2303 -75 1759 -75 
Q 1078 -75 664 370 
Q 250 816 250 1647 
Q 250 2184 428 2587 
Q 606 2991 970 3192 
Q 1334 3394 1763 3394 
Q 2303 3394 2647 3120 
Q 2991 2847 3088 2344 
L 2541 2259 
Q 2463 2594 2264 2762 
Q 2066 2931 1784 2931 
Q 1359 2931 1093 2626 
Q 828 2322 828 1663 
Q 828 994 1084 691 
Q 1341 388 1753 388 
Q 2084 388 2306 591 
Q 2528 794 2588 1216 
z
" transform="scale(0.015625)"/>
       <path id="ArialMT-65" d="M 2694 1069 
L 3275 997 
Q 3138 488 2766 206 
Q 2394 -75 1816 -75 
Q 1088 -75 661 373 
Q 234 822 234 1631 
Q 234 2469 665 2931 
Q 1097 3394 1784 3394 
Q 2450 3394 2872 2941 
Q 3294 2488 3294 1666 
Q 3294 1616 3291 1516 
L 816 1516 
Q 847 969 1125 678 
Q 1403 388 1819 388 
Q 2128 388 2347 550 
Q 2566 713 2694 1069 
z
M 847 1978 
L 2700 1978 
Q 2663 2397 2488 2606 
Q 2219 2931 1791 2931 
Q 1403 2931 1139 2672 
Q 875 2413 847 1978 
z
" transform="scale(0.015625)"/>
      </defs>
      <use xlink:href="#ArialMT-70"/>
      <use xlink:href="#ArialMT-72" transform="translate(55.615234 0)"/>
      <use xlink:href="#ArialMT-69" transform="translate(88.916016 0)"/>
      <use xlink:href="#ArialMT-63" transform="translate(111.132812 0)"/>
      <use xlink:href="#ArialMT-65" transform="translate(161.132812 0)"/>
     </g>
    </g>
   </g>
   <g id="matplotlib.axis_2">
    <g id="ytick_1">
     <g id="line2d_9">
      <path d="M 52.70625 312.66 
L 342.4131 312.66 
" clip-path="url(#pf1491cff09)" style="fill: none; stroke: #ffffff; stroke-linecap: round"/>
     </g>
     <g id="text_10">
      <!-- 0.0 -->
      <g style="fill: #262626" transform="translate(27.91625 316.596797) scale(0.11 -0.11)">
       <defs>
        <path id="ArialMT-2e" d="M 581 0 
L 581 641 
L 1222 641 
L 1222 0 
L 581 0 
z
" transform="scale(0.015625)"/>
       </defs>
       <use xlink:href="#ArialMT-30"/>
       <use xlink:href="#ArialMT-2e" transform="translate(55.615234 0)"/>
       <use xlink:href="#ArialMT-30" transform="translate(83.398438 0)"/>
      </g>
     </g>
    </g>
    <g id="ytick_2">
     <g id="line2d_10">
      <path d="M 52.70625 253.512 
L 342.4131 253.512 
" clip-path="url(#pf1491cff09)" style="fill: none; stroke: #ffffff; stroke-linecap: round"/>
     </g>
     <g id="text_11">
      <!-- 0.2 -->
      <g style="fill: #262626" transform="translate(27.91625 257.448797) scale(0.11 -0.11)">
       <use xlink:href="#ArialMT-30"/>
       <use xlink:href="#ArialMT-2e" transform="translate(55.615234 0)"/>
       <use xlink:href="#ArialMT-32" transform="translate(83.398438 0)"/>
      </g>
     </g>
    </g>
    <g id="ytick_3">
     <g id="line2d_11">
      <path d="M 52.70625 194.364 
L 342.4131 194.364 
" clip-path="url(#pf1491cff09)" style="fill: none; stroke: #ffffff; stroke-linecap: round"/>
     </g>
     <g id="text_12">
      <!-- 0.4 -->
      <g style="fill: #262626" transform="translate(27.91625 198.300797) scale(0.11 -0.11)">
       <defs>
        <path id="ArialMT-34" d="M 2069 0 
L 2069 1097 
L 81 1097 
L 81 1613 
L 2172 4581 
L 2631 4581 
L 2631 1613 
L 3250 1613 
L 3250 1097 
L 2631 1097 
L 2631 0 
L 2069 0 
z
M 2069 1613 
L 2069 3678 
L 634 1613 
L 2069 1613 
z
" transform="scale(0.015625)"/>
       </defs>
       <use xlink:href="#ArialMT-30"/>
       <use xlink:href="#ArialMT-2e" transform="translate(55.615234 0)"/>
       <use xlink:href="#ArialMT-34" transform="translate(83.398438 0)"/>
      </g>
     </g>
    </g>
    <g id="ytick_4">
     <g id="line2d_12">
      <path d="M 52.70625 135.216 
L 342.4131 135.216 
" clip-path="url(#pf1491cff09)" style="fill: none; stroke: #ffffff; stroke-linecap: round"/>
     </g>
     <g id="text_13">
      <!-- 0.6 -->
      <g style="fill: #262626" transform="translate(27.91625 139.152797) scale(0.11 -0.11)">
       <defs>
        <path id="ArialMT-36" d="M 3184 3459 
L 2625 3416 
Q 2550 3747 2413 3897 
Q 2184 4138 1850 4138 
Q 1581 4138 1378 3988 
Q 1113 3794 959 3422 
Q 806 3050 800 2363 
Q 1003 2672 1297 2822 
Q 1591 2972 1913 2972 
Q 2475 2972 2870 2558 
Q 3266 2144 3266 1488 
Q 3266 1056 3080 686 
Q 2894 316 2569 119 
Q 2244 -78 1831 -78 
Q 1128 -78 684 439 
Q 241 956 241 2144 
Q 241 3472 731 4075 
Q 1159 4600 1884 4600 
Q 2425 4600 2770 4297 
Q 3116 3994 3184 3459 
z
M 888 1484 
Q 888 1194 1011 928 
Q 1134 663 1356 523 
Q 1578 384 1822 384 
Q 2178 384 2434 671 
Q 2691 959 2691 1453 
Q 2691 1928 2437 2201 
Q 2184 2475 1800 2475 
Q 1419 2475 1153 2201 
Q 888 1928 888 1484 
z
" transform="scale(0.015625)"/>
       </defs>
       <use xlink:href="#ArialMT-30"/>
       <use xlink:href="#ArialMT-2e" transform="translate(55.615234 0)"/>
       <use xlink:href="#ArialMT-36" transform="translate(83.398438 0)"/>
      </g>
     </g>
    </g>
    <g id="ytick_5">
     <g id="line2d_13">
      <path d="M 52.70625 76.068 
L 342.4131 76.068 
" clip-path="url(#pf1491cff09)" style="fill: none; stroke: #ffffff; stroke-linecap: round"/>
     </g>
     <g id="text_14">
      <!-- 0.8 -->
      <g style="fill: #262626" transform="translate(27.91625 80.004797) scale(0.11 -0.11)">
       <defs>
        <path id="ArialMT-38" d="M 1131 2484 
Q 781 2613 612 2850 
Q 444 3088 444 3419 
Q 444 3919 803 4259 
Q 1163 4600 1759 4600 
Q 2359 4600 2725 4251 
Q 3091 3903 3091 3403 
Q 3091 3084 2923 2848 
Q 2756 2613 2416 2484 
Q 2838 2347 3058 2040 
Q 3278 1734 3278 1309 
Q 3278 722 2862 322 
Q 2447 -78 1769 -78 
Q 1091 -78 675 323 
Q 259 725 259 1325 
Q 259 1772 486 2073 
Q 713 2375 1131 2484 
z
M 1019 3438 
Q 1019 3113 1228 2906 
Q 1438 2700 1772 2700 
Q 2097 2700 2305 2904 
Q 2513 3109 2513 3406 
Q 2513 3716 2298 3927 
Q 2084 4138 1766 4138 
Q 1444 4138 1231 3931 
Q 1019 3725 1019 3438 
z
M 838 1322 
Q 838 1081 952 856 
Q 1066 631 1291 507 
Q 1516 384 1775 384 
Q 2178 384 2440 643 
Q 2703 903 2703 1303 
Q 2703 1709 2433 1975 
Q 2163 2241 1756 2241 
Q 1359 2241 1098 1978 
Q 838 1716 838 1322 
z
" transform="scale(0.015625)"/>
       </defs>
       <use xlink:href="#ArialMT-30"/>
       <use xlink:href="#ArialMT-2e" transform="translate(55.615234 0)"/>
       <use xlink:href="#ArialMT-38" transform="translate(83.398438 0)"/>
      </g>
     </g>
    </g>
    <g id="ytick_6">
     <g id="line2d_14">
      <path d="M 52.70625 16.92 
L 342.4131 16.92 
" clip-path="url(#pf1491cff09)" style="fill: none; stroke: #ffffff; stroke-linecap: round"/>
     </g>
     <g id="text_15">
      <!-- 1.0 -->
      <g style="fill: #262626" transform="translate(27.91625 20.856797) scale(0.11 -0.11)">
       <use xlink:href="#ArialMT-31"/>
       <use xlink:href="#ArialMT-2e" transform="translate(55.615234 0)"/>
       <use xlink:href="#ArialMT-30" transform="translate(83.398438 0)"/>
      </g>
     </g>
    </g>
    <g id="text_16">
     <!-- Proportion -->
     <g style="fill: #262626" transform="translate(21.53125 192.470625) rotate(-90) scale(0.12 -0.12)">
      <defs>
       <path id="ArialMT-50" d="M 494 0 
L 494 4581 
L 2222 4581 
Q 2678 4581 2919 4538 
Q 3256 4481 3484 4323 
Q 3713 4166 3852 3881 
Q 3991 3597 3991 3256 
Q 3991 2672 3619 2267 
Q 3247 1863 2275 1863 
L 1100 1863 
L 1100 0 
L 494 0 
z
M 1100 2403 
L 2284 2403 
Q 2872 2403 3119 2622 
Q 3366 2841 3366 3238 
Q 3366 3525 3220 3729 
Q 3075 3934 2838 4000 
Q 2684 4041 2272 4041 
L 1100 4041 
L 1100 2403 
z
" transform="scale(0.015625)"/>
       <path id="ArialMT-6f" d="M 213 1659 
Q 213 2581 725 3025 
Q 1153 3394 1769 3394 
Q 2453 3394 2887 2945 
Q 3322 2497 3322 1706 
Q 3322 1066 3130 698 
Q 2938 331 2570 128 
Q 2203 -75 1769 -75 
Q 1072 -75 642 372 
Q 213 819 213 1659 
z
M 791 1659 
Q 791 1022 1069 705 
Q 1347 388 1769 388 
Q 2188 388 2466 706 
Q 2744 1025 2744 1678 
Q 2744 2294 2464 2611 
Q 2184 2928 1769 2928 
Q 1347 2928 1069 2612 
Q 791 2297 791 1659 
z
" transform="scale(0.015625)"/>
       <path id="ArialMT-74" d="M 1650 503 
L 1731 6 
Q 1494 -44 1306 -44 
Q 1000 -44 831 53 
Q 663 150 594 308 
Q 525 466 525 972 
L 525 2881 
L 113 2881 
L 113 3319 
L 525 3319 
L 525 4141 
L 1084 4478 
L 1084 3319 
L 1650 3319 
L 1650 2881 
L 1084 2881 
L 1084 941 
Q 1084 700 1114 631 
Q 1144 563 1211 522 
Q 1278 481 1403 481 
Q 1497 481 1650 503 
z
" transform="scale(0.015625)"/>
       <path id="ArialMT-6e" d="M 422 0 
L 422 3319 
L 928 3319 
L 928 2847 
Q 1294 3394 1984 3394 
Q 2284 3394 2536 3286 
Q 2788 3178 2913 3003 
Q 3038 2828 3088 2588 
Q 3119 2431 3119 2041 
L 3119 0 
L 2556 0 
L 2556 2019 
Q 2556 2363 2490 2533 
Q 2425 2703 2258 2804 
Q 2091 2906 1866 2906 
Q 1506 2906 1245 2678 
Q 984 2450 984 1813 
L 984 0 
L 422 0 
z
" transform="scale(0.015625)"/>
      </defs>
      <use xlink:href="#ArialMT-50"/>
      <use xlink:href="#ArialMT-72" transform="translate(66.699219 0)"/>
      <use xlink:href="#ArialMT-6f" transform="translate(100 0)"/>
      <use xlink:href="#ArialMT-70" transform="translate(155.615234 0)"/>
      <use xlink:href="#ArialMT-6f" transform="translate(211.230469 0)"/>
      <use xlink:href="#ArialMT-72" transform="translate(266.845703 0)"/>
      <use xlink:href="#ArialMT-74" transform="translate(300.146484 0)"/>
      <use xlink:href="#ArialMT-69" transform="translate(327.929688 0)"/>
      <use xlink:href="#ArialMT-6f" transform="translate(350.146484 0)"/>
      <use xlink:href="#ArialMT-6e" transform="translate(405.761719 0)"/>
     </g>
    </g>
   </g>
   <g id="line2d_15">
    <path d="M 66.895369 312.66 
L 66.895369 304.161724 
L 67.335294 304.161724 
L 67.335294 292.264138 
L 68.367651 292.264138 
L 68.367651 270.168621 
L 69.834068 270.168621 
L 69.834068 263.37 
L 70.713918 263.37 
L 70.713918 259.97069 
L 71.300484 259.97069 
L 71.300484 241.274483 
L 72.766901 241.274483 
L 72.766901 222.578276 
L 74.233317 222.578276 
L 74.233317 166.489655 
L 75.699734 166.489655 
L 75.699734 161.39069 
L 78.632566 161.39069 
L 78.632566 125.697931 
L 80.098983 125.697931 
L 80.098983 110.401034 
L 81.565399 110.401034 
L 81.565399 105.302069 
L 83.031816 105.302069 
L 83.031816 98.503448 
L 91.830315 98.503448 
L 91.830315 96.803793 
L 94.748777 96.803793 
L 94.748777 33.916552 
L 102.089364 33.916552 
L 102.089364 32.216897 
L 109.427312 32.216897 
L 109.427312 30.517241 
L 124.079012 30.517241 
L 124.079012 28.817586 
L 153.407488 28.817586 
L 153.407488 18.619655 
L 167.941289 18.619655 
L 167.941289 16.92 
L 167.941289 16.92 
" clip-path="url(#pf1491cff09)" style="fill: none; stroke: #55a868; stroke-width: 1.5; stroke-linecap: round"/>
   </g>
   <g id="line2d_16">
    <path d="M 66.754593 312.66 
L 66.756059 307.849958 
L 66.895369 307.849958 
L 66.895369 307.694795 
L 67.047876 307.694795 
L 67.047876 307.539633 
L 67.195984 307.539633 
L 67.195984 307.38447 
L 67.34116 307.38447 
L 67.34116 307.074145 
L 67.632977 307.074145 
L 67.632977 306.918982 
L 67.767887 306.918982 
L 67.781085 306.453494 
L 67.921861 306.453494 
L 67.927726 305.988006 
L 68.074368 305.988006 
L 68.074368 305.832844 
L 68.22101 305.832844 
L 68.22101 305.522518 
L 68.354453 305.522518 
L 68.367651 303.039916 
L 68.660934 303.039916 
L 68.660934 302.574428 
L 68.80171 302.574428 
L 68.807576 302.264103 
L 68.954218 302.264103 
L 68.954218 302.10894 
L 69.087662 302.10894 
L 69.102326 298.540199 
L 69.380945 298.540199 
L 69.394143 298.229874 
L 69.540784 298.229874 
L 69.540784 297.919549 
L 69.68596 297.919549 
L 69.688892 290.626905 
L 69.82087 290.626905 
L 69.835534 285.041049 
L 70.554078 285.041049 
L 70.568742 275.420965 
L 70.713918 275.420965 
L 70.713918 274.48999 
L 70.860559 274.48999 
L 70.860559 274.334827 
L 71.155309 274.334827 
L 71.155309 272.16255 
L 71.287286 272.16255 
L 71.301951 267.662833 
L 71.447126 267.662833 
L 71.447126 267.507671 
L 71.719879 267.507671 
L 71.740409 267.042183 
L 72.020495 267.042183 
L 72.035159 258.353075 
L 72.180334 258.353075 
L 72.180334 258.197912 
L 72.620259 258.197912 
L 72.702378 256.956611 
L 72.753703 256.956611 
L 72.766901 253.232707 
L 72.907677 253.232707 
L 72.907677 253.077545 
L 73.353467 253.077545 
L 73.353467 252.767219 
L 73.500109 252.767219 
L 73.501575 246.715876 
L 74.086675 246.715876 
L 74.088142 240.043882 
L 74.220119 240.043882 
L 74.308104 237.56128 
L 74.379959 237.56128 
L 74.379959 235.078678 
L 74.673242 235.078678 
L 74.673242 234.768353 
L 75.554558 234.768353 
L 75.554558 234.458027 
L 75.699734 234.458027 
L 75.699734 233.216726 
L 75.902099 233.216726 
L 75.902099 232.906401 
L 76.139658 232.906401 
L 76.168987 231.975425 
L 76.432942 231.975425 
L 76.432942 231.509937 
L 77.019508 231.509937 
L 77.020975 228.561847 
L 77.152952 228.561847 
L 77.16615 223.751805 
L 77.459433 223.751805 
L 77.459433 223.596642 
L 78.34075 223.596642 
L 78.34075 223.286317 
L 78.480059 223.286317 
L 78.487391 218.476275 
L 78.619369 218.476275 
L 78.634033 213.666233 
L 78.779208 213.666233 
L 78.833465 213.355908 
L 78.925703 213.355908 
L 78.92585 213.045582 
L 79.072491 213.045582 
L 79.072491 212.89042 
L 79.365775 212.89042 
L 79.365775 212.735257 
L 79.659058 212.735257 
L 79.659058 212.424932 
L 79.953808 212.424932 
L 79.953808 210.718143 
L 80.093117 210.718143 
L 80.098983 208.080378 
L 80.213363 208.080378 
L 80.213363 207.925215 
L 80.832191 207.925215 
L 80.832191 207.770052 
L 80.978833 207.770052 
L 80.978833 207.459727 
L 81.272116 207.459727 
L 81.272116 207.149402 
L 81.420224 207.149402 
L 81.420224 202.33936 
L 81.559534 202.33936 
L 81.565399 201.098059 
L 81.858683 201.098059 
L 81.860149 200.167083 
L 82.300074 200.167083 
L 82.300074 199.856758 
L 82.885174 199.856758 
L 82.886641 198.305131 
L 83.002487 198.305131 
L 83.031816 196.132854 
L 83.178457 196.132854 
L 83.178457 195.977692 
L 83.325099 195.977692 
L 83.325099 195.667366 
L 83.618382 195.667366 
L 83.618382 195.357041 
L 83.751826 195.357041 
L 83.765024 194.581228 
L 84.058307 194.581228 
L 84.067106 194.270902 
L 84.353057 194.270902 
L 84.353057 191.012487 
L 84.485914 191.012487 
L 84.498232 187.443746 
L 84.938157 187.443746 
L 84.938157 186.51277 
L 85.231441 186.51277 
L 85.231441 186.202445 
L 85.524724 186.202445 
L 85.524724 185.89212 
L 85.819474 185.89212 
L 85.819474 185.581794 
L 85.951451 185.581794 
L 85.964649 182.788867 
L 86.551215 182.788867 
L 86.551215 182.323379 
L 86.697857 182.323379 
L 86.697857 182.168216 
L 87.28589 182.168216 
L 87.28589 181.857891 
L 87.417867 181.857891 
L 87.431065 180.151102 
L 88.752306 180.151102 
L 88.752306 179.685614 
L 88.884284 179.685614 
L 88.897482 178.599475 
L 90.218723 178.599475 
L 90.218723 175.96171 
L 90.358032 175.96171 
L 90.363898 175.34106 
L 91.097106 175.34106 
L 91.097106 175.185897 
L 91.243748 175.185897 
L 91.243748 174.720409 
L 91.685139 174.720409 
L 91.685139 168.358741 
L 91.817557 168.358741 
L 91.830315 165.410651 
L 92.123598 165.410651 
L 92.125064 164.79 
L 93.151556 164.79 
L 93.151556 163.083211 
L 93.290865 163.083211 
L 93.296731 162.772886 
L 93.884764 162.772886 
L 93.884764 162.617723 
L 94.617972 162.617723 
L 94.617972 161.686747 
L 94.750536 161.686747 
L 94.763148 160.290283 
L 95.496356 160.290283 
L 95.496356 159.669633 
L 95.642997 159.669633 
L 95.642997 159.51447 
L 96.084389 159.51447 
L 96.084389 158.89382 
L 96.23103 158.89382 
L 96.23103 158.738657 
L 97.402697 158.738657 
L 97.402697 158.118006 
L 97.550805 158.118006 
L 97.550805 154.859591 
L 97.69598 154.859591 
L 97.69598 154.549265 
L 98.429189 154.549265 
L 98.429189 154.394103 
L 98.723938 154.394103 
L 98.723938 154.083778 
L 99.017222 154.083778 
L 99.017222 151.911501 
L 99.457147 151.911501 
L 99.457147 151.756338 
L 100.483638 151.756338 
L 100.483638 151.29085 
L 100.775455 151.29085 
L 100.775455 150.825362 
L 100.922097 150.825362 
L 100.922097 150.515037 
L 101.363488 150.515037 
L 101.363488 150.359874 
L 101.950055 150.359874 
L 101.950055 150.204711 
L 102.09523 150.204711 
L 102.09523 150.049549 
L 102.829905 150.049549 
L 102.829905 148.497922 
L 103.416471 148.497922 
L 103.416471 148.34276 
L 103.561646 148.34276 
L 103.561646 148.187597 
L 103.69509 148.187597 
L 103.708288 147.411784 
L 104.016235 147.411784 
L 104.016235 147.256621 
L 104.441496 147.256621 
L 104.441496 147.101459 
L 104.882888 147.101459 
L 104.882888 146.325645 
L 105.029529 146.325645 
L 105.029529 146.01532 
L 106.349304 146.01532 
L 106.349304 145.704995 
L 106.494479 145.704995 
L 106.494479 144.774019 
L 107.815721 144.774019 
L 107.815721 144.308531 
L 107.962362 144.308531 
L 107.962362 144.153368 
L 109.282137 144.153368 
L 109.282577 143.222392 
L 109.427312 143.222392 
L 109.427312 142.912067 
L 109.573954 142.912067 
L 109.573954 142.756905 
L 109.720596 142.756905 
L 109.720596 142.601742 
L 110.346755 142.601742 
L 110.346755 141.981091 
L 110.748553 141.981091 
L 110.748553 140.894953 
L 111.04037 140.894953 
L 111.04037 140.274302 
L 112.102056 140.274302 
L 112.102056 140.11914 
L 112.21497 140.11914 
L 112.21497 139.963977 
L 113.386637 139.963977 
L 113.386637 139.808814 
L 113.681386 139.808814 
L 113.681386 136.550399 
L 113.826562 136.550399 
L 113.826562 136.240073 
L 114.85452 136.240073 
L 114.85452 136.084911 
L 115.177131 136.084911 
L 115.177131 135.929748 
L 115.292978 135.929748 
L 115.292978 135.774586 
L 116.360529 135.774586 
L 116.360529 135.619423 
L 116.614219 135.619423 
L 116.614219 134.998772 
L 116.74561 134.998772 
L 116.761594 133.912634 
L 118.080636 133.912634 
L 118.134893 133.136821 
L 118.225811 133.136821 
L 118.225811 132.826495 
L 118.665736 132.826495 
L 118.665736 132.671333 
L 119.547052 132.671333 
L 119.547052 131.895519 
L 120.26413 131.895519 
L 120.26413 131.740357 
L 121.145446 131.740357 
L 121.158644 131.430031 
L 121.891852 131.430031 
L 121.891852 131.119706 
L 122.479885 131.119706 
L 122.479885 130.033568 
L 122.62506 130.033568 
L 122.62506 129.257754 
L 123.812858 129.257754 
L 123.812858 128.947429 
L 123.946302 128.947429 
L 123.946302 127.395803 
L 124.091477 127.395803 
L 124.091477 126.930315 
L 124.505006 126.930315 
L 124.505006 125.378688 
L 125.412718 125.378688 
L 125.412718 120.723809 
L 126.829276 120.723809 
L 126.879135 117.775719 
L 127.361586 117.775719 
L 127.361586 117.620556 
L 127.610876 117.620556 
L 127.610876 117.465393 
L 128.345551 117.465393 
L 128.345551 114.827629 
L 128.477529 114.827629 
L 128.479435 114.362141 
L 129.518684 114.362141 
L 129.518684 114.051815 
L 129.811967 114.051815 
L 129.811967 113.896653 
L 131.278384 113.896653 
L 131.326776 103.811081 
L 133.771292 103.811081 
L 133.771292 103.655918 
L 134.211217 103.655918 
L 134.211217 103.345593 
L 137.14405 103.345593 
L 137.14405 102.414617 
L 137.289225 102.414617 
L 137.289225 101.949129 
L 138.007769 101.949129 
L 138.007769 101.793966 
L 138.742297 101.793966 
L 138.742297 101.173316 
L 139.169171 101.173316 
L 139.169171 100.552665 
L 142.861608 100.552665 
L 142.861608 100.397503 
L 143.009716 100.397503 
L 143.009716 97.759738 
L 143.141693 97.759738 
L 143.154891 97.139087 
L 144.476132 97.139087 
L 144.476132 96.673599 
L 145.942549 96.673599 
L 145.942549 94.501322 
L 146.087724 94.501322 
L 146.087724 94.346159 
L 146.894253 94.346159 
L 146.908917 92.949696 
L 147.96767 92.949696 
L 147.96767 92.794533 
L 148.873915 92.794533 
L 148.873915 92.329045 
L 149.753765 92.329045 
L 149.753765 92.173882 
L 150.341798 92.173882 
L 150.341798 91.708395 
L 150.486973 91.708395 
L 150.569093 91.398069 
L 153.274631 91.398069 
L 153.274631 88.139654 
L 153.406608 88.139654 
L 153.409248 87.363841 
L 154.871265 87.363841 
L 154.871265 87.053515 
L 157.67388 87.053515 
L 157.67388 86.588027 
L 159.140297 86.588027 
L 159.140297 76.19213 
L 159.699001 76.19213 
L 159.699001 76.036967 
L 162.07313 76.036967 
L 162.07313 75.726642 
L 162.631834 75.726642 
L 162.631834 75.57148 
L 164.505915 75.57148 
L 164.505915 75.261154 
L 165.005963 75.261154 
L 165.005963 74.019853 
L 165.737704 74.019853 
L 165.737704 73.709528 
L 167.205587 73.709528 
L 167.205587 73.554365 
L 167.938796 73.554365 
L 167.938796 72.313064 
L 168.349392 72.313064 
L 168.349392 71.847576 
L 170.656065 71.847576 
L 170.656065 71.537251 
L 170.871629 71.537251 
L 170.871629 71.226925 
L 172.338045 71.226925 
L 172.338045 70.761438 
L 174.737102 70.761438 
L 174.737102 70.140787 
L 175.270878 70.140787 
L 175.270878 61.296516 
L 176.735828 61.296516 
L 176.735828 60.831028 
L 179.670127 60.831028 
L 179.670127 58.348426 
L 181.136544 58.348426 
L 181.136544 58.193263 
L 182.60296 58.193263 
L 182.60296 57.572613 
L 184.069377 57.572613 
L 184.069377 55.865824 
L 185.535793 55.865824 
L 185.535793 55.555498 
L 187.132867 55.555498 
L 187.132867 55.400336 
L 188.468626 55.400336 
L 188.468626 55.245173 
L 189.493651 55.245173 
L 189.493651 54.934848 
L 189.640293 54.934848 
L 189.640293 54.779685 
L 191.401459 54.779685 
L 191.401459 53.693547 
L 192.867876 53.693547 
L 192.867876 53.538384 
L 195.800708 53.538384 
L 195.800708 42.211511 
L 197.267125 42.211511 
L 197.267125 40.815047 
L 197.4123 40.815047 
L 197.4123 40.504722 
L 200.199958 40.504722 
L 200.199958 37.866957 
L 203.864533 37.866957 
L 203.864533 37.711794 
L 208.998457 37.711794 
L 208.998457 37.556632 
L 210.464873 37.556632 
L 210.464873 37.091144 
L 210.610048 37.091144 
L 210.659906 36.315331 
L 211.93129 36.315331 
L 211.93129 36.160168 
L 212.06268 36.160168 
L 212.076465 35.539517 
L 213.397706 35.539517 
L 213.397706 34.608541 
L 214.673488 34.608541 
L 214.673488 34.298216 
L 217.208922 34.298216 
L 217.208922 34.143054 
L 225.129038 34.143054 
L 225.129038 33.522403 
L 226.595454 33.522403 
L 226.595454 29.643337 
L 226.727432 29.643337 
L 226.727432 29.022686 
L 227.561823 29.022686 
L 227.561823 27.781385 
L 231.189737 27.781385 
L 231.189737 26.850409 
L 235.393953 26.850409 
L 235.393953 26.540084 
L 241.259619 26.540084 
L 241.259619 20.178416 
L 252.990951 20.178416 
L 252.990951 19.402602 
L 263.255866 19.402602 
L 263.255866 19.24744 
L 270.587948 19.24744 
L 270.587948 18.471626 
L 285.252113 18.471626 
L 285.252113 17.540651 
L 314.580442 17.540651 
L 314.580442 17.385488 
L 329.244607 17.385488 
L 329.244607 16.92 
L 329.244607 16.92 
" clip-path="url(#pf1491cff09)" style="fill: none; stroke: #dd8452; stroke-width: 1.5; stroke-linecap: round"/>
   </g>
   <g id="line2d_17">
    <path d="M 65.874743 312.66 
L 65.948064 312.57473 
L 66.138698 312.489459 
L 66.138698 312.466721 
L 66.168026 312.102901 
L 66.314668 312.034685 
L 66.314668 311.994892 
L 66.314668 311.437793 
L 66.46131 311.437793 
L 66.46131 311.329784 
L 66.462776 309.971144 
L 66.602086 309.885874 
L 66.602086 309.863135 
L 66.647105 309.374253 
L 66.754593 309.340145 
L 66.754593 309.266244 
L 66.785388 308.407856 
L 66.895369 308.33964 
L 66.895369 308.299847 
L 66.901235 305.144848 
L 67.042011 305.144848 
L 67.042011 305.036839 
L 67.047876 304.240983 
L 67.194518 304.240983 
L 67.194518 304.132974 
L 67.275171 303.962433 
L 67.327962 303.962433 
L 67.327962 303.854424 
L 67.409201 301.569182 
L 67.481936 301.569182 
L 67.481936 301.461173 
L 67.487801 301.080299 
L 67.628577 301.000713 
L 67.628577 300.97229 
L 67.635909 298.510822 
L 67.767887 298.510822 
L 67.767887 298.402813 
L 67.858951 297.459155 
L 67.921861 297.351146 
L 67.927726 296.430227 
L 68.074368 296.322218 
L 68.133025 294.281417 
L 68.215144 294.252993 
L 68.215144 294.173408 
L 68.222476 293.235435 
L 68.354453 293.235435 
L 68.354453 293.127426 
L 68.369118 284.839157 
L 68.514293 284.827787 
L 68.514293 284.731148 
L 68.514293 284.41849 
L 68.660934 284.395751 
L 68.660934 284.310481 
L 68.660934 284.105832 
L 68.80171 284.071724 
L 68.80171 283.997823 
L 68.809043 283.469148 
L 68.954218 283.463463 
L 68.954218 283.361139 
L 68.967416 282.582337 
L 69.087662 282.553914 
L 69.087662 282.474328 
L 69.131654 269.47914 
L 69.247501 269.462086 
L 69.247501 269.371131 
L 69.248967 268.950465 
L 69.388277 268.853825 
L 69.388277 268.842456 
L 69.467464 267.483816 
L 69.534919 267.461078 
L 69.534919 267.375807 
L 69.634635 267.085888 
L 69.687426 267.085888 
L 69.687426 266.977879 
L 69.688892 266.443519 
L 69.82087 266.443519 
L 69.82087 266.33551 
L 69.907388 253.232314 
L 69.980709 253.20389 
L 69.980709 253.124305 
L 69.982176 252.1238 
L 70.209324 252.084007 
L 70.209324 252.015791 
L 70.273993 251.100557 
L 70.420634 251.100557 
L 70.420634 250.992548 
L 70.420634 250.912962 
L 70.554078 250.912962 
L 70.554078 250.804953 
L 70.646462 238.645414 
L 70.713918 238.63973 
L 70.713918 238.537405 
L 70.801903 237.212874 
L 70.860559 237.212874 
L 70.860559 237.104865 
L 70.860559 236.854739 
L 71.007201 236.814946 
L 71.007201 236.74673 
L 71.007201 236.570505 
L 71.155309 236.570505 
L 71.155309 236.462496 
L 71.155309 235.172073 
L 71.287286 235.172073 
L 71.287286 235.064064 
L 71.301951 226.605254 
L 71.628961 226.508614 
L 71.628961 226.497245 
L 71.727211 226.349443 
L 71.740409 226.349443 
L 71.740409 226.241434 
L 71.740409 225.809398 
L 71.873853 225.809398 
L 71.873853 225.701389 
L 71.983834 224.933957 
L 72.020495 224.933957 
L 72.020495 224.825948 
L 72.035159 220.340732 
L 72.167136 220.340732 
L 72.167136 220.232723 
L 72.180334 219.817741 
L 72.326976 219.817741 
L 72.326976 219.709732 
L 72.326976 219.237903 
L 72.472151 219.237903 
L 72.472151 219.129894 
L 72.516143 218.515948 
L 72.590931 218.510264 
L 72.590931 218.407939 
L 72.69358 217.873579 
L 72.702378 217.873579 
L 72.702378 217.76557 
L 72.768367 209.022526 
L 73.142157 208.937256 
L 73.142157 208.914517 
L 73.206826 208.778085 
L 73.353467 208.778085 
L 73.353467 208.670076 
L 73.403179 207.987914 
L 73.500109 207.879905 
L 73.501575 204.849968 
L 73.793392 204.804491 
L 73.793392 204.741959 
L 73.793392 204.662374 
L 73.940034 204.651004 
L 73.940034 204.554365 
L 73.9415 203.934734 
L 74.086675 203.934734 
L 74.086675 203.826725 
L 74.088142 199.688275 
L 74.220119 199.688275 
L 74.220119 199.580266 
L 74.308104 193.099726 
L 74.379959 193.099726 
L 74.379959 192.991717 
L 74.379959 189.921988 
L 74.528067 189.870826 
L 74.528067 189.813979 
L 74.528067 189.745763 
L 74.673242 189.745763 
L 74.673242 189.637754 
L 74.761227 189.421736 
L 74.953328 189.330781 
L 74.953328 189.313727 
L 74.967992 188.341646 
L 75.113167 188.284799 
L 75.113167 188.233637 
L 75.114633 188.074466 
L 75.539894 187.972141 
L 75.539894 187.966457 
L 75.554558 187.477574 
L 75.686536 187.477574 
L 75.686536 187.369565 
L 75.7012 177.336098 
L 75.905032 177.256512 
L 75.905032 177.228089 
L 75.993017 176.995017 
L 76.139658 176.989332 
L 76.139658 176.887008 
L 76.168987 175.619323 
L 76.419744 175.556791 
L 76.419744 175.511314 
L 76.434408 174.846206 
L 76.579583 174.846206 
L 76.579583 174.738197 
L 76.579583 174.613134 
L 76.874333 174.561972 
L 76.874333 174.505125 
L 76.951907 174.198152 
L 77.019508 174.198152 
L 77.019508 174.090143 
L 77.020975 172.725819 
L 77.152952 172.725819 
L 77.152952 172.61781 
L 77.167616 164.829793 
L 77.453568 164.829793 
L 77.453568 164.721784 
L 77.459433 164.159 
L 77.899358 164.136261 
L 77.899358 164.050991 
L 77.958015 163.692856 
L 78.125186 163.687171 
L 78.125186 163.584847 
L 78.194108 163.329036 
L 78.337817 163.329036 
L 78.337817 163.221027 
L 78.34075 161.492883 
L 78.480059 161.492883 
L 78.480059 161.384874 
L 78.487391 156.893974 
L 78.619369 156.893974 
L 78.619369 156.785965 
L 78.634033 149.890443 
L 78.833465 149.884759 
L 78.833465 149.782434 
L 78.92585 149.628948 
L 79.072491 149.628948 
L 79.072491 149.520939 
L 79.072491 149.464092 
L 79.217667 149.464092 
L 79.217667 149.356083 
L 79.219133 148.122507 
L 79.367241 148.048606 
L 79.367241 148.014498 
L 79.367241 147.900804 
L 79.512416 147.900804 
L 79.512416 147.792795 
L 79.613599 147.536984 
L 79.659058 147.536984 
L 79.659058 147.428975 
L 79.747043 147.122002 
L 79.864356 147.087894 
L 79.864356 147.013993 
L 79.953808 145.120993 
L 80.093117 145.075516 
L 80.093117 145.012984 
L 80.098983 134.854454 
L 80.379068 134.746445 
L 80.393733 134.621382 
L 80.832191 134.536112 
L 80.832191 134.513373 
L 80.833658 133.711833 
L 80.978833 133.654986 
L 80.978833 133.603824 
L 80.978833 133.598139 
L 81.125474 133.598139 
L 81.125474 133.49013 
L 81.126941 133.456022 
L 81.27065 133.456022 
L 81.27065 133.348013 
L 81.321974 130.619365 
L 81.40556 130.61368 
L 81.40556 130.511356 
L 81.420224 128.913959 
L 81.559534 128.81732 
L 81.559534 128.80595 
L 81.565399 127.850923 
L 81.860149 127.828185 
L 81.860149 127.742914 
L 81.860149 127.413203 
L 82.1505 127.413203 
L 82.1505 127.305194 
L 82.153432 127.174446 
L 82.300074 127.083491 
L 82.300074 127.066437 
L 82.300074 127.032329 
L 82.885174 126.975482 
L 82.885174 126.92432 
L 82.886641 125.855599 
L 83.02595 125.787383 
L 83.02595 125.74759 
L 83.034749 121.592086 
L 83.178457 121.546609 
L 83.178457 121.484077 
L 83.178457 121.398807 
L 83.323633 121.398807 
L 83.323633 121.290798 
L 83.325099 120.944032 
L 83.618382 120.944032 
L 83.618382 120.836023 
L 83.619849 120.818969 
L 83.765024 120.818969 
L 83.765024 120.71096 
L 83.76649 120.222078 
L 84.351591 120.136807 
L 84.351591 120.114069 
L 84.353057 118.965762 
L 84.485914 118.931654 
L 84.485914 118.857753 
L 84.499699 116.083628 
L 84.78565 116.055204 
L 84.78565 115.975619 
L 84.791516 113.855231 
L 84.938157 113.838177 
L 84.938157 113.747222 
L 84.938157 113.406141 
L 85.083332 113.406141 
L 85.083332 113.298132 
L 85.083332 113.224232 
L 85.231441 113.190123 
L 85.231441 113.116223 
L 85.231441 111.837169 
L 85.669899 111.768952 
L 85.669899 111.72916 
L 85.669899 111.723475 
L 85.819474 111.660943 
L 85.819474 111.615466 
L 85.917723 111.143637 
L 85.958783 111.058367 
L 85.958783 111.035628 
L 85.964649 107.977268 
L 86.404574 107.903367 
L 86.404574 107.869259 
L 86.40604 107.704403 
L 86.551215 107.630502 
L 86.551215 107.596394 
L 86.551215 107.562286 
L 86.697857 107.562286 
L 86.697857 107.454277 
L 86.697857 107.403115 
L 86.844499 107.403115 
L 86.844499 107.295106 
L 86.844499 107.215521 
L 87.28589 107.192782 
L 87.28589 107.107512 
L 87.28589 106.521989 
L 87.4252 106.425349 
L 87.4252 106.41398 
L 87.432532 105.481692 
L 87.579173 105.441899 
L 87.579173 105.373683 
L 87.579173 105.367998 
L 88.164273 105.259989 
L 88.16574 104.907539 
L 88.457557 104.845007 
L 88.457557 104.79953 
L 88.457557 104.736998 
L 88.702448 104.71426 
L 88.702448 104.628989 
L 88.752306 102.855368 
L 88.884284 102.855368 
L 88.884284 102.747359 
L 88.897482 101.581999 
L 89.482582 101.508098 
L 89.482582 101.47399 
L 89.484048 100.319999 
L 90.21579 100.29726 
L 90.21579 100.21199 
L 90.218723 98.245089 
L 90.358032 98.245089 
L 90.358032 98.13708 
L 90.363898 96.562423 
L 91.097106 96.556738 
L 91.097106 96.454414 
L 91.097106 96.443044 
L 91.243748 96.414621 
L 91.243748 96.335035 
L 91.243748 96.067855 
L 91.685139 96.033747 
L 91.685139 95.959846 
L 91.710068 90.837946 
L 91.830315 90.735622 
L 91.830315 90.729937 
L 91.874307 86.654019 
L 92.125064 86.580118 
L 92.125064 86.54601 
L 92.125064 86.176505 
L 92.708698 86.148082 
L 92.708698 86.068496 
L 92.710165 85.426127 
L 93.290865 85.323802 
L 93.290865 85.318118 
L 93.296731 85.141893 
L 94.617972 85.033884 
L 94.617972 84.033379 
L 94.74995 84.033379 
L 94.74995 83.92537 
L 94.763148 81.361578 
L 95.201606 81.253569 
L 95.276393 81.139875 
L 95.496356 81.139875 
L 95.496356 81.031866 
L 95.591673 80.122317 
L 95.700188 80.014308 
L 95.700188 79.911983 
L 96.084389 79.911983 
L 96.084389 79.803974 
L 96.084389 79.303722 
L 96.229564 79.303722 
L 96.229564 79.195713 
L 96.23103 78.797785 
L 96.522847 78.7182 
L 96.522847 78.689776 
L 96.522847 78.632929 
L 96.962772 78.559029 
L 96.962772 78.52492 
L 96.962772 78.502182 
L 97.107947 78.502182 
L 97.107947 78.394173 
L 97.197399 77.336821 
L 97.401231 77.331137 
L 97.401231 77.228812 
L 97.402697 76.73993 
L 97.550805 76.73993 
L 97.550805 76.631921 
L 97.644656 76.586443 
L 97.69598 76.580758 
L 97.69598 76.478434 
L 97.69598 75.995236 
L 97.99073 75.949759 
L 97.99073 75.887227 
L 97.99073 75.836065 
L 98.429189 75.767849 
L 98.429189 75.728056 
L 98.429189 75.057263 
L 98.723938 75.057263 
L 98.723938 74.949254 
L 98.723938 74.733236 
L 98.864714 74.733236 
L 98.864714 74.625227 
L 98.87058 74.511534 
L 99.017222 74.511534 
L 99.017222 74.403525 
L 99.017222 74.062443 
L 99.149199 74.062443 
L 99.149199 73.954434 
L 99.162397 73.48829 
L 99.575926 73.482606 
L 99.575926 73.380281 
L 99.602322 73.266588 
L 99.894139 73.209741 
L 99.894139 73.158579 
L 99.895605 73.073308 
L 100.483638 73.027831 
L 100.483638 72.965299 
L 100.483638 72.851606 
L 100.627347 72.817498 
L 100.627347 72.743597 
L 100.628813 72.675381 
L 100.773989 72.675381 
L 100.773989 72.567372 
L 100.775455 72.112597 
L 100.922097 72.112597 
L 100.922097 72.004588 
L 100.923563 71.964795 
L 101.363488 71.930687 
L 101.363488 71.856786 
L 101.363488 71.799939 
L 101.950055 71.726038 
L 101.950055 71.69193 
L 101.950055 71.026822 
L 102.09523 71.009768 
L 102.09523 70.918813 
L 102.096696 69.71366 
L 102.829905 69.611336 
L 102.829905 69.605651 
L 102.829905 68.968967 
L 103.416471 68.963282 
L 103.416471 68.860958 
L 103.438321 68.707471 
L 103.558714 68.707471 
L 103.558714 68.599462 
L 103.561646 68.571039 
L 103.69509 68.571039 
L 103.69509 68.46303 
L 103.69509 68.36639 
L 104.149679 68.286805 
L 104.149679 68.258381 
L 104.149679 68.18448 
L 104.53828 68.144687 
L 104.53828 68.076471 
L 104.588138 67.900246 
L 104.882888 67.854769 
L 104.882888 67.792237 
L 104.882888 67.581904 
L 105.028063 67.581904 
L 105.028063 67.473895 
L 105.028063 66.877003 
L 106.349304 66.768994 
L 106.349304 66.678039 
L 106.494479 66.672354 
L 106.494479 66.57003 
L 106.494479 66.092517 
L 107.666146 66.029985 
L 107.666146 65.984508 
L 107.667612 65.512679 
L 108.400821 65.410354 
L 108.400821 65.40467 
L 108.452145 64.625868 
L 109.282137 64.59176 
L 109.282137 64.517859 
L 109.282137 64.353003 
L 109.421447 64.307526 
L 109.421447 64.244994 
L 109.427312 63.216066 
L 109.720596 63.125111 
L 109.720596 63.108057 
L 109.720596 63.017102 
L 110.161987 62.909093 
L 110.161987 62.78403 
L 110.748553 62.78403 
L 110.748553 62.676021 
L 110.748553 62.198508 
L 110.893729 62.198508 
L 110.893729 62.090499 
L 110.895195 61.976805 
L 111.04037 61.965436 
L 111.04037 61.868796 
L 111.04037 61.595931 
L 111.534553 61.590247 
L 111.534553 61.487922 
L 111.626937 61.402652 
L 112.355746 61.306013 
L 112.355746 61.294643 
L 112.360145 61.095679 
L 113.681386 61.016094 
L 113.681386 60.98767 
L 113.681386 60.73186 
L 114.231293 60.669328 
L 114.231293 60.623851 
L 114.231293 60.578373 
L 114.941038 60.476049 
L 114.941038 60.470364 
L 114.999695 60.322562 
L 115.146336 60.322562 
L 115.146336 60.214553 
L 115.177131 60.015589 
L 115.287112 60.015589 
L 115.287112 59.90758 
L 115.294444 59.646085 
L 116.026186 59.600607 
L 116.026186 59.538076 
L 116.026186 59.259526 
L 116.614219 59.174256 
L 116.614219 59.151517 
L 116.715402 58.270391 
L 116.753529 58.230599 
L 116.753529 58.162382 
L 116.759395 57.605283 
L 117.931061 57.497274 
L 117.931061 57.451797 
L 118.080636 57.451797 
L 118.080636 57.343788 
L 118.080636 56.84922 
L 118.225811 56.832166 
L 118.225811 56.741211 
L 118.225811 56.644572 
L 118.665736 56.627518 
L 118.665736 56.536563 
L 118.665736 56.121581 
L 119.547052 56.070419 
L 119.547052 56.013572 
L 119.547052 55.445103 
L 119.985511 55.354148 
L 119.985511 55.337094 
L 119.985511 55.098338 
L 120.278794 55.098338 
L 120.278794 54.990329 
L 120.372645 54.922112 
L 121.013469 54.916428 
L 121.013469 54.814103 
L 121.013469 53.495257 
L 121.145446 53.495257 
L 121.145446 53.387248 
L 121.158644 52.255996 
L 121.891852 52.204834 
L 121.891852 52.147987 
L 121.891852 51.914915 
L 122.478419 51.806906 
L 122.478419 51.789852 
L 122.62506 51.789852 
L 122.62506 51.681843 
L 122.62506 51.295284 
L 123.501977 51.210014 
L 123.501977 51.187275 
L 123.501977 51.164536 
L 123.812858 51.158852 
L 123.812858 51.056527 
L 123.812858 51.045158 
L 123.944835 51.045158 
L 123.944835 50.937149 
L 123.946302 48.970248 
L 124.087078 48.913402 
L 124.087078 48.862239 
L 124.091477 48.532528 
L 124.505006 48.521158 
L 124.505006 48.424519 
L 124.531402 47.617294 
L 125.997818 47.509285 
L 125.997818 47.492231 
L 126.829276 47.446753 
L 126.829276 47.384222 
L 126.879135 44.3486 
L 127.361586 44.291753 
L 127.361586 44.240591 
L 127.461302 44.206483 
L 127.60941 44.206483 
L 127.60941 44.098474 
L 127.610876 43.620961 
L 128.197443 43.530006 
L 128.197443 43.512952 
L 128.197443 43.495898 
L 128.345551 43.495898 
L 128.345551 43.387889 
L 128.345551 43.041123 
L 128.477529 43.041123 
L 128.477529 42.933114 
L 128.584577 42.580664 
L 129.077293 42.495393 
L 129.077293 42.472655 
L 129.13595 42.404438 
L 129.518684 42.307799 
L 129.518684 42.296429 
L 129.518684 42.273691 
L 129.811967 42.262321 
L 129.811967 42.165682 
L 129.811967 42.142943 
L 129.955676 42.142943 
L 129.955676 42.034934 
L 129.957143 41.938294 
L 130.983634 41.847339 
L 130.983634 41.830285 
L 130.983634 41.818916 
L 131.278384 41.818916 
L 131.278384 41.710907 
L 131.326776 40.136249 
L 132.889976 40.03961 
L 132.889976 40.02824 
L 132.891442 39.829276 
L 134.211217 39.726952 
L 134.211217 39.721267 
L 134.211217 39.391556 
L 134.354926 39.31197 
L 134.354926 39.283547 
L 134.354926 39.249439 
L 135.236242 39.14143 
L 135.237708 39.016367 
L 135.676167 38.965205 
L 135.676167 38.908358 
L 135.749488 38.86288 
L 135.822809 38.834457 
L 135.822809 38.754871 
L 135.822809 38.698024 
L 136.236338 38.69234 
L 136.236338 38.590015 
L 136.236338 38.476322 
L 137.14405 38.408105 
L 137.14405 38.368313 
L 137.14405 38.220511 
L 138.460892 38.140925 
L 138.460892 38.112502 
L 138.460892 38.084079 
L 138.610466 38.084079 
L 138.610466 37.97607 
L 138.610466 37.555403 
L 139.169171 37.51561 
L 139.169171 37.447394 
L 139.169171 37.15179 
L 140.808625 37.06652 
L 140.808625 37.043781 
L 140.808625 36.958511 
L 141.556497 36.935772 
L 141.556497 36.850502 
L 141.556497 36.708385 
L 142.861608 36.623115 
L 142.861608 36.600376 
L 142.861608 36.475313 
L 143.009716 36.475313 
L 143.009716 36.367304 
L 143.009716 34.90634 
L 143.141693 34.90634 
L 143.141693 34.798331 
L 143.154891 34.656214 
L 144.621307 34.565259 
L 144.621307 34.548205 
L 144.622627 34.514097 
L 145.649265 34.411773 
L 145.649265 34.406088 
L 145.750448 34.377665 
L 145.942549 34.377665 
L 145.942549 34.269656 
L 145.942549 34.224178 
L 146.908917 34.127538 
L 146.908917 34.116169 
L 146.908917 33.962683 
L 148.140707 33.900151 
L 148.140707 33.854674 
L 148.140707 33.684133 
L 148.873915 33.65571 
L 148.873915 33.576124 
L 148.875382 33.217989 
L 149.753765 33.217989 
L 149.753765 33.10998 
L 149.755231 32.649521 
L 150.341798 32.621097 
L 150.341798 32.541512 
L 150.341798 32.518773 
L 150.569093 32.484665 
L 150.569093 32.410764 
L 150.633615 32.149268 
L 153.274631 32.058313 
L 153.274631 32.041259 
L 153.274631 30.76789 
L 153.406608 30.76789 
L 153.406608 30.659881 
L 153.419806 30.062989 
L 154.447764 29.96635 
L 154.447764 29.95498 
L 154.548947 29.926557 
L 157.67388 29.846971 
L 157.67388 29.818548 
L 157.703209 29.642323 
L 159.140297 29.557053 
L 159.140297 29.534314 
L 159.140297 28.545179 
L 161.646403 28.454224 
L 161.646403 28.43717 
L 161.646403 28.408746 
L 162.631834 28.374638 
L 162.631834 28.300737 
L 162.631834 28.260945 
L 164.505915 28.175674 
L 164.505915 28.152936 
L 164.505915 28.130197 
L 165.591063 28.061981 
L 165.591063 28.022188 
L 165.591063 27.982395 
L 165.737704 27.982395 
L 165.737704 27.874386 
L 165.737704 27.664053 
L 167.205587 27.567413 
L 167.205587 27.556044 
L 167.205587 27.425296 
L 167.938796 27.385503 
L 167.938796 27.317287 
L 167.938796 27.141062 
L 169.697029 27.033053 
L 169.697029 27.027368 
L 170.871629 27.004629 
L 170.871629 26.919359 
L 170.871629 26.851143 
L 172.338045 26.760188 
L 172.338045 26.743134 
L 172.338045 26.305413 
L 174.737102 26.197404 
L 174.737102 26.112134 
L 175.270878 26.112134 
L 175.270878 26.004125 
L 175.270878 25.634621 
L 176.735828 25.589143 
L 176.735828 25.526612 
L 176.735828 25.407233 
L 179.670127 25.350386 
L 179.670127 25.299224 
L 179.670127 25.128684 
L 181.136544 25.077522 
L 181.136544 25.020675 
L 181.136544 24.816026 
L 182.60296 24.781918 
L 182.60296 24.708017 
L 182.60296 24.355567 
L 183.569329 24.247558 
L 183.608922 24.008801 
L 184.069377 23.991747 
L 184.069377 23.900792 
L 184.120701 22.712693 
L 187.423071 22.604684 
L 187.423071 22.598999 
L 188.613801 22.525098 
L 188.613801 22.49099 
L 188.719383 22.439828 
L 189.493651 22.434143 
L 189.493651 22.331819 
L 189.493651 22.297711 
L 189.782535 22.189702 
L 189.782535 22.166963 
L 194.475068 22.121486 
L 194.475068 22.058954 
L 194.475068 22.05327 
L 195.800708 22.019162 
L 195.800708 21.945261 
L 195.898958 21.632603 
L 197.267125 21.547333 
L 197.267125 21.524594 
L 197.267125 20.984549 
L 198.585433 20.87654 
L 198.691015 20.654837 
L 200.199958 20.637783 
L 200.199958 20.546828 
L 200.199958 19.608856 
L 203.273567 19.540639 
L 203.273567 19.500847 
L 203.277966 19.483792 
L 208.982326 19.381468 
L 208.982326 19.375783 
L 208.998457 19.131342 
L 209.11357 19.131342 
L 209.11357 19.023333 
L 209.11357 18.858477 
L 210.610048 18.778892 
L 210.610048 18.750468 
L 210.659906 18.648144 
L 212.048456 18.596982 
L 212.048456 18.540135 
L 212.069719 18.238847 
L 217.796955 18.136522 
L 217.796955 18.130838 
L 217.796955 18.079676 
L 220.729788 18.005775 
L 220.729788 17.971667 
L 220.729788 17.886396 
L 226.595454 17.846603 
L 226.595454 17.778387 
L 226.595454 17.738594 
L 226.727432 17.738594 
L 226.727432 17.630585 
L 226.727432 17.573739 
L 227.561823 17.568054 
L 227.561823 17.46573 
L 227.620479 17.124649 
L 247.132617 17.01664 
L 247.132617 17.010955 
L 270.0879 16.948423 
L 270.0879 16.92 
" clip-path="url(#pf1491cff09)" style="fill: none; stroke: #4c72b0; stroke-width: 1.5; stroke-linecap: round"/>
   </g>
   <g id="patch_3">
    <path d="M 52.70625 312.66 
L 52.70625 16.92 
" style="fill: none; stroke: #ffffff; stroke-width: 1.25; stroke-linejoin: miter; stroke-linecap: square"/>
   </g>
   <g id="patch_4">
    <path d="M 52.70625 312.66 
L 342.4131 312.66 
" style="fill: none; stroke: #ffffff; stroke-width: 1.25; stroke-linejoin: miter; stroke-linecap: square"/>
   </g>
  </g>
  <g id="legend_1">
   <g id="text_17">
    <!-- state -->
    <g style="fill: #262626" transform="translate(392.887031 159.762422) scale(0.12 -0.12)">
     <defs>
      <path id="ArialMT-73" d="M 197 991 
L 753 1078 
Q 800 744 1014 566 
Q 1228 388 1613 388 
Q 2000 388 2187 545 
Q 2375 703 2375 916 
Q 2375 1106 2209 1216 
Q 2094 1291 1634 1406 
Q 1016 1563 777 1677 
Q 538 1791 414 1992 
Q 291 2194 291 2438 
Q 291 2659 392 2848 
Q 494 3038 669 3163 
Q 800 3259 1026 3326 
Q 1253 3394 1513 3394 
Q 1903 3394 2198 3281 
Q 2494 3169 2634 2976 
Q 2775 2784 2828 2463 
L 2278 2388 
Q 2241 2644 2061 2787 
Q 1881 2931 1553 2931 
Q 1166 2931 1000 2803 
Q 834 2675 834 2503 
Q 834 2394 903 2306 
Q 972 2216 1119 2156 
Q 1203 2125 1616 2013 
Q 2213 1853 2448 1751 
Q 2684 1650 2818 1456 
Q 2953 1263 2953 975 
Q 2953 694 2789 445 
Q 2625 197 2315 61 
Q 2006 -75 1616 -75 
Q 969 -75 630 194 
Q 291 463 197 991 
z
" transform="scale(0.015625)"/>
      <path id="ArialMT-61" d="M 2588 409 
Q 2275 144 1986 34 
Q 1697 -75 1366 -75 
Q 819 -75 525 192 
Q 231 459 231 875 
Q 231 1119 342 1320 
Q 453 1522 633 1644 
Q 813 1766 1038 1828 
Q 1203 1872 1538 1913 
Q 2219 1994 2541 2106 
Q 2544 2222 2544 2253 
Q 2544 2597 2384 2738 
Q 2169 2928 1744 2928 
Q 1347 2928 1158 2789 
Q 969 2650 878 2297 
L 328 2372 
Q 403 2725 575 2942 
Q 747 3159 1072 3276 
Q 1397 3394 1825 3394 
Q 2250 3394 2515 3294 
Q 2781 3194 2906 3042 
Q 3031 2891 3081 2659 
Q 3109 2516 3109 2141 
L 3109 1391 
Q 3109 606 3145 398 
Q 3181 191 3288 0 
L 2700 0 
Q 2613 175 2588 409 
z
M 2541 1666 
Q 2234 1541 1622 1453 
Q 1275 1403 1131 1340 
Q 988 1278 909 1158 
Q 831 1038 831 891 
Q 831 666 1001 516 
Q 1172 366 1500 366 
Q 1825 366 2078 508 
Q 2331 650 2450 897 
Q 2541 1088 2541 1459 
L 2541 1666 
z
" transform="scale(0.015625)"/>
     </defs>
     <use xlink:href="#ArialMT-73"/>
     <use xlink:href="#ArialMT-74" transform="translate(50 0)"/>
     <use xlink:href="#ArialMT-61" transform="translate(77.783203 0)"/>
     <use xlink:href="#ArialMT-74" transform="translate(133.398438 0)"/>
     <use xlink:href="#ArialMT-65" transform="translate(161.181641 0)"/>
    </g>
   </g>
   <g id="line2d_18">
    <path d="M 358.997812 171.671016 
L 369.997812 171.671016 
L 369.997812 171.671016 
L 380.997812 171.671016 
L 380.997812 171.671016 
" style="fill: none; stroke: #4c72b0; stroke-width: 1.5; stroke-linecap: round"/>
   </g>
   <g id="text_18">
    <!-- new -->
    <g style="fill: #262626" transform="translate(389.797812 175.521016) scale(0.11 -0.11)">
     <defs>
      <path id="ArialMT-77" d="M 1034 0 
L 19 3319 
L 600 3319 
L 1128 1403 
L 1325 691 
Q 1338 744 1497 1375 
L 2025 3319 
L 2603 3319 
L 3100 1394 
L 3266 759 
L 3456 1400 
L 4025 3319 
L 4572 3319 
L 3534 0 
L 2950 0 
L 2422 1988 
L 2294 2553 
L 1622 0 
L 1034 0 
z
" transform="scale(0.015625)"/>
     </defs>
     <use xlink:href="#ArialMT-6e"/>
     <use xlink:href="#ArialMT-65" transform="translate(55.615234 0)"/>
     <use xlink:href="#ArialMT-77" transform="translate(111.230469 0)"/>
    </g>
   </g>
   <g id="line2d_19">
    <path d="M 358.997812 187.230859 
L 369.997812 187.230859 
L 369.997812 187.230859 
L 380.997812 187.230859 
L 380.997812 187.230859 
" style="fill: none; stroke: #dd8452; stroke-width: 1.5; stroke-linecap: round"/>
   </g>
   <g id="text_19">
    <!-- second hand -->
    <g style="fill: #262626" transform="translate(389.797812 191.080859) scale(0.11 -0.11)">
     <defs>
      <path id="ArialMT-64" d="M 2575 0 
L 2575 419 
Q 2259 -75 1647 -75 
Q 1250 -75 917 144 
Q 584 363 401 755 
Q 219 1147 219 1656 
Q 219 2153 384 2558 
Q 550 2963 881 3178 
Q 1213 3394 1622 3394 
Q 1922 3394 2156 3267 
Q 2391 3141 2538 2938 
L 2538 4581 
L 3097 4581 
L 3097 0 
L 2575 0 
z
M 797 1656 
Q 797 1019 1065 703 
Q 1334 388 1700 388 
Q 2069 388 2326 689 
Q 2584 991 2584 1609 
Q 2584 2291 2321 2609 
Q 2059 2928 1675 2928 
Q 1300 2928 1048 2622 
Q 797 2316 797 1656 
z
" transform="scale(0.015625)"/>
      <path id="ArialMT-20" transform="scale(0.015625)"/>
      <path id="ArialMT-68" d="M 422 0 
L 422 4581 
L 984 4581 
L 984 2938 
Q 1378 3394 1978 3394 
Q 2347 3394 2619 3248 
Q 2891 3103 3008 2847 
Q 3125 2591 3125 2103 
L 3125 0 
L 2563 0 
L 2563 2103 
Q 2563 2525 2380 2717 
Q 2197 2909 1863 2909 
Q 1613 2909 1392 2779 
Q 1172 2650 1078 2428 
Q 984 2206 984 1816 
L 984 0 
L 422 0 
z
" transform="scale(0.015625)"/>
     </defs>
     <use xlink:href="#ArialMT-73"/>
     <use xlink:href="#ArialMT-65" transform="translate(50 0)"/>
     <use xlink:href="#ArialMT-63" transform="translate(105.615234 0)"/>
     <use xlink:href="#ArialMT-6f" transform="translate(155.615234 0)"/>
     <use xlink:href="#ArialMT-6e" transform="translate(211.230469 0)"/>
     <use xlink:href="#ArialMT-64" transform="translate(266.845703 0)"/>
     <use xlink:href="#ArialMT-20" transform="translate(322.460938 0)"/>
     <use xlink:href="#ArialMT-68" transform="translate(350.244141 0)"/>
     <use xlink:href="#ArialMT-61" transform="translate(405.859375 0)"/>
     <use xlink:href="#ArialMT-6e" transform="translate(461.474609 0)"/>
     <use xlink:href="#ArialMT-64" transform="translate(517.089844 0)"/>
    </g>
   </g>
   <g id="line2d_20">
    <path d="M 358.997812 202.790703 
L 369.997812 202.790703 
L 369.997812 202.790703 
L 380.997812 202.790703 
L 380.997812 202.790703 
" style="fill: none; stroke: #55a868; stroke-width: 1.5; stroke-linecap: round"/>
   </g>
   <g id="text_20">
    <!-- repair -->
    <g style="fill: #262626" transform="translate(389.797812 206.640703) scale(0.11 -0.11)">
     <use xlink:href="#ArialMT-72"/>
     <use xlink:href="#ArialMT-65" transform="translate(33.300781 0)"/>
     <use xlink:href="#ArialMT-70" transform="translate(88.916016 0)"/>
     <use xlink:href="#ArialMT-61" transform="translate(144.53125 0)"/>
     <use xlink:href="#ArialMT-69" transform="translate(200.146484 0)"/>
     <use xlink:href="#ArialMT-72" transform="translate(222.363281 0)"/>
    </g>
   </g>
  </g>
 </g>
 <defs>
  <clipPath id="pf1491cff09">
   <rect x="52.70625" y="16.92" width="289.70685" height="295.74"/>
  </clipPath>
 </defs>
</svg>
