<?xml version="1.0" encoding="utf-8" standalone="no"?>
<!DOCTYPE svg PUBLIC "-//W3C//DTD SVG 1.1//EN"
  "http://www.w3.org/Graphics/SVG/1.1/DTD/svg11.dtd">
<svg xmlns:xlink="http://www.w3.org/1999/xlink" width="864pt" height="432pt" viewBox="0 0 864 432" xmlns="http://www.w3.org/2000/svg" version="1.1">
 <metadata>
  <rdf:RDF xmlns:dc="http://purl.org/dc/elements/1.1/" xmlns:cc="http://creativecommons.org/ns#" xmlns:rdf="http://www.w3.org/1999/02/22-rdf-syntax-ns#">
   <cc:Work>
    <dc:type rdf:resource="http://purl.org/dc/dcmitype/StillImage"/>
    <dc:date>2026-05-19T09:38:42.399827</dc:date>
    <dc:format>image/svg+xml</dc:format>
    <dc:creator>
     <cc:Agent>
      <dc:title>Matplotlib v3.10.9, https://matplotlib.org/</dc:title>
     </cc:Agent>
    </dc:creator>
   </cc:Work>
  </rdf:RDF>
 </metadata>
 <defs>
  <style type="text/css">*{stroke-linejoin: round; stroke-linecap: butt}</style>
 </defs>
 <g id="figure_1">
  <g id="patch_1">
   <path d="M 0 432 
L 864 432 
L 864 0 
L 0 0 
z
" style="fill: #ffffff"/>
  </g>
  <g id="axes_1">
   <g id="patch_2">
    <path d="M 108 384.48 
L 777.6 384.48 
L 777.6 51.84 
L 108 51.84 
z
" style="fill: #eaeaf2"/>
   </g>
   <g id="matplotlib.axis_1">
    <g id="xtick_1">
     <g id="text_1">
      <!-- 2017-01 -->
      <g style="fill: #262626" transform="translate(122.290426 399.078875) scale(0.088 -0.088)">
       <defs>
        <path id="ArialMT-32" d="M 3222 541 
L 3222 0 
L 194 0 
Q 188 203 259 391 
Q 375 700 629 1000 
Q 884 1300 1366 1694 
Q 2113 2306 2375 2664 
Q 2638 3022 2638 3341 
Q 2638 3675 2398 3904 
Q 2159 4134 1775 4134 
Q 1369 4134 1125 3890 
Q 881 3647 878 3216 
L 300 3275 
Q 359 3922 746 4261 
Q 1134 4600 1788 4600 
Q 2447 4600 2831 4234 
Q 3216 3869 3216 3328 
Q 3216 3053 3103 2787 
Q 2991 2522 2730 2228 
Q 2469 1934 1863 1422 
Q 1356 997 1212 845 
Q 1069 694 975 541 
L 3222 541 
z
" transform="scale(0.015625)"/>
        <path id="ArialMT-30" d="M 266 2259 
Q 266 3072 433 3567 
Q 600 4063 929 4331 
Q 1259 4600 1759 4600 
Q 2128 4600 2406 4451 
Q 2684 4303 2865 4023 
Q 3047 3744 3150 3342 
Q 3253 2941 3253 2259 
Q 3253 1453 3087 958 
Q 2922 463 2592 192 
Q 2263 -78 1759 -78 
Q 1097 -78 719 397 
Q 266 969 266 2259 
z
M 844 2259 
Q 844 1131 1108 757 
Q 1372 384 1759 384 
Q 2147 384 2411 759 
Q 2675 1134 2675 2259 
Q 2675 3391 2411 3762 
Q 2147 4134 1753 4134 
Q 1366 4134 1134 3806 
Q 844 3388 844 2259 
z
" transform="scale(0.015625)"/>
        <path id="ArialMT-31" d="M 2384 0 
L 1822 0 
L 1822 3584 
Q 1619 3391 1289 3197 
Q 959 3003 697 2906 
L 697 3450 
Q 1169 3672 1522 3987 
Q 1875 4303 2022 4600 
L 2384 4600 
L 2384 0 
z
" transform="scale(0.015625)"/>
        <path id="ArialMT-37" d="M 303 3981 
L 303 4522 
L 3269 4522 
L 3269 4084 
Q 2831 3619 2401 2847 
Q 1972 2075 1738 1259 
Q 1569 684 1522 0 
L 944 0 
Q 953 541 1156 1306 
Q 1359 2072 1739 2783 
Q 2119 3494 2547 3981 
L 303 3981 
z
" transform="scale(0.015625)"/>
        <path id="ArialMT-2d" d="M 203 1375 
L 203 1941 
L 1931 1941 
L 1931 1375 
L 203 1375 
z
" transform="scale(0.015625)"/>
       </defs>
       <use xlink:href="#ArialMT-32"/>
       <use xlink:href="#ArialMT-30" transform="translate(55.615234 0)"/>
       <use xlink:href="#ArialMT-31" transform="translate(111.230469 0)"/>
       <use xlink:href="#ArialMT-37" transform="translate(166.845703 0)"/>
       <use xlink:href="#ArialMT-2d" transform="translate(222.460938 0)"/>
       <use xlink:href="#ArialMT-30" transform="translate(255.761719 0)"/>
       <use xlink:href="#ArialMT-31" transform="translate(311.376953 0)"/>
      </g>
     </g>
    </g>
    <g id="xtick_2">
     <g id="text_2">
      <!-- 2017-03 -->
      <g style="fill: #262626" transform="translate(203.730129 399.078875) scale(0.088 -0.088)">
       <defs>
        <path id="ArialMT-33" d="M 269 1209 
L 831 1284 
Q 928 806 1161 595 
Q 1394 384 1728 384 
Q 2125 384 2398 659 
Q 2672 934 2672 1341 
Q 2672 1728 2419 1979 
Q 2166 2231 1775 2231 
Q 1616 2231 1378 2169 
L 1441 2663 
Q 1497 2656 1531 2656 
Q 1891 2656 2178 2843 
Q 2466 3031 2466 3422 
Q 2466 3731 2256 3934 
Q 2047 4138 1716 4138 
Q 1388 4138 1169 3931 
Q 950 3725 888 3313 
L 325 3413 
Q 428 3978 793 4289 
Q 1159 4600 1703 4600 
Q 2078 4600 2393 4439 
Q 2709 4278 2876 4000 
Q 3044 3722 3044 3409 
Q 3044 3113 2884 2869 
Q 2725 2625 2413 2481 
Q 2819 2388 3044 2092 
Q 3269 1797 3269 1353 
Q 3269 753 2831 336 
Q 2394 -81 1725 -81 
Q 1122 -81 723 278 
Q 325 638 269 1209 
z
" transform="scale(0.015625)"/>
       </defs>
       <use xlink:href="#ArialMT-32"/>
       <use xlink:href="#ArialMT-30" transform="translate(55.615234 0)"/>
       <use xlink:href="#ArialMT-31" transform="translate(111.230469 0)"/>
       <use xlink:href="#ArialMT-37" transform="translate(166.845703 0)"/>
       <use xlink:href="#ArialMT-2d" transform="translate(222.460938 0)"/>
       <use xlink:href="#ArialMT-30" transform="translate(255.761719 0)"/>
       <use xlink:href="#ArialMT-33" transform="translate(311.376953 0)"/>
      </g>
     </g>
    </g>
    <g id="xtick_3">
     <g id="text_3">
      <!-- 2017-05 -->
      <g style="fill: #262626" transform="translate(287.9305 399.078875) scale(0.088 -0.088)">
       <defs>
        <path id="ArialMT-35" d="M 266 1200 
L 856 1250 
Q 922 819 1161 601 
Q 1400 384 1738 384 
Q 2144 384 2425 690 
Q 2706 997 2706 1503 
Q 2706 1984 2436 2262 
Q 2166 2541 1728 2541 
Q 1456 2541 1237 2417 
Q 1019 2294 894 2097 
L 366 2166 
L 809 4519 
L 3088 4519 
L 3088 3981 
L 1259 3981 
L 1013 2750 
Q 1425 3038 1878 3038 
Q 2478 3038 2890 2622 
Q 3303 2206 3303 1553 
Q 3303 931 2941 478 
Q 2500 -78 1738 -78 
Q 1113 -78 717 272 
Q 322 622 266 1200 
z
" transform="scale(0.015625)"/>
       </defs>
       <use xlink:href="#ArialMT-32"/>
       <use xlink:href="#ArialMT-30" transform="translate(55.615234 0)"/>
       <use xlink:href="#ArialMT-31" transform="translate(111.230469 0)"/>
       <use xlink:href="#ArialMT-37" transform="translate(166.845703 0)"/>
       <use xlink:href="#ArialMT-2d" transform="translate(222.460938 0)"/>
       <use xlink:href="#ArialMT-30" transform="translate(255.761719 0)"/>
       <use xlink:href="#ArialMT-35" transform="translate(311.376953 0)"/>
      </g>
     </g>
    </g>
    <g id="xtick_4">
     <g id="text_4">
      <!-- 2017-07 -->
      <g style="fill: #262626" transform="translate(372.130871 399.078875) scale(0.088 -0.088)">
       <use xlink:href="#ArialMT-32"/>
       <use xlink:href="#ArialMT-30" transform="translate(55.615234 0)"/>
       <use xlink:href="#ArialMT-31" transform="translate(111.230469 0)"/>
       <use xlink:href="#ArialMT-37" transform="translate(166.845703 0)"/>
       <use xlink:href="#ArialMT-2d" transform="translate(222.460938 0)"/>
       <use xlink:href="#ArialMT-30" transform="translate(255.761719 0)"/>
       <use xlink:href="#ArialMT-37" transform="translate(311.376953 0)"/>
      </g>
     </g>
    </g>
    <g id="xtick_5">
     <g id="text_5">
      <!-- 2017-09 -->
      <g style="fill: #262626" transform="translate(457.711576 399.078875) scale(0.088 -0.088)">
       <defs>
        <path id="ArialMT-39" d="M 350 1059 
L 891 1109 
Q 959 728 1153 556 
Q 1347 384 1650 384 
Q 1909 384 2104 503 
Q 2300 622 2425 820 
Q 2550 1019 2634 1356 
Q 2719 1694 2719 2044 
Q 2719 2081 2716 2156 
Q 2547 1888 2255 1720 
Q 1963 1553 1622 1553 
Q 1053 1553 659 1965 
Q 266 2378 266 3053 
Q 266 3750 677 4175 
Q 1088 4600 1706 4600 
Q 2153 4600 2523 4359 
Q 2894 4119 3086 3673 
Q 3278 3228 3278 2384 
Q 3278 1506 3087 986 
Q 2897 466 2520 194 
Q 2144 -78 1638 -78 
Q 1100 -78 759 220 
Q 419 519 350 1059 
z
M 2653 3081 
Q 2653 3566 2395 3850 
Q 2138 4134 1775 4134 
Q 1400 4134 1122 3828 
Q 844 3522 844 3034 
Q 844 2597 1108 2323 
Q 1372 2050 1759 2050 
Q 2150 2050 2401 2323 
Q 2653 2597 2653 3081 
z
" transform="scale(0.015625)"/>
       </defs>
       <use xlink:href="#ArialMT-32"/>
       <use xlink:href="#ArialMT-30" transform="translate(55.615234 0)"/>
       <use xlink:href="#ArialMT-31" transform="translate(111.230469 0)"/>
       <use xlink:href="#ArialMT-37" transform="translate(166.845703 0)"/>
       <use xlink:href="#ArialMT-2d" transform="translate(222.460938 0)"/>
       <use xlink:href="#ArialMT-30" transform="translate(255.761719 0)"/>
       <use xlink:href="#ArialMT-39" transform="translate(311.376953 0)"/>
      </g>
     </g>
    </g>
    <g id="xtick_6">
     <g id="text_6">
      <!-- 2017-11 -->
      <g style="fill: #262626" transform="translate(542.236447 399.078875) scale(0.088 -0.088)">
       <use xlink:href="#ArialMT-32"/>
       <use xlink:href="#ArialMT-30" transform="translate(55.615234 0)"/>
       <use xlink:href="#ArialMT-31" transform="translate(111.230469 0)"/>
       <use xlink:href="#ArialMT-37" transform="translate(166.845703 0)"/>
       <use xlink:href="#ArialMT-2d" transform="translate(222.460938 0)"/>
       <use xlink:href="#ArialMT-31" transform="translate(255.761719 0)"/>
       <use xlink:href="#ArialMT-31" transform="translate(304.001953 0)"/>
      </g>
     </g>
    </g>
    <g id="xtick_7">
     <g id="text_7">
      <!-- 2018-01 -->
      <g style="fill: #262626" transform="translate(626.112319 399.078875) scale(0.088 -0.088)">
       <defs>
        <path id="ArialMT-38" d="M 1131 2484 
Q 781 2613 612 2850 
Q 444 3088 444 3419 
Q 444 3919 803 4259 
Q 1163 4600 1759 4600 
Q 2359 4600 2725 4251 
Q 3091 3903 3091 3403 
Q 3091 3084 2923 2848 
Q 2756 2613 2416 2484 
Q 2838 2347 3058 2040 
Q 3278 1734 3278 1309 
Q 3278 722 2862 322 
Q 2447 -78 1769 -78 
Q 1091 -78 675 323 
Q 259 725 259 1325 
Q 259 1772 486 2073 
Q 713 2375 1131 2484 
z
M 1019 3438 
Q 1019 3113 1228 2906 
Q 1438 2700 1772 2700 
Q 2097 2700 2305 2904 
Q 2513 3109 2513 3406 
Q 2513 3716 2298 3927 
Q 2084 4138 1766 4138 
Q 1444 4138 1231 3931 
Q 1019 3725 1019 3438 
z
M 838 1322 
Q 838 1081 952 856 
Q 1066 631 1291 507 
Q 1516 384 1775 384 
Q 2178 384 2440 643 
Q 2703 903 2703 1303 
Q 2703 1709 2433 1975 
Q 2163 2241 1756 2241 
Q 1359 2241 1098 1978 
Q 838 1716 838 1322 
z
" transform="scale(0.015625)"/>
       </defs>
       <use xlink:href="#ArialMT-32"/>
       <use xlink:href="#ArialMT-30" transform="translate(55.615234 0)"/>
       <use xlink:href="#ArialMT-31" transform="translate(111.230469 0)"/>
       <use xlink:href="#ArialMT-38" transform="translate(166.845703 0)"/>
       <use xlink:href="#ArialMT-2d" transform="translate(222.460938 0)"/>
       <use xlink:href="#ArialMT-30" transform="translate(255.761719 0)"/>
       <use xlink:href="#ArialMT-31" transform="translate(311.376953 0)"/>
      </g>
     </g>
    </g>
    <g id="xtick_8">
     <g id="text_8">
      <!-- 2018-03 -->
      <g style="fill: #262626" transform="translate(707.552022 399.078875) scale(0.088 -0.088)">
       <use xlink:href="#ArialMT-32"/>
       <use xlink:href="#ArialMT-30" transform="translate(55.615234 0)"/>
       <use xlink:href="#ArialMT-31" transform="translate(111.230469 0)"/>
       <use xlink:href="#ArialMT-38" transform="translate(166.845703 0)"/>
       <use xlink:href="#ArialMT-2d" transform="translate(222.460938 0)"/>
       <use xlink:href="#ArialMT-30" transform="translate(255.761719 0)"/>
       <use xlink:href="#ArialMT-33" transform="translate(311.376953 0)"/>
      </g>
     </g>
    </g>
    <g id="text_9">
     <!-- date -->
     <g style="fill: #262626" transform="translate(433.45875 411.699375) scale(0.096 -0.096)">
      <defs>
       <path id="ArialMT-64" d="M 2575 0 
L 2575 419 
Q 2259 -75 1647 -75 
Q 1250 -75 917 144 
Q 584 363 401 755 
Q 219 1147 219 1656 
Q 219 2153 384 2558 
Q 550 2963 881 3178 
Q 1213 3394 1622 3394 
Q 1922 3394 2156 3267 
Q 2391 3141 2538 2938 
L 2538 4581 
L 3097 4581 
L 3097 0 
L 2575 0 
z
M 797 1656 
Q 797 1019 1065 703 
Q 1334 388 1700 388 
Q 2069 388 2326 689 
Q 2584 991 2584 1609 
Q 2584 2291 2321 2609 
Q 2059 2928 1675 2928 
Q 1300 2928 1048 2622 
Q 797 2316 797 1656 
z
" transform="scale(0.015625)"/>
       <path id="ArialMT-61" d="M 2588 409 
Q 2275 144 1986 34 
Q 1697 -75 1366 -75 
Q 819 -75 525 192 
Q 231 459 231 875 
Q 231 1119 342 1320 
Q 453 1522 633 1644 
Q 813 1766 1038 1828 
Q 1203 1872 1538 1913 
Q 2219 1994 2541 2106 
Q 2544 2222 2544 2253 
Q 2544 2597 2384 2738 
Q 2169 2928 1744 2928 
Q 1347 2928 1158 2789 
Q 969 2650 878 2297 
L 328 2372 
Q 403 2725 575 2942 
Q 747 3159 1072 3276 
Q 1397 3394 1825 3394 
Q 2250 3394 2515 3294 
Q 2781 3194 2906 3042 
Q 3031 2891 3081 2659 
Q 3109 2516 3109 2141 
L 3109 1391 
Q 3109 606 3145 398 
Q 3181 191 3288 0 
L 2700 0 
Q 2613 175 2588 409 
z
M 2541 1666 
Q 2234 1541 1622 1453 
Q 1275 1403 1131 1340 
Q 988 1278 909 1158 
Q 831 1038 831 891 
Q 831 666 1001 516 
Q 1172 366 1500 366 
Q 1825 366 2078 508 
Q 2331 650 2450 897 
Q 2541 1088 2541 1459 
L 2541 1666 
z
" transform="scale(0.015625)"/>
       <path id="ArialMT-74" d="M 1650 503 
L 1731 6 
Q 1494 -44 1306 -44 
Q 1000 -44 831 53 
Q 663 150 594 308 
Q 525 466 525 972 
L 525 2881 
L 113 2881 
L 113 3319 
L 525 3319 
L 525 4141 
L 1084 4478 
L 1084 3319 
L 1650 3319 
L 1650 2881 
L 1084 2881 
L 1084 941 
Q 1084 700 1114 631 
Q 1144 563 1211 522 
Q 1278 481 1403 481 
Q 1497 481 1650 503 
z
" transform="scale(0.015625)"/>
       <path id="ArialMT-65" d="M 2694 1069 
L 3275 997 
Q 3138 488 2766 206 
Q 2394 -75 1816 -75 
Q 1088 -75 661 373 
Q 234 822 234 1631 
Q 234 2469 665 2931 
Q 1097 3394 1784 3394 
Q 2450 3394 2872 2941 
Q 3294 2488 3294 1666 
Q 3294 1616 3291 1516 
L 816 1516 
Q 847 969 1125 678 
Q 1403 388 1819 388 
Q 2128 388 2347 550 
Q 2566 713 2694 1069 
z
M 847 1978 
L 2700 1978 
Q 2663 2397 2488 2606 
Q 2219 2931 1791 2931 
Q 1403 2931 1139 2672 
Q 875 2413 847 1978 
z
" transform="scale(0.015625)"/>
      </defs>
      <use xlink:href="#ArialMT-64"/>
      <use xlink:href="#ArialMT-61" transform="translate(55.615234 0)"/>
      <use xlink:href="#ArialMT-74" transform="translate(111.230469 0)"/>
      <use xlink:href="#ArialMT-65" transform="translate(139.013672 0)"/>
     </g>
    </g>
   </g>
   <g id="matplotlib.axis_2">
    <g id="ytick_1">
     <g id="text_10">
      <!-- 0.0 -->
      <g style="fill: #262626" transform="translate(87.468 375.185848) scale(0.088 -0.088)">
       <defs>
        <path id="ArialMT-2e" d="M 581 0 
L 581 641 
L 1222 641 
L 1222 0 
L 581 0 
z
" transform="scale(0.015625)"/>
       </defs>
       <use xlink:href="#ArialMT-30"/>
       <use xlink:href="#ArialMT-2e" transform="translate(55.615234 0)"/>
       <use xlink:href="#ArialMT-30" transform="translate(83.398438 0)"/>
      </g>
     </g>
    </g>
    <g id="ytick_2">
     <g id="text_11">
      <!-- 0.2 -->
      <g style="fill: #262626" transform="translate(87.468 338.084904) scale(0.088 -0.088)">
       <use xlink:href="#ArialMT-30"/>
       <use xlink:href="#ArialMT-2e" transform="translate(55.615234 0)"/>
       <use xlink:href="#ArialMT-32" transform="translate(83.398438 0)"/>
      </g>
     </g>
    </g>
    <g id="ytick_3">
     <g id="text_12">
      <!-- 0.4 -->
      <g style="fill: #262626" transform="translate(87.468 300.983961) scale(0.088 -0.088)">
       <defs>
        <path id="ArialMT-34" d="M 2069 0 
L 2069 1097 
L 81 1097 
L 81 1613 
L 2172 4581 
L 2631 4581 
L 2631 1613 
L 3250 1613 
L 3250 1097 
L 2631 1097 
L 2631 0 
L 2069 0 
z
M 2069 1613 
L 2069 3678 
L 634 1613 
L 2069 1613 
z
" transform="scale(0.015625)"/>
       </defs>
       <use xlink:href="#ArialMT-30"/>
       <use xlink:href="#ArialMT-2e" transform="translate(55.615234 0)"/>
       <use xlink:href="#ArialMT-34" transform="translate(83.398438 0)"/>
      </g>
     </g>
    </g>
    <g id="ytick_4">
     <g id="text_13">
      <!-- 0.6 -->
      <g style="fill: #262626" transform="translate(87.468 263.883018) scale(0.088 -0.088)">
       <defs>
        <path id="ArialMT-36" d="M 3184 3459 
L 2625 3416 
Q 2550 3747 2413 3897 
Q 2184 4138 1850 4138 
Q 1581 4138 1378 3988 
Q 1113 3794 959 3422 
Q 806 3050 800 2363 
Q 1003 2672 1297 2822 
Q 1591 2972 1913 2972 
Q 2475 2972 2870 2558 
Q 3266 2144 3266 1488 
Q 3266 1056 3080 686 
Q 2894 316 2569 119 
Q 2244 -78 1831 -78 
Q 1128 -78 684 439 
Q 241 956 241 2144 
Q 241 3472 731 4075 
Q 1159 4600 1884 4600 
Q 2425 4600 2770 4297 
Q 3116 3994 3184 3459 
z
M 888 1484 
Q 888 1194 1011 928 
Q 1134 663 1356 523 
Q 1578 384 1822 384 
Q 2178 384 2434 671 
Q 2691 959 2691 1453 
Q 2691 1928 2437 2201 
Q 2184 2475 1800 2475 
Q 1419 2475 1153 2201 
Q 888 1928 888 1484 
z
" transform="scale(0.015625)"/>
       </defs>
       <use xlink:href="#ArialMT-30"/>
       <use xlink:href="#ArialMT-2e" transform="translate(55.615234 0)"/>
       <use xlink:href="#ArialMT-36" transform="translate(83.398438 0)"/>
      </g>
     </g>
    </g>
    <g id="ytick_5">
     <g id="text_14">
      <!-- 0.8 -->
      <g style="fill: #262626" transform="translate(87.468 226.782074) scale(0.088 -0.088)">
       <use xlink:href="#ArialMT-30"/>
       <use xlink:href="#ArialMT-2e" transform="translate(55.615234 0)"/>
       <use xlink:href="#ArialMT-38" transform="translate(83.398438 0)"/>
      </g>
     </g>
    </g>
    <g id="ytick_6">
     <g id="text_15">
      <!-- 1.0 -->
      <g style="fill: #262626" transform="translate(87.468 189.681131) scale(0.088 -0.088)">
       <use xlink:href="#ArialMT-31"/>
       <use xlink:href="#ArialMT-2e" transform="translate(55.615234 0)"/>
       <use xlink:href="#ArialMT-30" transform="translate(83.398438 0)"/>
      </g>
     </g>
    </g>
    <g id="ytick_7">
     <g id="text_16">
      <!-- 1.2 -->
      <g style="fill: #262626" transform="translate(87.468 152.580188) scale(0.088 -0.088)">
       <use xlink:href="#ArialMT-31"/>
       <use xlink:href="#ArialMT-2e" transform="translate(55.615234 0)"/>
       <use xlink:href="#ArialMT-32" transform="translate(83.398438 0)"/>
      </g>
     </g>
    </g>
    <g id="ytick_8">
     <g id="text_17">
      <!-- 1.4 -->
      <g style="fill: #262626" transform="translate(87.468 115.479244) scale(0.088 -0.088)">
       <use xlink:href="#ArialMT-31"/>
       <use xlink:href="#ArialMT-2e" transform="translate(55.615234 0)"/>
       <use xlink:href="#ArialMT-34" transform="translate(83.398438 0)"/>
      </g>
     </g>
    </g>
    <g id="ytick_9">
     <g id="text_18">
      <!-- 1.6 -->
      <g style="fill: #262626" transform="translate(87.468 78.378301) scale(0.088 -0.088)">
       <use xlink:href="#ArialMT-31"/>
       <use xlink:href="#ArialMT-2e" transform="translate(55.615234 0)"/>
       <use xlink:href="#ArialMT-36" transform="translate(83.398438 0)"/>
      </g>
     </g>
    </g>
    <g id="text_19">
     <!-- revenue -->
     <g style="fill: #262626" transform="translate(81.56 235.5045) rotate(-90) scale(0.096 -0.096)">
      <defs>
       <path id="ArialMT-72" d="M 416 0 
L 416 3319 
L 922 3319 
L 922 2816 
Q 1116 3169 1280 3281 
Q 1444 3394 1641 3394 
Q 1925 3394 2219 3213 
L 2025 2691 
Q 1819 2813 1613 2813 
Q 1428 2813 1281 2702 
Q 1134 2591 1072 2394 
Q 978 2094 978 1738 
L 978 0 
L 416 0 
z
" transform="scale(0.015625)"/>
       <path id="ArialMT-76" d="M 1344 0 
L 81 3319 
L 675 3319 
L 1388 1331 
Q 1503 1009 1600 663 
Q 1675 925 1809 1294 
L 2547 3319 
L 3125 3319 
L 1869 0 
L 1344 0 
z
" transform="scale(0.015625)"/>
       <path id="ArialMT-6e" d="M 422 0 
L 422 3319 
L 928 3319 
L 928 2847 
Q 1294 3394 1984 3394 
Q 2284 3394 2536 3286 
Q 2788 3178 2913 3003 
Q 3038 2828 3088 2588 
Q 3119 2431 3119 2041 
L 3119 0 
L 2556 0 
L 2556 2019 
Q 2556 2363 2490 2533 
Q 2425 2703 2258 2804 
Q 2091 2906 1866 2906 
Q 1506 2906 1245 2678 
Q 984 2450 984 1813 
L 984 0 
L 422 0 
z
" transform="scale(0.015625)"/>
       <path id="ArialMT-75" d="M 2597 0 
L 2597 488 
Q 2209 -75 1544 -75 
Q 1250 -75 995 37 
Q 741 150 617 320 
Q 494 491 444 738 
Q 409 903 409 1263 
L 409 3319 
L 972 3319 
L 972 1478 
Q 972 1038 1006 884 
Q 1059 663 1231 536 
Q 1403 409 1656 409 
Q 1909 409 2131 539 
Q 2353 669 2445 892 
Q 2538 1116 2538 1541 
L 2538 3319 
L 3100 3319 
L 3100 0 
L 2597 0 
z
" transform="scale(0.015625)"/>
      </defs>
      <use xlink:href="#ArialMT-72"/>
      <use xlink:href="#ArialMT-65" transform="translate(33.300781 0)"/>
      <use xlink:href="#ArialMT-76" transform="translate(88.916016 0)"/>
      <use xlink:href="#ArialMT-65" transform="translate(138.916016 0)"/>
      <use xlink:href="#ArialMT-6e" transform="translate(194.53125 0)"/>
      <use xlink:href="#ArialMT-75" transform="translate(250.146484 0)"/>
      <use xlink:href="#ArialMT-65" transform="translate(305.761719 0)"/>
     </g>
    </g>
    <g id="text_20">
     <!-- 1e6 -->
     <g style="fill: #262626" transform="translate(108 48.84) scale(0.088 -0.088)">
      <use xlink:href="#ArialMT-31"/>
      <use xlink:href="#ArialMT-65" transform="translate(55.615234 0)"/>
      <use xlink:href="#ArialMT-36" transform="translate(111.230469 0)"/>
     </g>
    </g>
   </g>
   <g id="PathCollection_1">
    <path d="M 138.436364 369.104774 
C 139.097745 369.104774 139.732127 368.842004 140.199795 368.374337 
C 140.667462 367.906669 140.930232 367.272287 140.930232 366.610905 
C 140.930232 365.949524 140.667462 365.315142 140.199795 364.847474 
C 139.732127 364.379807 139.097745 364.117037 138.436364 364.117037 
C 137.774982 364.117037 137.1406 364.379807 136.672932 364.847474 
C 136.205265 365.315142 135.942495 365.949524 135.942495 366.610905 
C 135.942495 367.272287 136.205265 367.906669 136.672932 368.374337 
C 137.1406 368.842004 137.774982 369.104774 138.436364 369.104774 
z
" clip-path="url(#p188b928bd5)" style="fill: #bb7797; fill-opacity: 0.5; stroke: #ffffff; stroke-opacity: 0.5; stroke-width: 0.423375"/>
    <path d="M 148.098701 335.187961 
C 149.385197 335.187961 150.619174 334.676831 151.528864 333.767142 
C 152.438553 332.857452 152.949683 331.623475 152.949683 330.336979 
C 152.949683 329.050484 152.438553 327.816507 151.528864 326.906817 
C 150.619174 325.997127 149.385197 325.485997 148.098701 325.485997 
C 146.812206 325.485997 145.578229 325.997127 144.668539 326.906817 
C 143.758849 327.816507 143.247719 329.050484 143.247719 330.336979 
C 143.247719 331.623475 143.758849 332.857452 144.668539 333.767142 
C 145.578229 334.676831 146.812206 335.187961 148.098701 335.187961 
z
" clip-path="url(#p188b928bd5)" style="fill: #a4638d; fill-opacity: 0.5; stroke: #ffffff; stroke-opacity: 0.5; stroke-width: 0.423375"/>
    <path d="M 157.761039 333.99659 
C 159.087872 333.99659 160.360541 333.469433 161.298753 332.53122 
C 162.236966 331.593007 162.764123 330.320339 162.764123 328.993506 
C 162.764123 327.666673 162.236966 326.394004 161.298753 325.455791 
C 160.360541 324.517579 159.087872 323.990422 157.761039 323.990422 
C 156.434206 323.990422 155.161537 324.517579 154.223324 325.455791 
C 153.285112 326.394004 152.757955 327.666673 152.757955 328.993506 
C 152.757955 330.320339 153.285112 331.593007 154.223324 332.53122 
C 155.161537 333.469433 156.434206 333.99659 157.761039 333.99659 
z
" clip-path="url(#p188b928bd5)" style="fill: #5f3868; fill-opacity: 0.5; stroke: #ffffff; stroke-opacity: 0.5; stroke-width: 0.423375"/>
    <path d="M 167.423377 341.217354 
C 168.624398 341.217354 169.77639 340.740184 170.62564 339.890933 
C 171.47489 339.041683 171.952061 337.889691 171.952061 336.68867 
C 171.952061 335.487649 171.47489 334.335657 170.62564 333.486407 
C 169.77639 332.637156 168.624398 332.159986 167.423377 332.159986 
C 166.222355 332.159986 165.070363 332.637156 164.221113 333.486407 
C 163.371863 334.335657 162.894692 335.487649 162.894692 336.68867 
C 162.894692 337.889691 163.371863 339.041683 164.221113 339.890933 
C 165.070363 340.740184 166.222355 341.217354 167.423377 341.217354 
z
" clip-path="url(#p188b928bd5)" style="fill: #995a88; fill-opacity: 0.5; stroke: #ffffff; stroke-opacity: 0.5; stroke-width: 0.423375"/>
    <path d="M 177.085714 327.627121 
C 178.321562 327.627121 179.50696 327.136113 180.380836 326.262236 
C 181.254713 325.38836 181.745721 324.202962 181.745721 322.967114 
C 181.745721 321.731266 181.254713 320.545869 180.380836 319.671992 
C 179.50696 318.798116 178.321562 318.307108 177.085714 318.307108 
C 175.849866 318.307108 174.664469 318.798116 173.790592 319.671992 
C 172.916716 320.545869 172.425708 321.731266 172.425708 322.967114 
C 172.425708 324.202962 172.916716 325.38836 173.790592 326.262236 
C 174.664469 327.136113 175.849866 327.627121 177.085714 327.627121 
z
" clip-path="url(#p188b928bd5)" style="fill: #4c2e5a; fill-opacity: 0.5; stroke: #ffffff; stroke-opacity: 0.5; stroke-width: 0.423375"/>
    <path d="M 186.748052 335.922586 
C 187.895435 335.922586 188.995979 335.466726 189.807302 334.655403 
C 190.618624 333.844081 191.074484 332.743537 191.074484 331.596154 
C 191.074484 330.44877 190.618624 329.348226 189.807302 328.536904 
C 188.995979 327.725581 187.895435 327.269721 186.748052 327.269721 
C 185.600669 327.269721 184.500125 327.725581 183.688802 328.536904 
C 182.87748 329.348226 182.421619 330.44877 182.421619 331.596154 
C 182.421619 332.743537 182.87748 333.844081 183.688802 334.655403 
C 184.500125 335.466726 185.600669 335.922586 186.748052 335.922586 
z
" clip-path="url(#p188b928bd5)" style="fill: #a3628c; fill-opacity: 0.5; stroke: #ffffff; stroke-opacity: 0.5; stroke-width: 0.423375"/>
    <path d="M 196.41039 340.246157 
C 197.448209 340.246157 198.443662 339.833827 199.177511 339.099978 
C 199.91136 338.366129 200.32369 337.370676 200.32369 336.332857 
C 200.32369 335.295038 199.91136 334.299585 199.177511 333.565736 
C 198.443662 332.831887 197.448209 332.419557 196.41039 332.419557 
C 195.37257 332.419557 194.377118 332.831887 193.643269 333.565736 
C 192.90942 334.299585 192.49709 335.295038 192.49709 336.332857 
C 192.49709 337.370676 192.90942 338.366129 193.643269 339.099978 
C 194.377118 339.833827 195.37257 340.246157 196.41039 340.246157 
z
" clip-path="url(#p188b928bd5)" style="fill: #d396a5; fill-opacity: 0.5; stroke: #ffffff; stroke-opacity: 0.5; stroke-width: 0.423375"/>
    <path d="M 206.072727 344.097443 
C 207.17969 344.097443 208.241463 343.657642 209.024204 342.874902 
C 209.806945 342.092161 210.246745 341.030388 210.246745 339.923425 
C 210.246745 338.816463 209.806945 337.754689 209.024204 336.971949 
C 208.241463 336.189208 207.17969 335.749407 206.072727 335.749407 
C 204.965765 335.749407 203.903991 336.189208 203.121251 336.971949 
C 202.33851 337.754689 201.898709 338.816463 201.898709 339.923425 
C 201.898709 341.030388 202.33851 342.092161 203.121251 342.874902 
C 203.903991 343.657642 204.965765 344.097443 206.072727 344.097443 
z
" clip-path="url(#p188b928bd5)" style="fill: #b97596; fill-opacity: 0.5; stroke: #ffffff; stroke-opacity: 0.5; stroke-width: 0.423375"/>
    <path d="M 215.735065 360.110639 
C 216.532965 360.110639 217.298292 359.79363 217.862493 359.22943 
C 218.426693 358.665229 218.743702 357.899902 218.743702 357.102002 
C 218.743702 356.304102 218.426693 355.538775 217.862493 354.974575 
C 217.298292 354.410374 216.532965 354.093365 215.735065 354.093365 
C 214.937165 354.093365 214.171838 354.410374 213.607637 354.974575 
C 213.043437 355.538775 212.726428 356.304102 212.726428 357.102002 
C 212.726428 357.899902 213.043437 358.665229 213.607637 359.22943 
C 214.171838 359.79363 214.937165 360.110639 215.735065 360.110639 
z
" clip-path="url(#p188b928bd5)" style="fill: #ce8fa2; fill-opacity: 0.5; stroke: #ffffff; stroke-opacity: 0.5; stroke-width: 0.423375"/>
    <path d="M 225.397403 371.6074 
C 225.99342 371.6074 226.565106 371.3706 226.986554 370.949152 
C 227.408002 370.527704 227.644803 369.956017 227.644803 369.36 
C 227.644803 368.763983 227.408002 368.192296 226.986554 367.770848 
C 226.565106 367.3494 225.99342 367.1126 225.397403 367.1126 
C 224.801385 367.1126 224.229699 367.3494 223.808251 367.770848 
C 223.386803 368.192296 223.150002 368.763983 223.150002 369.36 
C 223.150002 369.956017 223.386803 370.527704 223.808251 370.949152 
C 224.229699 371.3706 224.801385 371.6074 225.397403 371.6074 
z
" clip-path="url(#p188b928bd5)" style="fill: #b47194; fill-opacity: 0.5; stroke: #ffffff; stroke-opacity: 0.5; stroke-width: 0.423375"/>
    <path d="M 235.05974 371.12608 
C 235.659493 371.12608 236.234763 370.887796 236.658852 370.463707 
C 237.082941 370.039617 237.321226 369.464348 237.321226 368.864595 
C 237.321226 368.264842 237.082941 367.689572 236.658852 367.265483 
C 236.234763 366.841394 235.659493 366.603109 235.05974 366.603109 
C 234.459987 366.603109 233.884718 366.841394 233.460629 367.265483 
C 233.036539 367.689572 232.798255 368.264842 232.798255 368.864595 
C 232.798255 369.464348 233.036539 370.039617 233.460629 370.463707 
C 233.884718 370.887796 234.459987 371.12608 235.05974 371.12608 
z
" clip-path="url(#p188b928bd5)" style="fill: #daa4ac; fill-opacity: 0.5; stroke: #ffffff; stroke-opacity: 0.5; stroke-width: 0.423375"/>
    <path d="M 244.722078 371.277503 
C 245.31509 371.277503 245.883894 371.041896 246.303217 370.622573 
C 246.72254 370.203251 246.958146 369.634447 246.958146 369.041435 
C 246.958146 368.448422 246.72254 367.879619 246.303217 367.460296 
C 245.883894 367.040973 245.31509 366.805367 244.722078 366.805367 
C 244.129066 366.805367 243.560262 367.040973 243.140939 367.460296 
C 242.721616 367.879619 242.48601 368.448422 242.48601 369.041435 
C 242.48601 369.634447 242.721616 370.203251 243.140939 370.622573 
C 243.560262 371.041896 244.129066 371.277503 244.722078 371.277503 
z
" clip-path="url(#p188b928bd5)" style="fill: #d59aa7; fill-opacity: 0.5; stroke: #ffffff; stroke-opacity: 0.5; stroke-width: 0.423375"/>
    <path d="M 254.384416 368.685281 
C 255.009692 368.685281 255.609444 368.436856 256.051581 367.994718 
C 256.493719 367.552581 256.742144 366.952829 256.742144 366.327553 
C 256.742144 365.702276 256.493719 365.102524 256.051581 364.660387 
C 255.609444 364.218249 255.009692 363.969824 254.384416 363.969824 
C 253.759139 363.969824 253.159387 364.218249 252.71725 364.660387 
C 252.275113 365.102524 252.026687 365.702276 252.026687 366.327553 
C 252.026687 366.952829 252.275113 367.552581 252.71725 367.994718 
C 253.159387 368.436856 253.759139 368.685281 254.384416 368.685281 
z
" clip-path="url(#p188b928bd5)" style="fill: #ca899f; fill-opacity: 0.5; stroke: #ffffff; stroke-opacity: 0.5; stroke-width: 0.423375"/>
    <path d="M 264.046753 366.30584 
C 264.671315 366.30584 265.270381 366.057699 265.712013 365.616067 
C 266.153645 365.174434 266.401786 364.575369 266.401786 363.950807 
C 266.401786 363.326245 266.153645 362.727179 265.712013 362.285547 
C 265.270381 361.843915 264.671315 361.595774 264.046753 361.595774 
C 263.422191 361.595774 262.823126 361.843915 262.381493 362.285547 
C 261.939861 362.727179 261.69172 363.326245 261.69172 363.950807 
C 261.69172 364.575369 261.939861 365.174434 262.381493 365.616067 
C 262.823126 366.057699 263.422191 366.30584 264.046753 366.30584 
z
" clip-path="url(#p188b928bd5)" style="fill: #e2b4b6; fill-opacity: 0.5; stroke: #ffffff; stroke-opacity: 0.5; stroke-width: 0.423375"/>
    <path d="M 273.709091 360.889517 
C 274.391088 360.889517 275.045244 360.618557 275.527488 360.136313 
C 276.009733 359.654068 276.280693 358.999912 276.280693 358.317915 
C 276.280693 357.635918 276.009733 356.981763 275.527488 356.499518 
C 275.045244 356.017273 274.391088 355.746313 273.709091 355.746313 
C 273.027094 355.746313 272.372938 356.017273 271.890694 356.499518 
C 271.408449 356.981763 271.137489 357.635918 271.137489 358.317915 
C 271.137489 358.999912 271.408449 359.654068 271.890694 360.136313 
C 272.372938 360.618557 273.027094 360.889517 273.709091 360.889517 
z
" clip-path="url(#p188b928bd5)" style="fill: #dca7ae; fill-opacity: 0.5; stroke: #ffffff; stroke-opacity: 0.5; stroke-width: 0.423375"/>
    <path d="M 283.371429 359.765213 
C 284.179342 359.765213 284.954275 359.444225 285.525556 358.872944 
C 286.096837 358.301662 286.417825 357.52673 286.417825 356.718816 
C 286.417825 355.910903 286.096837 355.13597 285.525556 354.564689 
C 284.954275 353.993408 284.179342 353.67242 283.371429 353.67242 
C 282.563515 353.67242 281.788582 353.993408 281.217301 354.564689 
C 280.64602 355.13597 280.325032 355.910903 280.325032 356.718816 
C 280.325032 357.52673 280.64602 358.301662 281.217301 358.872944 
C 281.788582 359.444225 282.563515 359.765213 283.371429 359.765213 
z
" clip-path="url(#p188b928bd5)" style="fill: #bd7a98; fill-opacity: 0.5; stroke: #ffffff; stroke-opacity: 0.5; stroke-width: 0.423375"/>
    <path d="M 293.033766 352.088964 
C 294.079304 352.088964 295.08216 351.673568 295.821467 350.934261 
C 296.560774 350.194954 296.97617 349.192098 296.97617 348.14656 
C 296.97617 347.101022 296.560774 346.098166 295.821467 345.358859 
C 295.08216 344.619552 294.079304 344.204156 293.033766 344.204156 
C 291.988228 344.204156 290.985372 344.619552 290.246065 345.358859 
C 289.506759 346.098166 289.091362 347.101022 289.091362 348.14656 
C 289.091362 349.192098 289.506759 350.194954 290.246065 350.934261 
C 290.985372 351.673568 291.988228 352.088964 293.033766 352.088964 
z
" clip-path="url(#p188b928bd5)" style="fill: #c4829c; fill-opacity: 0.5; stroke: #ffffff; stroke-opacity: 0.5; stroke-width: 0.423375"/>
    <path d="M 302.696104 357.43353 
C 303.62442 357.43353 304.514839 357.064706 305.171257 356.408288 
C 305.827675 355.75187 306.196499 354.86145 306.196499 353.933135 
C 306.196499 353.004819 305.827675 352.1144 305.171257 351.457981 
C 304.514839 350.801563 303.62442 350.432739 302.696104 350.432739 
C 301.767788 350.432739 300.877369 350.801563 300.220951 351.457981 
C 299.564532 352.1144 299.195709 353.004819 299.195709 353.933135 
C 299.195709 354.86145 299.564532 355.75187 300.220951 356.408288 
C 300.877369 357.064706 301.767788 357.43353 302.696104 357.43353 
z
" clip-path="url(#p188b928bd5)" style="fill: #e2b4b6; fill-opacity: 0.5; stroke: #ffffff; stroke-opacity: 0.5; stroke-width: 0.423375"/>
    <path d="M 312.358442 352.733012 
C 313.262873 352.733012 314.130382 352.373678 314.769912 351.734148 
C 315.409441 351.094619 315.768775 350.227109 315.768775 349.322678 
C 315.768775 348.418247 315.409441 347.550738 314.769912 346.911208 
C 314.130382 346.271679 313.262873 345.912345 312.358442 345.912345 
C 311.454011 345.912345 310.586501 346.271679 309.946972 346.911208 
C 309.307442 347.550738 308.948108 348.418247 308.948108 349.322678 
C 308.948108 350.227109 309.307442 351.094619 309.946972 351.734148 
C 310.586501 352.373678 311.454011 352.733012 312.358442 352.733012 
z
" clip-path="url(#p188b928bd5)" style="fill: #e7c1be; fill-opacity: 0.5; stroke: #ffffff; stroke-opacity: 0.5; stroke-width: 0.423375"/>
    <path d="M 322.020779 354.708385 
C 322.926691 354.708385 323.79562 354.348463 324.436196 353.707887 
C 325.076773 353.067311 325.436695 352.198381 325.436695 351.292469 
C 325.436695 350.386558 325.076773 349.517628 324.436196 348.877052 
C 323.79562 348.236476 322.926691 347.876554 322.020779 347.876554 
C 321.114868 347.876554 320.245938 348.236476 319.605362 348.877052 
C 318.964786 349.517628 318.604863 350.386558 318.604863 351.292469 
C 318.604863 352.198381 318.964786 353.067311 319.605362 353.707887 
C 320.245938 354.348463 321.114868 354.708385 322.020779 354.708385 
z
" clip-path="url(#p188b928bd5)" style="fill: #dca7ae; fill-opacity: 0.5; stroke: #ffffff; stroke-opacity: 0.5; stroke-width: 0.423375"/>
    <path d="M 331.683117 353.364456 
C 332.538301 353.364456 333.358574 353.024688 333.963281 352.419981 
C 334.567987 351.815275 334.907756 350.995002 334.907756 350.139817 
C 334.907756 349.284633 334.567987 348.46436 333.963281 347.859654 
C 333.358574 347.254947 332.538301 346.915179 331.683117 346.915179 
C 330.827933 346.915179 330.00766 347.254947 329.402953 347.859654 
C 328.798247 348.46436 328.458478 349.284633 328.458478 350.139817 
C 328.458478 350.995002 328.798247 351.815275 329.402953 352.419981 
C 330.00766 353.024688 330.827933 353.364456 331.683117 353.364456 
z
" clip-path="url(#p188b928bd5)" style="fill: #deabb0; fill-opacity: 0.5; stroke: #ffffff; stroke-opacity: 0.5; stroke-width: 0.423375"/>
    <path d="M 341.345455 356.332767 
C 342.19224 356.332767 343.004458 355.996335 343.603226 355.397567 
C 344.201994 354.798799 344.538426 353.986582 344.538426 353.139796 
C 344.538426 352.29301 344.201994 351.480792 343.603226 350.882024 
C 343.004458 350.283256 342.19224 349.946825 341.345455 349.946825 
C 340.498669 349.946825 339.686451 350.283256 339.087683 350.882024 
C 338.488915 351.480792 338.152483 352.29301 338.152483 353.139796 
C 338.152483 353.986582 338.488915 354.798799 339.087683 355.397567 
C 339.686451 355.996335 340.498669 356.332767 341.345455 356.332767 
z
" clip-path="url(#p188b928bd5)" style="fill: #edd1cb; fill-opacity: 0.5; stroke: #ffffff; stroke-opacity: 0.5; stroke-width: 0.423375"/>
    <path d="M 351.007792 353.169577 
C 351.941864 353.169577 352.837805 352.798466 353.498293 352.137978 
C 354.158782 351.477489 354.529892 350.581549 354.529892 349.647477 
C 354.529892 348.713405 354.158782 347.817464 353.498293 347.156976 
C 352.837805 346.496487 351.941864 346.125377 351.007792 346.125377 
C 350.07372 346.125377 349.17778 346.496487 348.517291 347.156976 
C 347.856803 347.817464 347.485692 348.713405 347.485692 349.647477 
C 347.485692 350.581549 347.856803 351.477489 348.517291 352.137978 
C 349.17778 352.798466 350.07372 353.169577 351.007792 353.169577 
z
" clip-path="url(#p188b928bd5)" style="fill: #dda9af; fill-opacity: 0.5; stroke: #ffffff; stroke-opacity: 0.5; stroke-width: 0.423375"/>
    <path d="M 360.67013 350.922374 
C 361.496087 350.922374 362.288326 350.594218 362.872366 350.010178 
C 363.456406 349.426138 363.784563 348.633899 363.784563 347.807941 
C 363.784563 346.981984 363.456406 346.189745 362.872366 345.605705 
C 362.288326 345.021665 361.496087 344.693509 360.67013 344.693509 
C 359.844173 344.693509 359.051933 345.021665 358.467893 345.605705 
C 357.883853 346.189745 357.555697 346.981984 357.555697 347.807941 
C 357.555697 348.633899 357.883853 349.426138 358.467893 350.010178 
C 359.051933 350.594218 359.844173 350.922374 360.67013 350.922374 
z
" clip-path="url(#p188b928bd5)" style="fill: #dca6ae; fill-opacity: 0.5; stroke: #ffffff; stroke-opacity: 0.5; stroke-width: 0.423375"/>
    <path d="M 370.332468 354.29089 
C 371.078284 354.29089 371.793654 353.994574 372.321026 353.467202 
C 372.848398 352.93983 373.144714 352.22446 373.144714 351.478644 
C 373.144714 350.732827 372.848398 350.017457 372.321026 349.490086 
C 371.793654 348.962714 371.078284 348.666398 370.332468 348.666398 
C 369.586651 348.666398 368.871281 348.962714 368.343909 349.490086 
C 367.816537 350.017457 367.520221 350.732827 367.520221 351.478644 
C 367.520221 352.22446 367.816537 352.93983 368.343909 353.467202 
C 368.871281 353.994574 369.586651 354.29089 370.332468 354.29089 
z
" clip-path="url(#p188b928bd5)" style="fill: #d397a6; fill-opacity: 0.5; stroke: #ffffff; stroke-opacity: 0.5; stroke-width: 0.423375"/>
    <path d="M 379.994805 350.535182 
C 380.822923 350.535182 381.617234 350.206167 382.202802 349.6206 
C 382.788369 349.035032 383.117384 348.240721 383.117384 347.412603 
C 383.117384 346.584485 382.788369 345.790174 382.202802 345.204606 
C 381.617234 344.619039 380.822923 344.290024 379.994805 344.290024 
C 379.166688 344.290024 378.372376 344.619039 377.786808 345.204606 
C 377.201241 345.790174 376.872226 346.584485 376.872226 347.412603 
C 376.872226 348.240721 377.201241 349.035032 377.786808 349.6206 
C 378.372376 350.206167 379.166688 350.535182 379.994805 350.535182 
z
" clip-path="url(#p188b928bd5)" style="fill: #ecccc7; fill-opacity: 0.5; stroke: #ffffff; stroke-opacity: 0.5; stroke-width: 0.423375"/>
    <path d="M 389.657143 343.358249 
C 390.658602 343.358249 391.619179 342.960365 392.327317 342.252226 
C 393.035456 341.544088 393.43334 340.583511 393.43334 339.582052 
C 393.43334 338.580593 393.035456 337.620016 392.327317 336.911878 
C 391.619179 336.203739 390.658602 335.805855 389.657143 335.805855 
C 388.655684 335.805855 387.695107 336.203739 386.986968 336.911878 
C 386.27883 337.620016 385.880946 338.580593 385.880946 339.582052 
C 385.880946 340.583511 386.27883 341.544088 386.986968 342.252226 
C 387.695107 342.960365 388.655684 343.358249 389.657143 343.358249 
z
" clip-path="url(#p188b928bd5)" style="fill: #cb8ca0; fill-opacity: 0.5; stroke: #ffffff; stroke-opacity: 0.5; stroke-width: 0.423375"/>
    <path d="M 399.319481 338.341251 
C 400.466864 338.341251 401.567408 337.88539 402.37873 337.074068 
C 403.190053 336.262745 403.645913 335.162201 403.645913 334.014818 
C 403.645913 332.867435 403.190053 331.766891 402.37873 330.955568 
C 401.567408 330.144246 400.466864 329.688385 399.319481 329.688385 
C 398.172097 329.688385 397.071553 330.144246 396.260231 330.955568 
C 395.448908 331.766891 394.993048 332.867435 394.993048 334.014818 
C 394.993048 335.162201 395.448908 336.262745 396.260231 337.074068 
C 397.071553 337.88539 398.172097 338.341251 399.319481 338.341251 
z
" clip-path="url(#p188b928bd5)" style="fill: #2d1e3e; fill-opacity: 0.5; stroke: #ffffff; stroke-opacity: 0.5; stroke-width: 0.423375"/>
    <path d="M 408.981818 325.993751 
C 410.122173 325.993751 411.215974 325.540684 412.022327 324.734331 
C 412.828679 323.927979 413.281747 322.834177 413.281747 321.693823 
C 413.281747 320.553469 412.828679 319.459667 412.022327 318.653314 
C 411.215974 317.846962 410.122173 317.393894 408.981818 317.393894 
C 407.841464 317.393894 406.747662 317.846962 405.94131 318.653314 
C 405.134957 319.459667 404.68189 320.553469 404.68189 321.693823 
C 404.68189 322.834177 405.134957 323.927979 405.94131 324.734331 
C 406.747662 325.540684 407.841464 325.993751 408.981818 325.993751 
z
" clip-path="url(#p188b928bd5)" style="fill: #aa688f; fill-opacity: 0.5; stroke: #ffffff; stroke-opacity: 0.5; stroke-width: 0.423375"/>
    <path d="M 418.644156 337.905834 
C 419.664614 337.905834 420.643414 337.500402 421.364987 336.778829 
C 422.08656 336.057256 422.491992 335.078456 422.491992 334.057998 
C 422.491992 333.03754 422.08656 332.05874 421.364987 331.337167 
C 420.643414 330.615594 419.664614 330.210162 418.644156 330.210162 
C 417.623698 330.210162 416.644898 330.615594 415.923325 331.337167 
C 415.201752 332.05874 414.79632 333.03754 414.79632 334.057998 
C 414.79632 335.078456 415.201752 336.057256 415.923325 336.778829 
C 416.644898 337.500402 417.623698 337.905834 418.644156 337.905834 
z
" clip-path="url(#p188b928bd5)" style="fill: #a3628c; fill-opacity: 0.5; stroke: #ffffff; stroke-opacity: 0.5; stroke-width: 0.423375"/>
    <path d="M 428.306494 340.877009 
C 429.357995 340.877009 430.366572 340.459243 431.110096 339.715719 
C 431.85362 338.972195 432.271387 337.963618 432.271387 336.912116 
C 432.271387 335.860614 431.85362 334.852037 431.110096 334.108513 
C 430.366572 333.364989 429.357995 332.947223 428.306494 332.947223 
C 427.254992 332.947223 426.246415 333.364989 425.502891 334.108513 
C 424.759367 334.852037 424.3416 335.860614 424.3416 336.912116 
C 424.3416 337.963618 424.759367 338.972195 425.502891 339.715719 
C 426.246415 340.459243 427.254992 340.877009 428.306494 340.877009 
z
" clip-path="url(#p188b928bd5)" style="fill: #a7658e; fill-opacity: 0.5; stroke: #ffffff; stroke-opacity: 0.5; stroke-width: 0.423375"/>
    <path d="M 437.968831 346.508036 
C 439.002338 346.508036 439.993653 346.09742 440.724453 345.36662 
C 441.455252 344.635821 441.865868 343.644505 441.865868 342.610999 
C 441.865868 341.577493 441.455252 340.586177 440.724453 339.855378 
C 439.993653 339.124578 439.002338 338.713962 437.968831 338.713962 
C 436.935325 338.713962 435.944009 339.124578 435.21321 339.855378 
C 434.48241 340.586177 434.071794 341.577493 434.071794 342.610999 
C 434.071794 343.644505 434.48241 344.635821 435.21321 345.36662 
C 435.944009 346.09742 436.935325 346.508036 437.968831 346.508036 
z
" clip-path="url(#p188b928bd5)" style="fill: #9d5d89; fill-opacity: 0.5; stroke: #ffffff; stroke-opacity: 0.5; stroke-width: 0.423375"/>
    <path d="M 447.631169 347.039933 
C 448.59536 347.039933 449.520191 346.656856 450.201977 345.97507 
C 450.883763 345.293284 451.266841 344.368453 451.266841 343.404262 
C 451.266841 342.44007 450.883763 341.51524 450.201977 340.833454 
C 449.520191 340.151667 448.59536 339.76859 447.631169 339.76859 
C 446.666977 339.76859 445.742147 340.151667 445.060361 340.833454 
C 444.378574 341.51524 443.995497 342.44007 443.995497 343.404262 
C 443.995497 344.368453 444.378574 345.293284 445.060361 345.97507 
C 445.742147 346.656856 446.666977 347.039933 447.631169 347.039933 
z
" clip-path="url(#p188b928bd5)" style="fill: #ac6a90; fill-opacity: 0.5; stroke: #ffffff; stroke-opacity: 0.5; stroke-width: 0.423375"/>
    <path d="M 457.293506 355.676462 
C 458.179476 355.676462 459.029277 355.324463 459.655752 354.697988 
C 460.282227 354.071513 460.634226 353.221712 460.634226 352.335742 
C 460.634226 351.449773 460.282227 350.599972 459.655752 349.973497 
C 459.029277 349.347022 458.179476 348.995023 457.293506 348.995023 
C 456.407537 348.995023 455.557736 349.347022 454.931261 349.973497 
C 454.304786 350.599972 453.952787 351.449773 453.952787 352.335742 
C 453.952787 353.221712 454.304786 354.071513 454.931261 354.697988 
C 455.557736 355.324463 456.407537 355.676462 457.293506 355.676462 
z
" clip-path="url(#p188b928bd5)" style="fill: #b37093; fill-opacity: 0.5; stroke: #ffffff; stroke-opacity: 0.5; stroke-width: 0.423375"/>
    <path d="M 466.955844 351.726894 
C 467.869611 351.726894 468.746075 351.36385 469.392205 350.71772 
C 470.038336 350.071589 470.401379 349.195125 470.401379 348.281359 
C 470.401379 347.367592 470.038336 346.491128 469.392205 345.844998 
C 468.746075 345.198867 467.869611 344.835824 466.955844 344.835824 
C 466.042078 344.835824 465.165614 345.198867 464.519483 345.844998 
C 463.873352 346.491128 463.510309 347.367592 463.510309 348.281359 
C 463.510309 349.195125 463.873352 350.071589 464.519483 350.71772 
C 465.165614 351.36385 466.042078 351.726894 466.955844 351.726894 
z
" clip-path="url(#p188b928bd5)" style="fill: #c8879e; fill-opacity: 0.5; stroke: #ffffff; stroke-opacity: 0.5; stroke-width: 0.423375"/>
    <path d="M 476.618182 339.680094 
C 477.65212 339.680094 478.64385 339.269306 479.374955 338.538201 
C 480.10606 337.807096 480.516848 336.815366 480.516848 335.781428 
C 480.516848 334.747489 480.10606 333.755759 479.374955 333.024654 
C 478.64385 332.293549 477.65212 331.882761 476.618182 331.882761 
C 475.584243 331.882761 474.592513 332.293549 473.861408 333.024654 
C 473.130303 333.755759 472.719515 334.747489 472.719515 335.781428 
C 472.719515 336.815366 473.130303 337.807096 473.861408 338.538201 
C 474.592513 339.269306 475.584243 339.680094 476.618182 339.680094 
z
" clip-path="url(#p188b928bd5)" style="fill: #ba7696; fill-opacity: 0.5; stroke: #ffffff; stroke-opacity: 0.5; stroke-width: 0.423375"/>
    <path d="M 486.280519 349.642799 
C 487.123605 349.642799 487.932273 349.307838 488.528424 348.711686 
C 489.124576 348.115535 489.459537 347.306867 489.459537 346.463782 
C 489.459537 345.620696 489.124576 344.812028 488.528424 344.215877 
C 487.932273 343.619726 487.123605 343.284764 486.280519 343.284764 
C 485.437434 343.284764 484.628766 343.619726 484.032615 344.215877 
C 483.436463 344.812028 483.101502 345.620696 483.101502 346.463782 
C 483.101502 347.306867 483.436463 348.115535 484.032615 348.711686 
C 484.628766 349.307838 485.437434 349.642799 486.280519 349.642799 
z
" clip-path="url(#p188b928bd5)" style="fill: #c3819c; fill-opacity: 0.5; stroke: #ffffff; stroke-opacity: 0.5; stroke-width: 0.423375"/>
    <path d="M 495.942857 354.440703 
C 496.821231 354.440703 497.663748 354.091721 498.284852 353.470617 
C 498.905956 352.849513 499.254938 352.006996 499.254938 351.128622 
C 499.254938 350.250248 498.905956 349.407732 498.284852 348.786628 
C 497.663748 348.165523 496.821231 347.816542 495.942857 347.816542 
C 495.064483 347.816542 494.221967 348.165523 493.600862 348.786628 
C 492.979758 349.407732 492.630776 350.250248 492.630776 351.128622 
C 492.630776 352.006996 492.979758 352.849513 493.600862 353.470617 
C 494.221967 354.091721 495.064483 354.440703 495.942857 354.440703 
z
" clip-path="url(#p188b928bd5)" style="fill: #c2809b; fill-opacity: 0.5; stroke: #ffffff; stroke-opacity: 0.5; stroke-width: 0.423375"/>
    <path d="M 505.605195 332.951778 
C 506.663894 332.951778 507.679374 332.531153 508.427987 331.78254 
C 509.1766 331.033926 509.597226 330.018447 509.597226 328.959748 
C 509.597226 327.901049 509.1766 326.885569 508.427987 326.136956 
C 507.679374 325.388343 506.663894 324.967717 505.605195 324.967717 
C 504.546496 324.967717 503.531016 325.388343 502.782403 326.136956 
C 502.03379 326.885569 501.613164 327.901049 501.613164 328.959748 
C 501.613164 330.018447 502.03379 331.033926 502.782403 331.78254 
C 503.531016 332.531153 504.546496 332.951778 505.605195 332.951778 
z
" clip-path="url(#p188b928bd5)" style="fill: #c2809b; fill-opacity: 0.5; stroke: #ffffff; stroke-opacity: 0.5; stroke-width: 0.423375"/>
    <path d="M 515.267532 322.145103 
C 516.301039 322.145103 517.292355 321.734486 518.023154 321.003687 
C 518.753953 320.272887 519.16457 319.281572 519.16457 318.248065 
C 519.16457 317.214559 518.753953 316.223243 518.023154 315.492444 
C 517.292355 314.761645 516.301039 314.351028 515.267532 314.351028 
C 514.234026 314.351028 513.24271 314.761645 512.511911 315.492444 
C 511.781112 316.223243 511.370495 317.214559 511.370495 318.248065 
C 511.370495 319.281572 511.781112 320.272887 512.511911 321.003687 
C 513.24271 321.734486 514.234026 322.145103 515.267532 322.145103 
z
" clip-path="url(#p188b928bd5)" style="fill: #c2809b; fill-opacity: 0.5; stroke: #ffffff; stroke-opacity: 0.5; stroke-width: 0.423375"/>
    <path d="M 524.92987 335.609305 
C 525.950766 335.609305 526.929986 335.203699 527.651868 334.481817 
C 528.37375 333.759935 528.779356 332.780715 528.779356 331.759819 
C 528.779356 330.738923 528.37375 329.759703 527.651868 329.037821 
C 526.929986 328.315939 525.950766 327.910333 524.92987 327.910333 
C 523.908974 327.910333 522.929755 328.315939 522.207872 329.037821 
C 521.48599 329.759703 521.080384 330.738923 521.080384 331.759819 
C 521.080384 332.780715 521.48599 333.759935 522.207872 334.481817 
C 522.929755 335.203699 523.908974 335.609305 524.92987 335.609305 
z
" clip-path="url(#p188b928bd5)" style="fill: #c27f9a; fill-opacity: 0.5; stroke: #ffffff; stroke-opacity: 0.5; stroke-width: 0.423375"/>
    <path d="M 534.592208 342.584631 
C 535.566996 342.584631 536.501991 342.197344 537.19127 341.508064 
C 537.88055 340.818785 538.267837 339.88379 538.267837 338.909002 
C 538.267837 337.934214 537.88055 336.999219 537.19127 336.309939 
C 536.501991 335.62066 535.566996 335.233372 534.592208 335.233372 
C 533.617419 335.233372 532.682425 335.62066 531.993145 336.309939 
C 531.303866 336.999219 530.916578 337.934214 530.916578 338.909002 
C 530.916578 339.88379 531.303866 340.818785 531.993145 341.508064 
C 532.682425 342.197344 533.617419 342.584631 534.592208 342.584631 
z
" clip-path="url(#p188b928bd5)" style="fill: #be7b98; fill-opacity: 0.5; stroke: #ffffff; stroke-opacity: 0.5; stroke-width: 0.423375"/>
    <path d="M 544.254545 332.23269 
C 545.341556 332.23269 546.384191 331.800816 547.152824 331.032183 
C 547.921456 330.263551 548.35333 329.220915 548.35333 328.133905 
C 548.35333 327.046894 547.921456 326.004259 547.152824 325.235626 
C 546.384191 324.466994 545.341556 324.03512 544.254545 324.03512 
C 543.167535 324.03512 542.124899 324.466994 541.356267 325.235626 
C 540.587635 326.004259 540.155761 327.046894 540.155761 328.133905 
C 540.155761 329.220915 540.587635 330.263551 541.356267 331.032183 
C 542.124899 331.800816 543.167535 332.23269 544.254545 332.23269 
z
" clip-path="url(#p188b928bd5)" style="fill: #5e3767; fill-opacity: 0.5; stroke: #ffffff; stroke-opacity: 0.5; stroke-width: 0.423375"/>
    <path d="M 553.916883 331.434536 
C 554.986078 331.434536 556.011625 331.009741 556.76766 330.253706 
C 557.523695 329.497671 557.94849 328.472124 557.94849 327.402929 
C 557.94849 326.333734 557.523695 325.308187 556.76766 324.552152 
C 556.011625 323.796117 554.986078 323.371322 553.916883 323.371322 
C 552.847688 323.371322 551.822141 323.796117 551.066106 324.552152 
C 550.310072 325.308187 549.885276 326.333734 549.885276 327.402929 
C 549.885276 328.472124 550.310072 329.497671 551.066106 330.253706 
C 551.822141 331.009741 552.847688 331.434536 553.916883 331.434536 
z
" clip-path="url(#p188b928bd5)" style="fill: #c3819c; fill-opacity: 0.5; stroke: #ffffff; stroke-opacity: 0.5; stroke-width: 0.423375"/>
    <path d="M 563.579221 337.510655 
C 564.657981 337.510655 565.692704 337.082059 566.455503 336.31926 
C 567.218302 335.556461 567.646898 334.521738 567.646898 333.442977 
C 567.646898 332.364217 567.218302 331.329494 566.455503 330.566695 
C 565.692704 329.803896 564.657981 329.3753 563.579221 329.3753 
C 562.50046 329.3753 561.465738 329.803896 560.702939 330.566695 
C 559.94014 331.329494 559.511543 332.364217 559.511543 333.442977 
C 559.511543 334.521738 559.94014 335.556461 560.702939 336.31926 
C 561.465738 337.082059 562.50046 337.510655 563.579221 337.510655 
z
" clip-path="url(#p188b928bd5)" style="fill: #c17e9a; fill-opacity: 0.5; stroke: #ffffff; stroke-opacity: 0.5; stroke-width: 0.423375"/>
    <path d="M 573.241558 322.600845 
C 574.362157 322.600845 575.437009 322.155626 576.229391 321.363244 
C 577.021774 320.570861 577.466992 319.496009 577.466992 318.375411 
C 577.466992 317.254812 577.021774 316.17996 576.229391 315.387578 
C 575.437009 314.595195 574.362157 314.149977 573.241558 314.149977 
C 572.12096 314.149977 571.046108 314.595195 570.253725 315.387578 
C 569.461343 316.17996 569.016125 317.254812 569.016125 318.375411 
C 569.016125 319.496009 569.461343 320.570861 570.253725 321.363244 
C 571.046108 322.155626 572.12096 322.600845 573.241558 322.600845 
z
" clip-path="url(#p188b928bd5)" style="fill: #ce8fa2; fill-opacity: 0.5; stroke: #ffffff; stroke-opacity: 0.5; stroke-width: 0.423375"/>
    <path d="M 582.903896 345.53584 
C 583.874552 345.53584 584.805582 345.150194 585.491939 344.463837 
C 586.178296 343.77748 586.563942 342.846449 586.563942 341.875794 
C 586.563942 340.905138 586.178296 339.974108 585.491939 339.28775 
C 584.805582 338.601393 583.874552 338.215748 582.903896 338.215748 
C 581.933241 338.215748 581.00221 338.601393 580.315853 339.28775 
C 579.629496 339.974108 579.24385 340.905138 579.24385 341.875794 
C 579.24385 342.846449 579.629496 343.77748 580.315853 344.463837 
C 581.00221 345.150194 581.933241 345.53584 582.903896 345.53584 
z
" clip-path="url(#p188b928bd5)" style="fill: #dca7ae; fill-opacity: 0.5; stroke: #ffffff; stroke-opacity: 0.5; stroke-width: 0.423375"/>
    <path d="M 592.566234 75.620254 
C 594.86296 75.620254 597.065927 74.707755 598.689958 73.083724 
C 600.313989 71.459694 601.226488 69.256726 601.226488 66.96 
C 601.226488 64.663274 600.313989 62.460306 598.689958 60.836276 
C 597.065927 59.212245 594.86296 58.299746 592.566234 58.299746 
C 590.269508 58.299746 588.06654 59.212245 586.442509 60.836276 
C 584.818479 62.460306 583.90598 64.663274 583.90598 66.96 
C 583.90598 69.256726 584.818479 71.459694 586.442509 73.083724 
C 588.06654 74.707755 590.269508 75.620254 592.566234 75.620254 
z
" clip-path="url(#p188b928bd5)" style="fill: #9d5d89; fill-opacity: 0.5; stroke: #ffffff; stroke-opacity: 0.5; stroke-width: 0.423375"/>
    <path d="M 602.228571 274.85918 
C 603.693332 274.85918 605.098297 274.277224 606.134039 273.241482 
C 607.169781 272.20574 607.751737 270.800775 607.751737 269.336014 
C 607.751737 267.871254 607.169781 266.466289 606.134039 265.430547 
C 605.098297 264.394805 603.693332 263.812849 602.228571 263.812849 
C 600.763811 263.812849 599.358846 264.394805 598.323104 265.430547 
C 597.287362 266.466289 596.705406 267.871254 596.705406 269.336014 
C 596.705406 270.800775 597.287362 272.20574 598.323104 273.241482 
C 599.358846 274.277224 600.763811 274.85918 602.228571 274.85918 
z
" clip-path="url(#p188b928bd5)" style="fill: #a8668e; fill-opacity: 0.5; stroke: #ffffff; stroke-opacity: 0.5; stroke-width: 0.423375"/>
    <path d="M 611.890909 338.947198 
C 612.925279 338.947198 613.917424 338.536239 614.648834 337.804828 
C 615.380245 337.073418 615.791204 336.081274 615.791204 335.046903 
C 615.791204 334.012533 615.380245 333.020388 614.648834 332.288978 
C 613.917424 331.557568 612.925279 331.146608 611.890909 331.146608 
C 610.856539 331.146608 609.864394 331.557568 609.132984 332.288978 
C 608.401574 333.020388 607.990614 334.012533 607.990614 335.046903 
C 607.990614 336.081274 608.401574 337.073418 609.132984 337.804828 
C 609.864394 338.536239 610.856539 338.947198 611.890909 338.947198 
z
" clip-path="url(#p188b928bd5)" style="fill: #dfaeb2; fill-opacity: 0.5; stroke: #ffffff; stroke-opacity: 0.5; stroke-width: 0.423375"/>
    <path d="M 621.553247 301.404286 
C 622.833128 301.404286 624.060762 300.895784 624.965775 299.990771 
C 625.870787 299.085758 626.37929 297.858124 626.37929 296.578243 
C 626.37929 295.298361 625.870787 294.070728 624.965775 293.165715 
C 624.060762 292.260702 622.833128 291.7522 621.553247 291.7522 
C 620.273365 291.7522 619.045732 292.260702 618.140719 293.165715 
C 617.235706 294.070728 616.727204 295.298361 616.727204 296.578243 
C 616.727204 297.858124 617.235706 299.085758 618.140719 299.990771 
C 619.045732 300.895784 620.273365 301.404286 621.553247 301.404286 
z
" clip-path="url(#p188b928bd5)" style="fill: #e5baba; fill-opacity: 0.5; stroke: #ffffff; stroke-opacity: 0.5; stroke-width: 0.423375"/>
    <path d="M 631.215584 301.905381 
C 632.621529 301.905381 633.970078 301.346794 634.964231 300.352641 
C 635.958383 299.358488 636.516971 298.009939 636.516971 296.603995 
C 636.516971 295.19805 635.958383 293.849501 634.964231 292.855348 
C 633.970078 291.861196 632.621529 291.302608 631.215584 291.302608 
C 629.80964 291.302608 628.461091 291.861196 627.466938 292.855348 
C 626.472785 293.849501 625.914198 295.19805 625.914198 296.603995 
C 625.914198 298.009939 626.472785 299.358488 627.466938 300.352641 
C 628.461091 301.346794 629.80964 301.905381 631.215584 301.905381 
z
" clip-path="url(#p188b928bd5)" style="fill: #ab6990; fill-opacity: 0.5; stroke: #ffffff; stroke-opacity: 0.5; stroke-width: 0.423375"/>
    <path d="M 640.877922 275.994819 
C 642.375255 275.994819 643.811463 275.399922 644.870237 274.341148 
C 645.929011 273.282374 646.523908 271.846166 646.523908 270.348833 
C 646.523908 268.8515 645.929011 267.415293 644.870237 266.356518 
C 643.811463 265.297744 642.375255 264.702847 640.877922 264.702847 
C 639.380589 264.702847 637.944382 265.297744 636.885607 266.356518 
C 635.826833 267.415293 635.231936 268.8515 635.231936 270.348833 
C 635.231936 271.846166 635.826833 273.282374 636.885607 274.341148 
C 637.944382 275.399922 639.380589 275.994819 640.877922 275.994819 
z
" clip-path="url(#p188b928bd5)" style="fill: #b97596; fill-opacity: 0.5; stroke: #ffffff; stroke-opacity: 0.5; stroke-width: 0.423375"/>
    <path d="M 650.54026 308.130985 
C 651.893097 308.130985 653.190708 307.593497 654.147308 306.636896 
C 655.103908 305.680296 655.641396 304.382686 655.641396 303.029848 
C 655.641396 301.677011 655.103908 300.3794 654.147308 299.4228 
C 653.190708 298.4662 651.893097 297.928712 650.54026 297.928712 
C 649.187423 297.928712 647.889812 298.4662 646.933212 299.4228 
C 645.976611 300.3794 645.439123 301.677011 645.439123 303.029848 
C 645.439123 304.382686 645.976611 305.680296 646.933212 306.636896 
C 647.889812 307.593497 649.187423 308.130985 650.54026 308.130985 
z
" clip-path="url(#p188b928bd5)" style="fill: #c3819c; fill-opacity: 0.5; stroke: #ffffff; stroke-opacity: 0.5; stroke-width: 0.423375"/>
    <path d="M 660.202597 305.205048 
C 661.497054 305.205048 662.738667 304.690755 663.653986 303.775436 
C 664.569305 302.860117 665.083598 301.618503 665.083598 300.324047 
C 665.083598 299.02959 664.569305 297.787977 663.653986 296.872658 
C 662.738667 295.957339 661.497054 295.443046 660.202597 295.443046 
C 658.908141 295.443046 657.666528 295.957339 656.751209 296.872658 
C 655.83589 297.787977 655.321596 299.02959 655.321596 300.324047 
C 655.321596 301.618503 655.83589 302.860117 656.751209 303.775436 
C 657.666528 304.690755 658.908141 305.205048 660.202597 305.205048 
z
" clip-path="url(#p188b928bd5)" style="fill: #8d5282; fill-opacity: 0.5; stroke: #ffffff; stroke-opacity: 0.5; stroke-width: 0.423375"/>
    <path d="M 669.864935 317.297776 
C 671.053995 317.297776 672.194515 316.825358 673.035307 315.984565 
C 673.8761 315.143772 674.348519 314.003253 674.348519 312.814193 
C 674.348519 311.625132 673.8761 310.484613 673.035307 309.64382 
C 672.194515 308.803028 671.053995 308.330609 669.864935 308.330609 
C 668.675875 308.330609 667.535355 308.803028 666.694563 309.64382 
C 665.85377 310.484613 665.381351 311.625132 665.381351 312.814193 
C 665.381351 314.003253 665.85377 315.143772 666.694563 315.984565 
C 667.535355 316.825358 668.675875 317.297776 669.864935 317.297776 
z
" clip-path="url(#p188b928bd5)" style="fill: #a2618c; fill-opacity: 0.5; stroke: #ffffff; stroke-opacity: 0.5; stroke-width: 0.423375"/>
    <path d="M 679.527273 316.625976 
C 680.700069 316.625976 681.824988 316.160019 682.654279 315.330727 
C 683.483571 314.501435 683.949528 313.376516 683.949528 312.203721 
C 683.949528 311.030925 683.483571 309.906006 682.654279 309.076714 
C 681.824988 308.247422 680.700069 307.781465 679.527273 307.781465 
C 678.354477 307.781465 677.229558 308.247422 676.400266 309.076714 
C 675.570974 309.906006 675.105017 311.030925 675.105017 312.203721 
C 675.105017 313.376516 675.570974 314.501435 676.400266 315.330727 
C 677.229558 316.160019 678.354477 316.625976 679.527273 316.625976 
z
" clip-path="url(#p188b928bd5)" style="fill: #aa688f; fill-opacity: 0.5; stroke: #ffffff; stroke-opacity: 0.5; stroke-width: 0.423375"/>
    <path d="M 689.18961 305.050366 
C 690.456161 305.050366 691.671007 304.54716 692.566593 303.651574 
C 693.462179 302.755987 693.965385 301.541141 693.965385 300.274591 
C 693.965385 299.008041 693.462179 297.793195 692.566593 296.897609 
C 691.671007 296.002023 690.456161 295.498817 689.18961 295.498817 
C 687.92306 295.498817 686.708214 296.002023 685.812628 296.897609 
C 684.917042 297.793195 684.413836 299.008041 684.413836 300.274591 
C 684.413836 301.541141 684.917042 302.755987 685.812628 303.651574 
C 686.708214 304.54716 687.92306 305.050366 689.18961 305.050366 
z
" clip-path="url(#p188b928bd5)" style="fill: #bf7c99; fill-opacity: 0.5; stroke: #ffffff; stroke-opacity: 0.5; stroke-width: 0.423375"/>
    <path d="M 698.851948 332.596589 
C 699.956082 332.596589 701.015143 332.157912 701.795884 331.377171 
C 702.576625 330.59643 703.015302 329.53737 703.015302 328.433235 
C 703.015302 327.329101 702.576625 326.27004 701.795884 325.4893 
C 701.015143 324.708559 699.956082 324.269881 698.851948 324.269881 
C 697.747814 324.269881 696.688753 324.708559 695.908012 325.4893 
C 695.127271 326.27004 694.688594 327.329101 694.688594 328.433235 
C 694.688594 329.53737 695.127271 330.59643 695.908012 331.377171 
C 696.688753 332.157912 697.747814 332.596589 698.851948 332.596589 
z
" clip-path="url(#p188b928bd5)" style="fill: #cd8ea1; fill-opacity: 0.5; stroke: #ffffff; stroke-opacity: 0.5; stroke-width: 0.423375"/>
    <path d="M 708.514286 334.514336 
C 709.675215 334.514336 710.788751 334.053094 711.609652 333.232193 
C 712.430553 332.411293 712.891795 331.297756 712.891795 330.136827 
C 712.891795 328.975898 712.430553 327.862362 711.609652 327.041461 
C 710.788751 326.22056 709.675215 325.759318 708.514286 325.759318 
C 707.353357 325.759318 706.23982 326.22056 705.41892 327.041461 
C 704.598019 327.862362 704.136777 328.975898 704.136777 330.136827 
C 704.136777 331.297756 704.598019 332.411293 705.41892 333.232193 
C 706.23982 334.053094 707.353357 334.514336 708.514286 334.514336 
z
" clip-path="url(#p188b928bd5)" style="fill: #3d274e; fill-opacity: 0.5; stroke: #ffffff; stroke-opacity: 0.5; stroke-width: 0.423375"/>
    <path d="M 718.176623 334.972855 
C 719.230671 334.972855 720.24169 334.554078 720.987014 333.808753 
C 721.732338 333.063429 722.151116 332.052411 722.151116 330.998363 
C 722.151116 329.944315 721.732338 328.933297 720.987014 328.187972 
C 720.24169 327.442648 719.230671 327.023871 718.176623 327.023871 
C 717.122576 327.023871 716.111557 327.442648 715.366233 328.187972 
C 714.620909 328.933297 714.202131 329.944315 714.202131 330.998363 
C 714.202131 332.052411 714.620909 333.063429 715.366233 333.808753 
C 716.111557 334.554078 717.122576 334.972855 718.176623 334.972855 
z
" clip-path="url(#p188b928bd5)" style="fill: #d194a4; fill-opacity: 0.5; stroke: #ffffff; stroke-opacity: 0.5; stroke-width: 0.423375"/>
    <path d="M 727.838961 326.535405 
C 728.97814 326.535405 730.070814 326.082805 730.876335 325.277284 
C 731.681856 324.471763 732.134456 323.379088 732.134456 322.23991 
C 732.134456 321.100731 731.681856 320.008057 730.876335 319.202536 
C 730.070814 318.397015 728.97814 317.944415 727.838961 317.944415 
C 726.699782 317.944415 725.607108 318.397015 724.801587 319.202536 
C 723.996066 320.008057 723.543466 321.100731 723.543466 322.23991 
C 723.543466 323.379088 723.996066 324.471763 724.801587 325.277284 
C 725.607108 326.082805 726.699782 326.535405 727.838961 326.535405 
z
" clip-path="url(#p188b928bd5)" style="fill: #be7b98; fill-opacity: 0.5; stroke: #ffffff; stroke-opacity: 0.5; stroke-width: 0.423375"/>
    <path d="M 737.501299 335.307976 
C 738.564208 335.307976 739.583727 334.885677 740.335318 334.134087 
C 741.086908 333.382496 741.509207 332.362977 741.509207 331.300068 
C 741.509207 330.237158 741.086908 329.217639 740.335318 328.466049 
C 739.583727 327.714458 738.564208 327.29216 737.501299 327.29216 
C 736.438389 327.29216 735.41887 327.714458 734.66728 328.466049 
C 733.915689 329.217639 733.493391 330.237158 733.493391 331.300068 
C 733.493391 332.362977 733.915689 333.382496 734.66728 334.134087 
C 735.41887 334.885677 736.438389 335.307976 737.501299 335.307976 
z
" clip-path="url(#p188b928bd5)" style="fill: #bb7797; fill-opacity: 0.5; stroke: #ffffff; stroke-opacity: 0.5; stroke-width: 0.423375"/>
    <path d="M 747.163636 363.079471 
C 747.937667 363.079471 748.680099 362.771945 749.227421 362.224623 
C 749.774744 361.677301 750.082269 360.934868 750.082269 360.160838 
C 750.082269 359.386807 749.774744 358.644375 749.227421 358.097053 
C 748.680099 357.549731 747.937667 357.242205 747.163636 357.242205 
C 746.389606 357.242205 745.647173 357.549731 745.099851 358.097053 
C 744.552529 358.644375 744.245004 359.386807 744.245004 360.160838 
C 744.245004 360.934868 744.552529 361.677301 745.099851 362.224623 
C 745.647173 362.771945 746.389606 363.079471 747.163636 363.079471 
z
" clip-path="url(#p188b928bd5)" style="fill: #945785; fill-opacity: 0.5; stroke: #ffffff; stroke-opacity: 0.5; stroke-width: 0.423375"/>
   </g>
   <g id="line2d_1"/>
   <g id="line2d_2"/>
   <g id="line2d_3"/>
   <g id="line2d_4"/>
   <g id="line2d_5"/>
   <g id="line2d_6"/>
   <g id="line2d_7"/>
   <g id="line2d_8"/>
   <g id="line2d_9"/>
   <g id="line2d_10"/>
   <g id="line2d_11"/>
   <g id="line2d_12"/>
   <g id="patch_3">
    <path d="M 108 384.48 
L 108 51.84 
" style="fill: none; stroke: #ffffff; stroke-linejoin: miter; stroke-linecap: square"/>
   </g>
   <g id="patch_4">
    <path d="M 777.6 384.48 
L 777.6 51.84 
" style="fill: none; stroke: #ffffff; stroke-linejoin: miter; stroke-linecap: square"/>
   </g>
   <g id="patch_5">
    <path d="M 108 384.48 
L 777.6 384.48 
" style="fill: none; stroke: #ffffff; stroke-linejoin: miter; stroke-linecap: square"/>
   </g>
   <g id="patch_6">
    <path d="M 108 51.84 
L 777.6 51.84 
" style="fill: none; stroke: #ffffff; stroke-linejoin: miter; stroke-linecap: square"/>
   </g>
   <g id="legend_1">
    <g id="patch_7">
     <path d="M 705.620125 208.2545 
L 771.44 208.2545 
Q 773.2 208.2545 773.2 206.4945 
L 773.2 58 
Q 773.2 56.24 771.44 56.24 
L 705.620125 56.24 
Q 703.860125 56.24 703.860125 58 
L 703.860125 206.4945 
Q 703.860125 208.2545 705.620125 208.2545 
z
" style="fill: #eaeaf2; opacity: 0.8; stroke: #cccccc; stroke-width: 0.8; stroke-linejoin: miter"/>
    </g>
    <g id="line2d_13"/>
    <g id="text_21">
     <!-- perc_disc -->
     <g style="fill: #262626" transform="translate(732.020125 66.058875) scale(0.088 -0.088)">
      <defs>
       <path id="ArialMT-70" d="M 422 -1272 
L 422 3319 
L 934 3319 
L 934 2888 
Q 1116 3141 1344 3267 
Q 1572 3394 1897 3394 
Q 2322 3394 2647 3175 
Q 2972 2956 3137 2557 
Q 3303 2159 3303 1684 
Q 3303 1175 3120 767 
Q 2938 359 2589 142 
Q 2241 -75 1856 -75 
Q 1575 -75 1351 44 
Q 1128 163 984 344 
L 984 -1272 
L 422 -1272 
z
M 931 1641 
Q 931 1000 1190 694 
Q 1450 388 1819 388 
Q 2194 388 2461 705 
Q 2728 1022 2728 1688 
Q 2728 2322 2467 2637 
Q 2206 2953 1844 2953 
Q 1484 2953 1207 2617 
Q 931 2281 931 1641 
z
" transform="scale(0.015625)"/>
       <path id="ArialMT-63" d="M 2588 1216 
L 3141 1144 
Q 3050 572 2676 248 
Q 2303 -75 1759 -75 
Q 1078 -75 664 370 
Q 250 816 250 1647 
Q 250 2184 428 2587 
Q 606 2991 970 3192 
Q 1334 3394 1763 3394 
Q 2303 3394 2647 3120 
Q 2991 2847 3088 2344 
L 2541 2259 
Q 2463 2594 2264 2762 
Q 2066 2931 1784 2931 
Q 1359 2931 1093 2626 
Q 828 2322 828 1663 
Q 828 994 1084 691 
Q 1341 388 1753 388 
Q 2084 388 2306 591 
Q 2528 794 2588 1216 
z
" transform="scale(0.015625)"/>
       <path id="ArialMT-5f" d="M -97 -1272 
L -97 -866 
L 3631 -866 
L 3631 -1272 
L -97 -1272 
z
" transform="scale(0.015625)"/>
       <path id="ArialMT-69" d="M 425 3934 
L 425 4581 
L 988 4581 
L 988 3934 
L 425 3934 
z
M 425 0 
L 425 3319 
L 988 3319 
L 988 0 
L 425 0 
z
" transform="scale(0.015625)"/>
       <path id="ArialMT-73" d="M 197 991 
L 753 1078 
Q 800 744 1014 566 
Q 1228 388 1613 388 
Q 2000 388 2187 545 
Q 2375 703 2375 916 
Q 2375 1106 2209 1216 
Q 2094 1291 1634 1406 
Q 1016 1563 777 1677 
Q 538 1791 414 1992 
Q 291 2194 291 2438 
Q 291 2659 392 2848 
Q 494 3038 669 3163 
Q 800 3259 1026 3326 
Q 1253 3394 1513 3394 
Q 1903 3394 2198 3281 
Q 2494 3169 2634 2976 
Q 2775 2784 2828 2463 
L 2278 2388 
Q 2241 2644 2061 2787 
Q 1881 2931 1553 2931 
Q 1166 2931 1000 2803 
Q 834 2675 834 2503 
Q 834 2394 903 2306 
Q 972 2216 1119 2156 
Q 1203 2125 1616 2013 
Q 2213 1853 2448 1751 
Q 2684 1650 2818 1456 
Q 2953 1263 2953 975 
Q 2953 694 2789 445 
Q 2625 197 2315 61 
Q 2006 -75 1616 -75 
Q 969 -75 630 194 
Q 291 463 197 991 
z
" transform="scale(0.015625)"/>
      </defs>
      <use xlink:href="#ArialMT-70"/>
      <use xlink:href="#ArialMT-65" transform="translate(55.615234 0)"/>
      <use xlink:href="#ArialMT-72" transform="translate(111.230469 0)"/>
      <use xlink:href="#ArialMT-63" transform="translate(144.53125 0)"/>
      <use xlink:href="#ArialMT-5f" transform="translate(194.53125 0)"/>
      <use xlink:href="#ArialMT-64" transform="translate(250.146484 0)"/>
      <use xlink:href="#ArialMT-69" transform="translate(305.761719 0)"/>
      <use xlink:href="#ArialMT-73" transform="translate(327.978516 0)"/>
      <use xlink:href="#ArialMT-63" transform="translate(377.978516 0)"/>
     </g>
    </g>
    <g id="line2d_14">
     <defs>
      <path id="me9b5d014dc" d="M 0 1.92 
C 0.50919 1.92 0.997593 1.717697 1.357645 1.357645 
C 1.717697 0.997593 1.92 0.50919 1.92 0 
C 1.92 -0.50919 1.717697 -0.997593 1.357645 -1.357645 
C 0.997593 -1.717697 0.50919 -1.92 0 -1.92 
C -0.50919 -1.92 -0.997593 -1.717697 -1.357645 -1.357645 
C -1.717697 -0.997593 -1.92 -0.50919 -1.92 0 
C -1.92 0.50919 -1.717697 0.997593 -1.357645 1.357645 
C -0.997593 1.717697 -0.50919 1.92 0 1.92 
z
" style="stroke: #ffffff; stroke-opacity: 0.5; stroke-width: 0.423375"/>
     </defs>
     <g>
      <use xlink:href="#me9b5d014dc" x="716.180125" y="75.42675" style="fill: #e6bebc; fill-opacity: 0.5; stroke: #ffffff; stroke-opacity: 0.5; stroke-width: 0.423375"/>
     </g>
    </g>
    <g id="text_22">
     <!-- 15 -->
     <g style="fill: #262626" transform="translate(732.020125 78.50675) scale(0.088 -0.088)">
      <use xlink:href="#ArialMT-31"/>
      <use xlink:href="#ArialMT-35" transform="translate(55.615234 0)"/>
     </g>
    </g>
    <g id="line2d_15">
     <defs>
      <path id="m413b1c05bb" d="M 0 1.92 
C 0.50919 1.92 0.997593 1.717697 1.357645 1.357645 
C 1.717697 0.997593 1.92 0.50919 1.92 0 
C 1.92 -0.50919 1.717697 -0.997593 1.357645 -1.357645 
C 0.997593 -1.717697 0.50919 -1.92 0 -1.92 
C -0.50919 -1.92 -0.997593 -1.717697 -1.357645 -1.357645 
C -1.717697 -0.997593 -1.92 -0.50919 -1.92 0 
C -1.92 0.50919 -1.717697 0.997593 -1.357645 1.357645 
C -0.997593 1.717697 -0.50919 1.92 0 1.92 
z
" style="stroke: #ffffff; stroke-opacity: 0.5; stroke-width: 0.423375"/>
     </defs>
     <g>
      <use xlink:href="#m413b1c05bb" x="716.180125" y="87.874625" style="fill: #d295a5; fill-opacity: 0.5; stroke: #ffffff; stroke-opacity: 0.5; stroke-width: 0.423375"/>
     </g>
    </g>
    <g id="text_23">
     <!-- 18 -->
     <g style="fill: #262626" transform="translate(732.020125 90.954625) scale(0.088 -0.088)">
      <use xlink:href="#ArialMT-31"/>
      <use xlink:href="#ArialMT-38" transform="translate(55.615234 0)"/>
     </g>
    </g>
    <g id="line2d_16">
     <defs>
      <path id="m38dc072fb3" d="M 0 1.92 
C 0.50919 1.92 0.997593 1.717697 1.357645 1.357645 
C 1.717697 0.997593 1.92 0.50919 1.92 0 
C 1.92 -0.50919 1.717697 -0.997593 1.357645 -1.357645 
C 0.997593 -1.717697 0.50919 -1.92 0 -1.92 
C -0.50919 -1.92 -0.997593 -1.717697 -1.357645 -1.357645 
C -1.717697 -0.997593 -1.92 -0.50919 -1.92 0 
C -1.92 0.50919 -1.717697 0.997593 -1.357645 1.357645 
C -0.997593 1.717697 -0.50919 1.92 0 1.92 
z
" style="stroke: #ffffff; stroke-opacity: 0.5; stroke-width: 0.423375"/>
     </defs>
     <g>
      <use xlink:href="#m38dc072fb3" x="716.180125" y="100.3225" style="fill: #b37093; fill-opacity: 0.5; stroke: #ffffff; stroke-opacity: 0.5; stroke-width: 0.423375"/>
     </g>
    </g>
    <g id="text_24">
     <!-- 21 -->
     <g style="fill: #262626" transform="translate(732.020125 103.4025) scale(0.088 -0.088)">
      <use xlink:href="#ArialMT-32"/>
      <use xlink:href="#ArialMT-31" transform="translate(55.615234 0)"/>
     </g>
    </g>
    <g id="line2d_17">
     <defs>
      <path id="m2a4c51595c" d="M 0 1.92 
C 0.50919 1.92 0.997593 1.717697 1.357645 1.357645 
C 1.717697 0.997593 1.92 0.50919 1.92 0 
C 1.92 -0.50919 1.717697 -0.997593 1.357645 -1.357645 
C 0.997593 -1.717697 0.50919 -1.92 0 -1.92 
C -0.50919 -1.92 -0.997593 -1.717697 -1.357645 -1.357645 
C -1.717697 -0.997593 -1.92 -0.50919 -1.92 0 
C -1.92 0.50919 -1.717697 0.997593 -1.357645 1.357645 
C -0.997593 1.717697 -0.50919 1.92 0 1.92 
z
" style="stroke: #ffffff; stroke-opacity: 0.5; stroke-width: 0.423375"/>
     </defs>
     <g>
      <use xlink:href="#m2a4c51595c" x="716.180125" y="112.770375" style="fill: #894f80; fill-opacity: 0.5; stroke: #ffffff; stroke-opacity: 0.5; stroke-width: 0.423375"/>
     </g>
    </g>
    <g id="text_25">
     <!-- 24 -->
     <g style="fill: #262626" transform="translate(732.020125 115.850375) scale(0.088 -0.088)">
      <use xlink:href="#ArialMT-32"/>
      <use xlink:href="#ArialMT-34" transform="translate(55.615234 0)"/>
     </g>
    </g>
    <g id="line2d_18">
     <defs>
      <path id="m47b4583b2f" d="M 0 1.92 
C 0.50919 1.92 0.997593 1.717697 1.357645 1.357645 
C 1.717697 0.997593 1.92 0.50919 1.92 0 
C 1.92 -0.50919 1.717697 -0.997593 1.357645 -1.357645 
C 0.997593 -1.717697 0.50919 -1.92 0 -1.92 
C -0.50919 -1.92 -0.997593 -1.717697 -1.357645 -1.357645 
C -1.717697 -0.997593 -1.92 -0.50919 -1.92 0 
C -1.92 0.50919 -1.717697 0.997593 -1.357645 1.357645 
C -0.997593 1.717697 -0.50919 1.92 0 1.92 
z
" style="stroke: #ffffff; stroke-opacity: 0.5; stroke-width: 0.423375"/>
     </defs>
     <g>
      <use xlink:href="#m47b4583b2f" x="716.180125" y="125.21825" style="fill: #593564; fill-opacity: 0.5; stroke: #ffffff; stroke-opacity: 0.5; stroke-width: 0.423375"/>
     </g>
    </g>
    <g id="text_26">
     <!-- 27 -->
     <g style="fill: #262626" transform="translate(732.020125 128.29825) scale(0.088 -0.088)">
      <use xlink:href="#ArialMT-32"/>
      <use xlink:href="#ArialMT-37" transform="translate(55.615234 0)"/>
     </g>
    </g>
    <g id="line2d_19"/>
    <g id="text_27">
     <!-- items -->
     <g style="fill: #262626" transform="translate(732.020125 140.746125) scale(0.088 -0.088)">
      <defs>
       <path id="ArialMT-6d" d="M 422 0 
L 422 3319 
L 925 3319 
L 925 2853 
Q 1081 3097 1340 3245 
Q 1600 3394 1931 3394 
Q 2300 3394 2536 3241 
Q 2772 3088 2869 2813 
Q 3263 3394 3894 3394 
Q 4388 3394 4653 3120 
Q 4919 2847 4919 2278 
L 4919 0 
L 4359 0 
L 4359 2091 
Q 4359 2428 4304 2576 
Q 4250 2725 4106 2815 
Q 3963 2906 3769 2906 
Q 3419 2906 3187 2673 
Q 2956 2441 2956 1928 
L 2956 0 
L 2394 0 
L 2394 2156 
Q 2394 2531 2256 2718 
Q 2119 2906 1806 2906 
Q 1569 2906 1367 2781 
Q 1166 2656 1075 2415 
Q 984 2175 984 1722 
L 984 0 
L 422 0 
z
" transform="scale(0.015625)"/>
      </defs>
      <use xlink:href="#ArialMT-69"/>
      <use xlink:href="#ArialMT-74" transform="translate(22.216797 0)"/>
      <use xlink:href="#ArialMT-65" transform="translate(50 0)"/>
      <use xlink:href="#ArialMT-6d" transform="translate(105.615234 0)"/>
      <use xlink:href="#ArialMT-73" transform="translate(188.916016 0)"/>
     </g>
    </g>
    <g id="line2d_20">
     <defs>
      <path id="me78d626a67" d="M 0 3.313554 
C 0.878765 3.313554 1.721656 2.964417 2.343037 2.343037 
C 2.964417 1.721656 3.313554 0.878765 3.313554 0 
C 3.313554 -0.878765 2.964417 -1.721656 2.343037 -2.343037 
C 1.721656 -2.964417 0.878765 -3.313554 0 -3.313554 
C -0.878765 -3.313554 -1.721656 -2.964417 -2.343037 -2.343037 
C -2.964417 -1.721656 -3.313554 -0.878765 -3.313554 0 
C -3.313554 0.878765 -2.964417 1.721656 -2.343037 2.343037 
C -1.721656 2.964417 -0.878765 3.313554 0 3.313554 
z
" style="stroke: #ffffff; stroke-opacity: 0.5; stroke-width: 0.423375"/>
     </defs>
     <g>
      <use xlink:href="#me78d626a67" x="716.180125" y="150.114" style="fill: #333333; fill-opacity: 0.5; stroke: #ffffff; stroke-opacity: 0.5; stroke-width: 0.423375"/>
     </g>
    </g>
    <g id="text_28">
     <!-- 1000 -->
     <g style="fill: #262626" transform="translate(732.020125 153.194) scale(0.088 -0.088)">
      <use xlink:href="#ArialMT-31"/>
      <use xlink:href="#ArialMT-30" transform="translate(55.615234 0)"/>
      <use xlink:href="#ArialMT-30" transform="translate(111.230469 0)"/>
      <use xlink:href="#ArialMT-30" transform="translate(166.845703 0)"/>
     </g>
    </g>
    <g id="line2d_21">
     <defs>
      <path id="m7c0128a60b" d="M 0 4.371366 
C 1.1593 4.371366 2.271274 3.910771 3.091022 3.091022 
C 3.910771 2.271274 4.371366 1.1593 4.371366 0 
C 4.371366 -1.1593 3.910771 -2.271274 3.091022 -3.091022 
C 2.271274 -3.910771 1.1593 -4.371366 0 -4.371366 
C -1.1593 -4.371366 -2.271274 -3.910771 -3.091022 -3.091022 
C -3.910771 -2.271274 -4.371366 -1.1593 -4.371366 0 
C -4.371366 1.1593 -3.910771 2.271274 -3.091022 3.091022 
C -2.271274 3.910771 -1.1593 4.371366 0 4.371366 
z
" style="stroke: #ffffff; stroke-opacity: 0.5; stroke-width: 0.423375"/>
     </defs>
     <g>
      <use xlink:href="#m7c0128a60b" x="716.180125" y="162.561875" style="fill: #333333; fill-opacity: 0.5; stroke: #ffffff; stroke-opacity: 0.5; stroke-width: 0.423375"/>
     </g>
    </g>
    <g id="text_29">
     <!-- 2000 -->
     <g style="fill: #262626" transform="translate(732.020125 165.641875) scale(0.088 -0.088)">
      <use xlink:href="#ArialMT-32"/>
      <use xlink:href="#ArialMT-30" transform="translate(55.615234 0)"/>
      <use xlink:href="#ArialMT-30" transform="translate(111.230469 0)"/>
      <use xlink:href="#ArialMT-30" transform="translate(166.845703 0)"/>
     </g>
    </g>
    <g id="line2d_22">
     <defs>
      <path id="mb2249e137c" d="M 0 5.219007 
C 1.384097 5.219007 2.711691 4.669099 3.690395 3.690395 
C 4.669099 2.711691 5.219007 1.384097 5.219007 0 
C 5.219007 -1.384097 4.669099 -2.711691 3.690395 -3.690395 
C 2.711691 -4.669099 1.384097 -5.219007 0 -5.219007 
C -1.384097 -5.219007 -2.711691 -4.669099 -3.690395 -3.690395 
C -4.669099 -2.711691 -5.219007 -1.384097 -5.219007 0 
C -5.219007 1.384097 -4.669099 2.711691 -3.690395 3.690395 
C -2.711691 4.669099 -1.384097 5.219007 0 5.219007 
z
" style="stroke: #ffffff; stroke-opacity: 0.5; stroke-width: 0.423375"/>
     </defs>
     <g>
      <use xlink:href="#mb2249e137c" x="716.180125" y="175.00975" style="fill: #333333; fill-opacity: 0.5; stroke: #ffffff; stroke-opacity: 0.5; stroke-width: 0.423375"/>
     </g>
    </g>
    <g id="text_30">
     <!-- 3000 -->
     <g style="fill: #262626" transform="translate(732.020125 178.08975) scale(0.088 -0.088)">
      <use xlink:href="#ArialMT-33"/>
      <use xlink:href="#ArialMT-30" transform="translate(55.615234 0)"/>
      <use xlink:href="#ArialMT-30" transform="translate(111.230469 0)"/>
      <use xlink:href="#ArialMT-30" transform="translate(166.845703 0)"/>
     </g>
    </g>
    <g id="line2d_23">
     <defs>
      <path id="m800da790ec" d="M 0 5.947035 
C 1.577172 5.947035 3.08996 5.320418 4.205189 4.205189 
C 5.320418 3.08996 5.947035 1.577172 5.947035 0 
C 5.947035 -1.577172 5.320418 -3.08996 4.205189 -4.205189 
C 3.08996 -5.320418 1.577172 -5.947035 0 -5.947035 
C -1.577172 -5.947035 -3.08996 -5.320418 -4.205189 -4.205189 
C -5.320418 -3.08996 -5.947035 -1.577172 -5.947035 0 
C -5.947035 1.577172 -5.320418 3.08996 -4.205189 4.205189 
C -3.08996 5.320418 -1.577172 5.947035 0 5.947035 
z
" style="stroke: #ffffff; stroke-opacity: 0.5; stroke-width: 0.423375"/>
     </defs>
     <g>
      <use xlink:href="#m800da790ec" x="716.180125" y="187.457625" style="fill: #333333; fill-opacity: 0.5; stroke: #ffffff; stroke-opacity: 0.5; stroke-width: 0.423375"/>
     </g>
    </g>
    <g id="text_31">
     <!-- 4000 -->
     <g style="fill: #262626" transform="translate(732.020125 190.537625) scale(0.088 -0.088)">
      <use xlink:href="#ArialMT-34"/>
      <use xlink:href="#ArialMT-30" transform="translate(55.615234 0)"/>
      <use xlink:href="#ArialMT-30" transform="translate(111.230469 0)"/>
      <use xlink:href="#ArialMT-30" transform="translate(166.845703 0)"/>
     </g>
    </g>
    <g id="line2d_24">
     <defs>
      <path id="m17c5f63ef4" d="M 0 6.595182 
C 1.749063 6.595182 3.426724 5.900272 4.663498 4.663498 
C 5.900272 3.426724 6.595182 1.749063 6.595182 0 
C 6.595182 -1.749063 5.900272 -3.426724 4.663498 -4.663498 
C 3.426724 -5.900272 1.749063 -6.595182 0 -6.595182 
C -1.749063 -6.595182 -3.426724 -5.900272 -4.663498 -4.663498 
C -5.900272 -3.426724 -6.595182 -1.749063 -6.595182 0 
C -6.595182 1.749063 -5.900272 3.426724 -4.663498 4.663498 
C -3.426724 5.900272 -1.749063 6.595182 0 6.595182 
z
" style="stroke: #ffffff; stroke-opacity: 0.5; stroke-width: 0.423375"/>
     </defs>
     <g>
      <use xlink:href="#m17c5f63ef4" x="716.180125" y="199.9055" style="fill: #333333; fill-opacity: 0.5; stroke: #ffffff; stroke-opacity: 0.5; stroke-width: 0.423375"/>
     </g>
    </g>
    <g id="text_32">
     <!-- 5000 -->
     <g style="fill: #262626" transform="translate(732.020125 202.9855) scale(0.088 -0.088)">
      <use xlink:href="#ArialMT-35"/>
      <use xlink:href="#ArialMT-30" transform="translate(55.615234 0)"/>
      <use xlink:href="#ArialMT-30" transform="translate(111.230469 0)"/>
      <use xlink:href="#ArialMT-30" transform="translate(166.845703 0)"/>
     </g>
    </g>
   </g>
  </g>
 </g>
 <defs>
  <clipPath id="p188b928bd5">
   <rect x="108" y="51.84" width="669.6" height="332.64"/>
  </clipPath>
 </defs>
</svg>
